<svg xmlns="http://www.w3.org/2000/svg" xmlns:xlink="http://www.w3.org/1999/xlink" width="50" zoomAndPan="magnify" viewBox="0 0 37.5 37.499999" height="50" preserveAspectRatio="xMidYMid meet" version="1.0"><defs><clipPath id="ae1449ed0f"><path d="M 10 15 L 17 15 L 17 28.652344 L 10 28.652344 Z M 10 15 " clip-rule="nonzero"/></clipPath><clipPath id="cf64fae5ca"><path d="M 0.683594 16 L 7 16 L 7 28.652344 L 0.683594 28.652344 Z M 0.683594 16 " clip-rule="nonzero"/></clipPath><clipPath id="1ede2a1763"><path d="M 27 10 L 36.683594 10 L 36.683594 22 L 27 22 Z M 27 10 " clip-rule="nonzero"/></clipPath><clipPath id="0d9ef6b2d0"><path d="M 26 9.152344 L 30 9.152344 L 30 15 L 26 15 Z M 26 9.152344 " clip-rule="nonzero"/></clipPath></defs><path fill="#000000" d="M 25.390625 19.734375 C 25.410156 19.785156 25.382812 19.824219 25.359375 19.855469 C 25.289062 19.945312 25.222656 20.03125 25.148438 20.113281 C 25.027344 20.246094 24.898438 20.378906 24.769531 20.503906 C 24.691406 20.578125 24.605469 20.644531 24.527344 20.71875 C 24.425781 20.8125 24.324219 20.914062 24.222656 21.015625 C 24.246094 21.074219 24.253906 21.136719 24.320312 21.160156 C 24.328125 21.160156 24.339844 21.171875 24.339844 21.175781 C 24.355469 21.257812 24.4375 21.292969 24.476562 21.355469 C 24.515625 21.417969 24.554688 21.480469 24.601562 21.539062 C 24.683594 21.640625 24.769531 21.738281 24.847656 21.839844 C 25.058594 22.109375 25.292969 22.355469 25.527344 22.601562 C 25.648438 22.730469 25.765625 22.863281 25.890625 22.984375 C 26.003906 23.097656 26.125 23.203125 26.246094 23.308594 C 26.554688 23.582031 26.894531 23.808594 27.238281 24.023438 C 27.417969 24.136719 27.617188 24.195312 27.8125 24.277344 C 28.074219 24.394531 28.355469 24.464844 28.636719 24.511719 C 28.808594 24.539062 28.976562 24.566406 29.148438 24.558594 C 29.265625 24.554688 29.382812 24.570312 29.5 24.5625 C 29.605469 24.558594 29.710938 24.539062 29.816406 24.523438 C 30.0625 24.492188 30.304688 24.445312 30.542969 24.371094 C 30.75 24.304688 30.945312 24.210938 31.140625 24.109375 C 31.238281 24.058594 31.34375 24.011719 31.4375 23.949219 C 31.550781 23.882812 31.660156 23.808594 31.765625 23.726562 C 31.921875 23.609375 32.074219 23.492188 32.21875 23.367188 C 32.347656 23.253906 32.449219 23.121094 32.546875 22.980469 C 32.671875 22.804688 32.78125 22.617188 32.878906 22.425781 C 32.90625 22.371094 32.929688 22.316406 32.957031 22.265625 C 32.96875 22.242188 32.992188 22.226562 33.003906 22.214844 C 33.019531 22.164062 33.023438 22.113281 33.042969 22.066406 C 33.195312 21.710938 33.320312 21.34375 33.375 20.960938 C 33.398438 20.800781 33.378906 20.640625 33.324219 20.492188 C 33.289062 20.402344 33.242188 20.316406 33.203125 20.230469 C 33.195312 20.222656 33.1875 20.207031 33.179688 20.207031 C 33.109375 20.199219 33.101562 20.144531 33.089844 20.09375 C 33.074219 20.03125 33.070312 19.96875 33.0625 19.90625 C 33.019531 19.886719 32.980469 19.871094 32.992188 19.808594 C 33.003906 19.746094 33.003906 19.683594 32.960938 19.625 C 32.933594 19.589844 32.925781 19.53125 32.976562 19.488281 C 33.003906 19.46875 33.007812 19.4375 32.964844 19.417969 C 32.921875 19.394531 32.90625 19.351562 32.914062 19.300781 C 32.917969 19.273438 32.921875 19.242188 32.925781 19.214844 C 32.941406 19.132812 33 19.082031 33.078125 19.089844 C 33.09375 19.09375 33.109375 19.113281 33.132812 19.136719 C 33.15625 19.132812 33.199219 19.128906 33.246094 19.121094 C 33.265625 19.160156 33.289062 19.195312 33.308594 19.234375 C 33.324219 19.269531 33.34375 19.277344 33.386719 19.28125 C 33.496094 19.285156 33.589844 19.3125 33.640625 19.433594 C 33.675781 19.515625 33.730469 19.589844 33.78125 19.660156 C 33.804688 19.6875 33.847656 19.707031 33.882812 19.714844 C 33.921875 19.726562 33.9375 19.746094 33.953125 19.777344 C 33.976562 19.824219 34.003906 19.867188 34.019531 19.914062 C 34.066406 20.046875 34.167969 20.144531 34.238281 20.265625 C 34.367188 20.492188 34.484375 20.726562 34.589844 20.964844 C 34.691406 21.1875 34.761719 21.417969 34.816406 21.65625 C 34.847656 21.804688 34.863281 21.957031 34.871094 22.109375 C 34.882812 22.335938 34.882812 22.558594 34.871094 22.785156 C 34.855469 23.035156 34.796875 23.285156 34.71875 23.523438 C 34.660156 23.695312 34.570312 23.847656 34.472656 24 C 34.363281 24.171875 34.253906 24.34375 34.136719 24.507812 C 33.96875 24.746094 33.785156 24.972656 33.5625 25.164062 C 33.347656 25.347656 33.128906 25.527344 32.890625 25.679688 C 32.734375 25.777344 32.570312 25.859375 32.414062 25.953125 C 32.203125 26.078125 31.976562 26.171875 31.746094 26.25 C 31.628906 26.285156 31.507812 26.304688 31.386719 26.332031 C 31.304688 26.347656 31.222656 26.367188 31.136719 26.378906 C 31.019531 26.394531 30.902344 26.410156 30.78125 26.414062 C 30.664062 26.421875 30.539062 26.421875 30.417969 26.425781 C 30.347656 26.425781 30.273438 26.421875 30.203125 26.421875 C 29.863281 26.40625 29.53125 26.355469 29.207031 26.257812 C 28.96875 26.183594 28.730469 26.097656 28.5 26.003906 C 28.234375 25.898438 27.984375 25.757812 27.746094 25.597656 C 27.464844 25.410156 27.183594 25.21875 26.914062 25.015625 C 26.507812 24.710938 26.140625 24.363281 25.800781 23.980469 C 25.699219 23.867188 25.597656 23.757812 25.5 23.640625 C 25.269531 23.359375 25.03125 23.078125 24.808594 22.78125 C 24.554688 22.449219 24.320312 22.109375 24.082031 21.765625 C 23.980469 21.625 23.890625 21.476562 23.792969 21.332031 C 23.691406 21.191406 23.585938 21.054688 23.488281 20.910156 C 23.375 20.742188 23.300781 20.558594 23.265625 20.359375 C 23.226562 20.121094 23.226562 19.886719 23.378906 19.671875 C 23.507812 19.492188 23.613281 19.296875 23.730469 19.113281 C 23.765625 19.050781 23.8125 18.996094 23.851562 18.941406 C 23.867188 18.945312 23.878906 18.945312 23.90625 18.953125 C 23.898438 18.921875 23.890625 18.894531 23.882812 18.863281 C 23.929688 18.800781 23.980469 18.734375 24.03125 18.667969 C 24.050781 18.636719 24.066406 18.601562 24.085938 18.566406 C 24.21875 18.34375 24.351562 18.121094 24.480469 17.894531 C 24.714844 17.503906 24.925781 17.101562 25.082031 16.671875 C 25.203125 16.332031 25.285156 15.988281 25.308594 15.632812 C 25.316406 15.539062 25.328125 15.445312 25.285156 15.355469 C 25.183594 15.320312 25.082031 15.328125 24.984375 15.347656 C 24.789062 15.390625 24.621094 15.488281 24.464844 15.613281 C 24.277344 15.769531 24.136719 15.964844 24.003906 16.164062 C 23.804688 16.460938 23.636719 16.773438 23.523438 17.113281 C 23.496094 17.191406 23.46875 17.269531 23.441406 17.351562 C 23.359375 17.578125 23.316406 17.816406 23.253906 18.050781 C 23.1875 18.316406 23.15625 18.585938 23.125 18.851562 C 23.070312 19.300781 23.03125 19.753906 22.984375 20.203125 C 22.949219 20.507812 22.96875 20.8125 22.976562 21.117188 C 22.988281 21.632812 22.996094 22.148438 23 22.664062 C 23 22.851562 22.980469 23.035156 22.976562 23.222656 C 22.972656 23.382812 22.980469 23.542969 22.976562 23.707031 C 22.96875 23.867188 22.953125 24.027344 22.945312 24.191406 C 22.9375 24.324219 22.941406 24.457031 22.9375 24.589844 C 22.933594 24.707031 22.925781 24.820312 22.921875 24.9375 C 22.921875 24.953125 22.914062 24.964844 22.910156 24.988281 C 22.882812 24.984375 22.84375 24.992188 22.839844 24.980469 C 22.820312 24.945312 22.773438 24.929688 22.769531 24.882812 C 22.765625 24.832031 22.75 24.785156 22.703125 24.75 C 22.699219 24.789062 22.699219 24.828125 22.691406 24.863281 C 22.683594 24.898438 22.625 24.925781 22.609375 24.898438 C 22.589844 24.863281 22.566406 24.867188 22.535156 24.859375 C 22.503906 24.847656 22.464844 24.824219 22.445312 24.796875 C 22.375 24.710938 22.242188 24.671875 22.265625 24.511719 C 22.199219 24.539062 22.171875 24.511719 22.148438 24.46875 C 22.121094 24.417969 22.121094 24.351562 22.058594 24.324219 C 22.058594 24.324219 22.054688 24.320312 22.054688 24.316406 C 21.984375 24.117188 21.871094 23.925781 21.882812 23.699219 C 21.886719 23.632812 21.855469 23.5625 21.851562 23.496094 C 21.816406 22.914062 21.777344 22.328125 21.753906 21.746094 C 21.726562 21.113281 21.710938 20.480469 21.699219 19.847656 C 21.691406 19.417969 21.691406 18.988281 21.6875 18.558594 C 21.683594 18.421875 21.683594 18.289062 21.691406 18.15625 C 21.707031 17.777344 21.71875 17.402344 21.75 17.027344 C 21.773438 16.710938 21.816406 16.390625 21.855469 16.074219 C 21.867188 16 21.886719 15.921875 21.90625 15.847656 C 21.929688 15.773438 21.976562 15.730469 22.023438 15.734375 C 22.054688 15.734375 22.082031 15.75 22.113281 15.757812 C 22.101562 15.804688 22.089844 15.855469 22.074219 15.902344 C 22.078125 15.90625 22.082031 15.90625 22.085938 15.910156 C 22.097656 15.890625 22.105469 15.863281 22.125 15.851562 C 22.144531 15.835938 22.175781 15.828125 22.203125 15.828125 C 22.226562 15.828125 22.253906 15.84375 22.277344 15.851562 C 22.265625 15.945312 22.265625 15.945312 22.347656 15.976562 C 22.351562 15.996094 22.355469 16.023438 22.363281 16.046875 C 22.371094 16.046875 22.382812 16.054688 22.390625 16.050781 C 22.4375 16.042969 22.464844 16.070312 22.460938 16.113281 C 22.457031 16.175781 22.484375 16.207031 22.53125 16.246094 C 22.617188 16.316406 22.675781 16.429688 22.710938 16.53125 C 22.71875 16.546875 22.71875 16.5625 22.730469 16.59375 C 22.75 16.5625 22.765625 16.546875 22.769531 16.527344 C 22.878906 16.113281 23.046875 15.726562 23.257812 15.359375 C 23.429688 15.066406 23.640625 14.808594 23.886719 14.578125 C 24.003906 14.46875 24.132812 14.378906 24.277344 14.324219 C 24.539062 14.226562 24.800781 14.226562 25.042969 14.382812 C 25.152344 14.453125 25.265625 14.519531 25.363281 14.601562 C 25.445312 14.667969 25.507812 14.757812 25.578125 14.835938 C 25.632812 14.898438 25.691406 14.957031 25.738281 15.023438 C 25.792969 15.101562 25.835938 15.1875 25.886719 15.265625 C 26.046875 15.507812 26.179688 15.761719 26.273438 16.039062 C 26.332031 16.222656 26.359375 16.410156 26.375 16.601562 C 26.398438 16.875 26.402344 17.152344 26.375 17.425781 C 26.359375 17.597656 26.324219 17.765625 26.289062 17.933594 C 26.257812 18.082031 26.210938 18.230469 26.171875 18.382812 C 26.167969 18.398438 26.164062 18.414062 26.15625 18.425781 C 26.117188 18.492188 26.089844 18.566406 26.070312 18.640625 C 26.046875 18.710938 26.015625 18.785156 25.980469 18.851562 C 25.894531 19.007812 25.8125 19.164062 25.722656 19.316406 C 25.710938 19.335938 25.671875 19.339844 25.644531 19.34375 C 25.625 19.347656 25.601562 19.34375 25.574219 19.34375 C 25.597656 19.398438 25.640625 19.367188 25.675781 19.386719 C 25.671875 19.402344 25.667969 19.421875 25.65625 19.433594 C 25.578125 19.511719 25.539062 19.621094 25.453125 19.691406 C 25.445312 19.695312 25.441406 19.703125 25.433594 19.707031 C 25.402344 19.660156 25.402344 19.714844 25.390625 19.722656 C 25.386719 19.722656 25.386719 19.726562 25.382812 19.730469 C 25.363281 19.714844 25.339844 19.699219 25.316406 19.6875 C 25.265625 19.753906 25.328125 19.746094 25.34375 19.777344 C 25.371094 19.761719 25.378906 19.75 25.390625 19.734375 Z M 32.285156 25.824219 C 32.214844 25.839844 32.167969 25.847656 32.117188 25.859375 C 32.078125 25.867188 32.074219 25.890625 32.097656 25.929688 C 32.160156 25.90625 32.226562 25.898438 32.285156 25.824219 Z M 31.371094 24.238281 C 31.425781 24.203125 31.503906 24.285156 31.566406 24.1875 C 31.488281 24.203125 31.417969 24.152344 31.371094 24.238281 Z M 30.710938 26.304688 C 30.71875 26.324219 30.722656 26.34375 30.726562 26.351562 C 30.753906 26.328125 30.777344 26.308594 30.804688 26.285156 C 30.769531 26.253906 30.738281 26.273438 30.710938 26.304688 Z M 24.09375 18.675781 C 24.132812 18.695312 24.160156 18.707031 24.183594 18.683594 C 24.195312 18.671875 24.195312 18.648438 24.199219 18.613281 C 24.15625 18.640625 24.128906 18.65625 24.09375 18.675781 Z M 33.089844 19.585938 C 33.089844 19.582031 33.09375 19.574219 33.09375 19.566406 C 33.078125 19.550781 33.058594 19.535156 33.039062 19.519531 C 33.015625 19.546875 33.011719 19.574219 33.035156 19.589844 C 33.046875 19.597656 33.070312 19.585938 33.089844 19.585938 Z M 31.988281 25.941406 C 31.953125 25.960938 31.933594 25.980469 31.945312 26.019531 C 31.996094 26.011719 32 25.984375 31.988281 25.941406 Z M 30.832031 24.527344 C 30.828125 24.519531 30.828125 24.511719 30.828125 24.503906 C 30.796875 24.488281 30.777344 24.5 30.757812 24.539062 C 30.789062 24.53125 30.8125 24.53125 30.832031 24.527344 Z M 21.882812 18.398438 C 21.894531 18.394531 21.902344 18.390625 21.910156 18.390625 C 21.90625 18.371094 21.902344 18.355469 21.898438 18.335938 C 21.886719 18.339844 21.875 18.347656 21.859375 18.351562 C 21.871094 18.367188 21.875 18.382812 21.882812 18.398438 Z M 25.683594 18.289062 C 25.671875 18.308594 25.65625 18.316406 25.65625 18.328125 C 25.65625 18.339844 25.671875 18.351562 25.675781 18.359375 C 25.6875 18.351562 25.703125 18.34375 25.707031 18.332031 C 25.707031 18.324219 25.695312 18.308594 25.683594 18.289062 Z M 24.21875 18.855469 C 24.210938 18.847656 24.207031 18.839844 24.199219 18.828125 C 24.183594 18.839844 24.171875 18.851562 24.15625 18.863281 C 24.160156 18.867188 24.164062 18.875 24.167969 18.882812 C 24.183594 18.875 24.203125 18.863281 24.21875 18.855469 Z M 24.679688 18.519531 C 24.660156 18.535156 24.644531 18.542969 24.628906 18.554688 C 24.675781 18.578125 24.675781 18.578125 24.679688 18.519531 Z M 26.222656 17.148438 C 26.21875 17.140625 26.21875 17.136719 26.21875 17.128906 C 26.191406 17.128906 26.167969 17.132812 26.136719 17.136719 C 26.171875 17.195312 26.195312 17.148438 26.222656 17.148438 Z M 31.691406 24.105469 C 31.6875 24.101562 31.6875 24.097656 31.683594 24.09375 C 31.664062 24.109375 31.644531 24.121094 31.628906 24.132812 C 31.628906 24.136719 31.632812 24.140625 31.632812 24.140625 C 31.652344 24.128906 31.671875 24.117188 31.691406 24.105469 Z M 24.402344 18.589844 C 24.410156 18.589844 24.417969 18.589844 24.425781 18.585938 C 24.425781 18.570312 24.425781 18.554688 24.425781 18.535156 C 24.417969 18.539062 24.410156 18.539062 24.410156 18.542969 C 24.40625 18.558594 24.402344 18.574219 24.402344 18.589844 Z M 24.855469 15.320312 C 24.851562 15.316406 24.851562 15.308594 24.851562 15.300781 C 24.832031 15.304688 24.816406 15.308594 24.800781 15.3125 C 24.800781 15.316406 24.800781 15.324219 24.804688 15.332031 C 24.820312 15.328125 24.839844 15.324219 24.855469 15.320312 Z M 31.300781 26.167969 C 31.296875 26.175781 31.296875 26.179688 31.292969 26.1875 C 31.304688 26.195312 31.320312 26.203125 31.335938 26.210938 C 31.339844 26.203125 31.34375 26.191406 31.34375 26.1875 C 31.332031 26.183594 31.316406 26.175781 31.300781 26.167969 Z M 24.398438 15.570312 C 24.402344 15.578125 24.40625 15.582031 24.410156 15.589844 C 24.421875 15.582031 24.433594 15.574219 24.449219 15.566406 C 24.445312 15.5625 24.445312 15.558594 24.441406 15.554688 C 24.425781 15.558594 24.414062 15.566406 24.398438 15.570312 Z M 21.957031 18.453125 C 21.949219 18.453125 21.945312 18.453125 21.9375 18.457031 C 21.941406 18.46875 21.945312 18.484375 21.949219 18.496094 C 21.953125 18.492188 21.957031 18.492188 21.960938 18.492188 C 21.960938 18.476562 21.957031 18.464844 21.957031 18.453125 Z M 30.953125 24.503906 C 30.960938 24.488281 30.964844 24.480469 30.964844 24.472656 C 30.964844 24.46875 30.957031 24.460938 30.949219 24.457031 C 30.945312 24.460938 30.933594 24.46875 30.933594 24.472656 C 30.929688 24.480469 30.941406 24.488281 30.953125 24.503906 Z M 30.285156 24.632812 C 30.292969 24.621094 30.304688 24.613281 30.308594 24.605469 C 30.308594 24.601562 30.296875 24.589844 30.292969 24.585938 C 30.285156 24.59375 30.273438 24.601562 30.265625 24.609375 C 30.269531 24.617188 30.273438 24.621094 30.285156 24.632812 Z M 31.6875 26.050781 C 31.683594 26.0625 31.675781 26.070312 31.675781 26.078125 C 31.679688 26.085938 31.6875 26.089844 31.691406 26.097656 C 31.695312 26.089844 31.703125 26.082031 31.703125 26.074219 C 31.703125 26.066406 31.691406 26.0625 31.6875 26.050781 Z M 31.6875 26.050781 " fill-opacity="1" fill-rule="nonzero"/><g clip-path="url(#ae1449ed0f)"><path fill="#000000" d="M 12.351562 19.640625 C 12.386719 19.554688 12.417969 19.492188 12.441406 19.425781 C 12.601562 19.023438 12.757812 18.621094 12.914062 18.214844 C 13.027344 17.921875 13.132812 17.628906 13.253906 17.339844 C 13.308594 17.207031 13.351562 17.074219 13.410156 16.945312 C 13.46875 16.8125 13.511719 16.675781 13.574219 16.546875 C 13.65625 16.367188 13.714844 16.175781 13.804688 16 C 13.855469 15.902344 13.90625 15.800781 13.957031 15.703125 C 13.980469 15.667969 14.007812 15.632812 14.042969 15.605469 C 14.085938 15.570312 14.136719 15.53125 14.199219 15.554688 C 14.25 15.574219 14.3125 15.558594 14.347656 15.628906 C 14.359375 15.660156 14.414062 15.679688 14.457031 15.6875 C 14.515625 15.699219 14.558594 15.726562 14.597656 15.777344 C 14.660156 15.859375 14.730469 15.929688 14.789062 16.011719 C 14.835938 16.074219 14.867188 16.144531 14.910156 16.207031 C 14.933594 16.246094 14.964844 16.277344 14.984375 16.3125 C 15.003906 16.347656 15.046875 16.378906 15.023438 16.425781 C 15.050781 16.449219 15.082031 16.46875 15.097656 16.496094 C 15.199219 16.679688 15.285156 16.871094 15.339844 17.074219 C 15.378906 17.242188 15.421875 17.410156 15.457031 17.582031 C 15.488281 17.75 15.515625 17.917969 15.539062 18.085938 C 15.566406 18.269531 15.578125 18.453125 15.601562 18.632812 C 15.625 18.820312 15.652344 19.003906 15.671875 19.1875 C 15.699219 19.464844 15.726562 19.742188 15.753906 20.019531 C 15.757812 20.066406 15.777344 20.125 15.683594 20.136719 C 15.777344 20.171875 15.773438 20.234375 15.777344 20.296875 C 15.800781 20.636719 15.828125 20.972656 15.851562 21.3125 C 15.882812 21.753906 15.914062 22.199219 15.941406 22.640625 C 15.976562 23.246094 16.003906 23.847656 16.035156 24.453125 C 16.066406 25.042969 16.089844 25.632812 16.113281 26.222656 C 16.121094 26.453125 16.132812 26.683594 16.140625 26.914062 C 16.140625 26.984375 16.136719 27.058594 16.140625 27.128906 C 16.140625 27.15625 16.148438 27.191406 16.109375 27.195312 C 16.078125 27.203125 16.042969 27.191406 16.03125 27.152344 C 16.003906 27.085938 15.984375 27.019531 15.957031 26.953125 C 15.949219 26.933594 15.9375 26.917969 15.925781 26.890625 C 15.890625 26.933594 15.902344 26.972656 15.90625 27.011719 C 15.914062 27.046875 15.929688 27.082031 15.890625 27.105469 C 15.859375 27.121094 15.828125 27.125 15.800781 27.089844 C 15.789062 27.078125 15.765625 27.078125 15.75 27.070312 C 15.726562 27.058594 15.699219 27.046875 15.679688 27.027344 C 15.621094 26.984375 15.589844 26.914062 15.519531 26.878906 C 15.484375 26.863281 15.476562 26.796875 15.453125 26.742188 C 15.402344 26.742188 15.375 26.703125 15.34375 26.65625 C 15.3125 26.601562 15.265625 26.558594 15.242188 26.503906 C 15.160156 26.320312 15.082031 26.132812 15.058594 25.929688 C 15.035156 25.742188 15.007812 25.558594 14.988281 25.371094 C 14.941406 24.945312 14.898438 24.523438 14.859375 24.097656 C 14.828125 23.8125 14.800781 23.527344 14.769531 23.242188 C 14.742188 22.949219 14.714844 22.660156 14.691406 22.371094 C 14.664062 22.054688 14.652344 21.738281 14.628906 21.425781 C 14.605469 21.148438 14.582031 20.875 14.558594 20.597656 C 14.53125 20.222656 14.507812 19.851562 14.480469 19.476562 C 14.457031 19.191406 14.4375 18.902344 14.414062 18.617188 C 14.402344 18.433594 14.386719 18.246094 14.363281 18.058594 C 14.332031 18.117188 14.328125 18.191406 14.25 18.210938 C 14.308594 18.324219 14.242188 18.410156 14.210938 18.503906 C 14.195312 18.554688 14.171875 18.605469 14.152344 18.65625 C 14.101562 18.820312 14.050781 18.988281 14.003906 19.152344 C 13.921875 19.453125 13.847656 19.753906 13.761719 20.054688 C 13.707031 20.238281 13.640625 20.417969 13.582031 20.601562 C 13.566406 20.644531 13.542969 20.675781 13.484375 20.691406 C 13.546875 20.726562 13.542969 20.769531 13.519531 20.820312 C 13.46875 20.925781 13.433594 21.03125 13.390625 21.136719 C 13.328125 21.285156 13.265625 21.4375 13.199219 21.582031 C 13.175781 21.636719 13.144531 21.683594 13.117188 21.730469 C 13.070312 21.804688 13 21.828125 12.921875 21.800781 C 12.875 21.785156 12.875 21.785156 12.839844 21.703125 C 12.707031 21.765625 12.597656 21.695312 12.496094 21.621094 C 12.390625 21.539062 12.285156 21.460938 12.21875 21.339844 C 12.1875 21.28125 12.132812 21.238281 12.089844 21.183594 C 11.964844 21.019531 11.878906 20.835938 11.8125 20.640625 C 11.757812 20.480469 11.707031 20.320312 11.652344 20.160156 C 11.644531 20.136719 11.632812 20.109375 11.609375 20.085938 C 11.605469 20.160156 11.601562 20.234375 11.597656 20.308594 C 11.574219 20.785156 11.546875 21.261719 11.558594 21.738281 C 11.570312 22.226562 11.578125 22.710938 11.601562 23.191406 C 11.609375 23.460938 11.640625 23.726562 11.664062 23.996094 C 11.699219 24.398438 11.730469 24.804688 11.761719 25.207031 C 11.765625 25.246094 11.757812 25.289062 11.753906 25.328125 C 11.753906 25.339844 11.742188 25.347656 11.746094 25.355469 C 11.808594 25.46875 11.789062 25.59375 11.792969 25.710938 C 11.808594 26.367188 11.816406 27.023438 11.824219 27.679688 C 11.824219 27.945312 11.808594 28.210938 11.800781 28.476562 C 11.800781 28.515625 11.789062 28.554688 11.78125 28.59375 C 11.777344 28.625 11.757812 28.648438 11.722656 28.640625 C 11.703125 28.636719 11.679688 28.617188 11.671875 28.597656 C 11.660156 28.566406 11.65625 28.527344 11.648438 28.488281 C 11.644531 28.464844 11.640625 28.445312 11.617188 28.421875 C 11.613281 28.453125 11.613281 28.480469 11.605469 28.507812 C 11.585938 28.578125 11.566406 28.578125 11.496094 28.558594 C 11.429688 28.539062 11.375 28.519531 11.347656 28.449219 C 11.347656 28.449219 11.34375 28.441406 11.34375 28.441406 C 11.300781 28.445312 11.28125 28.421875 11.265625 28.390625 C 11.25 28.359375 11.246094 28.324219 11.238281 28.285156 C 11.222656 28.285156 11.203125 28.292969 11.191406 28.289062 C 11.179688 28.28125 11.167969 28.261719 11.160156 28.246094 C 11.140625 28.203125 11.128906 28.160156 11.082031 28.136719 C 11.070312 28.132812 11.066406 28.113281 11.0625 28.097656 C 10.976562 27.910156 10.945312 27.707031 10.933594 27.5 C 10.910156 27.046875 10.882812 26.59375 10.863281 26.144531 C 10.851562 25.871094 10.855469 25.59375 10.851562 25.320312 C 10.839844 24.859375 10.832031 24.398438 10.8125 23.9375 C 10.792969 23.382812 10.753906 22.828125 10.75 22.273438 C 10.746094 21.695312 10.769531 21.117188 10.789062 20.539062 C 10.800781 20.234375 10.835938 19.929688 10.859375 19.625 C 10.871094 19.507812 10.871094 19.390625 10.882812 19.269531 C 10.886719 19.222656 10.898438 19.175781 10.910156 19.128906 C 10.914062 19.121094 10.917969 19.117188 10.917969 19.113281 C 10.878906 18.957031 10.925781 18.808594 10.949219 18.664062 C 10.96875 18.515625 11.011719 18.371094 11.046875 18.226562 C 11.0625 18.175781 11.085938 18.125 11.109375 18.078125 C 11.140625 18.019531 11.175781 18.007812 11.242188 18.019531 C 11.257812 18.023438 11.273438 18.019531 11.289062 18.023438 C 11.300781 18.023438 11.324219 18.019531 11.332031 18.027344 C 11.378906 18.089844 11.464844 18.089844 11.511719 18.140625 C 11.621094 18.261719 11.75 18.363281 11.824219 18.519531 C 11.886719 18.648438 11.972656 18.761719 12.042969 18.886719 C 12.164062 19.09375 12.238281 19.316406 12.3125 19.542969 C 12.320312 19.566406 12.332031 19.589844 12.351562 19.640625 Z M 14.167969 15.714844 C 14.152344 15.714844 14.128906 15.710938 14.128906 15.710938 C 14.113281 15.753906 14.078125 15.757812 14.042969 15.761719 C 14.035156 15.761719 14.023438 15.792969 14.027344 15.804688 C 14.03125 15.816406 14.054688 15.828125 14.066406 15.828125 C 14.128906 15.824219 14.152344 15.796875 14.167969 15.714844 Z M 13.328125 20.800781 C 13.308594 20.78125 13.296875 20.769531 13.28125 20.753906 C 13.265625 20.78125 13.253906 20.800781 13.238281 20.824219 C 13.242188 20.828125 13.246094 20.832031 13.25 20.835938 C 13.273438 20.824219 13.292969 20.816406 13.328125 20.800781 Z M 15.203125 21.449219 C 15.183594 21.441406 15.171875 21.429688 15.160156 21.429688 C 15.152344 21.433594 15.144531 21.449219 15.136719 21.460938 C 15.148438 21.46875 15.160156 21.484375 15.167969 21.484375 C 15.175781 21.480469 15.1875 21.464844 15.203125 21.449219 Z M 15.222656 21.617188 C 15.226562 21.617188 15.234375 21.617188 15.238281 21.621094 C 15.238281 21.605469 15.238281 21.59375 15.242188 21.582031 C 15.238281 21.582031 15.230469 21.582031 15.226562 21.578125 C 15.226562 21.59375 15.222656 21.605469 15.222656 21.617188 Z M 13.34375 21.109375 C 13.335938 21.121094 13.328125 21.128906 13.328125 21.132812 C 13.332031 21.144531 13.339844 21.152344 13.347656 21.160156 C 13.355469 21.152344 13.363281 21.144531 13.371094 21.136719 C 13.363281 21.128906 13.355469 21.121094 13.34375 21.109375 Z M 13.34375 21.109375 " fill-opacity="1" fill-rule="nonzero"/></g><path fill="#000000" d="M 19.109375 16.230469 C 19.144531 16.273438 19.171875 16.3125 19.203125 16.351562 C 19.429688 16.621094 19.632812 16.902344 19.800781 17.210938 C 19.964844 17.515625 20.121094 17.824219 20.261719 18.144531 C 20.390625 18.449219 20.496094 18.761719 20.582031 19.082031 C 20.6875 19.488281 20.785156 19.902344 20.832031 20.324219 C 20.859375 20.558594 20.878906 20.796875 20.898438 21.03125 C 20.898438 21.058594 20.890625 21.085938 20.886719 21.113281 C 20.882812 21.125 20.882812 21.136719 20.882812 21.144531 C 20.894531 21.210938 20.910156 21.273438 20.914062 21.335938 C 20.925781 21.769531 20.921875 22.207031 20.882812 22.636719 C 20.859375 22.910156 20.828125 23.183594 20.757812 23.449219 C 20.699219 23.664062 20.625 23.871094 20.527344 24.070312 C 20.457031 24.214844 20.382812 24.355469 20.292969 24.488281 C 20.210938 24.613281 20.121094 24.730469 19.996094 24.816406 C 19.867188 24.90625 19.730469 24.933594 19.578125 24.917969 C 19.449219 24.902344 19.328125 24.859375 19.214844 24.796875 C 19.199219 24.789062 19.1875 24.785156 19.171875 24.78125 C 18.929688 24.703125 18.726562 24.554688 18.527344 24.394531 C 18.246094 24.167969 18.023438 23.886719 17.824219 23.585938 C 17.675781 23.371094 17.535156 23.152344 17.417969 22.917969 C 17.34375 22.773438 17.277344 22.621094 17.214844 22.46875 C 17.132812 22.269531 17.054688 22.066406 16.984375 21.859375 C 16.816406 21.375 16.695312 20.878906 16.609375 20.375 C 16.574219 20.15625 16.542969 19.9375 16.511719 19.71875 C 16.503906 19.671875 16.488281 19.621094 16.523438 19.578125 C 16.527344 19.574219 16.523438 19.558594 16.519531 19.554688 C 16.460938 19.453125 16.492188 19.34375 16.488281 19.234375 C 16.488281 19.203125 16.488281 19.167969 16.484375 19.136719 C 16.484375 19.109375 16.472656 19.082031 16.472656 19.054688 C 16.480469 18.648438 16.476562 18.238281 16.578125 17.835938 C 16.613281 17.699219 16.652344 17.558594 16.707031 17.429688 C 16.730469 17.378906 16.757812 17.328125 16.789062 17.28125 C 16.871094 17.160156 16.917969 17.144531 17.070312 17.191406 C 17.066406 17.207031 17.0625 17.222656 17.0625 17.246094 C 17.175781 17.226562 17.234375 17.289062 17.289062 17.375 C 17.359375 17.492188 17.429688 17.613281 17.5 17.734375 C 17.515625 17.769531 17.527344 17.816406 17.527344 17.859375 C 17.535156 18.09375 17.539062 18.332031 17.539062 18.570312 C 17.535156 18.976562 17.546875 19.378906 17.585938 19.785156 C 17.613281 20.042969 17.632812 20.304688 17.671875 20.5625 C 17.695312 20.742188 17.738281 20.921875 17.777344 21.101562 C 17.816406 21.285156 17.859375 21.464844 17.902344 21.648438 C 17.910156 21.691406 17.925781 21.730469 17.9375 21.769531 C 17.945312 21.789062 17.957031 21.808594 17.957031 21.824219 C 17.941406 21.933594 18.015625 22.019531 18.039062 22.117188 C 18.089844 22.308594 18.160156 22.488281 18.230469 22.671875 C 18.261719 22.75 18.300781 22.824219 18.34375 22.894531 C 18.515625 23.175781 18.90625 23.191406 19.125 23.019531 C 19.21875 22.945312 19.304688 22.863281 19.375 22.765625 C 19.464844 22.644531 19.546875 22.515625 19.617188 22.378906 C 19.808594 22 19.90625 21.59375 19.964844 21.175781 C 20.035156 20.625 20.023438 20.078125 19.964844 19.53125 C 19.910156 18.992188 19.796875 18.472656 19.617188 17.964844 C 19.542969 17.765625 19.449219 17.570312 19.339844 17.386719 C 19.171875 17.097656 18.953125 16.855469 18.699219 16.648438 C 18.613281 16.578125 18.609375 16.582031 18.515625 16.636719 C 18.332031 16.742188 18.148438 16.847656 17.96875 16.949219 C 17.847656 17.011719 17.71875 17.023438 17.585938 17.03125 C 17.570312 17.03125 17.546875 17.03125 17.53125 17.023438 C 17.332031 16.945312 17.128906 16.867188 17.023438 16.65625 C 17.007812 16.621094 16.976562 16.589844 16.953125 16.558594 C 16.851562 16.417969 16.804688 16.253906 16.785156 16.085938 C 16.761719 15.902344 16.8125 15.742188 16.949219 15.605469 C 17.144531 15.414062 17.375 15.339844 17.636719 15.355469 C 17.65625 15.355469 17.675781 15.355469 17.695312 15.359375 C 17.8125 15.402344 17.894531 15.347656 17.980469 15.273438 C 18.175781 15.101562 18.378906 14.933594 18.574219 14.761719 C 18.949219 14.4375 19.320312 14.109375 19.695312 13.78125 C 19.828125 13.664062 19.960938 13.550781 20.089844 13.429688 C 20.238281 13.296875 20.375 13.152344 20.53125 13.027344 C 20.679688 12.898438 20.839844 12.785156 21 12.667969 C 21.097656 12.59375 21.207031 12.535156 21.304688 12.464844 C 21.4375 12.371094 21.558594 12.269531 21.691406 12.175781 C 21.875 12.046875 22.058594 11.917969 22.246094 11.796875 C 22.367188 11.71875 22.496094 11.65625 22.617188 11.582031 C 22.707031 11.527344 22.792969 11.539062 22.886719 11.5625 C 22.863281 11.585938 22.84375 11.605469 22.824219 11.628906 C 22.828125 11.632812 22.832031 11.640625 22.835938 11.644531 C 22.910156 11.628906 22.984375 11.605469 23.054688 11.671875 C 23.050781 11.6875 23.042969 11.710938 23.03125 11.738281 C 23.058594 11.75 23.082031 11.761719 23.121094 11.777344 C 23.09375 11.800781 23.074219 11.816406 23.03125 11.84375 C 23.09375 11.851562 23.132812 11.859375 23.1875 11.863281 C 23.261719 11.949219 23.144531 11.988281 23.117188 12.066406 C 23.148438 12.058594 23.171875 12.058594 23.1875 12.050781 C 23.21875 12.03125 23.246094 12.023438 23.269531 12.058594 C 23.292969 12.09375 23.273438 12.121094 23.238281 12.144531 C 23.230469 12.148438 23.226562 12.152344 23.21875 12.160156 C 23.28125 12.179688 23.28125 12.179688 23.332031 12.125 C 23.332031 12.152344 23.332031 12.175781 23.332031 12.195312 C 23.433594 12.261719 23.449219 12.339844 23.375 12.441406 C 23.386719 12.460938 23.398438 12.484375 23.410156 12.507812 C 23.40625 12.515625 23.402344 12.523438 23.398438 12.527344 C 23.265625 12.636719 23.128906 12.738281 23 12.851562 C 22.792969 13.035156 22.589844 13.222656 22.382812 13.410156 C 22.355469 13.433594 22.316406 13.449219 22.296875 13.464844 C 22.273438 13.503906 22.257812 13.539062 22.234375 13.5625 C 22.074219 13.710938 21.925781 13.871094 21.777344 14.03125 C 21.589844 14.238281 21.386719 14.425781 21.167969 14.597656 C 20.992188 14.738281 20.824219 14.882812 20.652344 15.019531 C 20.445312 15.1875 20.230469 15.347656 20.019531 15.515625 C 19.835938 15.660156 19.660156 15.808594 19.46875 15.949219 C 19.375 16.019531 19.289062 16.097656 19.191406 16.164062 C 19.15625 16.1875 19.136719 16.207031 19.109375 16.230469 Z M 19.570312 15.566406 C 19.566406 15.546875 19.566406 15.523438 19.5625 15.5 C 19.554688 15.503906 19.546875 15.507812 19.539062 15.507812 C 19.550781 15.527344 19.5625 15.546875 19.570312 15.566406 C 19.582031 15.589844 19.59375 15.613281 19.605469 15.640625 C 19.625 15.597656 19.625 15.597656 19.570312 15.566406 Z M 18.863281 15.542969 C 18.765625 15.59375 18.683594 15.667969 18.59375 15.734375 C 18.589844 15.738281 18.59375 15.753906 18.59375 15.765625 C 18.714844 15.726562 18.8125 15.660156 18.863281 15.542969 Z M 18.925781 15.511719 C 19.015625 15.464844 19.070312 15.394531 19.144531 15.355469 C 19.148438 15.351562 19.148438 15.332031 19.148438 15.3125 C 19.089844 15.335938 18.960938 15.445312 18.925781 15.511719 Z M 22.910156 12.207031 C 22.863281 12.222656 22.800781 12.21875 22.777344 12.292969 C 22.828125 12.257812 22.867188 12.234375 22.910156 12.207031 Z M 22.296875 12.609375 C 22.304688 12.621094 22.308594 12.628906 22.3125 12.636719 C 22.34375 12.617188 22.371094 12.597656 22.402344 12.574219 C 22.398438 12.570312 22.394531 12.5625 22.390625 12.554688 C 22.359375 12.574219 22.328125 12.59375 22.296875 12.609375 Z M 18.171875 16.703125 C 18.171875 16.710938 18.175781 16.71875 18.175781 16.726562 C 18.207031 16.714844 18.242188 16.734375 18.277344 16.679688 C 18.230469 16.691406 18.203125 16.695312 18.171875 16.703125 Z M 20.402344 14.242188 C 20.371094 14.261719 20.359375 14.273438 20.328125 14.292969 C 20.375 14.300781 20.394531 14.292969 20.402344 14.242188 Z M 21.390625 13.421875 C 21.390625 13.417969 21.386719 13.410156 21.382812 13.402344 C 21.363281 13.40625 21.335938 13.402344 21.347656 13.449219 C 21.363281 13.4375 21.378906 13.429688 21.390625 13.421875 Z M 22.46875 11.828125 C 22.449219 11.820312 22.441406 11.8125 22.433594 11.8125 C 22.425781 11.8125 22.417969 11.828125 22.417969 11.832031 C 22.421875 11.839844 22.429688 11.855469 22.4375 11.855469 C 22.441406 11.855469 22.453125 11.84375 22.46875 11.828125 Z M 19.890625 15.515625 C 19.882812 15.507812 19.875 15.503906 19.871094 15.496094 C 19.859375 15.507812 19.847656 15.523438 19.832031 15.539062 C 19.835938 15.542969 19.84375 15.546875 19.847656 15.550781 C 19.863281 15.539062 19.875 15.527344 19.890625 15.515625 Z M 22.660156 12.378906 C 22.65625 12.375 22.652344 12.367188 22.644531 12.359375 C 22.628906 12.375 22.613281 12.386719 22.597656 12.398438 C 22.605469 12.40625 22.609375 12.410156 22.613281 12.417969 C 22.628906 12.40625 22.644531 12.394531 22.660156 12.378906 Z M 21.617188 12.433594 C 21.617188 12.429688 21.613281 12.421875 21.613281 12.417969 C 21.597656 12.425781 21.582031 12.433594 21.5625 12.4375 C 21.566406 12.441406 21.566406 12.445312 21.566406 12.449219 C 21.585938 12.445312 21.601562 12.441406 21.617188 12.433594 Z M 20.359375 13.449219 C 20.355469 13.441406 20.351562 13.4375 20.347656 13.433594 C 20.335938 13.441406 20.328125 13.449219 20.316406 13.460938 C 20.316406 13.460938 20.320312 13.46875 20.324219 13.472656 C 20.335938 13.464844 20.347656 13.457031 20.359375 13.449219 Z M 22.007812 12.148438 C 22.007812 12.140625 22.007812 12.136719 22.003906 12.128906 C 21.992188 12.132812 21.976562 12.136719 21.964844 12.140625 C 21.964844 12.144531 21.96875 12.15625 21.96875 12.15625 C 21.984375 12.152344 21.996094 12.148438 22.007812 12.148438 Z M 22.257812 11.976562 C 22.253906 11.964844 22.25 11.960938 22.246094 11.957031 C 22.238281 11.960938 22.226562 11.96875 22.21875 11.972656 C 22.21875 11.972656 22.226562 11.988281 22.226562 11.988281 C 22.234375 11.984375 22.246094 11.980469 22.257812 11.976562 Z M 19.542969 15.035156 C 19.527344 15.019531 19.519531 15.007812 19.511719 15.007812 C 19.503906 15.011719 19.496094 15.023438 19.492188 15.03125 C 19.488281 15.03125 19.5 15.046875 19.507812 15.046875 C 19.515625 15.046875 19.523438 15.042969 19.542969 15.035156 Z M 19.753906 24.75 C 19.746094 24.742188 19.738281 24.734375 19.730469 24.730469 C 19.726562 24.730469 19.71875 24.738281 19.71875 24.738281 C 19.71875 24.746094 19.722656 24.757812 19.730469 24.761719 C 19.734375 24.761719 19.742188 24.753906 19.753906 24.75 Z M 20.039062 14.574219 C 20.027344 14.566406 20.019531 14.554688 20.015625 14.558594 C 20.011719 14.558594 20.003906 14.570312 20.003906 14.578125 C 20.003906 14.582031 20.007812 14.589844 20.011719 14.597656 C 20.019531 14.589844 20.027344 14.582031 20.039062 14.574219 Z M 20.039062 14.574219 " fill-opacity="1" fill-rule="nonzero"/><g clip-path="url(#cf64fae5ca)"><path fill="#000000" d="M 5.03125 26.316406 C 5.011719 26.285156 5 26.265625 4.984375 26.242188 C 4.976562 26.25 4.964844 26.257812 4.964844 26.257812 C 4.976562 26.292969 4.992188 26.328125 5.015625 26.375 C 4.972656 26.496094 4.914062 26.632812 4.820312 26.753906 C 4.8125 26.765625 4.816406 26.78125 4.808594 26.792969 C 4.773438 26.867188 4.746094 26.941406 4.703125 27.011719 C 4.695312 27.027344 4.660156 27.035156 4.628906 27.046875 C 4.644531 27.0625 4.65625 27.074219 4.664062 27.085938 C 4.632812 27.152344 4.597656 27.21875 4.570312 27.285156 C 4.550781 27.339844 4.523438 27.378906 4.457031 27.359375 C 4.453125 27.355469 4.441406 27.363281 4.433594 27.367188 C 4.480469 27.421875 4.480469 27.425781 4.441406 27.476562 C 4.363281 27.570312 4.277344 27.640625 4.164062 27.6875 C 4.117188 27.707031 4.070312 27.746094 4.035156 27.785156 C 3.957031 27.871094 3.886719 27.960938 3.8125 28.046875 C 3.773438 28.09375 3.730469 28.140625 3.6875 28.179688 C 3.636719 28.222656 3.578125 28.25 3.503906 28.21875 C 3.515625 28.191406 3.527344 28.171875 3.539062 28.144531 C 3.46875 28.15625 3.40625 28.167969 3.332031 28.179688 C 3.332031 28.222656 3.328125 28.28125 3.328125 28.339844 C 3.328125 28.359375 3.332031 28.378906 3.324219 28.394531 C 3.320312 28.410156 3.304688 28.429688 3.292969 28.429688 C 3.277344 28.433594 3.253906 28.425781 3.246094 28.414062 C 3.222656 28.375 3.199219 28.328125 3.179688 28.285156 C 3.164062 28.253906 3.148438 28.222656 3.136719 28.1875 C 3.128906 28.1875 3.121094 28.191406 3.113281 28.191406 C 3.109375 28.234375 3.105469 28.277344 3.101562 28.328125 C 2.988281 28.320312 2.898438 28.285156 2.832031 28.199219 C 2.769531 28.121094 2.664062 28.070312 2.6875 27.9375 C 2.632812 27.957031 2.605469 27.941406 2.585938 27.898438 C 2.558594 27.839844 2.550781 27.769531 2.484375 27.734375 C 2.472656 27.726562 2.472656 27.707031 2.464844 27.691406 C 2.394531 27.5 2.347656 27.304688 2.316406 27.105469 C 2.234375 26.617188 2.144531 26.128906 2.066406 25.640625 C 1.980469 25.125 1.898438 24.613281 1.816406 24.097656 C 1.746094 23.625 1.679688 23.152344 1.609375 22.679688 C 1.523438 22.117188 1.386719 21.566406 1.253906 21.015625 C 1.144531 20.578125 1.027344 20.144531 0.929688 19.707031 C 0.84375 19.320312 0.773438 18.929688 0.707031 18.539062 C 0.6875 18.414062 0.6875 18.285156 0.683594 18.15625 C 0.683594 18.074219 0.722656 18 0.761719 17.929688 C 0.886719 17.726562 1.046875 17.554688 1.214844 17.390625 C 1.496094 17.125 1.800781 16.894531 2.144531 16.730469 C 2.511719 16.558594 2.886719 16.457031 3.292969 16.496094 C 3.390625 16.503906 3.492188 16.519531 3.578125 16.554688 C 3.828125 16.652344 4.070312 16.757812 4.285156 16.933594 C 4.429688 17.054688 4.566406 17.179688 4.691406 17.324219 C 4.875 17.542969 5.050781 17.765625 5.175781 18.027344 C 5.277344 18.234375 5.390625 18.429688 5.492188 18.636719 C 5.683594 19.027344 5.84375 19.425781 5.945312 19.851562 C 6.007812 20.109375 6.0625 20.367188 6.109375 20.628906 C 6.152344 20.84375 6.167969 21.066406 6.175781 21.289062 C 6.191406 21.605469 6.191406 21.925781 6.171875 22.242188 C 6.160156 22.484375 6.15625 22.726562 6.113281 22.960938 C 6.082031 23.136719 6.070312 23.316406 6.027344 23.488281 C 5.992188 23.636719 5.972656 23.789062 5.9375 23.9375 C 5.921875 24.011719 5.894531 24.085938 5.875 24.160156 C 5.820312 24.355469 5.769531 24.550781 5.710938 24.742188 C 5.679688 24.851562 5.640625 24.953125 5.601562 25.058594 C 5.527344 25.253906 5.460938 25.449219 5.382812 25.640625 C 5.304688 25.824219 5.214844 26.007812 5.128906 26.1875 C 5.101562 26.230469 5.070312 26.265625 5.03125 26.316406 Z M 3.167969 26.855469 C 3.265625 26.679688 3.292969 26.496094 3.308594 26.308594 C 3.3125 26.222656 3.324219 26.132812 3.351562 26.054688 C 3.402344 25.910156 3.460938 25.769531 3.527344 25.628906 C 3.582031 25.507812 3.648438 25.390625 3.710938 25.273438 C 3.742188 25.210938 3.769531 25.148438 3.800781 25.089844 C 3.832031 25.03125 3.859375 24.972656 3.886719 24.914062 C 3.917969 24.851562 3.960938 24.792969 3.976562 24.730469 C 3.992188 24.667969 4.074219 24.640625 4.054688 24.566406 C 4.101562 24.539062 4.09375 24.484375 4.109375 24.445312 C 4.152344 24.347656 4.195312 24.25 4.230469 24.152344 C 4.308594 23.929688 4.386719 23.707031 4.464844 23.480469 C 4.585938 23.117188 4.6875 22.75 4.773438 22.375 C 4.875 21.9375 4.949219 21.492188 4.988281 21.046875 C 5.007812 20.839844 5.023438 20.628906 5.027344 20.421875 C 5.03125 20.253906 5.019531 20.082031 5.011719 19.914062 C 5.003906 19.789062 4.992188 19.660156 4.972656 19.535156 C 4.960938 19.429688 4.9375 19.328125 4.917969 19.222656 C 4.84375 18.839844 4.742188 18.46875 4.554688 18.128906 C 4.410156 17.863281 4.199219 17.695312 3.914062 17.625 C 3.578125 17.542969 3.246094 17.558594 2.917969 17.65625 C 2.710938 17.71875 2.523438 17.808594 2.351562 17.9375 C 2.152344 18.082031 1.960938 18.234375 1.765625 18.378906 C 1.757812 18.386719 1.75 18.394531 1.746094 18.398438 C 1.703125 18.445312 1.664062 18.492188 1.621094 18.53125 C 1.570312 18.578125 1.570312 18.574219 1.601562 18.640625 C 1.636719 18.726562 1.675781 18.8125 1.710938 18.898438 C 1.867188 19.3125 1.972656 19.738281 2.0625 20.167969 C 2.152344 20.585938 2.226562 21.011719 2.304688 21.433594 C 2.371094 21.796875 2.433594 22.160156 2.496094 22.523438 C 2.554688 22.886719 2.617188 23.25 2.671875 23.613281 C 2.722656 23.90625 2.765625 24.203125 2.8125 24.5 C 2.855469 24.796875 2.90625 25.09375 2.949219 25.394531 C 2.976562 25.5625 2.996094 25.734375 3.023438 25.902344 C 3.050781 26.105469 3.082031 26.3125 3.113281 26.515625 C 3.132812 26.628906 3.148438 26.742188 3.167969 26.855469 Z M 4.164062 27.554688 C 4.210938 27.566406 4.242188 27.558594 4.25 27.503906 C 4.195312 27.5 4.195312 27.5 4.164062 27.554688 Z M 4.207031 24.464844 C 4.242188 24.46875 4.265625 24.46875 4.296875 24.472656 C 4.257812 24.410156 4.253906 24.410156 4.207031 24.464844 Z M 5.015625 24.316406 C 5 24.308594 4.988281 24.296875 4.980469 24.296875 C 4.972656 24.304688 4.964844 24.316406 4.960938 24.328125 C 4.957031 24.332031 4.976562 24.347656 4.980469 24.347656 C 4.992188 24.34375 5 24.332031 5.015625 24.316406 Z M 1.933594 18.1875 C 1.929688 18.183594 1.929688 18.179688 1.929688 18.175781 C 1.914062 18.179688 1.902344 18.183594 1.890625 18.1875 C 1.890625 18.191406 1.894531 18.199219 1.894531 18.203125 C 1.90625 18.199219 1.917969 18.191406 1.933594 18.1875 Z M 1.460938 17.976562 C 1.464844 17.980469 1.46875 17.988281 1.476562 17.992188 C 1.488281 17.976562 1.5 17.960938 1.507812 17.945312 C 1.507812 17.941406 1.5 17.9375 1.496094 17.933594 C 1.484375 17.949219 1.472656 17.964844 1.460938 17.976562 Z M 1.699219 17.785156 C 1.695312 17.78125 1.691406 17.777344 1.6875 17.773438 C 1.679688 17.78125 1.675781 17.789062 1.667969 17.800781 C 1.671875 17.800781 1.671875 17.804688 1.675781 17.808594 C 1.683594 17.800781 1.691406 17.792969 1.699219 17.785156 Z M 1.699219 17.785156 " fill-opacity="1" fill-rule="nonzero"/></g><g clip-path="url(#1ede2a1763)"><path fill="#000000" d="M 30.097656 14.785156 C 30.15625 14.84375 30.207031 14.898438 30.261719 14.949219 C 30.445312 15.140625 30.601562 15.359375 30.742188 15.585938 C 30.933594 15.90625 31.117188 16.230469 31.230469 16.59375 C 31.292969 16.785156 31.347656 16.976562 31.363281 17.175781 C 31.375 17.300781 31.410156 17.421875 31.414062 17.550781 C 31.414062 17.675781 31.429688 17.800781 31.433594 17.925781 C 31.453125 18.453125 31.4375 18.980469 31.328125 19.5 C 31.292969 19.671875 31.253906 19.839844 31.210938 20.011719 C 31.195312 20.066406 31.1875 20.132812 31.132812 20.167969 C 31.128906 20.210938 31.136719 20.257812 31.121094 20.300781 C 31.046875 20.53125 30.960938 20.757812 30.84375 20.972656 C 30.765625 21.117188 30.667969 21.253906 30.535156 21.359375 C 30.324219 21.527344 30.085938 21.558594 29.835938 21.488281 C 29.75 21.464844 29.664062 21.441406 29.582031 21.410156 C 29.488281 21.375 29.398438 21.339844 29.3125 21.289062 C 29.082031 21.15625 28.867188 21 28.699219 20.789062 C 28.558594 20.613281 28.417969 20.441406 28.289062 20.253906 C 28.195312 20.117188 28.113281 19.96875 28.046875 19.816406 C 27.949219 19.59375 27.859375 19.363281 27.789062 19.128906 C 27.660156 18.726562 27.589844 18.316406 27.574219 17.894531 C 27.566406 17.613281 27.546875 17.335938 27.550781 17.054688 C 27.554688 16.660156 27.59375 16.269531 27.695312 15.886719 C 27.746094 15.695312 27.816406 15.515625 27.898438 15.339844 C 27.925781 15.28125 28.027344 15.28125 27.996094 15.191406 C 28.03125 15.140625 28.070312 15.09375 28.109375 15.042969 C 28.164062 14.976562 28.238281 14.933594 28.320312 14.902344 C 28.394531 14.871094 28.46875 14.878906 28.535156 14.929688 C 28.554688 14.945312 28.582031 14.953125 28.617188 14.972656 C 28.617188 14.941406 28.617188 14.925781 28.613281 14.921875 C 28.558594 14.902344 28.546875 14.847656 28.515625 14.808594 C 28.457031 14.738281 28.4375 14.652344 28.414062 14.574219 C 28.40625 14.550781 28.410156 14.523438 28.410156 14.5 C 28.40625 14.472656 28.40625 14.441406 28.398438 14.414062 C 28.378906 14.347656 28.382812 14.332031 28.4375 14.300781 C 28.457031 14.292969 28.480469 14.28125 28.5 14.277344 C 28.660156 14.246094 28.796875 14.152344 28.941406 14.078125 C 29.125 13.984375 29.300781 13.878906 29.480469 13.777344 C 29.761719 13.621094 30.050781 13.46875 30.332031 13.3125 C 30.539062 13.195312 30.742188 13.078125 30.949219 12.960938 C 31.246094 12.789062 31.539062 12.621094 31.835938 12.453125 C 32.089844 12.304688 32.339844 12.15625 32.59375 12.007812 C 32.894531 11.824219 33.195312 11.636719 33.5 11.460938 C 33.699219 11.34375 33.910156 11.25 34.117188 11.148438 C 34.339844 11.035156 34.5625 10.917969 34.789062 10.800781 C 35.09375 10.648438 35.394531 10.492188 35.699219 10.339844 C 35.78125 10.300781 35.871094 10.269531 35.960938 10.246094 C 36.046875 10.222656 36.132812 10.210938 36.207031 10.289062 C 36.226562 10.3125 36.265625 10.320312 36.296875 10.335938 C 36.296875 10.351562 36.292969 10.371094 36.289062 10.390625 C 36.328125 10.398438 36.378906 10.402344 36.382812 10.460938 C 36.382812 10.464844 36.386719 10.472656 36.390625 10.476562 C 36.472656 10.5 36.464844 10.554688 36.4375 10.621094 C 36.460938 10.632812 36.484375 10.644531 36.511719 10.660156 C 36.503906 10.691406 36.496094 10.71875 36.488281 10.753906 C 36.554688 10.75 36.609375 10.761719 36.636719 10.828125 C 36.65625 10.882812 36.675781 10.9375 36.601562 10.976562 C 36.636719 10.988281 36.660156 10.996094 36.683594 11.003906 C 36.675781 11.015625 36.667969 11.023438 36.660156 11.035156 C 36.371094 11.160156 36.117188 11.347656 35.851562 11.511719 C 35.613281 11.660156 35.390625 11.824219 35.160156 11.984375 C 34.960938 12.121094 34.765625 12.265625 34.566406 12.40625 C 34.441406 12.496094 34.308594 12.578125 34.175781 12.660156 C 34.097656 12.707031 34.015625 12.742188 33.9375 12.785156 C 33.785156 12.871094 33.632812 12.960938 33.480469 13.042969 C 33.320312 13.132812 33.15625 13.210938 32.992188 13.296875 C 32.886719 13.351562 32.785156 13.414062 32.675781 13.46875 C 32.28125 13.675781 31.890625 13.886719 31.492188 14.089844 C 31.265625 14.207031 31.03125 14.316406 30.800781 14.429688 C 30.574219 14.546875 30.34375 14.664062 30.097656 14.785156 Z M 29.378906 19.996094 C 29.402344 19.972656 29.417969 19.953125 29.4375 19.945312 C 29.566406 19.894531 29.671875 19.808594 29.757812 19.703125 C 29.941406 19.492188 30.0625 19.242188 30.167969 18.984375 C 30.265625 18.746094 30.355469 18.5 30.421875 18.246094 C 30.453125 18.128906 30.492188 18.011719 30.511719 17.894531 C 30.546875 17.675781 30.574219 17.457031 30.59375 17.234375 C 30.632812 16.824219 30.597656 16.417969 30.460938 16.023438 C 30.394531 15.832031 30.296875 15.65625 30.160156 15.503906 C 30.054688 15.394531 29.933594 15.3125 29.800781 15.246094 C 29.589844 15.148438 29.375 15.085938 29.144531 15.179688 C 29.113281 15.191406 29.078125 15.199219 29.046875 15.199219 C 29.027344 15.203125 28.996094 15.199219 28.988281 15.1875 C 28.957031 15.144531 28.921875 15.152344 28.878906 15.148438 C 28.839844 15.144531 28.800781 15.128906 28.738281 15.113281 C 28.792969 15.191406 28.824219 15.265625 28.878906 15.304688 C 28.949219 15.359375 28.964844 15.441406 29.015625 15.507812 C 29.023438 15.519531 29.023438 15.542969 29.023438 15.5625 C 29.019531 15.660156 29.023438 15.757812 28.996094 15.859375 C 28.96875 15.96875 28.925781 16.074219 28.914062 16.1875 C 28.898438 16.332031 28.855469 16.476562 28.832031 16.621094 C 28.8125 16.742188 28.800781 16.867188 28.78125 16.988281 C 28.742188 17.269531 28.714844 17.550781 28.710938 17.835938 C 28.703125 18.203125 28.703125 18.570312 28.75 18.9375 C 28.789062 19.242188 28.847656 19.542969 28.933594 19.835938 C 28.957031 19.914062 28.992188 19.960938 29.074219 19.964844 C 29.160156 19.972656 29.246094 20 29.335938 19.976562 C 29.351562 19.976562 29.367188 19.992188 29.378906 19.996094 Z M 31.644531 12.769531 C 31.546875 12.75 31.488281 12.773438 31.453125 12.847656 C 31.523438 12.828125 31.582031 12.808594 31.644531 12.769531 Z M 30.683594 14.390625 C 30.597656 14.398438 30.582031 14.40625 30.5625 14.464844 C 30.609375 14.441406 30.667969 14.457031 30.683594 14.390625 Z M 29.632812 20.015625 C 29.5625 20.039062 29.5625 20.039062 29.570312 20.113281 C 29.589844 20.070312 29.65625 20.089844 29.632812 20.015625 Z M 35.546875 11.617188 C 35.484375 11.632812 35.449219 11.660156 35.410156 11.6875 C 35.5 11.671875 35.5 11.671875 35.546875 11.617188 Z M 31.035156 14.21875 C 31.058594 14.234375 31.074219 14.25 31.09375 14.214844 C 31.105469 14.195312 31.125 14.179688 31.15625 14.148438 C 31.097656 14.167969 31.054688 14.164062 31.035156 14.21875 Z M 30.144531 20.28125 C 30.128906 20.246094 30.117188 20.226562 30.105469 20.207031 C 30.097656 20.214844 30.082031 20.21875 30.082031 20.226562 C 30.074219 20.265625 30.097656 20.273438 30.144531 20.28125 Z M 34.597656 12.253906 C 34.601562 12.261719 34.605469 12.265625 34.609375 12.269531 C 34.625 12.261719 34.640625 12.253906 34.65625 12.246094 C 34.652344 12.242188 34.652344 12.238281 34.648438 12.234375 C 34.632812 12.242188 34.617188 12.25 34.597656 12.253906 Z M 33.394531 12.441406 C 33.394531 12.433594 33.390625 12.425781 33.390625 12.417969 C 33.371094 12.425781 33.351562 12.429688 33.335938 12.433594 C 33.335938 12.441406 33.335938 12.445312 33.339844 12.449219 C 33.359375 12.445312 33.378906 12.441406 33.394531 12.441406 Z M 30.136719 13.582031 C 30.128906 13.578125 30.125 13.574219 30.117188 13.570312 C 30.109375 13.582031 30.101562 13.597656 30.089844 13.613281 C 30.09375 13.617188 30.097656 13.617188 30.101562 13.621094 C 30.113281 13.605469 30.125 13.59375 30.136719 13.582031 Z M 30.183594 14.621094 C 30.183594 14.625 30.183594 14.628906 30.1875 14.636719 C 30.199219 14.632812 30.214844 14.628906 30.230469 14.625 C 30.226562 14.617188 30.226562 14.613281 30.226562 14.609375 C 30.210938 14.613281 30.199219 14.617188 30.183594 14.621094 Z M 33.460938 12.929688 C 33.460938 12.9375 33.464844 12.945312 33.464844 12.953125 C 33.476562 12.949219 33.488281 12.945312 33.5 12.9375 C 33.5 12.9375 33.496094 12.929688 33.496094 12.921875 C 33.484375 12.925781 33.472656 12.925781 33.460938 12.929688 Z M 30.019531 13.667969 C 30.027344 13.648438 30.035156 13.640625 30.035156 13.632812 C 30.035156 13.628906 30.023438 13.621094 30.019531 13.621094 C 30.011719 13.625 30.007812 13.632812 30.003906 13.640625 C 30.003906 13.648438 30.011719 13.652344 30.019531 13.667969 Z M 29.40625 20.296875 C 29.402344 20.304688 29.398438 20.3125 29.394531 20.320312 C 29.410156 20.324219 29.425781 20.328125 29.441406 20.335938 C 29.445312 20.332031 29.445312 20.328125 29.449219 20.324219 C 29.433594 20.316406 29.417969 20.308594 29.40625 20.296875 Z M 32.992188 13.164062 C 32.984375 13.171875 32.976562 13.179688 32.972656 13.183594 C 32.980469 13.1875 32.988281 13.195312 32.996094 13.203125 C 33 13.195312 33.007812 13.191406 33.007812 13.183594 C 33.011719 13.179688 33 13.171875 32.992188 13.164062 Z M 29.945312 13.65625 C 29.945312 13.664062 29.941406 13.671875 29.941406 13.679688 C 29.941406 13.683594 29.949219 13.683594 29.957031 13.6875 C 29.957031 13.679688 29.960938 13.671875 29.960938 13.664062 C 29.960938 13.664062 29.953125 13.660156 29.945312 13.65625 Z M 29.945312 13.65625 " fill-opacity="1" fill-rule="nonzero"/></g><path fill="#000000" d="M 9.839844 17.367188 C 9.851562 17.40625 9.859375 17.4375 9.871094 17.480469 C 9.820312 17.476562 9.777344 17.472656 9.738281 17.464844 C 9.523438 17.429688 9.3125 17.445312 9.113281 17.554688 C 8.949219 17.644531 8.832031 17.777344 8.746094 17.945312 C 8.675781 18.085938 8.601562 18.222656 8.542969 18.367188 C 8.476562 18.535156 8.421875 18.710938 8.371094 18.886719 C 8.292969 19.183594 8.226562 19.480469 8.160156 19.777344 C 8.089844 20.09375 8.050781 20.417969 8 20.738281 C 7.976562 20.871094 7.96875 21.003906 7.957031 21.140625 C 7.984375 21.140625 8.007812 21.148438 8.03125 21.148438 C 8.132812 21.148438 8.234375 21.140625 8.335938 21.144531 C 8.398438 21.148438 8.464844 21.160156 8.53125 21.171875 C 8.558594 21.179688 8.582031 21.203125 8.609375 21.21875 C 8.636719 21.238281 8.65625 21.265625 8.6875 21.277344 C 8.742188 21.296875 8.773438 21.324219 8.777344 21.390625 C 8.777344 21.441406 8.792969 21.492188 8.851562 21.511719 C 8.933594 21.539062 8.949219 21.597656 8.9375 21.675781 C 8.9375 21.679688 8.9375 21.6875 8.9375 21.695312 C 8.9375 21.695312 8.9375 21.699219 8.941406 21.703125 C 9.011719 21.738281 9.074219 21.785156 9.082031 21.878906 C 9.082031 21.890625 9.089844 21.902344 9.097656 21.910156 C 9.152344 21.992188 9.191406 22.074219 9.144531 22.171875 C 9.136719 22.1875 9.144531 22.210938 9.148438 22.226562 C 9.164062 22.265625 9.148438 22.296875 9.125 22.328125 C 9.0625 22.394531 9.050781 22.394531 8.988281 22.308594 C 8.621094 22.417969 8.242188 22.519531 7.847656 22.535156 C 7.84375 22.601562 7.835938 22.65625 7.832031 22.710938 C 7.804688 23.164062 7.773438 23.613281 7.757812 24.066406 C 7.746094 24.414062 7.753906 24.761719 7.761719 25.109375 C 7.769531 25.339844 7.789062 25.570312 7.808594 25.800781 C 7.820312 25.941406 7.824219 25.945312 7.9375 26.023438 C 8.082031 26.121094 8.230469 26.210938 8.371094 26.304688 C 8.484375 26.378906 8.59375 26.460938 8.703125 26.539062 C 8.695312 26.5625 8.691406 26.582031 8.683594 26.601562 C 8.695312 26.609375 8.707031 26.617188 8.714844 26.621094 C 8.746094 26.648438 8.792969 26.660156 8.785156 26.71875 C 8.785156 26.734375 8.816406 26.753906 8.835938 26.769531 C 8.910156 26.828125 8.921875 26.875 8.871094 26.960938 C 8.867188 26.96875 8.867188 26.972656 8.863281 26.988281 C 8.964844 27.054688 9.101562 27.097656 9.085938 27.273438 C 9.144531 27.296875 9.175781 27.355469 9.1875 27.417969 C 9.203125 27.476562 9.203125 27.539062 9.167969 27.597656 C 9.160156 27.613281 9.167969 27.644531 9.175781 27.664062 C 9.199219 27.753906 9.179688 27.78125 9.085938 27.769531 C 8.890625 27.746094 8.707031 27.679688 8.523438 27.613281 C 8.238281 27.503906 7.988281 27.339844 7.753906 27.140625 C 7.585938 26.996094 7.425781 26.835938 7.3125 26.640625 C 7.226562 26.5 7.125 26.367188 7.042969 26.226562 C 6.933594 26.050781 6.847656 25.859375 6.789062 25.660156 C 6.742188 25.507812 6.695312 25.359375 6.65625 25.207031 C 6.621094 25.058594 6.589844 24.902344 6.566406 24.75 C 6.539062 24.539062 6.511719 24.328125 6.507812 24.117188 C 6.5 23.675781 6.5 23.230469 6.507812 22.789062 C 6.511719 22.558594 6.535156 22.328125 6.554688 22.097656 C 6.578125 21.800781 6.601562 21.511719 6.628906 21.21875 C 6.65625 20.984375 6.691406 20.75 6.71875 20.515625 C 6.738281 20.339844 6.753906 20.164062 6.777344 19.988281 C 6.808594 19.777344 6.84375 19.570312 6.875 19.363281 C 6.90625 19.179688 6.929688 18.992188 6.964844 18.808594 C 7.011719 18.570312 7.0625 18.335938 7.117188 18.097656 C 7.121094 18.074219 7.136719 18.050781 7.148438 18.019531 C 7.171875 18.046875 7.183594 18.066406 7.199219 18.085938 C 7.203125 18.085938 7.207031 18.082031 7.210938 18.082031 C 7.207031 18.066406 7.210938 18.042969 7.203125 18.027344 C 7.171875 17.980469 7.144531 17.929688 7.1875 17.875 C 7.195312 17.707031 7.265625 17.550781 7.316406 17.394531 C 7.378906 17.179688 7.464844 16.980469 7.578125 16.789062 C 7.667969 16.636719 7.765625 16.496094 7.898438 16.378906 C 8.109375 16.191406 8.359375 16.101562 8.640625 16.105469 C 8.769531 16.109375 8.890625 16.148438 9.011719 16.195312 C 9.152344 16.246094 9.261719 16.335938 9.382812 16.417969 C 9.421875 16.445312 9.453125 16.488281 9.484375 16.527344 C 9.519531 16.574219 9.550781 16.625 9.585938 16.671875 C 9.621094 16.71875 9.652344 16.765625 9.65625 16.828125 C 9.660156 16.847656 9.664062 16.875 9.679688 16.886719 C 9.773438 16.972656 9.816406 17.089844 9.863281 17.203125 C 9.886719 17.261719 9.886719 17.320312 9.839844 17.367188 Z M 7.074219 23.949219 C 7.09375 23.960938 7.109375 23.976562 7.113281 23.972656 C 7.125 23.964844 7.136719 23.949219 7.144531 23.933594 C 7.144531 23.929688 7.121094 23.910156 7.113281 23.910156 C 7.101562 23.917969 7.089844 23.933594 7.074219 23.949219 Z M 7.707031 22.625 C 7.703125 22.617188 7.703125 22.609375 7.699219 22.601562 C 7.679688 22.605469 7.660156 22.609375 7.644531 22.613281 C 7.648438 22.621094 7.652344 22.640625 7.65625 22.640625 C 7.671875 22.640625 7.6875 22.632812 7.707031 22.625 Z M 7.613281 16.820312 C 7.648438 16.878906 7.675781 16.851562 7.710938 16.820312 C 7.675781 16.820312 7.648438 16.820312 7.613281 16.820312 Z M 8.09375 16.53125 C 8.097656 16.527344 8.101562 16.519531 8.109375 16.511719 C 8.097656 16.503906 8.085938 16.496094 8.070312 16.488281 C 8.070312 16.488281 8.0625 16.5 8.0625 16.5 C 8.070312 16.511719 8.082031 16.519531 8.09375 16.53125 Z M 8.09375 16.53125 " fill-opacity="1" fill-rule="nonzero"/><g clip-path="url(#0d9ef6b2d0)"><path fill="#000000" d="M 26.867188 14.152344 C 26.855469 14.144531 26.828125 14.144531 26.824219 14.132812 C 26.808594 14.058594 26.742188 14.007812 26.746094 13.925781 C 26.75 13.90625 26.738281 13.890625 26.734375 13.871094 C 26.726562 13.839844 26.714844 13.804688 26.714844 13.773438 C 26.714844 13.71875 26.722656 13.660156 26.722656 13.605469 C 26.71875 13.484375 26.757812 13.371094 26.792969 13.257812 C 26.84375 13.082031 26.898438 12.90625 26.957031 12.734375 C 27.09375 12.335938 27.226562 11.9375 27.375 11.542969 C 27.515625 11.160156 27.671875 10.777344 27.816406 10.390625 C 27.914062 10.132812 28.003906 9.871094 28.101562 9.613281 C 28.136719 9.511719 28.175781 9.414062 28.21875 9.316406 C 28.28125 9.175781 28.40625 9.152344 28.523438 9.257812 C 28.5625 9.296875 28.613281 9.328125 28.65625 9.367188 C 28.695312 9.402344 28.734375 9.4375 28.765625 9.476562 C 28.941406 9.722656 29.09375 9.984375 29.203125 10.269531 C 29.277344 10.46875 29.375 10.664062 29.441406 10.867188 C 29.507812 11.066406 29.554688 11.277344 29.601562 11.480469 C 29.632812 11.613281 29.632812 11.746094 29.589844 11.878906 C 29.582031 11.902344 29.589844 11.925781 29.589844 11.953125 C 29.589844 11.980469 29.589844 12.007812 29.585938 12.035156 C 29.574219 12.09375 29.503906 12.144531 29.453125 12.132812 C 29.421875 12.125 29.402344 12.078125 29.40625 12.015625 C 29.40625 11.972656 29.414062 11.929688 29.410156 11.886719 C 29.410156 11.855469 29.398438 11.828125 29.394531 11.796875 C 29.386719 11.796875 29.378906 11.796875 29.371094 11.796875 C 29.367188 11.824219 29.359375 11.851562 29.355469 11.882812 C 29.355469 11.933594 29.335938 11.972656 29.300781 12.003906 C 29.265625 12.035156 29.234375 12.03125 29.199219 11.992188 C 29.191406 11.984375 29.183594 11.976562 29.175781 11.96875 C 29.140625 11.945312 29.101562 11.921875 29.0625 11.894531 C 29.027344 11.863281 28.996094 11.832031 29.046875 11.78125 C 28.929688 11.78125 28.894531 11.703125 28.9375 11.542969 C 28.910156 11.5625 28.890625 11.574219 28.867188 11.589844 C 28.796875 11.535156 28.800781 11.460938 28.808594 11.375 C 28.734375 11.367188 28.726562 11.308594 28.714844 11.25 C 28.699219 11.160156 28.671875 11.074219 28.648438 10.972656 C 28.605469 11.023438 28.585938 11.074219 28.566406 11.125 C 28.511719 11.269531 28.453125 11.417969 28.398438 11.566406 C 28.289062 11.863281 28.179688 12.160156 28.074219 12.460938 C 27.984375 12.710938 27.90625 12.96875 27.816406 13.21875 C 27.6875 13.566406 27.597656 13.925781 27.441406 14.261719 C 27.410156 14.324219 27.378906 14.390625 27.335938 14.449219 C 27.292969 14.515625 27.269531 14.519531 27.1875 14.476562 C 27.191406 14.464844 27.195312 14.449219 27.195312 14.433594 C 27.199219 14.421875 27.203125 14.40625 27.203125 14.394531 C 27.191406 14.390625 27.183594 14.386719 27.179688 14.390625 C 27.148438 14.402344 27.113281 14.433594 27.089844 14.425781 C 27.046875 14.410156 27.007812 14.375 26.972656 14.34375 C 26.945312 14.320312 26.933594 14.289062 26.90625 14.261719 C 26.882812 14.246094 26.882812 14.195312 26.867188 14.152344 Z M 26.867188 14.152344 " fill-opacity="1" fill-rule="nonzero"/></g></svg>