<svg xmlns="http://www.w3.org/2000/svg" xmlns:xlink="http://www.w3.org/1999/xlink" width="50" zoomAndPan="magnify" viewBox="0 0 37.5 37.499999" height="50" preserveAspectRatio="xMidYMid meet" version="1.0"><defs><clipPath id="f5db456d60"><path d="M 4.085938 20 L 13 20 L 13 36 L 4.085938 36 Z M 4.085938 20 " clip-rule="nonzero"/></clipPath><clipPath id="6d8c2bc9b6"><path d="M 31 10 L 33.335938 10 L 33.335938 24 L 31 24 Z M 31 10 " clip-rule="nonzero"/></clipPath><clipPath id="f4fadad540"><path d="M 19 30 L 22 30 L 22 36.664062 L 19 36.664062 Z M 19 30 " clip-rule="nonzero"/></clipPath><clipPath id="3b58b76416"><path d="M 20 0.664062 L 23 0.664062 L 23 7 L 20 7 Z M 20 0.664062 " clip-rule="nonzero"/></clipPath><clipPath id="44a646ff88"><path d="M 16 0.664062 L 19 0.664062 L 19 8 L 16 8 Z M 16 0.664062 " clip-rule="nonzero"/></clipPath></defs><path fill="#000000" d="M 8.304688 13.296875 C 8.359375 12.964844 8.40625 12.628906 8.476562 12.296875 C 8.667969 11.355469 8.992188 10.460938 9.484375 9.628906 C 9.578125 9.472656 9.683594 9.324219 9.796875 9.183594 C 10.289062 8.582031 10.925781 8.398438 11.671875 8.550781 C 12.242188 8.667969 12.703125 8.96875 13.066406 9.414062 C 13.585938 10.054688 13.925781 10.785156 14.148438 11.574219 C 14.382812 12.398438 14.53125 13.238281 14.660156 14.082031 C 14.703125 14.378906 14.738281 14.683594 14.777344 14.980469 C 14.78125 15.023438 14.796875 15.0625 14.808594 15.113281 C 14.847656 15.089844 14.882812 15.074219 14.910156 15.054688 C 15.292969 14.738281 15.675781 14.421875 16.058594 14.105469 C 16.144531 14.039062 16.171875 13.964844 16.160156 13.855469 C 16.078125 12.980469 16.148438 12.117188 16.371094 11.265625 C 16.453125 10.960938 16.566406 10.667969 16.71875 10.390625 C 17.089844 9.699219 17.714844 9.496094 18.398438 9.570312 C 18.59375 9.589844 18.78125 9.644531 18.949219 9.742188 C 19.28125 9.9375 19.445312 10.253906 19.371094 10.632812 C 19.332031 10.84375 19.273438 11.058594 19.1875 11.253906 C 18.808594 12.105469 18.292969 12.863281 17.636719 13.519531 C 17.503906 13.65625 17.457031 13.773438 17.488281 13.964844 C 17.59375 14.570312 17.730469 15.164062 17.945312 15.738281 C 18.019531 15.929688 18.113281 16.113281 18.203125 16.296875 C 18.230469 16.355469 18.277344 16.40625 18.328125 16.480469 C 18.457031 16.332031 18.585938 16.210938 18.683594 16.070312 C 18.953125 15.660156 19.222656 15.25 19.46875 14.828125 C 19.976562 13.941406 20.355469 13 20.738281 12.054688 C 21.078125 11.214844 21.410156 10.367188 21.742188 9.523438 C 21.78125 9.417969 21.847656 9.355469 21.957031 9.324219 C 22.125 9.28125 22.292969 9.277344 22.457031 9.328125 C 22.628906 9.382812 22.664062 9.441406 22.648438 9.625 C 22.5625 10.632812 22.507812 11.640625 22.558594 12.652344 C 22.585938 13.167969 22.652344 13.675781 22.8125 14.167969 C 22.847656 14.273438 22.890625 14.371094 22.941406 14.503906 C 23.003906 14.429688 23.050781 14.378906 23.09375 14.324219 C 23.367188 13.976562 23.574219 13.585938 23.785156 13.195312 C 24.683594 11.503906 25.488281 9.773438 26.207031 7.996094 C 26.222656 7.957031 26.242188 7.921875 26.253906 7.878906 C 26.324219 7.582031 26.546875 7.503906 26.8125 7.492188 C 26.851562 7.488281 26.886719 7.488281 26.921875 7.492188 C 27.28125 7.519531 27.378906 7.601562 27.421875 7.957031 C 27.449219 8.179688 27.460938 8.402344 27.46875 8.625 C 27.503906 9.46875 27.550781 10.308594 27.566406 11.148438 C 27.582031 12.3125 27.519531 13.472656 27.328125 14.621094 C 27.300781 14.796875 27.25 14.976562 27.179688 15.144531 C 27.03125 15.503906 26.523438 15.738281 26.0625 15.558594 C 25.925781 15.507812 25.914062 15.453125 25.96875 15.3125 C 26.003906 15.222656 26.023438 15.125 26.023438 15.03125 C 26.035156 14.347656 26.039062 13.664062 26.054688 12.980469 C 26.070312 12.320312 26.097656 11.660156 26.121094 11 C 26.121094 10.957031 26.121094 10.910156 26.09375 10.855469 C 26.066406 10.90625 26.039062 10.957031 26.015625 11.007812 C 25.582031 11.894531 25.148438 12.78125 24.707031 13.664062 C 24.53125 14.023438 24.316406 14.359375 24.050781 14.660156 C 23.816406 14.925781 23.542969 15.132812 23.183594 15.199219 C 22.9375 15.242188 22.691406 15.238281 22.445312 15.171875 C 22.164062 15.09375 21.96875 14.914062 21.839844 14.65625 C 21.6875 14.351562 21.597656 14.023438 21.542969 13.6875 C 21.503906 13.433594 21.480469 13.171875 21.449219 12.90625 C 21.378906 12.9375 21.378906 13.007812 21.359375 13.0625 C 21.03125 13.957031 20.648438 14.824219 20.1875 15.660156 C 19.992188 16.007812 19.789062 16.351562 19.515625 16.648438 C 19.273438 16.910156 18.984375 17.089844 18.632812 17.160156 C 18.332031 17.214844 18.027344 17.210938 17.730469 17.128906 C 17.421875 17.039062 17.179688 16.859375 16.988281 16.601562 C 16.796875 16.332031 16.660156 16.039062 16.558594 15.726562 C 16.453125 15.410156 16.371094 15.089844 16.273438 14.757812 C 16.25 14.769531 16.21875 14.777344 16.191406 14.796875 C 15.78125 15.085938 15.375 15.382812 14.960938 15.667969 C 14.875 15.726562 14.863281 15.785156 14.867188 15.878906 C 14.886719 16.417969 14.917969 16.953125 14.910156 17.492188 C 14.902344 18.21875 14.824219 18.941406 14.625 19.644531 C 14.503906 20.0625 14.332031 20.453125 14.070312 20.804688 C 13.78125 21.191406 13.414062 21.460938 12.917969 21.523438 C 12.496094 21.574219 12.105469 21.5 11.773438 21.222656 C 11.289062 20.820312 10.929688 20.339844 10.824219 19.699219 C 10.726562 19.121094 10.851562 18.582031 11.152344 18.082031 C 11.335938 17.777344 11.554688 17.503906 11.835938 17.285156 C 12.25 16.964844 12.679688 16.652344 13.109375 16.347656 C 13.210938 16.273438 13.257812 16.199219 13.253906 16.066406 C 13.195312 14.644531 13.082031 13.230469 12.839844 11.824219 C 12.71875 11.117188 12.503906 10.4375 12.144531 9.8125 C 12.003906 9.566406 11.855469 9.328125 11.625 9.160156 C 11.199219 8.84375 11.125 8.855469 10.757812 9.207031 C 10.589844 9.367188 10.449219 9.5625 10.328125 9.765625 C 9.8125 10.632812 9.476562 11.566406 9.308594 12.5625 C 9.160156 13.425781 9.105469 14.292969 9.097656 15.164062 C 9.089844 15.878906 9.105469 16.59375 9.136719 17.308594 C 9.152344 17.648438 9.234375 17.988281 9.285156 18.332031 C 9.472656 19.59375 9.640625 20.859375 9.714844 22.132812 C 9.730469 22.363281 9.742188 22.59375 9.75 22.824219 C 9.757812 23.015625 9.714844 23.085938 9.535156 23.152344 C 9.234375 23.265625 8.929688 23.261719 8.625 23.160156 C 8.472656 23.109375 8.378906 23.003906 8.339844 22.851562 C 8.246094 22.527344 8.152344 22.199219 8.070312 21.871094 C 7.816406 20.84375 7.65625 19.796875 7.492188 18.75 C 7.304688 17.566406 7.117188 16.382812 6.925781 15.203125 C 6.777344 14.269531 6.625 13.339844 6.46875 12.40625 C 6.378906 11.863281 6.285156 11.324219 6.195312 10.78125 C 6.179688 10.671875 6.175781 10.5625 6.167969 10.453125 C 6.164062 10.351562 6.214844 10.285156 6.308594 10.242188 C 6.628906 10.089844 7.089844 10.195312 7.28125 10.496094 C 7.40625 10.695312 7.511719 10.910156 7.601562 11.128906 C 7.867188 11.773438 8.042969 12.445312 8.21875 13.121094 C 8.234375 13.183594 8.253906 13.242188 8.269531 13.304688 C 8.28125 13.300781 8.292969 13.296875 8.304688 13.296875 Z M 13.273438 16.789062 C 13.210938 16.816406 13.183594 16.828125 13.160156 16.84375 C 12.878906 17.050781 12.589844 17.25 12.3125 17.46875 C 12.074219 17.65625 11.875 17.886719 11.71875 18.148438 C 11.4375 18.628906 11.296875 19.140625 11.425781 19.695312 C 11.550781 20.242188 11.914062 20.613281 12.359375 20.921875 C 12.402344 20.949219 12.453125 20.96875 12.515625 21.003906 C 12.574219 20.902344 12.636719 20.8125 12.683594 20.71875 C 12.855469 20.386719 12.949219 20.03125 13.023438 19.667969 C 13.148438 19.023438 13.203125 18.363281 13.238281 17.707031 C 13.253906 17.410156 13.261719 17.117188 13.273438 16.789062 Z M 17.394531 12.558594 C 17.410156 12.5625 17.425781 12.5625 17.441406 12.566406 C 17.785156 12.050781 18.105469 11.519531 18.296875 10.921875 C 18.332031 10.800781 18.355469 10.675781 18.363281 10.550781 C 18.375 10.34375 18.328125 10.15625 18.132812 10.023438 C 18.058594 10.105469 17.980469 10.167969 17.933594 10.246094 C 17.839844 10.410156 17.75 10.574219 17.6875 10.75 C 17.523438 11.175781 17.46875 11.625 17.425781 12.078125 C 17.414062 12.238281 17.40625 12.398438 17.394531 12.558594 Z M 17.394531 12.558594 " fill-opacity="1" fill-rule="nonzero"/><path fill="#c40008" d="M 25.070312 22.878906 C 25.09375 22.824219 25.117188 22.773438 25.140625 22.71875 C 25.238281 22.445312 25.339844 22.175781 25.441406 21.902344 C 25.691406 21.203125 26.027344 20.546875 26.433594 19.929688 C 26.664062 19.578125 26.882812 19.222656 27.105469 18.871094 C 27.132812 18.828125 27.164062 18.789062 27.183594 18.746094 C 27.390625 18.324219 28.152344 18.339844 28.371094 18.777344 C 28.457031 18.949219 28.539062 19.125 28.601562 19.304688 C 28.796875 19.871094 28.894531 20.457031 28.957031 21.046875 C 29.046875 21.914062 29.113281 22.78125 29.101562 23.65625 C 29.09375 24.414062 29.015625 25.164062 28.863281 25.90625 C 28.789062 26.273438 28.671875 26.378906 28.296875 26.394531 C 28.15625 26.398438 28.007812 26.371094 27.867188 26.339844 C 27.722656 26.308594 27.640625 26.210938 27.621094 26.058594 C 27.609375 25.953125 27.59375 25.84375 27.585938 25.734375 C 27.535156 24.941406 27.59375 24.152344 27.644531 23.359375 C 27.726562 22.109375 27.777344 20.855469 27.695312 19.605469 C 27.683594 19.472656 27.664062 19.339844 27.648438 19.207031 C 27.644531 19.191406 27.632812 19.175781 27.625 19.152344 C 27.605469 19.160156 27.585938 19.164062 27.578125 19.175781 C 27.164062 19.777344 26.734375 20.375 26.390625 21.023438 C 26.148438 21.472656 25.96875 21.949219 25.808594 22.429688 C 25.617188 23.003906 25.4375 23.582031 25.253906 24.160156 C 25.132812 24.527344 25.023438 24.898438 25.003906 25.289062 C 24.996094 25.433594 24.921875 25.507812 24.792969 25.546875 C 24.625 25.59375 24.457031 25.59375 24.289062 25.550781 C 24.140625 25.511719 24.039062 25.421875 24.015625 25.265625 C 23.964844 24.945312 23.890625 24.621094 23.875 24.296875 C 23.847656 23.664062 23.851562 23.027344 23.839844 22.394531 C 23.828125 21.832031 23.828125 21.265625 23.800781 20.707031 C 23.773438 20.160156 23.707031 19.621094 23.582031 19.089844 C 23.566406 19.03125 23.550781 18.972656 23.523438 18.875 C 23.476562 18.957031 23.441406 19.011719 23.410156 19.066406 C 22.640625 20.515625 22.054688 22.035156 21.648438 23.625 C 21.421875 24.511719 21.171875 25.390625 20.929688 26.269531 C 20.828125 26.625 20.691406 26.71875 20.324219 26.707031 C 20.277344 26.707031 20.226562 26.703125 20.179688 26.695312 C 19.9375 26.660156 19.824219 26.578125 19.789062 26.335938 C 19.738281 26.019531 19.703125 25.699219 19.691406 25.382812 C 19.65625 24.269531 19.640625 23.15625 19.605469 22.042969 C 19.601562 21.777344 19.566406 21.511719 19.539062 21.246094 C 19.53125 21.175781 19.511719 21.109375 19.492188 21.007812 C 19.433594 21.082031 19.394531 21.128906 19.363281 21.179688 C 19.0625 21.667969 18.757812 22.15625 18.457031 22.644531 C 18.1875 23.089844 17.90625 23.53125 17.550781 23.917969 C 17.539062 23.929688 17.535156 23.945312 17.535156 23.945312 C 17.449219 24.089844 17.832031 25.183594 17.855469 25.421875 C 17.910156 26.019531 17.875 26.617188 17.78125 27.207031 C 17.601562 28.316406 17.308594 29.863281 15.949219 30.011719 C 15.269531 30.085938 14.652344 29.9375 14.164062 29.429688 C 14.035156 29.296875 13.921875 29.144531 13.824219 28.984375 C 13.484375 28.449219 13.300781 27.855469 13.207031 27.234375 C 13.046875 26.132812 13.125 25.050781 13.425781 23.980469 C 13.574219 23.445312 13.808594 22.949219 14.15625 22.507812 C 14.253906 22.386719 14.359375 22.269531 14.480469 22.167969 C 14.6875 21.992188 14.929688 21.9375 15.195312 21.996094 C 15.414062 22.046875 15.441406 22.113281 15.363281 22.316406 C 15.222656 22.675781 15.058594 23.03125 14.949219 23.402344 C 14.714844 24.210938 14.648438 25.039062 14.679688 25.878906 C 14.707031 26.648438 14.832031 27.398438 15.097656 28.117188 C 15.230469 28.472656 15.386719 28.8125 15.601562 29.121094 C 15.675781 29.222656 15.765625 29.316406 15.851562 29.417969 C 16.027344 29.34375 16.164062 29.246094 16.261719 29.105469 C 16.371094 28.945312 16.480469 28.78125 16.550781 28.605469 C 16.953125 27.609375 17.15625 26.578125 17.039062 25.5 C 17.007812 25.207031 16.960938 24.914062 16.917969 24.621094 C 16.914062 24.585938 16.902344 24.550781 16.886719 24.5 C 16.828125 24.53125 16.78125 24.550781 16.738281 24.578125 C 16.5625 24.675781 16.382812 24.761719 16.179688 24.78125 C 16.078125 24.789062 15.972656 24.789062 15.871094 24.773438 C 15.679688 24.75 15.550781 24.636719 15.488281 24.457031 C 15.375 24.125 15.398438 23.796875 15.550781 23.484375 C 15.664062 23.257812 15.878906 23.191406 16.113281 23.171875 C 16.535156 23.132812 16.78125 23.21875 17.199219 23.539062 C 17.238281 23.488281 17.28125 23.441406 17.3125 23.386719 C 17.597656 22.894531 17.878906 22.398438 18.167969 21.910156 C 18.398438 21.519531 18.636719 21.132812 18.875 20.746094 C 18.90625 20.695312 18.941406 20.644531 18.976562 20.597656 C 19.179688 20.335938 19.515625 20.246094 19.828125 20.363281 C 19.96875 20.417969 20.054688 20.523438 20.125 20.644531 C 20.257812 20.878906 20.335938 21.136719 20.375 21.398438 C 20.457031 21.957031 20.527344 22.515625 20.59375 23.074219 C 20.617188 23.28125 20.628906 23.496094 20.644531 23.707031 C 20.652344 23.773438 20.660156 23.84375 20.699219 23.914062 C 20.746094 23.722656 20.800781 23.53125 20.847656 23.339844 C 21.234375 21.765625 21.84375 20.28125 22.613281 18.859375 C 22.683594 18.730469 22.765625 18.609375 22.84375 18.488281 C 23.132812 18.046875 24.050781 18.015625 24.332031 18.609375 C 24.484375 18.9375 24.589844 19.277344 24.667969 19.625 C 24.855469 20.453125 24.953125 21.292969 25 22.140625 C 25.015625 22.386719 25.027344 22.628906 25.039062 22.875 C 25.050781 22.875 25.0625 22.878906 25.070312 22.878906 Z M 16.214844 23.464844 C 15.882812 23.714844 15.789062 24.339844 16.050781 24.59375 C 16.324219 24.488281 16.542969 24.296875 16.753906 24.089844 C 16.617188 23.832031 16.480469 23.601562 16.214844 23.464844 Z M 16.214844 23.464844 " fill-opacity="1" fill-rule="nonzero"/><g clip-path="url(#f5db456d60)"><path fill="#c40008" d="M 6.824219 28.558594 C 6.992188 27.964844 7.144531 27.402344 7.3125 26.847656 C 7.460938 26.363281 7.648438 25.890625 7.894531 25.445312 C 7.996094 25.265625 8.105469 25.085938 8.230469 24.925781 C 8.675781 24.355469 9.375 24.179688 10.042969 24.460938 C 10.496094 24.652344 10.871094 24.964844 11.183594 25.339844 C 11.371094 25.566406 11.519531 25.828125 11.683594 26.074219 C 11.710938 26.121094 11.734375 26.167969 11.773438 26.238281 C 11.808594 26.1875 11.835938 26.15625 11.855469 26.117188 C 12 25.855469 12.136719 25.59375 12.285156 25.335938 C 12.382812 25.167969 12.578125 25.117188 12.757812 25.195312 C 12.835938 25.226562 12.855469 25.277344 12.832031 25.351562 C 12.820312 25.398438 12.800781 25.441406 12.78125 25.488281 C 12.574219 25.960938 12.371094 26.433594 12.164062 26.902344 C 12.125 26.988281 12.117188 27.066406 12.152344 27.160156 C 12.621094 28.480469 12.761719 29.84375 12.652344 31.234375 C 12.613281 31.726562 12.507812 32.207031 12.292969 32.652344 C 12.214844 32.820312 12.113281 32.984375 12.007812 33.136719 C 11.542969 33.792969 10.722656 33.832031 10.214844 33.640625 C 9.886719 33.515625 9.707031 33.257812 9.601562 32.941406 C 9.5 32.628906 9.515625 32.304688 9.546875 31.984375 C 9.621094 31.214844 9.824219 30.476562 10.128906 29.765625 C 10.363281 29.21875 10.605469 28.679688 10.855469 28.140625 C 10.917969 28.011719 10.941406 27.890625 10.914062 27.746094 C 10.804688 27.167969 10.660156 26.597656 10.4375 26.054688 C 10.25 25.601562 9.96875 25.21875 9.589844 24.914062 C 9.53125 24.863281 9.464844 24.824219 9.402344 24.777344 C 9.242188 24.859375 9.132812 24.984375 9.035156 25.113281 C 8.769531 25.449219 8.570312 25.820312 8.398438 26.210938 C 8.027344 27.042969 7.796875 27.917969 7.632812 28.816406 C 7.460938 29.785156 7.421875 30.761719 7.382812 31.742188 C 7.371094 32.050781 7.355469 32.359375 7.359375 32.667969 C 7.359375 33.144531 7.375 33.621094 7.394531 34.101562 C 7.402344 34.355469 7.417969 34.609375 7.4375 34.859375 C 7.453125 35.011719 7.386719 35.105469 7.253906 35.160156 C 6.90625 35.296875 6.554688 35.292969 6.210938 35.148438 C 6.066406 35.085938 5.992188 34.957031 5.957031 34.8125 C 5.894531 34.527344 5.832031 34.246094 5.785156 33.960938 C 5.625 32.992188 5.539062 32.015625 5.449219 31.039062 C 5.316406 29.628906 5.183594 28.21875 5.058594 26.8125 C 4.921875 25.265625 4.707031 23.734375 4.429688 22.210938 C 4.347656 21.765625 4.257812 21.320312 4.167969 20.875 C 4.148438 20.765625 4.105469 20.65625 4.097656 20.546875 C 4.085938 20.425781 4.117188 20.402344 4.234375 20.371094 C 4.472656 20.308594 4.707031 20.382812 4.839844 20.59375 C 4.949219 20.765625 5.042969 20.949219 5.121094 21.140625 C 5.472656 21.984375 5.71875 22.867188 5.953125 23.75 C 6.304688 25.097656 6.542969 26.46875 6.726562 27.847656 C 6.757812 28.074219 6.789062 28.300781 6.824219 28.558594 Z M 10.609375 33.089844 C 10.644531 33.023438 10.671875 32.984375 10.6875 32.941406 C 10.742188 32.792969 10.796875 32.644531 10.835938 32.496094 C 11.085938 31.488281 11.09375 30.460938 11.082031 29.433594 C 11.082031 29.414062 11.066406 29.398438 11.046875 29.355469 C 10.824219 29.878906 10.621094 30.375 10.496094 30.894531 C 10.382812 31.363281 10.308594 31.832031 10.332031 32.3125 C 10.34375 32.589844 10.40625 32.851562 10.609375 33.089844 Z M 10.609375 33.089844 " fill-opacity="1" fill-rule="nonzero"/></g><g clip-path="url(#6d8c2bc9b6)"><path fill="#c40008" d="M 33.175781 14.570312 C 33.121094 15.914062 33.085938 17.257812 33 18.59375 C 32.910156 20.015625 32.769531 21.429688 32.5 22.828125 C 32.457031 23.050781 32.402344 23.277344 32.324219 23.492188 C 32.179688 23.878906 31.785156 24.054688 31.390625 23.929688 C 31.230469 23.875 31.214844 23.835938 31.246094 23.660156 C 31.269531 23.527344 31.28125 23.386719 31.285156 23.246094 C 31.332031 22.050781 31.359375 20.851562 31.421875 19.65625 C 31.480469 18.570312 31.570312 17.484375 31.65625 16.402344 C 31.722656 15.574219 31.800781 14.75 31.886719 13.925781 C 31.992188 12.921875 32.105469 11.917969 32.324219 10.929688 C 32.363281 10.753906 32.425781 10.582031 32.484375 10.410156 C 32.539062 10.234375 32.675781 10.152344 32.855469 10.140625 C 32.921875 10.136719 32.988281 10.136719 33.054688 10.148438 C 33.277344 10.183594 33.332031 10.246094 33.328125 10.472656 C 33.324219 10.703125 33.304688 10.933594 33.292969 11.160156 C 33.246094 12.296875 33.195312 13.433594 33.148438 14.570312 C 33.15625 14.570312 33.167969 14.570312 33.175781 14.570312 Z M 33.175781 14.570312 " fill-opacity="1" fill-rule="nonzero"/></g><g clip-path="url(#f4fadad540)"><path fill="#c40008" d="M 21.578125 32.199219 C 21.574219 32.890625 21.496094 33.578125 21.378906 34.257812 C 21.277344 34.863281 21.152344 35.46875 21.03125 36.070312 C 21.007812 36.179688 20.96875 36.28125 20.933594 36.382812 C 20.890625 36.5 20.804688 36.570312 20.6875 36.609375 C 20.515625 36.664062 20.34375 36.664062 20.167969 36.625 C 19.953125 36.578125 19.882812 36.492188 19.871094 36.273438 C 19.855469 36.007812 19.835938 35.742188 19.847656 35.476562 C 19.894531 33.953125 20.0625 32.4375 20.378906 30.945312 C 20.398438 30.839844 20.433594 30.734375 20.472656 30.632812 C 20.511719 30.523438 20.597656 30.449219 20.710938 30.433594 C 20.8125 30.414062 20.914062 30.402344 21.015625 30.410156 C 21.214844 30.425781 21.363281 30.53125 21.417969 30.726562 C 21.472656 30.929688 21.515625 31.140625 21.535156 31.347656 C 21.5625 31.632812 21.566406 31.917969 21.578125 32.199219 Z M 21.578125 32.199219 " fill-opacity="1" fill-rule="nonzero"/></g><path fill="#000000" d="M 23.140625 28.539062 C 23.140625 28.5 23.140625 28.457031 23.140625 28.414062 C 23.144531 28.183594 23.207031 28.109375 23.4375 28.082031 C 23.53125 28.070312 23.628906 28.085938 23.722656 28.097656 C 23.84375 28.109375 23.925781 28.179688 23.972656 28.289062 C 24.039062 28.441406 24.109375 28.597656 24.167969 28.757812 C 24.675781 30.125 25.046875 31.535156 25.363281 32.957031 C 25.484375 33.488281 25.597656 34.023438 25.710938 34.554688 C 25.71875 34.582031 25.722656 34.613281 25.726562 34.644531 C 25.785156 34.914062 25.679688 34.960938 25.472656 35.007812 C 25.398438 35.023438 25.316406 35.023438 25.238281 35.023438 C 24.980469 35.019531 24.796875 34.910156 24.710938 34.65625 C 24.5625 34.21875 24.410156 33.777344 24.257812 33.335938 C 23.863281 32.160156 23.523438 30.96875 23.308594 29.742188 C 23.238281 29.34375 23.179688 28.945312 23.117188 28.542969 C 23.125 28.542969 23.132812 28.542969 23.140625 28.539062 Z M 23.140625 28.539062 " fill-opacity="1" fill-rule="nonzero"/><path fill="#000000" d="M 26.296875 2.457031 C 26.460938 2.496094 26.632812 2.519531 26.789062 2.574219 C 26.984375 2.644531 27.058594 2.761719 27.042969 2.964844 C 27.035156 3.078125 27.011719 3.191406 26.980469 3.300781 C 26.84375 3.726562 26.644531 4.117188 26.371094 4.472656 C 25.75 5.28125 25.195312 6.222656 24.539062 6.980469 C 24.3125 7.246094 23.351562 7.746094 23.605469 6.984375 C 23.671875 6.785156 23.738281 6.582031 23.824219 6.386719 C 24.25 5.441406 24.683594 4.492188 25.113281 3.546875 C 25.199219 3.367188 25.285156 3.1875 25.382812 3.011719 C 25.605469 2.605469 25.824219 2.480469 26.296875 2.457031 Z M 26.296875 2.457031 " fill-opacity="1" fill-rule="nonzero"/><path fill="#c40008" d="M 29.328125 33.070312 C 29.1875 33.042969 29.070312 33.035156 28.960938 33 C 28.886719 32.976562 28.804688 32.929688 28.75 32.871094 C 28.144531 32.21875 27.582031 31.527344 27.085938 30.789062 C 26.71875 30.242188 26.363281 29.683594 26.011719 29.125 C 25.90625 28.957031 25.8125 28.78125 25.738281 28.597656 C 25.648438 28.382812 25.722656 28.277344 25.953125 28.253906 C 26.125 28.238281 26.273438 28.273438 26.40625 28.398438 C 27.191406 29.136719 27.949219 29.902344 28.652344 30.71875 C 29.097656 31.230469 29.464844 31.800781 29.8125 32.386719 C 29.847656 32.449219 29.882812 32.511719 29.90625 32.582031 C 29.972656 32.761719 29.925781 32.890625 29.742188 32.964844 C 29.605469 33.015625 29.453125 33.039062 29.328125 33.070312 Z M 29.328125 33.070312 " fill-opacity="1" fill-rule="nonzero"/><g clip-path="url(#3b58b76416)"><path fill="#c40008" d="M 22.195312 3.90625 C 22.167969 4.550781 22.148438 5.140625 22.117188 5.734375 C 22.105469 5.957031 22.074219 6.179688 22.042969 6.402344 C 22.042969 6.402344 22.042969 6.402344 22.042969 6.40625 C 21.953125 7.007812 21.234375 6.609375 21.195312 6.144531 C 21.101562 4.984375 20.957031 3.808594 20.957031 2.640625 C 20.941406 2.152344 20.984375 1.664062 21 1.171875 C 21 1.144531 21.007812 1.113281 21.011719 1.082031 C 21.054688 0.789062 21.160156 0.6875 21.464844 0.671875 C 21.574219 0.664062 21.683594 0.671875 21.789062 0.6875 C 21.933594 0.714844 22.027344 0.796875 22.046875 0.953125 C 22.09375 1.394531 22.167969 1.832031 22.1875 2.269531 C 22.214844 2.832031 22.195312 3.394531 22.195312 3.90625 Z M 22.195312 3.90625 " fill-opacity="1" fill-rule="nonzero"/></g><path fill="#000000" d="M 17.359375 32.128906 C 17.765625 31.480469 18.144531 30.953125 18.28125 30.777344 C 18.390625 30.636719 18.511719 30.496094 18.675781 30.4375 C 18.84375 30.378906 19.0625 30.4375 19.121094 30.601562 C 19.15625 30.707031 19.121094 30.820312 19.085938 30.925781 C 18.839844 31.65625 18.574219 32.378906 18.285156 33.097656 C 18.109375 33.539062 17.894531 33.96875 17.699219 34.402344 C 17.546875 34.75 17.398438 35.101562 17.25 35.453125 C 17.207031 35.550781 17.136719 35.625 17.03125 35.65625 C 16.832031 35.71875 16.628906 35.726562 16.425781 35.664062 C 15.53125 35.394531 16.503906 33.496094 17.359375 32.128906 Z M 17.359375 32.128906 " fill-opacity="1" fill-rule="nonzero"/><g clip-path="url(#44a646ff88)"><path fill="#000000" d="M 18.765625 6.722656 C 18.757812 6.839844 18.761719 6.929688 18.742188 7.015625 C 18.714844 7.167969 18.589844 7.214844 18.464844 7.117188 C 18.421875 7.085938 18.386719 7.042969 18.359375 6.996094 C 18.304688 6.898438 18.246094 6.800781 18.207031 6.695312 C 17.734375 5.496094 17.269531 4.296875 16.898438 3.0625 C 16.722656 2.472656 16.597656 1.871094 16.457031 1.273438 C 16.394531 1.003906 16.476562 0.90625 16.753906 0.871094 C 16.808594 0.863281 16.863281 0.863281 16.914062 0.859375 C 17.292969 0.855469 17.457031 0.949219 17.589844 1.296875 C 17.910156 2.125 18.160156 2.972656 18.308594 3.847656 C 18.421875 4.53125 18.542969 5.210938 18.652344 5.890625 C 18.699219 6.175781 18.730469 6.464844 18.765625 6.722656 Z M 18.765625 6.722656 " fill-opacity="1" fill-rule="nonzero"/></g><path fill="#c40008" d="M 13.359375 3.6875 C 13.621094 3.644531 13.839844 3.734375 14.019531 3.917969 C 14.5 4.410156 14.992188 4.898438 15.390625 5.464844 C 15.855469 6.128906 16.316406 6.792969 16.78125 7.457031 C 16.835938 7.535156 16.886719 7.621094 16.929688 7.707031 C 17.019531 7.875 16.988281 7.957031 16.804688 8.027344 C 16.601562 8.105469 16.398438 8.105469 16.214844 7.980469 C 16.050781 7.871094 15.886719 7.75 15.746094 7.609375 C 15.488281 7.355469 15.238281 7.089844 15 6.820312 C 14.605469 6.375 14.214844 5.929688 13.835938 5.472656 C 13.605469 5.195312 13.394531 4.898438 13.191406 4.597656 C 13.089844 4.449219 13.011719 4.28125 12.949219 4.113281 C 12.878906 3.921875 12.925781 3.835938 13.113281 3.757812 C 13.191406 3.726562 13.277344 3.710938 13.359375 3.6875 Z M 13.359375 3.6875 " fill-opacity="1" fill-rule="nonzero"/><path fill="#c40008" d="M 31.433594 26.820312 C 31.285156 26.789062 31.136719 26.769531 30.992188 26.722656 C 30.660156 26.621094 30.695312 26.246094 30.738281 25.976562 C 30.765625 25.773438 30.898438 25.636719 31.070312 25.546875 C 31.472656 25.34375 32.609375 25.367188 32.363281 26.09375 C 32.175781 26.636719 31.933594 26.792969 31.433594 26.820312 Z M 31.433594 26.820312 " fill-opacity="1" fill-rule="nonzero"/><path fill="#000000" d="M 27.980469 8.851562 C 28.007812 8.988281 28.03125 9.121094 28.050781 9.253906 C 28.0625 9.316406 28.070312 9.378906 28.082031 9.441406 C 28.085938 9.472656 28.089844 9.503906 28.09375 9.53125 C 28.09375 9.539062 28.101562 9.597656 28.097656 9.550781 C 28.097656 9.570312 28.101562 9.589844 28.105469 9.613281 C 28.136719 9.875 28.164062 10.140625 28.179688 10.40625 C 28.214844 10.933594 28.214844 11.464844 28.183594 11.992188 C 28.164062 12.292969 28.136719 12.59375 28.097656 12.894531 C 28.101562 12.859375 28.105469 12.828125 28.109375 12.796875 C 28.089844 12.925781 28.078125 13.054688 28.058594 13.179688 C 28.066406 13.148438 28.070312 13.117188 28.074219 13.082031 C 28.058594 13.195312 28.042969 13.308594 28.023438 13.421875 C 27.996094 13.578125 27.964844 13.757812 28.019531 13.910156 C 28.0625 14.039062 28.160156 14.128906 28.296875 14.148438 C 28.355469 14.15625 28.410156 14.152344 28.46875 14.125 C 28.539062 14.097656 28.578125 14.054688 28.625 13.992188 C 28.691406 13.90625 28.71875 13.796875 28.738281 13.691406 C 28.757812 13.585938 28.765625 13.476562 28.773438 13.367188 C 28.789062 13.203125 28.804688 13.039062 28.8125 12.875 C 28.824219 12.542969 28.824219 12.207031 28.808594 11.875 C 28.78125 11.199219 28.699219 10.523438 28.566406 9.855469 C 28.496094 9.488281 28.40625 9.125 28.300781 8.765625 C 28.277344 8.679688 28.183594 8.621094 28.097656 8.648438 C 28.003906 8.679688 27.964844 8.761719 27.980469 8.851562 Z M 27.980469 8.851562 " fill-opacity="1" fill-rule="nonzero"/><path fill="#000000" d="M 27.777344 8.203125 C 27.789062 8.222656 27.800781 8.242188 27.8125 8.265625 C 27.832031 8.296875 27.855469 8.320312 27.890625 8.339844 C 27.921875 8.359375 27.957031 8.371094 27.996094 8.371094 C 28.027344 8.371094 28.054688 8.363281 28.078125 8.351562 C 28.105469 8.34375 28.128906 8.328125 28.148438 8.308594 C 28.160156 8.292969 28.171875 8.277344 28.179688 8.265625 C 28.199219 8.230469 28.210938 8.195312 28.210938 8.160156 C 28.210938 8.15625 28.210938 8.15625 28.210938 8.15625 C 28.210938 8.121094 28.199219 8.082031 28.179688 8.050781 C 28.164062 8.019531 28.136719 7.992188 28.105469 7.972656 C 28.082031 7.960938 28.0625 7.949219 28.042969 7.9375 C 28.027344 7.933594 28.011719 7.925781 27.996094 7.917969 C 27.96875 7.910156 27.945312 7.910156 27.917969 7.917969 C 27.902344 7.917969 27.886719 7.921875 27.871094 7.929688 C 27.847656 7.9375 27.824219 7.949219 27.808594 7.96875 C 27.796875 7.980469 27.789062 7.996094 27.777344 8.007812 C 27.773438 8.023438 27.765625 8.039062 27.757812 8.054688 C 27.75 8.078125 27.75 8.105469 27.753906 8.128906 C 27.757812 8.15625 27.765625 8.179688 27.777344 8.203125 Z M 27.777344 8.203125 " fill-opacity="1" fill-rule="nonzero"/><path fill="#c40008" d="M 11.375 28.847656 C 11.402344 28.800781 11.425781 28.753906 11.453125 28.707031 C 11.488281 28.648438 11.511719 28.578125 11.535156 28.515625 C 11.546875 28.492188 11.554688 28.46875 11.566406 28.445312 C 11.582031 28.410156 11.574219 28.433594 11.5625 28.457031 C 11.566406 28.441406 11.574219 28.429688 11.578125 28.417969 C 11.597656 28.367188 11.621094 28.320312 11.640625 28.269531 C 11.738281 28.054688 11.824219 27.835938 11.914062 27.617188 C 11.902344 27.640625 11.894531 27.664062 11.882812 27.6875 C 12.292969 26.71875 12.78125 25.773438 13.367188 24.898438 C 13.535156 24.648438 13.71875 24.40625 13.902344 24.164062 C 13.882812 24.191406 13.867188 24.214844 13.847656 24.238281 C 13.9375 24.121094 14.027344 24.003906 14.121094 23.890625 C 14.167969 23.835938 14.210938 23.78125 14.257812 23.726562 C 14.308594 23.671875 14.371094 23.621094 14.429688 23.574219 C 14.542969 23.484375 14.558594 23.3125 14.535156 23.179688 C 14.496094 22.992188 14.324219 22.886719 14.140625 22.882812 C 14.003906 22.882812 13.855469 22.960938 13.792969 23.085938 C 13.769531 23.128906 13.746094 23.167969 13.722656 23.210938 C 13.695312 23.261719 13.660156 23.300781 13.628906 23.347656 C 13.566406 23.425781 13.507812 23.507812 13.449219 23.589844 C 13.328125 23.753906 13.210938 23.921875 13.097656 24.09375 C 12.871094 24.429688 12.65625 24.773438 12.453125 25.121094 C 12.027344 25.84375 11.660156 26.597656 11.359375 27.378906 C 11.277344 27.59375 11.199219 27.808594 11.136719 28.03125 C 11.105469 28.140625 11.078125 28.25 11.050781 28.363281 C 11.019531 28.488281 11 28.613281 10.988281 28.742188 C 10.980469 28.828125 11.058594 28.925781 11.140625 28.945312 C 11.230469 28.964844 11.328125 28.929688 11.375 28.847656 Z M 11.375 28.847656 " fill-opacity="1" fill-rule="nonzero"/></svg>