<svg xmlns="http://www.w3.org/2000/svg" xmlns:xlink="http://www.w3.org/1999/xlink" width="50" zoomAndPan="magnify" viewBox="0 0 37.5 37.499999" height="50" preserveAspectRatio="xMidYMid meet" version="1.0"><defs><clipPath id="206dbb46bd"><path d="M 0.542969 15 L 33 15 L 33 30.992188 L 0.542969 30.992188 Z M 0.542969 15 " clip-rule="nonzero"/></clipPath><clipPath id="ba4457159c"><path d="M 8 6.242188 L 27 6.242188 L 27 20 L 8 20 Z M 8 6.242188 " clip-rule="nonzero"/></clipPath><clipPath id="c2ed29014c"><path d="M 34 16 L 37.007812 16 L 37.007812 18 L 34 18 Z M 34 16 " clip-rule="nonzero"/></clipPath></defs><g clip-path="url(#206dbb46bd)"><path fill="#c40008" d="M 32.203125 16.140625 C 32.128906 15.953125 32.046875 15.761719 31.945312 15.585938 C 31.558594 14.921875 30.6875 14.890625 30.226562 15.253906 C 30.109375 15.351562 29.992188 15.453125 29.886719 15.5625 C 29.554688 15.902344 29.261719 16.277344 28.988281 16.667969 C 28.496094 17.371094 28.09375 18.125 27.742188 18.902344 C 27.71875 18.957031 27.691406 19.007812 27.664062 19.058594 C 27.625 19.003906 27.617188 18.957031 27.613281 18.914062 C 27.574219 18.207031 27.476562 17.511719 27.351562 16.816406 C 27.292969 16.472656 27.230469 16.125 27.085938 15.800781 C 26.9375 15.457031 26.703125 15.335938 26.332031 15.414062 C 26.21875 15.4375 26.101562 15.492188 26.011719 15.5625 C 25.886719 15.664062 25.761719 15.78125 25.671875 15.914062 C 25.507812 16.167969 25.351562 16.433594 25.214844 16.703125 C 24.835938 17.480469 24.546875 18.296875 24.292969 19.121094 C 24.273438 19.175781 24.253906 19.230469 24.238281 19.285156 C 24.203125 19.226562 24.195312 19.171875 24.1875 19.113281 C 24.148438 18.828125 24.121094 18.535156 24.070312 18.25 C 24.035156 18.066406 23.976562 17.890625 23.910156 17.714844 C 23.859375 17.570312 23.734375 17.484375 23.582031 17.445312 C 23.246094 17.367188 22.980469 17.460938 22.796875 17.746094 C 22.660156 17.964844 22.53125 18.1875 22.410156 18.414062 C 21.972656 19.230469 21.628906 20.089844 21.257812 20.933594 C 21.078125 21.339844 20.871094 21.734375 20.675781 22.132812 C 20.648438 22.1875 20.609375 22.234375 20.5625 22.308594 C 20.539062 22.246094 20.527344 22.214844 20.519531 22.183594 C 20.394531 21.675781 20.292969 21.167969 20.261719 20.648438 C 20.21875 19.992188 20.207031 19.335938 20.183594 18.675781 C 20.175781 18.476562 20.171875 18.28125 20.15625 18.082031 C 20.140625 17.898438 20.085938 17.84375 19.929688 17.820312 C 19.707031 17.785156 19.570312 17.832031 19.507812 17.988281 C 19.453125 18.117188 19.40625 18.25 19.367188 18.382812 C 18.941406 19.78125 18.429688 21.144531 17.792969 22.464844 C 17.570312 22.933594 17.324219 23.394531 17.082031 23.855469 C 17.042969 23.933594 16.984375 24.007812 16.925781 24.089844 C 16.902344 24.058594 16.890625 24.046875 16.882812 24.03125 C 16.863281 23.988281 16.847656 23.945312 16.828125 23.902344 C 16.601562 23.335938 16.496094 22.746094 16.441406 22.148438 C 16.378906 21.433594 16.339844 20.71875 16.285156 20.003906 C 16.277344 19.875 16.273438 19.746094 16.246094 19.621094 C 16.222656 19.507812 16.191406 19.398438 16.21875 19.28125 C 16.242188 19.199219 16.207031 19.132812 16.132812 19.085938 C 15.898438 18.9375 15.542969 19.023438 15.410156 19.265625 C 15.351562 19.375 15.300781 19.488281 15.257812 19.601562 C 15.148438 19.902344 15.035156 20.203125 14.945312 20.511719 C 14.675781 21.464844 14.421875 22.421875 14.160156 23.378906 C 14.046875 23.796875 13.921875 24.207031 13.734375 24.601562 C 13.703125 24.667969 13.667969 24.730469 13.632812 24.800781 C 13.605469 24.78125 13.59375 24.777344 13.589844 24.765625 C 13.5625 24.71875 13.539062 24.675781 13.519531 24.625 C 13.324219 24.183594 13.203125 23.722656 13.121094 23.25 C 13.003906 22.546875 12.972656 21.835938 12.972656 21.125 C 12.96875 20.894531 12.917969 20.839844 12.6875 20.8125 C 12.625 20.804688 12.558594 20.804688 12.492188 20.816406 C 12.300781 20.84375 12.253906 20.886719 12.214844 21.074219 C 12.136719 21.441406 12.066406 21.808594 11.980469 22.167969 C 11.710938 23.296875 11.449219 24.429688 11.089844 25.53125 C 10.925781 26.039062 10.753906 26.542969 10.515625 27.019531 C 10.472656 27.097656 10.425781 27.175781 10.363281 27.285156 C 10.324219 27.1875 10.296875 27.125 10.277344 27.058594 C 10.167969 26.632812 10.039062 26.207031 9.953125 25.773438 C 9.839844 25.210938 9.761719 24.644531 9.664062 24.082031 C 9.636719 23.941406 9.601562 23.796875 9.5625 23.660156 C 9.289062 22.71875 8.640625 22.195312 7.675781 22.015625 C 7.519531 21.988281 7.363281 21.972656 7.199219 21.953125 C 7.175781 21.871094 7.152344 21.800781 7.128906 21.730469 C 7.027344 21.4375 6.910156 21.152344 6.714844 20.902344 C 6.484375 20.613281 6.183594 20.480469 5.808594 20.515625 C 5.476562 20.546875 5.265625 20.753906 5.238281 21.082031 C 5.214844 21.371094 5.3125 21.621094 5.515625 21.828125 C 5.695312 22.015625 5.925781 22.125 6.175781 22.191406 C 6.273438 22.21875 6.371094 22.242188 6.480469 22.269531 C 6.488281 22.34375 6.492188 22.398438 6.496094 22.457031 C 6.539062 23.070312 6.476562 23.679688 6.363281 24.285156 C 6.160156 25.394531 5.796875 26.460938 5.359375 27.5 C 5.121094 28.074219 4.84375 28.628906 4.496094 29.144531 C 4.074219 29.761719 3.425781 30.640625 2.691406 29.953125 C 2.34375 29.628906 2.09375 29.230469 1.890625 28.808594 C 1.644531 28.304688 1.488281 27.773438 1.363281 27.234375 C 1.332031 27.085938 1.28125 27.035156 1.132812 27.011719 C 0.816406 26.960938 0.644531 27.082031 0.597656 27.394531 C 0.550781 27.714844 0.578125 28.035156 0.640625 28.351562 C 0.761719 29.007812 1.023438 29.609375 1.472656 30.121094 C 1.757812 30.449219 2.101562 30.691406 2.535156 30.792969 C 3.375 30.992188 4.148438 30.851562 4.835938 30.320312 C 5.132812 30.089844 5.375 29.808594 5.585938 29.503906 C 5.863281 29.109375 6.085938 28.683594 6.273438 28.242188 C 6.699219 27.226562 7.007812 26.175781 7.199219 25.09375 C 7.34375 24.269531 7.398438 23.4375 7.308594 22.605469 C 7.300781 22.53125 7.296875 22.457031 7.289062 22.367188 C 7.5625 22.421875 7.78125 22.539062 7.96875 22.714844 C 8.25 22.984375 8.398438 23.320312 8.445312 23.691406 C 8.507812 24.167969 8.550781 24.652344 8.59375 25.132812 C 8.636719 25.605469 8.691406 26.070312 8.804688 26.53125 C 8.898438 26.894531 9.015625 27.25 9.203125 27.574219 C 9.308594 27.761719 9.4375 27.925781 9.632812 28.035156 C 10.183594 28.335938 10.917969 28.175781 11.25 27.652344 C 11.398438 27.417969 11.515625 27.15625 11.617188 26.898438 C 11.855469 26.285156 12.003906 25.648438 12.160156 25.015625 C 12.210938 24.800781 12.257812 24.585938 12.3125 24.332031 C 12.34375 24.414062 12.359375 24.460938 12.378906 24.507812 C 12.453125 24.691406 12.519531 24.878906 12.605469 25.058594 C 12.6875 25.238281 12.8125 25.382812 12.996094 25.476562 C 13.523438 25.753906 14.246094 25.601562 14.59375 25.125 C 14.703125 24.96875 14.792969 24.792969 14.871094 24.617188 C 15.066406 24.183594 15.183594 23.726562 15.296875 23.269531 C 15.308594 23.214844 15.328125 23.164062 15.34375 23.109375 C 15.378906 23.175781 15.394531 23.238281 15.40625 23.300781 C 15.507812 23.710938 15.675781 24.09375 15.925781 24.441406 C 16.289062 24.957031 17.34375 25.035156 17.726562 24.375 C 17.769531 24.296875 17.824219 24.226562 17.863281 24.148438 C 17.988281 23.882812 18.121094 23.621094 18.226562 23.351562 C 18.542969 22.511719 18.847656 21.664062 19.15625 20.820312 C 19.179688 20.757812 19.207031 20.695312 19.230469 20.632812 C 19.257812 20.675781 19.257812 20.710938 19.261719 20.75 C 19.285156 21.09375 19.296875 21.4375 19.335938 21.777344 C 19.371094 22.113281 19.449219 22.445312 19.59375 22.753906 C 19.671875 22.917969 19.78125 23.050781 19.957031 23.125 C 20.417969 23.320312 20.96875 23.1875 21.261719 22.785156 C 21.410156 22.585938 21.546875 22.367188 21.644531 22.136719 C 21.875 21.609375 22.085938 21.070312 22.292969 20.53125 C 22.5625 19.832031 22.8125 19.128906 23.144531 18.457031 C 23.164062 18.414062 23.191406 18.375 23.21875 18.335938 C 23.246094 18.382812 23.253906 18.417969 23.25 18.449219 C 23.234375 19.078125 23.234375 19.707031 23.199219 20.335938 C 23.148438 21.308594 23.101562 22.28125 23.140625 23.253906 C 23.152344 23.523438 23.246094 23.613281 23.523438 23.625 C 23.613281 23.628906 23.703125 23.617188 23.789062 23.59375 C 23.925781 23.558594 23.964844 23.5 23.976562 23.355469 C 23.988281 23.257812 23.992188 23.15625 24.027344 23.066406 C 24.183594 22.667969 24.265625 22.25 24.363281 21.835938 C 24.714844 20.335938 25.128906 18.851562 25.675781 17.410156 C 25.84375 16.960938 26.023438 16.515625 26.269531 16.101562 C 26.328125 15.996094 26.402344 15.898438 26.46875 15.796875 C 26.484375 15.796875 26.496094 15.800781 26.511719 15.800781 C 26.542969 15.910156 26.59375 16.015625 26.605469 16.128906 C 26.648438 16.5 26.707031 16.871094 26.710938 17.242188 C 26.722656 18.113281 26.703125 18.988281 26.699219 19.863281 C 26.695312 20.292969 26.703125 20.726562 26.710938 21.15625 C 26.714844 21.347656 26.773438 21.417969 26.964844 21.460938 C 27.066406 21.484375 27.175781 21.496094 27.28125 21.492188 C 27.597656 21.484375 27.707031 21.394531 27.773438 21.097656 C 28.046875 19.902344 28.492188 18.769531 29.035156 17.667969 C 29.386719 16.953125 29.824219 16.285156 30.371094 15.695312 C 30.484375 15.578125 30.609375 15.46875 30.742188 15.371094 C 30.871094 15.273438 30.941406 15.285156 31.011719 15.425781 C 31.085938 15.570312 31.144531 15.726562 31.171875 15.886719 C 31.285156 16.59375 31.335938 17.308594 31.292969 18.027344 C 31.238281 18.964844 31.183594 19.902344 31.25 20.839844 C 31.273438 21.164062 31.308594 21.488281 31.34375 21.8125 C 31.359375 21.957031 31.453125 22.039062 31.585938 22.085938 C 31.839844 22.175781 32.097656 22.175781 32.355469 22.105469 C 32.546875 22.054688 32.664062 21.9375 32.679688 21.738281 C 32.6875 21.671875 32.703125 21.609375 32.707031 21.546875 C 32.78125 20.617188 32.804688 19.6875 32.742188 18.753906 C 32.679688 17.855469 32.523438 16.984375 32.203125 16.140625 Z M 5.996094 20.90625 C 6.226562 21.167969 6.316406 21.457031 6.398438 21.773438 C 6.082031 21.660156 5.890625 21.253906 5.996094 20.90625 Z M 5.996094 20.90625 " fill-opacity="1" fill-rule="nonzero"/></g><g clip-path="url(#ba4457159c)"><path fill="#000000" d="M 8.773438 13.714844 C 8.980469 15.15625 9.195312 16.597656 9.410156 18.039062 C 9.457031 18.363281 9.53125 18.679688 9.59375 19 C 9.617188 19.109375 9.664062 19.199219 9.773438 19.246094 C 10.085938 19.375 10.398438 19.375 10.707031 19.246094 C 10.820312 19.203125 10.867188 19.117188 10.855469 18.996094 C 10.792969 18.339844 10.730469 17.6875 10.667969 17.03125 C 10.628906 16.648438 10.566406 16.265625 10.554688 15.882812 C 10.519531 15.03125 10.578125 14.183594 10.683594 13.339844 C 10.824219 12.246094 11.105469 11.191406 11.550781 10.175781 C 11.726562 9.78125 11.929688 9.398438 12.195312 9.050781 C 12.273438 8.949219 12.363281 8.855469 12.457031 8.769531 C 12.597656 8.640625 12.640625 8.640625 12.804688 8.730469 C 12.976562 8.828125 13.113281 8.96875 13.230469 9.121094 C 13.417969 9.359375 13.546875 9.628906 13.652344 9.910156 C 13.855469 10.453125 13.964844 11.019531 14.042969 11.589844 C 14.167969 12.503906 14.152344 13.414062 14.074219 14.328125 C 14.0625 14.449219 14.011719 14.53125 13.925781 14.613281 C 13.515625 15 13.101562 15.386719 12.710938 15.792969 C 12.488281 16.027344 12.285156 16.28125 12.101562 16.542969 C 11.84375 16.917969 11.726562 17.335938 11.761719 17.789062 C 11.796875 18.226562 12.066406 18.714844 12.660156 18.792969 C 13.167969 18.859375 13.628906 18.75 14.019531 18.40625 C 14.367188 18.097656 14.632812 17.726562 14.828125 17.308594 C 15.085938 16.753906 15.207031 16.160156 15.292969 15.558594 C 15.367188 14.988281 15.394531 14.421875 15.390625 13.847656 C 15.390625 13.765625 15.398438 13.695312 15.46875 13.628906 C 15.8125 13.308594 16.152344 12.984375 16.496094 12.660156 C 16.519531 12.636719 16.546875 12.625 16.585938 12.597656 C 16.609375 12.6875 16.628906 12.761719 16.648438 12.832031 C 16.722656 13.109375 16.820312 13.378906 16.972656 13.625 C 17.144531 13.90625 17.382812 14.105469 17.710938 14.1875 C 18.335938 14.339844 18.941406 14.207031 19.34375 13.628906 C 19.464844 13.457031 19.578125 13.277344 19.675781 13.089844 C 19.816406 12.808594 19.957031 12.523438 20.066406 12.226562 C 20.335938 11.496094 20.589844 10.753906 20.851562 10.015625 C 20.867188 9.96875 20.886719 9.917969 20.90625 9.867188 C 20.945312 9.9375 20.949219 9.996094 20.957031 10.058594 C 21.007812 10.441406 21.042969 10.824219 21.109375 11.199219 C 21.1875 11.625 21.332031 12.035156 21.566406 12.40625 C 21.777344 12.734375 22.085938 12.914062 22.472656 12.957031 C 22.621094 12.972656 22.769531 12.972656 22.917969 12.964844 C 23.304688 12.945312 23.628906 12.789062 23.882812 12.503906 C 24.003906 12.367188 24.113281 12.21875 24.214844 12.066406 C 24.566406 11.527344 24.839844 10.945312 25.101562 10.359375 C 25.128906 10.304688 25.15625 10.25 25.179688 10.199219 C 25.207031 10.296875 25.207031 10.382812 25.199219 10.46875 C 25.132812 11.402344 25.121094 12.332031 25.140625 13.265625 C 25.144531 13.445312 25.179688 13.625 25.207031 13.800781 C 25.230469 13.925781 25.320312 14.003906 25.441406 14.046875 C 25.648438 14.113281 25.859375 14.113281 26.070312 14.046875 C 26.191406 14.007812 26.257812 13.929688 26.269531 13.804688 C 26.273438 13.722656 26.28125 13.640625 26.289062 13.5625 C 26.507812 11.582031 26.464844 9.628906 26.402344 7.644531 C 26.390625 7.277344 26.378906 6.910156 26.398438 6.542969 C 26.40625 6.386719 26.355469 6.300781 26.199219 6.273438 C 26.140625 6.261719 26.082031 6.25 26.023438 6.25 C 25.746094 6.242188 25.65625 6.300781 25.554688 6.554688 C 25.386719 6.988281 25.21875 7.425781 25.0625 7.863281 C 24.648438 8.996094 24.183594 10.105469 23.59375 11.160156 C 23.402344 11.507812 23.167969 11.832031 22.949219 12.164062 C 22.902344 12.234375 22.832031 12.289062 22.753906 12.367188 C 22.667969 12.234375 22.578125 12.132812 22.523438 12.011719 C 22.398438 11.742188 22.269531 11.472656 22.175781 11.191406 C 21.945312 10.496094 21.839844 9.773438 21.78125 9.046875 C 21.753906 8.652344 21.742188 8.253906 21.714844 7.859375 C 21.703125 7.648438 21.632812 7.585938 21.414062 7.574219 C 21.363281 7.574219 21.308594 7.574219 21.253906 7.582031 C 21.140625 7.597656 21.054688 7.648438 21.015625 7.761719 C 20.960938 7.902344 20.902344 8.042969 20.851562 8.1875 C 20.671875 8.679688 20.503906 9.179688 20.316406 9.667969 C 19.964844 10.589844 19.605469 11.507812 19.148438 12.386719 C 18.960938 12.746094 18.765625 13.097656 18.5 13.410156 C 18.417969 13.507812 18.324219 13.59375 18.230469 13.691406 C 18.078125 13.539062 18 13.367188 17.929688 13.195312 C 17.71875 12.675781 17.640625 12.128906 17.605469 11.574219 C 17.601562 11.488281 17.636719 11.433594 17.683594 11.371094 C 17.863281 11.136719 18.046875 10.90625 18.214844 10.667969 C 18.40625 10.390625 18.5625 10.097656 18.65625 9.773438 C 18.738281 9.496094 18.773438 9.214844 18.714844 8.929688 C 18.636719 8.566406 18.4375 8.398438 18.0625 8.378906 C 17.625 8.359375 17.308594 8.550781 17.078125 8.898438 C 16.90625 9.15625 16.792969 9.4375 16.71875 9.730469 C 16.527344 10.460938 16.457031 11.199219 16.507812 11.949219 C 16.515625 12.054688 16.492188 12.136719 16.414062 12.214844 C 16.097656 12.53125 15.785156 12.851562 15.472656 13.171875 C 15.449219 13.195312 15.417969 13.210938 15.371094 13.25 C 15.355469 13.089844 15.339844 12.964844 15.328125 12.835938 C 15.230469 11.925781 15.023438 11.042969 14.679688 10.195312 C 14.507812 9.765625 14.292969 9.355469 13.976562 9.007812 C 13.785156 8.792969 13.570312 8.613281 13.308594 8.492188 C 12.792969 8.257812 12.019531 8.222656 11.507812 8.910156 C 11.273438 9.226562 11.066406 9.558594 10.898438 9.914062 C 10.472656 10.816406 10.164062 11.757812 9.972656 12.734375 C 9.960938 12.796875 9.949219 12.855469 9.933594 12.917969 C 9.890625 12.859375 9.875 12.804688 9.859375 12.75 C 9.757812 12.402344 9.675781 12.050781 9.546875 11.710938 C 9.410156 11.34375 9.101562 11.207031 8.714844 11.300781 C 8.503906 11.347656 8.460938 11.40625 8.488281 11.621094 C 8.585938 12.320312 8.671875 13.019531 8.773438 13.714844 Z M 13.96875 15.132812 C 13.867188 15.792969 13.734375 16.449219 13.5 17.078125 C 13.359375 17.457031 13.171875 17.8125 12.910156 18.128906 C 12.882812 18.164062 12.847656 18.195312 12.8125 18.230469 C 12.496094 17.964844 12.40625 17.621094 12.421875 17.238281 C 12.433594 16.921875 12.546875 16.636719 12.722656 16.375 C 13.054688 15.875 13.480469 15.453125 13.921875 15.046875 C 13.929688 15.039062 13.941406 15.039062 13.972656 15.035156 C 13.972656 15.070312 13.976562 15.101562 13.96875 15.132812 Z M 17.980469 8.996094 C 18.167969 9.371094 17.972656 10.195312 17.617188 10.625 C 17.675781 10.066406 17.71875 9.523438 17.980469 8.996094 Z M 17.980469 8.996094 " fill-opacity="1" fill-rule="nonzero"/></g><path fill="#c40008" d="M 19.5 16.171875 C 19.5 16.226562 19.511719 16.273438 19.535156 16.320312 C 19.550781 16.367188 19.578125 16.40625 19.617188 16.441406 C 19.632812 16.457031 19.652344 16.46875 19.667969 16.484375 C 19.667969 16.484375 19.667969 16.488281 19.671875 16.488281 C 19.679688 16.503906 19.683594 16.523438 19.695312 16.539062 C 19.742188 16.617188 19.816406 16.660156 19.902344 16.6875 C 19.921875 16.691406 19.945312 16.695312 19.964844 16.695312 C 19.988281 16.699219 20.011719 16.703125 20.03125 16.703125 C 20.0625 16.703125 20.089844 16.695312 20.121094 16.691406 C 20.125 16.691406 20.128906 16.6875 20.136719 16.6875 C 20.144531 16.683594 20.15625 16.679688 20.164062 16.679688 C 20.203125 16.664062 20.25 16.648438 20.285156 16.621094 C 20.320312 16.597656 20.355469 16.570312 20.386719 16.539062 C 20.410156 16.515625 20.429688 16.488281 20.449219 16.460938 C 20.457031 16.453125 20.460938 16.445312 20.464844 16.4375 C 20.503906 16.359375 20.535156 16.269531 20.527344 16.183594 C 20.523438 16.152344 20.519531 16.113281 20.511719 16.082031 C 20.503906 16.050781 20.488281 16.019531 20.472656 15.992188 C 20.457031 15.953125 20.425781 15.921875 20.402344 15.890625 C 20.375 15.863281 20.339844 15.835938 20.304688 15.816406 C 20.273438 15.789062 20.230469 15.777344 20.191406 15.761719 C 20.175781 15.753906 20.160156 15.75 20.140625 15.746094 C 20.101562 15.738281 20.054688 15.734375 20.011719 15.734375 C 19.992188 15.734375 19.972656 15.734375 19.953125 15.738281 C 19.910156 15.742188 19.863281 15.746094 19.820312 15.757812 C 19.78125 15.773438 19.734375 15.789062 19.699219 15.816406 C 19.671875 15.835938 19.640625 15.855469 19.617188 15.882812 C 19.589844 15.90625 19.570312 15.9375 19.546875 15.96875 C 19.539062 15.992188 19.527344 16.019531 19.515625 16.046875 C 19.503906 16.078125 19.5 16.113281 19.503906 16.144531 C 19.503906 16.152344 19.503906 16.15625 19.503906 16.160156 C 19.503906 16.164062 19.503906 16.167969 19.5 16.171875 Z M 19.5 16.171875 " fill-opacity="1" fill-rule="nonzero"/><path fill="#c40008" d="M 28.625 7.691406 C 28.636719 7.871094 28.644531 8.050781 28.652344 8.230469 C 28.671875 8.59375 28.714844 8.953125 28.742188 9.316406 C 28.769531 9.675781 28.804688 10.03125 28.839844 10.390625 C 28.875 10.75 28.902344 11.113281 28.941406 11.476562 C 28.964844 11.675781 28.992188 11.878906 29.015625 12.082031 C 29.027344 12.199219 29.042969 12.316406 29.070312 12.429688 C 29.089844 12.53125 29.109375 12.628906 29.132812 12.726562 C 29.152344 12.820312 29.253906 12.875 29.34375 12.863281 C 29.441406 12.847656 29.503906 12.773438 29.507812 12.675781 C 29.519531 12.496094 29.539062 12.316406 29.535156 12.132812 C 29.527344 11.953125 29.523438 11.773438 29.515625 11.59375 C 29.5 11.230469 29.46875 10.867188 29.441406 10.507812 C 29.414062 10.148438 29.386719 9.789062 29.347656 9.433594 C 29.308594 9.070312 29.269531 8.710938 29.226562 8.347656 C 29.203125 8.132812 29.167969 7.914062 29.132812 7.695312 C 29.117188 7.59375 29.101562 7.496094 29.082031 7.394531 C 29.070312 7.347656 29.0625 7.300781 29.054688 7.253906 C 29.035156 7.183594 29 7.121094 28.941406 7.070312 C 28.855469 6.996094 28.746094 7.015625 28.683594 7.105469 C 28.613281 7.199219 28.617188 7.308594 28.617188 7.421875 C 28.617188 7.511719 28.621094 7.601562 28.625 7.691406 Z M 28.625 7.691406 " fill-opacity="1" fill-rule="nonzero"/><path fill="#000000" d="M 31.476562 13.222656 C 31.558594 13.253906 31.671875 13.226562 31.714844 13.144531 C 31.875 12.835938 32.03125 12.527344 32.191406 12.21875 C 32.351562 11.910156 32.496094 11.59375 32.648438 11.277344 C 32.945312 10.648438 33.226562 10.011719 33.515625 9.375 C 33.597656 9.195312 33.675781 9.015625 33.757812 8.835938 C 33.808594 8.726562 33.855469 8.613281 33.898438 8.5 C 33.953125 8.359375 33.984375 8.175781 33.886719 8.042969 C 33.847656 7.996094 33.8125 7.960938 33.753906 7.933594 C 33.695312 7.910156 33.644531 7.914062 33.578125 7.921875 C 33.4375 7.941406 33.3125 8.074219 33.257812 8.195312 C 33.207031 8.296875 33.160156 8.398438 33.117188 8.503906 C 33.050781 8.664062 32.984375 8.824219 32.921875 8.984375 C 32.789062 9.304688 32.65625 9.628906 32.523438 9.949219 C 32.390625 10.273438 32.257812 10.59375 32.128906 10.917969 C 32.003906 11.242188 31.871094 11.5625 31.753906 11.890625 C 31.625 12.261719 31.496094 12.628906 31.363281 13 C 31.332031 13.085938 31.394531 13.1875 31.476562 13.222656 Z M 31.476562 13.222656 " fill-opacity="1" fill-rule="nonzero"/><path fill="#c40008" d="M 35.4375 13.792969 C 35.636719 13.6875 35.832031 13.578125 36.023438 13.460938 C 36.128906 13.398438 36.234375 13.335938 36.335938 13.265625 C 36.386719 13.230469 36.4375 13.195312 36.488281 13.160156 C 36.558594 13.113281 36.613281 13.054688 36.671875 12.996094 C 36.738281 12.929688 36.757812 12.8125 36.707031 12.730469 C 36.652344 12.648438 36.550781 12.601562 36.453125 12.628906 C 36.402344 12.644531 36.351562 12.65625 36.296875 12.675781 C 36.226562 12.695312 36.160156 12.738281 36.09375 12.769531 C 35.996094 12.820312 35.898438 12.871094 35.800781 12.925781 C 35.605469 13.039062 35.414062 13.152344 35.226562 13.273438 C 35.035156 13.390625 34.84375 13.511719 34.65625 13.628906 C 34.464844 13.75 34.28125 13.882812 34.097656 14.007812 C 33.890625 14.152344 33.679688 14.292969 33.472656 14.433594 C 33.398438 14.484375 33.359375 14.582031 33.410156 14.660156 C 33.464844 14.738281 33.558594 14.761719 33.640625 14.71875 C 34.042969 14.519531 34.445312 14.316406 34.847656 14.117188 C 35.046875 14.015625 35.242188 13.902344 35.4375 13.792969 Z M 35.4375 13.792969 " fill-opacity="1" fill-rule="nonzero"/><g clip-path="url(#c2ed29014c)"><path fill="#000000" d="M 37.195312 16.710938 C 37.128906 16.628906 37.042969 16.601562 36.9375 16.59375 C 36.890625 16.585938 36.84375 16.589844 36.792969 16.59375 C 36.699219 16.601562 36.609375 16.605469 36.515625 16.609375 C 36.332031 16.621094 36.144531 16.652344 35.957031 16.667969 C 35.582031 16.699219 35.203125 16.722656 34.828125 16.730469 C 34.714844 16.734375 34.609375 16.824219 34.613281 16.9375 C 34.621094 17.058594 34.707031 17.136719 34.828125 17.148438 C 35.207031 17.179688 35.585938 17.203125 35.964844 17.210938 C 36.15625 17.214844 36.347656 17.226562 36.535156 17.214844 C 36.628906 17.207031 36.71875 17.199219 36.8125 17.191406 C 36.878906 17.183594 36.949219 17.179688 37.015625 17.160156 C 37.117188 17.132812 37.1875 17.074219 37.234375 16.988281 C 37.285156 16.890625 37.265625 16.792969 37.195312 16.710938 Z M 37.195312 16.710938 " fill-opacity="1" fill-rule="nonzero"/></g><path fill="#000000" d="M 8.035156 15.613281 C 8.066406 15.945312 8.101562 16.277344 8.15625 16.605469 C 8.214844 16.957031 8.261719 17.316406 8.398438 17.648438 C 8.433594 17.738281 8.511719 17.800781 8.617188 17.789062 C 8.714844 17.773438 8.789062 17.695312 8.789062 17.59375 C 8.800781 17.292969 8.746094 16.996094 8.703125 16.695312 C 8.707031 16.71875 8.710938 16.742188 8.714844 16.765625 C 8.671875 16.460938 8.628906 16.160156 8.585938 15.855469 C 8.53125 15.460938 8.484375 15.066406 8.449219 14.667969 C 8.410156 14.265625 8.367188 13.867188 8.335938 13.464844 C 8.316406 13.234375 8.304688 13.003906 8.292969 12.777344 C 8.285156 12.675781 8.207031 12.582031 8.097656 12.585938 C 7.996094 12.59375 7.910156 12.671875 7.90625 12.777344 C 7.902344 13.40625 7.90625 14.039062 7.949219 14.667969 C 7.972656 14.984375 8 15.296875 8.035156 15.613281 Z M 8.035156 15.613281 " fill-opacity="1" fill-rule="nonzero"/></svg>