<svg xmlns="http://www.w3.org/2000/svg" xmlns:xlink="http://www.w3.org/1999/xlink" width="50" zoomAndPan="magnify" viewBox="0 0 37.5 37.499999" height="50" preserveAspectRatio="xMidYMid meet" version="1.0"><defs><clipPath id="ee7c45a46d"><path d="M 30 10 L 36.820312 10 L 36.820312 26 L 30 26 Z M 30 10 " clip-rule="nonzero"/></clipPath><clipPath id="a94640cec4"><path d="M 0.820312 14 L 8 14 L 8 28.914062 L 0.820312 28.914062 Z M 0.820312 14 " clip-rule="nonzero"/></clipPath><clipPath id="49dedb4a64"><path d="M 5 8.664062 L 8 8.664062 L 8 13 L 5 13 Z M 5 8.664062 " clip-rule="nonzero"/></clipPath><clipPath id="1e93bf96ff"><path d="M 21 8.664062 L 24 8.664062 L 24 13 L 21 13 Z M 21 8.664062 " clip-rule="nonzero"/></clipPath></defs><path fill="#000000" d="M 15.429688 24.257812 C 15.445312 24.277344 15.480469 24.320312 15.523438 24.371094 C 15.550781 24.367188 15.535156 24.277344 15.601562 24.304688 C 15.605469 24.277344 15.613281 24.25 15.617188 24.21875 C 15.617188 24.195312 15.59375 24.15625 15.609375 24.140625 C 15.675781 24.054688 15.65625 23.949219 15.6875 23.851562 C 15.714844 23.757812 15.722656 23.65625 15.738281 23.558594 C 15.757812 23.453125 15.773438 23.351562 15.789062 23.25 C 15.804688 23.152344 15.820312 23.050781 15.832031 22.949219 C 15.894531 22.464844 15.960938 21.980469 16.023438 21.496094 C 16.054688 21.230469 16.078125 20.96875 16.109375 20.707031 C 16.148438 20.378906 16.191406 20.046875 16.234375 19.71875 C 16.261719 19.503906 16.285156 19.289062 16.324219 19.074219 C 16.367188 18.847656 16.375 18.617188 16.425781 18.390625 C 16.453125 18.257812 16.460938 18.121094 16.480469 17.988281 C 16.558594 17.429688 16.636719 16.867188 16.710938 16.308594 C 16.753906 15.980469 16.796875 15.648438 16.84375 15.320312 C 16.859375 15.191406 16.875 15.066406 16.894531 14.9375 C 16.945312 14.574219 16.992188 14.207031 17.042969 13.84375 C 17.074219 13.632812 17.113281 13.425781 17.144531 13.214844 C 17.148438 13.179688 17.152344 13.144531 17.15625 13.105469 C 17.160156 13.023438 17.195312 12.996094 17.28125 13.019531 C 17.308594 13.027344 17.332031 13.035156 17.367188 13.042969 C 17.375 13.070312 17.382812 13.101562 17.386719 13.132812 C 17.417969 13.136719 17.445312 13.136719 17.472656 13.144531 C 17.527344 13.152344 17.570312 13.171875 17.589844 13.242188 C 17.605469 13.300781 17.65625 13.355469 17.695312 13.421875 C 17.769531 13.417969 17.792969 13.476562 17.796875 13.550781 C 17.796875 13.609375 17.796875 13.664062 17.867188 13.6875 C 17.886719 13.695312 17.910156 13.722656 17.921875 13.75 C 18.015625 13.925781 18.113281 14.101562 18.070312 14.320312 C 18.058594 14.410156 18.066406 14.503906 18.058594 14.59375 C 18.003906 15.222656 17.945312 15.851562 17.886719 16.476562 C 17.839844 17.023438 17.789062 17.570312 17.742188 18.121094 C 17.699219 18.59375 17.660156 19.070312 17.621094 19.546875 C 17.597656 19.804688 17.574219 20.0625 17.550781 20.324219 C 17.519531 20.675781 17.488281 21.027344 17.453125 21.375 C 17.429688 21.574219 17.402344 21.773438 17.386719 21.96875 C 17.359375 22.269531 17.339844 22.566406 17.3125 22.867188 C 17.289062 23.132812 17.261719 23.402344 17.234375 23.667969 C 17.203125 24 17.175781 24.332031 17.140625 24.664062 C 17.128906 24.832031 17.105469 24.996094 17.085938 25.164062 C 17.078125 25.242188 17.078125 25.320312 17.066406 25.394531 C 17.019531 25.671875 16.980469 25.953125 16.917969 26.226562 C 16.882812 26.382812 16.808594 26.53125 16.734375 26.667969 C 16.640625 26.839844 16.496094 26.847656 16.304688 26.757812 C 16.230469 26.722656 16.164062 26.679688 16.078125 26.660156 C 15.996094 26.640625 15.910156 26.585938 15.839844 26.53125 C 15.707031 26.417969 15.585938 26.300781 15.460938 26.179688 C 15.429688 26.144531 15.421875 26.085938 15.394531 26.042969 C 15.367188 26.003906 15.328125 25.96875 15.292969 25.925781 C 15.09375 25.683594 14.941406 25.410156 14.804688 25.128906 C 14.660156 24.8125 14.53125 24.488281 14.394531 24.167969 C 14.320312 23.996094 14.242188 23.824219 14.179688 23.644531 C 14.011719 23.199219 13.84375 22.75 13.683594 22.300781 C 13.515625 21.820312 13.347656 21.339844 13.199219 20.851562 C 13.066406 20.421875 12.957031 19.984375 12.839844 19.554688 C 12.667969 18.921875 12.539062 18.28125 12.421875 17.640625 C 12.410156 17.59375 12.398438 17.546875 12.371094 17.5 C 12.359375 17.613281 12.339844 17.726562 12.328125 17.839844 C 12.265625 18.402344 12.203125 18.964844 12.144531 19.527344 C 12.097656 19.988281 12.042969 20.445312 12.011719 20.90625 C 11.957031 21.683594 11.90625 22.460938 11.867188 23.238281 C 11.8125 24.1875 11.792969 25.136719 11.820312 26.089844 C 11.832031 26.480469 11.851562 26.867188 11.871094 27.253906 C 11.882812 27.449219 11.882812 27.640625 11.859375 27.832031 C 11.757812 27.824219 11.757812 27.824219 11.734375 27.695312 C 11.710938 27.777344 11.675781 27.789062 11.613281 27.753906 C 11.519531 27.707031 11.457031 27.628906 11.394531 27.550781 C 11.128906 27.214844 11.019531 26.820312 10.949219 26.410156 C 10.878906 25.988281 10.851562 25.566406 10.820312 25.140625 C 10.769531 24.425781 10.773438 23.710938 10.789062 22.996094 C 10.804688 22.390625 10.84375 21.785156 10.882812 21.179688 C 10.910156 20.753906 10.957031 20.328125 11.003906 19.902344 C 11.042969 19.566406 11.085938 19.230469 11.132812 18.902344 C 11.175781 18.605469 11.226562 18.316406 11.269531 18.019531 C 11.308594 17.726562 11.34375 17.425781 11.394531 17.128906 C 11.445312 16.816406 11.507812 16.503906 11.566406 16.195312 C 11.625 15.882812 11.683594 15.566406 11.75 15.25 C 11.773438 15.140625 11.808594 15.035156 11.835938 14.925781 C 11.886719 14.761719 12.042969 14.789062 12.132812 14.875 C 12.175781 14.914062 12.210938 14.941406 12.257812 14.960938 C 12.285156 14.972656 12.316406 14.984375 12.328125 15.007812 C 12.433594 15.15625 12.578125 15.28125 12.644531 15.457031 C 12.652344 15.476562 12.640625 15.503906 12.648438 15.527344 C 12.652344 15.550781 12.660156 15.59375 12.675781 15.601562 C 12.765625 15.636719 12.789062 15.726562 12.824219 15.796875 C 12.972656 16.070312 13.078125 16.367188 13.171875 16.667969 C 13.296875 17.078125 13.425781 17.484375 13.535156 17.902344 C 13.710938 18.554688 13.867188 19.214844 14.046875 19.871094 C 14.1875 20.386719 14.34375 20.894531 14.496094 21.40625 C 14.566406 21.652344 14.644531 21.898438 14.722656 22.140625 C 14.863281 22.554688 15.011719 22.964844 15.15625 23.378906 C 15.226562 23.582031 15.292969 23.789062 15.359375 23.996094 C 15.363281 24.011719 15.378906 24.03125 15.382812 24.046875 C 15.398438 24.109375 15.410156 24.171875 15.429688 24.257812 Z M 16.554688 26.589844 C 16.496094 26.589844 16.449219 26.589844 16.382812 26.589844 C 16.417969 26.648438 16.445312 26.691406 16.472656 26.734375 C 16.5 26.6875 16.523438 26.648438 16.554688 26.589844 Z M 16.554688 26.589844 " fill-opacity="1" fill-rule="nonzero"/><g clip-path="url(#ee7c45a46d)"><path fill="#000000" d="M 32.902344 25.359375 C 32.871094 25.386719 32.839844 25.417969 32.804688 25.445312 C 32.707031 25.511719 32.613281 25.582031 32.507812 25.644531 C 32.410156 25.707031 32.304688 25.757812 32.203125 25.8125 C 32.152344 25.835938 32.101562 25.847656 32.058594 25.800781 C 32.015625 25.75 32.011719 25.679688 32.050781 25.625 C 32.0625 25.609375 32.074219 25.59375 32.089844 25.578125 C 32.027344 25.511719 31.972656 25.550781 31.921875 25.578125 C 31.894531 25.59375 31.878906 25.621094 31.851562 25.640625 C 31.785156 25.691406 31.710938 25.65625 31.691406 25.574219 C 31.675781 25.578125 31.65625 25.585938 31.640625 25.582031 C 31.59375 25.566406 31.472656 25.441406 31.425781 25.367188 C 31.445312 25.3125 31.46875 25.257812 31.492188 25.207031 C 31.546875 25.222656 31.546875 25.222656 31.558594 25.171875 C 31.535156 25.183594 31.515625 25.195312 31.492188 25.207031 C 31.488281 25.207031 31.488281 25.210938 31.480469 25.214844 C 31.4375 25.238281 31.402344 25.292969 31.34375 25.261719 C 31.28125 25.226562 31.257812 25.167969 31.257812 25.097656 C 31.257812 25.074219 31.261719 25.050781 31.261719 25.027344 C 31.289062 25.011719 31.320312 25 31.332031 24.980469 C 31.359375 24.941406 31.359375 24.90625 31.339844 24.820312 C 31.285156 24.863281 31.226562 24.902344 31.179688 24.933594 C 31.15625 24.90625 31.136719 24.867188 31.105469 24.839844 C 31.050781 24.785156 31.09375 24.695312 31.050781 24.65625 C 31.003906 24.617188 30.929688 24.589844 30.929688 24.523438 C 30.925781 24.355469 30.824219 24.207031 30.824219 24.035156 C 30.824219 23.988281 30.820312 23.9375 30.828125 23.890625 C 30.847656 23.792969 30.875 23.699219 30.851562 23.589844 C 30.835938 23.515625 30.882812 23.417969 30.925781 23.34375 C 30.972656 23.269531 31.011719 23.175781 31.109375 23.144531 C 31.117188 23.144531 31.128906 23.136719 31.128906 23.132812 C 31.148438 23.003906 31.253906 22.945312 31.332031 22.859375 C 31.433594 22.742188 31.542969 22.632812 31.648438 22.523438 C 31.75 22.421875 31.855469 22.320312 31.957031 22.222656 C 31.972656 22.207031 31.988281 22.195312 32.003906 22.183594 C 32.0625 22.136719 32.125 22.097656 32.183594 22.050781 C 32.445312 21.851562 32.703125 21.644531 32.964844 21.449219 C 33.28125 21.207031 33.597656 20.972656 33.90625 20.722656 C 34.179688 20.503906 34.429688 20.265625 34.675781 20.015625 C 34.847656 19.839844 34.996094 19.648438 35.121094 19.4375 C 35.363281 19.03125 35.480469 18.605469 35.285156 18.132812 C 35.167969 17.847656 35.003906 17.601562 34.789062 17.386719 C 34.589844 17.183594 34.363281 17.011719 34.113281 16.871094 C 33.957031 16.78125 33.824219 16.664062 33.648438 16.601562 C 33.613281 16.589844 33.589844 16.550781 33.554688 16.515625 C 33.542969 16.515625 33.511719 16.527344 33.488281 16.523438 C 33.171875 16.386719 32.855469 16.25 32.539062 16.113281 C 32.265625 15.996094 31.996094 15.867188 31.757812 15.691406 C 31.4375 15.460938 31.148438 15.1875 30.957031 14.828125 C 30.875 14.671875 30.78125 14.523438 30.699219 14.367188 C 30.628906 14.226562 30.578125 14.078125 30.558594 13.921875 C 30.550781 13.863281 30.523438 13.804688 30.507812 13.75 C 30.457031 13.527344 30.441406 13.304688 30.460938 13.078125 C 30.46875 13.003906 30.46875 12.925781 30.476562 12.847656 C 30.515625 12.425781 30.683594 12.054688 30.917969 11.707031 C 31.125 11.402344 31.367188 11.128906 31.652344 10.898438 C 31.753906 10.8125 31.867188 10.746094 31.980469 10.671875 C 32.019531 10.644531 32.054688 10.609375 32.09375 10.585938 C 32.394531 10.410156 32.710938 10.257812 33.050781 10.171875 C 33.285156 10.113281 33.519531 10.054688 33.765625 10.046875 C 34.109375 10.03125 34.414062 10.125 34.660156 10.363281 C 34.753906 10.457031 34.828125 10.574219 34.898438 10.691406 C 34.960938 10.796875 35.003906 10.914062 35.058594 11.023438 C 35.105469 11.117188 35.054688 11.203125 35.054688 11.292969 C 35.054688 11.308594 35.011719 11.335938 34.984375 11.34375 C 34.917969 11.359375 34.851562 11.367188 34.78125 11.378906 C 34.503906 11.425781 34.253906 11.53125 34 11.65625 C 33.816406 11.746094 33.632812 11.847656 33.464844 11.976562 C 33.347656 12.066406 33.246094 12.171875 33.132812 12.265625 C 32.910156 12.445312 32.738281 12.671875 32.558594 12.890625 C 32.410156 13.0625 32.292969 13.257812 32.15625 13.441406 C 32.105469 13.507812 32.078125 13.601562 31.988281 13.640625 C 31.980469 13.644531 31.976562 13.667969 31.972656 13.679688 C 31.964844 13.703125 31.964844 13.730469 31.949219 13.75 C 31.863281 13.835938 31.851562 13.964844 31.785156 14.0625 C 31.757812 14.101562 31.753906 14.15625 31.738281 14.207031 C 31.921875 14.296875 32.09375 14.375 32.261719 14.453125 C 32.445312 14.539062 32.628906 14.609375 32.804688 14.699219 C 33.003906 14.804688 33.210938 14.894531 33.402344 15.015625 C 33.574219 15.117188 33.757812 15.203125 33.914062 15.320312 C 34.144531 15.496094 34.386719 15.648438 34.59375 15.851562 C 34.730469 15.984375 34.878906 16.109375 35.011719 16.246094 C 35.039062 16.277344 35.078125 16.296875 35.078125 16.351562 C 35.078125 16.375 35.132812 16.386719 35.15625 16.414062 C 35.226562 16.492188 35.296875 16.574219 35.363281 16.664062 C 35.484375 16.828125 35.613281 16.988281 35.710938 17.167969 C 35.855469 17.433594 36.019531 17.691406 36.132812 17.972656 C 36.308594 18.402344 36.496094 18.824219 36.625 19.265625 C 36.742188 19.675781 36.820312 20.089844 36.785156 20.511719 C 36.75 20.964844 36.714844 21.417969 36.539062 21.84375 C 36.460938 22.039062 36.375 22.234375 36.246094 22.410156 C 36.160156 22.527344 36.085938 22.660156 36.003906 22.78125 C 35.980469 22.820312 35.949219 22.855469 35.914062 22.890625 C 35.882812 22.925781 35.84375 22.949219 35.832031 23.003906 C 35.824219 23.039062 35.785156 23.066406 35.757812 23.097656 C 35.683594 23.179688 35.601562 23.257812 35.527344 23.339844 C 35.429688 23.449219 35.320312 23.542969 35.214844 23.644531 C 35.195312 23.617188 35.175781 23.597656 35.15625 23.574219 C 35.144531 23.585938 35.136719 23.59375 35.132812 23.605469 C 35.128906 23.660156 35.152344 23.726562 35.054688 23.714844 C 35.042969 23.710938 35.03125 23.742188 35.019531 23.757812 C 35.003906 23.777344 34.992188 23.8125 34.96875 23.828125 C 34.898438 23.875 34.851562 23.949219 34.785156 24.003906 C 34.726562 24.050781 34.660156 24.09375 34.597656 24.128906 C 34.574219 24.140625 34.539062 24.125 34.503906 24.125 C 34.492188 24.109375 34.480469 24.09375 34.457031 24.066406 C 34.445312 24.105469 34.4375 24.128906 34.421875 24.179688 C 34.464844 24.148438 34.488281 24.132812 34.507812 24.117188 C 34.515625 24.210938 34.445312 24.257812 34.386719 24.304688 C 34.320312 24.355469 34.246094 24.398438 34.175781 24.445312 C 34.164062 24.453125 34.148438 24.453125 34.132812 24.453125 C 34.007812 24.449219 34.003906 24.453125 34.011719 24.566406 C 33.921875 24.640625 33.835938 24.714844 33.746094 24.789062 C 33.738281 24.796875 33.730469 24.8125 33.722656 24.8125 C 33.644531 24.804688 33.617188 24.886719 33.566406 24.910156 C 33.4375 24.96875 33.371094 25.117188 33.222656 25.144531 C 33.132812 25.242188 33.015625 25.296875 32.902344 25.359375 C 32.917969 25.328125 32.933594 25.300781 32.957031 25.25 C 32.875 25.277344 32.914062 25.328125 32.902344 25.359375 Z M 32.675781 23.679688 C 32.609375 23.746094 32.546875 23.8125 32.480469 23.882812 C 32.5625 23.949219 32.574219 23.839844 32.628906 23.832031 C 32.683594 23.820312 32.691406 23.742188 32.675781 23.679688 C 32.699219 23.714844 32.71875 23.742188 32.75 23.785156 C 32.75 23.6875 32.75 23.6875 32.675781 23.679688 Z M 32.253906 10.730469 C 32.261719 10.738281 32.269531 10.742188 32.273438 10.75 C 32.289062 10.75 32.308594 10.75 32.316406 10.738281 C 32.40625 10.652344 32.558594 10.683594 32.628906 10.5625 C 32.640625 10.542969 32.683594 10.539062 32.714844 10.53125 C 32.789062 10.503906 32.859375 10.476562 32.929688 10.449219 C 32.921875 10.425781 32.917969 10.414062 32.914062 10.414062 C 32.8125 10.410156 32.714844 10.441406 32.640625 10.492188 C 32.550781 10.554688 32.472656 10.597656 32.367188 10.578125 C 32.328125 10.632812 32.289062 10.679688 32.253906 10.730469 Z M 33.472656 10.273438 C 33.300781 10.207031 33.15625 10.320312 32.992188 10.304688 C 32.992188 10.339844 32.988281 10.363281 32.984375 10.394531 C 33.148438 10.351562 33.300781 10.3125 33.472656 10.273438 Z M 33.945312 22.730469 C 33.992188 22.765625 34.035156 22.796875 34.085938 22.839844 C 34.078125 22.769531 34.074219 22.707031 34.070312 22.632812 C 34.019531 22.667969 33.984375 22.695312 33.945312 22.730469 Z M 32.746094 21.988281 C 32.769531 22.046875 32.808594 22.027344 32.851562 22.011719 C 32.878906 21.996094 32.917969 21.984375 32.921875 21.964844 C 32.925781 21.933594 32.914062 21.894531 32.855469 21.886719 C 32.894531 22.007812 32.773438 21.9375 32.746094 21.988281 Z M 31.953125 24.304688 C 31.929688 24.351562 31.917969 24.382812 31.898438 24.417969 C 31.957031 24.421875 32.003906 24.417969 32.039062 24.359375 C 32.007812 24.339844 31.988281 24.324219 31.953125 24.304688 Z M 32.683594 24.382812 C 32.703125 24.335938 32.777344 24.339844 32.742188 24.261719 C 32.703125 24.273438 32.664062 24.285156 32.617188 24.300781 C 32.640625 24.328125 32.65625 24.347656 32.683594 24.382812 Z M 32.289062 24.035156 C 32.242188 24.066406 32.210938 24.09375 32.167969 24.125 C 32.199219 24.136719 32.210938 24.152344 32.226562 24.148438 C 32.25 24.140625 32.277344 24.128906 32.296875 24.113281 C 32.304688 24.101562 32.292969 24.074219 32.289062 24.035156 Z M 33.878906 22.8125 C 33.871094 22.808594 33.867188 22.800781 33.863281 22.796875 C 33.835938 22.820312 33.804688 22.847656 33.777344 22.875 C 33.78125 22.878906 33.785156 22.882812 33.789062 22.890625 C 33.820312 22.863281 33.851562 22.839844 33.878906 22.8125 Z M 33.972656 21.308594 C 33.972656 21.292969 33.976562 21.285156 33.976562 21.273438 C 33.9375 21.21875 33.90625 21.257812 33.851562 21.300781 C 33.90625 21.300781 33.9375 21.304688 33.972656 21.308594 Z M 32.402344 22.003906 C 32.410156 22.035156 32.421875 22.066406 32.429688 22.101562 C 32.472656 22.054688 32.472656 22.019531 32.402344 22.003906 Z M 33.027344 25.050781 C 33.019531 25.039062 33.015625 25.03125 33.011719 25.023438 C 32.992188 25.035156 32.972656 25.046875 32.953125 25.058594 C 32.957031 25.066406 32.960938 25.074219 32.964844 25.082031 C 32.984375 25.070312 33.007812 25.058594 33.027344 25.050781 Z M 33.757812 21.316406 C 33.757812 21.308594 33.757812 21.300781 33.753906 21.292969 C 33.734375 21.296875 33.71875 21.300781 33.695312 21.304688 C 33.699219 21.316406 33.703125 21.324219 33.707031 21.335938 C 33.722656 21.328125 33.742188 21.320312 33.757812 21.316406 Z M 33.40625 21.582031 C 33.414062 21.582031 33.421875 21.582031 33.433594 21.585938 C 33.433594 21.558594 33.433594 21.53125 33.433594 21.503906 C 33.425781 21.503906 33.421875 21.503906 33.414062 21.503906 C 33.410156 21.53125 33.40625 21.558594 33.40625 21.582031 Z M 33.050781 23.488281 C 33.054688 23.484375 33.0625 23.484375 33.070312 23.480469 C 33.0625 23.460938 33.058594 23.441406 33.050781 23.421875 C 33.042969 23.425781 33.035156 23.429688 33.023438 23.433594 C 33.035156 23.453125 33.042969 23.472656 33.050781 23.488281 Z M 33.429688 23.777344 C 33.4375 23.769531 33.441406 23.765625 33.449219 23.757812 C 33.4375 23.742188 33.425781 23.730469 33.414062 23.714844 C 33.40625 23.722656 33.402344 23.726562 33.398438 23.730469 C 33.40625 23.742188 33.417969 23.761719 33.429688 23.777344 Z M 32.429688 23.972656 C 32.410156 23.960938 32.398438 23.949219 32.394531 23.953125 C 32.386719 23.960938 32.378906 23.972656 32.371094 23.984375 C 32.378906 23.988281 32.386719 24.003906 32.394531 24 C 32.40625 23.996094 32.414062 23.984375 32.429688 23.972656 Z M 34.238281 24.1875 C 34.246094 24.195312 34.25 24.195312 34.257812 24.199219 C 34.269531 24.1875 34.28125 24.171875 34.292969 24.15625 C 34.289062 24.152344 34.277344 24.144531 34.269531 24.136719 C 34.257812 24.15625 34.25 24.171875 34.238281 24.1875 Z M 33.597656 11.707031 C 33.632812 11.730469 33.667969 11.734375 33.683594 11.679688 C 33.648438 11.691406 33.625 11.699219 33.597656 11.707031 Z M 33.644531 22.429688 C 33.652344 22.425781 33.660156 22.421875 33.667969 22.414062 C 33.65625 22.398438 33.640625 22.382812 33.628906 22.367188 C 33.625 22.371094 33.617188 22.375 33.613281 22.378906 C 33.625 22.398438 33.632812 22.414062 33.644531 22.429688 Z M 33.644531 22.429688 " fill-opacity="1" fill-rule="nonzero"/></g><g clip-path="url(#a94640cec4)"><path fill="#000000" d="M 5.898438 18.589844 C 5.929688 18.5625 5.953125 18.566406 5.96875 18.597656 C 5.980469 18.625 5.984375 18.652344 5.992188 18.679688 C 6.023438 18.675781 6.054688 18.675781 6.105469 18.675781 C 6.105469 18.742188 6.109375 18.800781 6.113281 18.871094 C 6.203125 18.902344 6.300781 18.933594 6.320312 19.058594 C 6.320312 19.082031 6.355469 19.097656 6.371094 19.121094 C 6.410156 19.171875 6.425781 19.234375 6.410156 19.292969 C 6.398438 19.339844 6.386719 19.378906 6.414062 19.429688 C 6.421875 19.445312 6.398438 19.496094 6.386719 19.5 C 6.300781 19.519531 6.257812 19.597656 6.199219 19.648438 C 5.929688 19.871094 5.667969 20.101562 5.394531 20.316406 C 5.25 20.425781 5.125 20.554688 4.984375 20.664062 C 4.589844 20.980469 4.203125 21.300781 3.816406 21.621094 C 3.804688 21.628906 3.796875 21.640625 3.789062 21.644531 C 3.539062 21.78125 3.339844 21.984375 3.101562 22.136719 C 3.058594 22.164062 3.015625 22.183594 2.980469 22.125 C 2.957031 22.097656 2.929688 22.070312 2.875 22.109375 C 2.886719 22.148438 2.902344 22.195312 2.917969 22.253906 C 2.824219 22.304688 2.726562 22.359375 2.625 22.414062 C 2.613281 22.394531 2.605469 22.382812 2.597656 22.367188 C 2.589844 22.371094 2.578125 22.378906 2.578125 22.378906 C 2.589844 22.441406 2.5625 22.476562 2.507812 22.503906 C 2.472656 22.523438 2.4375 22.546875 2.402344 22.5625 C 2.3125 22.601562 2.25 22.660156 2.25 22.773438 C 2.25 22.953125 2.234375 23.136719 2.230469 23.316406 C 2.21875 23.84375 2.257812 24.367188 2.3125 24.890625 C 2.332031 25.058594 2.339844 25.226562 2.367188 25.390625 C 2.398438 25.59375 2.4375 25.792969 2.480469 25.992188 C 2.527344 26.191406 2.585938 26.390625 2.636719 26.585938 C 2.726562 26.945312 3.109375 27.207031 3.480469 27.199219 C 3.683594 27.191406 3.878906 27.148438 4.0625 27.074219 C 4.335938 26.964844 4.59375 26.828125 4.84375 26.675781 C 5.203125 26.457031 5.570312 26.242188 5.933594 26.03125 C 6 25.992188 6.078125 25.964844 6.152344 25.933594 C 6.269531 25.890625 6.28125 25.890625 6.402344 25.953125 C 6.390625 25.96875 6.378906 25.988281 6.363281 26.007812 C 6.527344 26.015625 6.546875 26.03125 6.546875 26.121094 C 6.578125 26.136719 6.617188 26.148438 6.632812 26.171875 C 6.671875 26.230469 6.722656 26.285156 6.765625 26.347656 C 6.785156 26.375 6.773438 26.425781 6.773438 26.476562 C 6.808594 26.492188 6.863281 26.5 6.886719 26.535156 C 6.945312 26.621094 6.988281 26.71875 7.03125 26.816406 C 7.039062 26.835938 7.039062 26.867188 7.027344 26.886719 C 6.988281 26.9375 7.015625 26.992188 7.023438 27.03125 C 6.828125 27.179688 6.632812 27.3125 6.449219 27.460938 C 6.25 27.621094 6.0625 27.789062 5.863281 27.953125 C 5.625 28.148438 5.390625 28.347656 5.144531 28.53125 C 4.941406 28.683594 4.71875 28.789062 4.472656 28.847656 C 4.230469 28.910156 3.996094 28.859375 3.769531 28.777344 C 3.253906 28.585938 2.832031 28.261719 2.488281 27.847656 C 1.976562 27.238281 1.585938 26.5625 1.351562 25.796875 C 1.242188 25.441406 1.140625 25.085938 1.066406 24.722656 C 0.945312 24.152344 0.871094 23.574219 0.84375 22.992188 C 0.824219 22.589844 0.820312 22.183594 0.820312 21.78125 C 0.820312 21.347656 0.839844 20.914062 0.898438 20.488281 C 0.960938 20.0625 1.015625 19.640625 1.128906 19.222656 C 1.171875 19.070312 1.199219 18.910156 1.242188 18.757812 C 1.253906 18.703125 1.289062 18.65625 1.304688 18.605469 C 1.3125 18.578125 1.296875 18.542969 1.304688 18.511719 C 1.335938 18.398438 1.367188 18.289062 1.402344 18.175781 C 1.449219 18.035156 1.496094 17.894531 1.550781 17.757812 C 1.691406 17.40625 1.828125 17.058594 2.011719 16.726562 C 2.183594 16.410156 2.375 16.101562 2.601562 15.820312 C 2.878906 15.480469 3.175781 15.152344 3.53125 14.886719 C 3.859375 14.644531 4.210938 14.449219 4.613281 14.355469 C 5.027344 14.257812 5.394531 14.339844 5.714844 14.621094 C 5.835938 14.726562 5.933594 14.855469 5.992188 15.007812 C 6.023438 15.09375 6.082031 15.175781 6.128906 15.257812 C 6.203125 15.382812 6.203125 15.519531 6.175781 15.65625 C 6.167969 15.675781 6.144531 15.699219 6.121094 15.730469 C 6.101562 15.691406 6.089844 15.671875 6.089844 15.667969 C 6.035156 15.65625 5.984375 15.65625 5.953125 15.636719 C 5.914062 15.609375 5.890625 15.566406 5.863281 15.527344 C 5.804688 15.445312 5.800781 15.445312 5.703125 15.460938 C 5.554688 15.492188 5.425781 15.558594 5.292969 15.628906 C 4.945312 15.816406 4.683594 16.101562 4.429688 16.394531 C 4.238281 16.613281 4.070312 16.851562 3.902344 17.09375 C 3.867188 17.148438 3.832031 17.207031 3.792969 17.261719 C 3.761719 17.261719 3.734375 17.257812 3.699219 17.253906 C 3.695312 17.296875 3.679688 17.339844 3.6875 17.378906 C 3.695312 17.421875 3.683594 17.453125 3.664062 17.492188 C 3.550781 17.71875 3.4375 17.949219 3.324219 18.179688 C 3.296875 18.234375 3.253906 18.285156 3.222656 18.339844 C 3.207031 18.371094 3.199219 18.40625 3.1875 18.441406 C 3.15625 18.535156 3.121094 18.628906 3.085938 18.722656 C 3.082031 18.738281 3.066406 18.746094 3.0625 18.761719 C 2.980469 19.035156 2.898438 19.304688 2.820312 19.578125 C 2.773438 19.746094 2.730469 19.910156 2.6875 20.078125 C 2.675781 20.117188 2.675781 20.152344 2.6875 20.203125 C 2.753906 20.152344 2.816406 20.097656 2.886719 20.050781 C 3.089844 19.910156 3.28125 19.75 3.503906 19.636719 C 3.628906 19.574219 3.734375 19.476562 3.84375 19.394531 C 4.042969 19.253906 4.238281 19.105469 4.441406 18.972656 C 4.738281 18.769531 5.042969 18.578125 5.347656 18.382812 C 5.441406 18.324219 5.539062 18.277344 5.652344 18.316406 C 5.667969 18.320312 5.695312 18.320312 5.699219 18.328125 C 5.726562 18.429688 5.828125 18.40625 5.898438 18.449219 C 5.898438 18.496094 5.898438 18.542969 5.898438 18.589844 C 5.871094 18.570312 5.84375 18.550781 5.8125 18.527344 C 5.800781 18.554688 5.796875 18.566406 5.789062 18.589844 C 5.828125 18.589844 5.863281 18.589844 5.898438 18.589844 Z M 3.617188 19.773438 C 3.65625 19.753906 3.691406 19.730469 3.726562 19.714844 C 3.789062 19.6875 3.769531 19.652344 3.738281 19.605469 C 3.695312 19.667969 3.65625 19.722656 3.621094 19.773438 C 3.601562 19.785156 3.585938 19.792969 3.566406 19.804688 C 3.570312 19.8125 3.578125 19.816406 3.585938 19.824219 C 3.59375 19.808594 3.605469 19.789062 3.617188 19.773438 Z M 2.671875 22.28125 C 2.726562 22.242188 2.78125 22.207031 2.851562 22.160156 C 2.667969 22.175781 2.667969 22.175781 2.671875 22.28125 Z M 5.609375 26.402344 C 5.546875 26.425781 5.503906 26.4375 5.441406 26.460938 C 5.519531 26.488281 5.5625 26.472656 5.609375 26.402344 Z M 4.332031 19.300781 C 4.28125 19.261719 4.257812 19.277344 4.226562 19.332031 C 4.273438 19.320312 4.304688 19.308594 4.332031 19.300781 Z M 5.890625 26.28125 C 5.886719 26.269531 5.878906 26.261719 5.875 26.25 C 5.835938 26.269531 5.800781 26.289062 5.761719 26.304688 C 5.765625 26.3125 5.765625 26.320312 5.769531 26.324219 C 5.808594 26.308594 5.851562 26.292969 5.890625 26.28125 Z M 5.84375 26.546875 C 5.84375 26.554688 5.84375 26.558594 5.839844 26.566406 C 5.859375 26.574219 5.878906 26.578125 5.894531 26.585938 C 5.894531 26.578125 5.898438 26.566406 5.898438 26.554688 C 5.882812 26.550781 5.863281 26.546875 5.84375 26.546875 Z M 3.851562 19.597656 C 3.855469 19.605469 3.859375 19.613281 3.859375 19.617188 C 3.878906 19.613281 3.894531 19.605469 3.914062 19.597656 C 3.914062 19.597656 3.910156 19.582031 3.902344 19.570312 C 3.886719 19.582031 3.871094 19.589844 3.851562 19.597656 Z M 6.609375 26.214844 C 6.597656 26.238281 6.582031 26.25 6.582031 26.257812 C 6.585938 26.269531 6.601562 26.289062 6.609375 26.292969 C 6.617188 26.292969 6.644531 26.273438 6.640625 26.269531 C 6.644531 26.253906 6.628906 26.242188 6.609375 26.214844 Z M 4.652344 19.042969 C 4.65625 19.046875 4.660156 19.054688 4.667969 19.0625 C 4.679688 19.046875 4.691406 19.035156 4.703125 19.019531 C 4.699219 19.015625 4.695312 19.011719 4.691406 19.007812 C 4.675781 19.019531 4.664062 19.035156 4.652344 19.042969 Z M 5.640625 27.203125 C 5.640625 27.199219 5.636719 27.191406 5.632812 27.191406 C 5.617188 27.199219 5.605469 27.207031 5.589844 27.214844 C 5.59375 27.21875 5.597656 27.226562 5.601562 27.230469 C 5.613281 27.21875 5.625 27.210938 5.640625 27.203125 Z M 5.640625 27.203125 " fill-opacity="1" fill-rule="nonzero"/></g><path fill="#000000" d="M 21.257812 16.527344 C 21.160156 16.5625 21.082031 16.523438 21.011719 16.460938 C 20.925781 16.382812 20.816406 16.320312 20.800781 16.183594 C 20.800781 16.179688 20.800781 16.175781 20.800781 16.175781 C 20.703125 16.144531 20.695312 16.042969 20.644531 15.980469 C 20.640625 15.972656 20.628906 15.972656 20.628906 15.964844 C 20.609375 15.8125 20.460938 15.6875 20.546875 15.515625 C 20.5625 15.492188 20.546875 15.445312 20.535156 15.417969 C 20.503906 15.339844 20.511719 15.3125 20.582031 15.269531 C 20.601562 15.253906 20.625 15.246094 20.644531 15.234375 C 20.828125 15.167969 20.984375 15.058594 21.140625 14.953125 C 21.441406 14.742188 21.746094 14.542969 22.050781 14.339844 C 22.207031 14.234375 22.363281 14.128906 22.515625 14.023438 C 22.585938 13.980469 22.652344 13.933594 22.726562 13.910156 C 22.808594 13.882812 22.828125 13.804688 22.890625 13.761719 C 23.085938 13.640625 23.273438 13.5 23.464844 13.367188 C 23.671875 13.226562 23.882812 13.082031 24.09375 12.941406 C 24.480469 12.6875 24.867188 12.433594 25.253906 12.171875 C 25.589844 11.949219 25.917969 11.722656 26.25 11.496094 C 26.402344 11.394531 26.5625 11.308594 26.71875 11.207031 C 26.800781 11.15625 26.878906 11.136719 26.964844 11.179688 C 26.949219 11.207031 26.933594 11.238281 26.910156 11.285156 C 27.007812 11.28125 27.089844 11.210938 27.167969 11.304688 C 27.144531 11.332031 27.125 11.363281 27.097656 11.40625 C 27.148438 11.40625 27.1875 11.40625 27.230469 11.40625 C 27.230469 11.441406 27.230469 11.476562 27.230469 11.507812 C 27.265625 11.53125 27.328125 11.484375 27.34375 11.550781 C 27.359375 11.605469 27.332031 11.640625 27.296875 11.675781 C 27.265625 11.707031 27.230469 11.742188 27.183594 11.792969 C 27.257812 11.796875 27.292969 11.753906 27.332031 11.738281 C 27.355469 11.730469 27.390625 11.71875 27.40625 11.730469 C 27.445312 11.757812 27.484375 11.804688 27.5 11.839844 C 27.515625 11.882812 27.539062 11.921875 27.5625 11.964844 C 27.582031 12 27.589844 12.046875 27.589844 12.089844 C 27.589844 12.152344 27.542969 12.207031 27.582031 12.273438 C 27.589844 12.289062 27.550781 12.335938 27.527344 12.359375 C 27.363281 12.503906 27.210938 12.65625 27.039062 12.792969 C 26.863281 12.941406 26.679688 13.074219 26.5 13.214844 C 26.433594 13.269531 26.375 13.335938 26.308594 13.390625 C 25.957031 13.671875 25.605469 13.949219 25.253906 14.226562 C 25.203125 14.269531 25.160156 14.316406 25.089844 14.320312 C 25.078125 14.320312 25.0625 14.324219 25.058594 14.335938 C 24.992188 14.46875 24.855469 14.523438 24.746094 14.605469 C 24.601562 14.71875 24.445312 14.824219 24.289062 14.933594 C 24.234375 14.976562 24.175781 15.03125 24.109375 15.054688 C 23.953125 15.109375 23.855469 15.246094 23.71875 15.332031 C 23.582031 15.417969 23.445312 15.511719 23.304688 15.601562 C 23.21875 15.65625 23.128906 15.707031 23.011719 15.78125 C 23.058594 15.816406 23.101562 15.835938 23.132812 15.867188 C 23.417969 16.15625 23.691406 16.449219 23.917969 16.789062 C 24.074219 17.035156 24.210938 17.289062 24.347656 17.550781 C 24.480469 17.804688 24.605469 18.054688 24.707031 18.324219 C 24.859375 18.746094 24.964844 19.179688 25.023438 19.628906 C 25.085938 20.105469 25.128906 20.574219 25.109375 21.054688 C 25.097656 21.355469 25.097656 21.660156 25.046875 21.960938 C 25.015625 22.128906 25.007812 22.296875 24.972656 22.460938 C 24.921875 22.707031 24.863281 22.953125 24.753906 23.179688 C 24.6875 23.3125 24.648438 23.46875 24.527344 23.570312 C 24.507812 23.585938 24.519531 23.628906 24.503906 23.65625 C 24.433594 23.761719 24.359375 23.867188 24.285156 23.96875 C 24.246094 24.019531 24.199219 24.058594 24.15625 24.109375 C 23.898438 24.390625 23.570312 24.503906 23.199219 24.511719 C 22.90625 24.515625 22.636719 24.414062 22.378906 24.292969 C 22.246094 24.230469 22.109375 24.171875 21.984375 24.089844 C 21.695312 23.902344 21.425781 23.691406 21.195312 23.433594 C 20.773438 22.96875 20.425781 22.449219 20.144531 21.886719 C 19.953125 21.503906 19.816406 21.101562 19.695312 20.695312 C 19.507812 20.082031 19.394531 19.464844 19.332031 18.832031 C 19.277344 18.246094 19.265625 17.664062 19.316406 17.078125 C 19.339844 16.777344 19.394531 16.480469 19.507812 16.199219 C 19.539062 16.128906 19.578125 16.054688 19.621094 15.988281 C 19.71875 15.847656 19.863281 15.824219 20.023438 15.917969 C 20.167969 15.996094 20.285156 16.101562 20.367188 16.246094 C 20.46875 16.417969 20.589844 16.585938 20.578125 16.808594 C 20.570312 16.972656 20.582031 17.136719 20.578125 17.300781 C 20.5625 17.949219 20.589844 18.589844 20.679688 19.230469 C 20.726562 19.578125 20.769531 19.925781 20.832031 20.265625 C 20.898438 20.625 20.984375 20.976562 21.070312 21.332031 C 21.101562 21.457031 21.144531 21.578125 21.1875 21.695312 C 21.324219 22.066406 21.59375 22.261719 21.984375 22.300781 C 22.339844 22.339844 22.640625 22.222656 22.914062 21.996094 C 23.109375 21.835938 23.25 21.640625 23.390625 21.433594 C 23.527344 21.222656 23.617188 20.992188 23.699219 20.757812 C 23.9375 20.054688 24.015625 19.335938 23.925781 18.597656 C 23.875 18.175781 23.785156 17.765625 23.566406 17.398438 C 23.359375 17.054688 23.101562 16.746094 22.730469 16.570312 C 22.609375 16.511719 22.476562 16.476562 22.339844 16.453125 C 22.234375 16.429688 22.125 16.429688 22.019531 16.429688 C 21.914062 16.429688 21.8125 16.453125 21.71875 16.507812 C 21.644531 16.550781 21.558594 16.585938 21.476562 16.613281 C 21.355469 16.65625 21.328125 16.640625 21.257812 16.527344 Z M 25.253906 13.277344 C 25.347656 13.191406 25.484375 13.152344 25.574219 13.011719 C 25.53125 13.023438 25.515625 13.023438 25.507812 13.03125 C 25.429688 13.09375 25.351562 13.15625 25.28125 13.226562 C 25.265625 13.238281 25.261719 13.261719 25.253906 13.277344 C 25.175781 13.285156 25.066406 13.363281 25.003906 13.460938 C 25.050781 13.4375 25.078125 13.429688 25.101562 13.410156 C 25.15625 13.367188 25.203125 13.320312 25.253906 13.277344 Z M 26.324219 13.246094 C 26.289062 13.257812 26.265625 13.261719 26.238281 13.269531 C 26.21875 13.242188 26.203125 13.222656 26.183594 13.195312 C 26.171875 13.199219 26.164062 13.207031 26.15625 13.210938 C 26.171875 13.261719 26.191406 13.3125 26.21875 13.382812 C 26.261719 13.328125 26.289062 13.292969 26.324219 13.246094 Z M 24.570312 13.742188 C 24.566406 13.734375 24.558594 13.726562 24.554688 13.722656 C 24.523438 13.75 24.492188 13.773438 24.460938 13.796875 C 24.519531 13.804688 24.558594 13.792969 24.570312 13.742188 Z M 24.914062 13.523438 C 24.824219 13.496094 24.804688 13.519531 24.808594 13.59375 C 24.839844 13.570312 24.867188 13.550781 24.914062 13.523438 Z M 25.707031 12.941406 C 25.703125 12.933594 25.695312 12.925781 25.691406 12.917969 C 25.667969 12.9375 25.648438 12.953125 25.625 12.972656 C 25.625 12.976562 25.632812 12.980469 25.632812 12.988281 C 25.660156 12.96875 25.683594 12.957031 25.707031 12.941406 Z M 26.660156 12.230469 C 26.65625 12.21875 26.652344 12.207031 26.652344 12.195312 C 26.625 12.207031 26.601562 12.214844 26.578125 12.222656 C 26.578125 12.234375 26.582031 12.242188 26.585938 12.25 C 26.613281 12.242188 26.632812 12.238281 26.660156 12.230469 Z M 22.882812 14.914062 C 22.886719 14.917969 22.890625 14.921875 22.890625 14.925781 C 22.910156 14.910156 22.925781 14.902344 22.941406 14.890625 C 22.9375 14.882812 22.9375 14.882812 22.933594 14.875 C 22.917969 14.890625 22.902344 14.902344 22.882812 14.914062 Z M 24.300781 13.972656 C 24.28125 13.964844 24.273438 13.953125 24.265625 13.953125 C 24.253906 13.960938 24.242188 13.972656 24.226562 13.980469 C 24.238281 13.988281 24.25 14.003906 24.261719 14.003906 C 24.273438 14.003906 24.28125 13.988281 24.300781 13.972656 Z M 24.132812 13.179688 C 24.128906 13.171875 24.121094 13.164062 24.117188 13.160156 C 24.101562 13.175781 24.089844 13.1875 24.074219 13.203125 C 24.078125 13.207031 24.085938 13.214844 24.089844 13.21875 C 24.101562 13.203125 24.117188 13.191406 24.132812 13.179688 Z M 25.84375 12.835938 C 25.839844 12.832031 25.835938 12.828125 25.832031 12.820312 C 25.8125 12.835938 25.792969 12.851562 25.769531 12.867188 C 25.773438 12.871094 25.777344 12.875 25.78125 12.882812 C 25.800781 12.867188 25.824219 12.851562 25.84375 12.835938 Z M 25.578125 12.140625 C 25.578125 12.152344 25.578125 12.160156 25.578125 12.171875 C 25.601562 12.164062 25.625 12.160156 25.648438 12.152344 C 25.644531 12.144531 25.644531 12.136719 25.640625 12.132812 C 25.621094 12.136719 25.597656 12.136719 25.578125 12.140625 Z M 19.441406 17.535156 C 19.449219 17.535156 19.457031 17.53125 19.464844 17.527344 C 19.457031 17.511719 19.449219 17.492188 19.441406 17.472656 C 19.4375 17.476562 19.421875 17.484375 19.421875 17.484375 C 19.429688 17.5 19.4375 17.519531 19.441406 17.535156 Z M 27.039062 11.929688 C 27.007812 11.929688 26.996094 11.925781 26.988281 11.929688 C 26.976562 11.933594 26.96875 11.945312 26.964844 11.953125 C 26.964844 11.957031 26.96875 11.960938 26.972656 11.964844 C 26.992188 11.957031 27.007812 11.949219 27.039062 11.929688 Z M 27.039062 11.929688 " fill-opacity="1" fill-rule="nonzero"/><path fill="#000000" d="M 27.464844 14.710938 C 27.445312 14.761719 27.429688 14.796875 27.410156 14.84375 C 27.503906 14.828125 27.585938 14.785156 27.667969 14.867188 C 27.644531 14.925781 27.664062 14.96875 27.722656 15.007812 C 27.753906 15.023438 27.761719 15.078125 27.785156 15.128906 C 27.800781 15.128906 27.839844 15.125 27.855469 15.140625 C 27.878906 15.167969 27.886719 15.207031 27.890625 15.242188 C 27.894531 15.304688 27.921875 15.351562 27.96875 15.402344 C 28.109375 15.582031 28.207031 15.75 28.230469 16.03125 C 28.257812 16.457031 28.277344 16.886719 28.269531 17.316406 C 28.265625 17.539062 28.277344 17.765625 28.273438 17.988281 C 28.257812 18.507812 28.242188 19.03125 28.210938 19.550781 C 28.191406 19.90625 28.152344 20.261719 28.109375 20.617188 C 28.0625 21.039062 28.003906 21.457031 27.949219 21.878906 C 27.90625 22.234375 27.867188 22.589844 27.828125 22.941406 C 27.8125 23.101562 27.800781 23.261719 27.792969 23.421875 C 27.789062 23.476562 27.800781 23.53125 27.808594 23.589844 C 27.820312 23.664062 27.851562 23.738281 27.792969 23.820312 C 27.773438 23.847656 27.785156 23.914062 27.796875 23.953125 C 27.8125 24.007812 27.796875 24.039062 27.753906 24.0625 C 27.714844 24.082031 27.65625 24.058594 27.636719 24.011719 C 27.625 23.984375 27.617188 23.953125 27.605469 23.925781 C 27.597656 23.914062 27.578125 23.90625 27.5625 23.894531 C 27.492188 23.976562 27.414062 23.960938 27.332031 23.90625 C 27.1875 23.804688 27.042969 23.699219 26.992188 23.519531 C 26.988281 23.511719 26.984375 23.496094 26.980469 23.496094 C 26.863281 23.449219 26.863281 23.308594 26.78125 23.238281 C 26.761719 23.222656 26.753906 23.195312 26.742188 23.175781 C 26.621094 22.867188 26.542969 22.546875 26.558594 22.214844 C 26.5625 22.105469 26.535156 22.003906 26.542969 21.898438 C 26.550781 21.792969 26.546875 21.6875 26.546875 21.585938 C 26.5625 21.128906 26.574219 20.671875 26.589844 20.214844 C 26.597656 19.949219 26.601562 19.6875 26.613281 19.421875 C 26.628906 18.960938 26.640625 18.5 26.667969 18.039062 C 26.695312 17.46875 26.757812 16.902344 26.84375 16.339844 C 26.90625 15.917969 26.957031 15.496094 27.070312 15.085938 C 27.09375 14.992188 27.121094 14.898438 27.160156 14.8125 C 27.207031 14.695312 27.253906 14.683594 27.378906 14.714844 C 27.40625 14.714844 27.429688 14.710938 27.464844 14.710938 Z M 27.464844 14.710938 " fill-opacity="1" fill-rule="nonzero"/><g clip-path="url(#49dedb4a64)"><path fill="#000000" d="M 7.199219 9.074219 C 7.210938 9.078125 7.242188 9.082031 7.273438 9.089844 C 7.386719 9.113281 7.40625 9.222656 7.457031 9.300781 C 7.476562 9.324219 7.484375 9.367188 7.503906 9.371094 C 7.601562 9.390625 7.597656 9.457031 7.589844 9.527344 C 7.589844 9.546875 7.585938 9.566406 7.582031 9.582031 C 7.664062 9.636719 7.761719 9.675781 7.757812 9.796875 C 7.871094 9.898438 7.839844 10.027344 7.839844 10.160156 C 7.839844 10.292969 7.800781 10.398438 7.742188 10.5 C 7.609375 10.726562 7.476562 10.949219 7.335938 11.167969 C 7.308594 11.210938 7.253906 11.238281 7.199219 11.28125 C 7.207031 11.363281 7.136719 11.429688 7.070312 11.503906 C 6.972656 11.609375 6.878906 11.71875 6.777344 11.824219 C 6.597656 12.019531 6.414062 12.214844 6.230469 12.410156 C 6.203125 12.433594 6.183594 12.464844 6.15625 12.5 C 6.140625 12.476562 6.125 12.460938 6.101562 12.433594 C 6.125 12.515625 6.101562 12.578125 6.046875 12.628906 C 6.039062 12.636719 6.03125 12.65625 6.019531 12.667969 C 5.964844 12.742188 5.90625 12.8125 5.976562 12.914062 C 5.851562 12.90625 5.851562 12.90625 5.789062 12.636719 C 5.699219 12.679688 5.773438 12.769531 5.726562 12.839844 C 5.632812 12.800781 5.542969 12.742188 5.480469 12.664062 C 5.378906 12.546875 5.300781 12.410156 5.207031 12.289062 C 5.101562 12.152344 5.054688 11.996094 5.035156 11.835938 C 5.007812 11.617188 5.007812 11.40625 5.117188 11.195312 C 5.246094 10.945312 5.394531 10.707031 5.546875 10.46875 C 5.714844 10.207031 5.894531 9.941406 6.082031 9.6875 C 6.265625 9.445312 6.484375 9.234375 6.738281 9.058594 C 6.789062 9.023438 6.847656 9 6.90625 8.972656 C 6.996094 8.933594 7.082031 8.96875 7.164062 9 C 7.179688 9.003906 7.183594 9.042969 7.199219 9.074219 Z M 6.671875 11.632812 C 6.703125 11.695312 6.738281 11.695312 6.773438 11.667969 C 6.777344 11.664062 6.777344 11.648438 6.777344 11.632812 C 6.746094 11.632812 6.714844 11.632812 6.671875 11.632812 Z M 6.671875 11.632812 " fill-opacity="1" fill-rule="nonzero"/></g><g clip-path="url(#1e93bf96ff)"><path fill="#000000" d="M 23.078125 9.460938 C 23.117188 9.507812 23.167969 9.546875 23.152344 9.617188 C 23.152344 9.625 23.167969 9.644531 23.179688 9.652344 C 23.253906 9.722656 23.273438 9.808594 23.265625 9.90625 C 23.257812 10.007812 23.234375 10.109375 23.230469 10.214844 C 23.226562 10.386719 23.160156 10.542969 23.121094 10.707031 C 23.066406 10.933594 22.925781 11.117188 22.789062 11.300781 C 22.761719 11.332031 22.722656 11.347656 22.679688 11.378906 C 22.671875 11.371094 22.65625 11.359375 22.644531 11.347656 C 22.597656 11.402344 22.652344 11.433594 22.6875 11.46875 C 22.558594 11.667969 22.433594 11.863281 22.3125 12.0625 C 22.257812 12.152344 22.203125 12.242188 22.152344 12.332031 C 22.132812 12.367188 22.128906 12.410156 22.121094 12.453125 C 22.074219 12.472656 22.039062 12.460938 22.023438 12.414062 C 22.007812 12.347656 22 12.285156 21.992188 12.214844 C 21.988281 12.1875 21.988281 12.160156 21.988281 12.117188 C 21.917969 12.160156 21.898438 12.207031 21.894531 12.265625 C 21.890625 12.355469 21.855469 12.371094 21.777344 12.328125 C 21.636719 12.246094 21.515625 12.144531 21.449219 11.988281 C 21.445312 11.976562 21.4375 11.960938 21.425781 11.949219 C 21.195312 11.6875 21.101562 11.378906 21.089844 11.03125 C 21.078125 10.703125 21.199219 10.417969 21.320312 10.132812 C 21.449219 9.828125 21.582031 9.527344 21.722656 9.230469 C 21.796875 9.078125 21.882812 8.933594 22.03125 8.839844 C 22.039062 8.835938 22.046875 8.832031 22.054688 8.824219 C 22.160156 8.667969 22.304688 8.679688 22.46875 8.726562 C 22.449219 8.753906 22.429688 8.777344 22.410156 8.804688 C 22.425781 8.816406 22.433594 8.828125 22.441406 8.828125 C 22.523438 8.839844 22.609375 8.824219 22.6875 8.871094 C 22.714844 8.886719 22.742188 8.886719 22.742188 8.933594 C 22.742188 8.957031 22.785156 8.980469 22.789062 9.007812 C 22.808594 9.097656 22.847656 9.160156 22.9375 9.195312 C 22.957031 9.203125 22.957031 9.265625 22.960938 9.304688 C 22.960938 9.335938 22.945312 9.367188 22.945312 9.382812 C 22.996094 9.410156 23.039062 9.4375 23.078125 9.460938 C 23.070312 9.496094 23.0625 9.53125 23.050781 9.574219 C 23.113281 9.535156 23.085938 9.496094 23.078125 9.460938 Z M 22.332031 8.925781 C 22.339844 8.90625 22.347656 8.894531 22.347656 8.878906 C 22.347656 8.878906 22.335938 8.867188 22.332031 8.867188 C 22.320312 8.875 22.3125 8.886719 22.304688 8.898438 C 22.300781 8.898438 22.316406 8.910156 22.332031 8.925781 Z M 22.332031 8.925781 " fill-opacity="1" fill-rule="nonzero"/></g><path fill="#000000" d="M 29.226562 12.398438 C 29.246094 12.363281 29.265625 12.328125 29.28125 12.300781 C 29.351562 12.324219 29.382812 12.355469 29.371094 12.414062 C 29.359375 12.460938 29.351562 12.507812 29.34375 12.5625 C 29.371094 12.558594 29.382812 12.558594 29.398438 12.554688 C 29.414062 12.550781 29.429688 12.546875 29.453125 12.539062 C 29.492188 12.648438 29.585938 12.734375 29.523438 12.867188 C 29.515625 12.882812 29.546875 12.921875 29.558594 12.953125 C 29.519531 13.011719 29.476562 13.074219 29.425781 13.140625 C 29.5 13.1875 29.550781 13.234375 29.542969 13.320312 C 29.460938 13.375 29.382812 13.433594 29.308594 13.488281 C 29.265625 13.523438 29.21875 13.53125 29.175781 13.5 C 29.132812 13.46875 29.097656 13.429688 29.121094 13.367188 C 29.136719 13.320312 29.144531 13.269531 29.082031 13.25 C 29.003906 13.277344 28.996094 13.429688 28.863281 13.375 C 28.855469 13.355469 28.851562 13.332031 28.847656 13.3125 C 28.71875 13.292969 28.636719 13.226562 28.589844 13.105469 C 28.425781 13.078125 28.441406 12.941406 28.414062 12.820312 C 28.332031 12.855469 28.300781 12.804688 28.273438 12.742188 C 28.257812 12.703125 28.25 12.664062 28.238281 12.628906 C 28.230469 12.613281 28.230469 12.585938 28.222656 12.585938 C 28.125 12.578125 28.136719 12.496094 28.121094 12.433594 C 28.054688 12.222656 27.976562 12.011719 27.949219 11.789062 C 27.941406 11.695312 27.902344 11.59375 27.921875 11.503906 C 27.949219 11.359375 27.921875 11.222656 27.914062 11.082031 C 27.914062 11.027344 27.933594 10.972656 27.941406 10.917969 C 28.054688 10.925781 28.054688 11.019531 28.085938 11.09375 C 28.101562 11.082031 28.121094 11.074219 28.148438 11.054688 C 28.167969 11.132812 28.179688 11.207031 28.199219 11.285156 C 28.277344 11.261719 28.296875 11.214844 28.238281 11.152344 C 28.179688 11.089844 28.210938 11.023438 28.21875 10.960938 C 28.21875 10.953125 28.25 10.949219 28.277344 10.933594 C 28.28125 10.976562 28.285156 11.011719 28.289062 11.046875 C 28.296875 11.136719 28.304688 11.140625 28.390625 11.136719 C 28.40625 11.136719 28.421875 11.132812 28.441406 11.128906 C 28.449219 11.171875 28.453125 11.214844 28.460938 11.25 C 28.46875 11.25 28.472656 11.253906 28.476562 11.253906 C 28.484375 11.226562 28.488281 11.195312 28.496094 11.160156 C 28.542969 11.164062 28.585938 11.167969 28.632812 11.171875 C 28.625 11.230469 28.632812 11.28125 28.609375 11.320312 C 28.570312 11.398438 28.609375 11.441406 28.667969 11.484375 C 28.703125 11.476562 28.742188 11.46875 28.792969 11.453125 C 28.777344 11.574219 28.765625 11.679688 28.75 11.804688 C 28.824219 11.757812 28.863281 11.683594 28.941406 11.691406 C 28.960938 11.734375 28.96875 11.777344 28.996094 11.8125 C 29.03125 11.871094 29.003906 11.921875 28.988281 11.976562 C 28.976562 12.027344 28.933594 12.074219 28.972656 12.132812 C 29.015625 12.128906 29.066406 12.109375 29.101562 12.125 C 29.144531 12.136719 29.171875 12.183594 29.210938 12.21875 C 29.199219 12.253906 29.1875 12.28125 29.179688 12.3125 C 29.175781 12.339844 29.179688 12.363281 29.179688 12.390625 C 29.199219 12.390625 29.214844 12.394531 29.226562 12.398438 Z M 29.226562 12.398438 " fill-opacity="1" fill-rule="nonzero"/></svg>