<svg xmlns="http://www.w3.org/2000/svg" version="1.1" xmlns:xlink="http://www.w3.org/1999/xlink" xmlns:svgjs="http://svgjs.com/svgjs" width="1100" height="1200" preserveAspectRatio="none" viewBox="0 0 1100 1200"><g mask="url(&quot;#SvgjsMask1041&quot;)" fill="none"><rect width="1100" height="1200" x="0" y="0" fill="rgba(255, 246, 195, 1)"></rect><path d="M0,347.894C63.743,338.207,113.472,295.292,170.755,265.7C235.127,232.446,332.637,231.314,357.446,163.24C382.752,93.803,298.127,31.607,282.383,-40.601C268.299,-105.196,313.746,-184.384,270.71,-234.572C227.707,-284.722,145.608,-262.192,80.911,-275.557C22.606,-287.601,-31.391,-313.062,-90.805,-309.253C-161.372,-304.729,-237.947,-299.025,-290.528,-251.744C-344.934,-202.822,-362.353,-125.988,-374.796,-53.887C-387.514,19.805,-392.84,97.199,-362.548,165.57C-332.096,234.303,-274.881,289.441,-207.719,323.217C-144.138,355.192,-70.36,358.587,0,347.894" fill="#fff3ad"></path><path d="M1100 1625.661C1181.01 1610.535 1260.24 1600.644 1334.4569999999999 1564.8220000000001 1417.1 1524.933 1516.1309999999999 1490.915 1553.146 1406.945 1590.12 1323.068 1540.708 1229.062 1522.0230000000001 1139.3220000000001 1504.57 1055.501 1503.21 963.905 1447.382 898.991 1391.481 833.992 1298.754 824.4 1220.695 788.951 1127.637 746.691 1046.436 662.362 944.568 670.648 838.3140000000001 679.291 743.043 749.761 676.693 833.202 611.655 914.9929999999999 600.444 1022.641 582.776 1125.634 564.629 1231.418 532.044 1341.491 572.438 1440.929 613.4159999999999 1541.805 698.8389999999999 1628.3319999999999 801.602 1664.316 898.22 1698.1480000000001 999.369 1644.451 1100 1625.661" fill="#fff9da"></path></g><defs><mask id="SvgjsMask1041"><rect width="1100" height="1200" fill="#ffffff"></rect></mask></defs></svg>