<svg xmlns="http://www.w3.org/2000/svg" xmlns:xlink="http://www.w3.org/1999/xlink" width="50" zoomAndPan="magnify" viewBox="0 0 37.5 37.499999" height="50" preserveAspectRatio="xMidYMid meet" version="1.0"><defs><clipPath id="bfe8f99280"><path d="M 10.734375 0 L 26.484375 0 L 26.484375 37.007812 L 10.734375 37.007812 Z M 10.734375 0 " clip-rule="nonzero"/></clipPath></defs><g clip-path="url(#bfe8f99280)"><path fill="#000000" d="M 25.597656 10.34375 C 25.667969 10.273438 25.714844 10.222656 25.769531 10.183594 C 25.867188 10.113281 25.972656 10.121094 26.042969 10.214844 C 26.089844 10.28125 26.132812 10.359375 26.144531 10.4375 C 26.179688 10.675781 26.210938 10.914062 26.222656 11.152344 C 26.238281 11.589844 26.242188 12.027344 26.242188 12.464844 C 26.246094 12.941406 26.238281 13.421875 26.242188 13.902344 C 26.25 14.484375 26.257812 15.066406 26.273438 15.652344 C 26.289062 16.320312 26.304688 16.984375 26.335938 17.652344 C 26.394531 18.871094 26.433594 20.089844 26.449219 21.308594 C 26.464844 22.289062 26.460938 23.269531 26.464844 24.25 C 26.464844 25.304688 26.464844 26.355469 26.464844 27.410156 C 26.46875 28.324219 26.480469 29.242188 26.480469 30.15625 C 26.480469 31.199219 26.476562 32.242188 26.464844 33.285156 C 26.457031 34.421875 26.441406 35.558594 26.425781 36.695312 C 26.421875 36.890625 26.402344 37.089844 26.390625 37.285156 C 26.386719 37.308594 26.382812 37.328125 26.378906 37.347656 C 26.355469 37.445312 26.292969 37.5 26.207031 37.5 C 26.128906 37.5 26.0625 37.445312 26.039062 37.347656 C 26.023438 37.265625 26.011719 37.179688 26.011719 37.097656 C 26 36.546875 25.984375 35.996094 25.984375 35.441406 C 25.984375 34.398438 26 33.355469 26 32.3125 C 26 31.332031 25.988281 30.351562 25.988281 29.371094 C 25.988281 28.519531 25.996094 27.664062 25.996094 26.808594 C 25.992188 26.214844 25.972656 25.621094 25.960938 25.027344 C 25.957031 24.601562 25.957031 24.171875 25.949219 23.746094 C 25.945312 23.234375 25.933594 22.722656 25.925781 22.214844 C 25.925781 22.183594 25.914062 22.152344 25.90625 22.125 C 25.667969 22.113281 22.273438 22.359375 21.890625 22.441406 C 21.878906 22.492188 21.855469 22.550781 21.855469 22.609375 C 21.851562 23.339844 21.839844 24.070312 21.84375 24.800781 C 21.855469 26.132812 21.863281 27.46875 21.886719 28.800781 C 21.902344 29.84375 21.945312 30.886719 21.980469 31.929688 C 21.992188 32.222656 22.03125 32.511719 22.046875 32.804688 C 22.074219 33.304688 22.09375 33.804688 22.109375 34.304688 C 22.132812 34.980469 22.117188 35.660156 22.085938 36.335938 C 22.082031 36.410156 22.082031 36.484375 22.066406 36.554688 C 22.054688 36.601562 22.023438 36.648438 21.988281 36.683594 C 21.9375 36.738281 21.832031 36.722656 21.8125 36.648438 C 21.785156 36.570312 21.769531 36.488281 21.769531 36.40625 C 21.757812 36.011719 21.761719 35.613281 21.75 35.21875 C 21.722656 34.476562 21.691406 33.738281 21.660156 32.996094 C 21.648438 32.765625 21.601562 32.546875 21.496094 32.335938 C 21.453125 32.253906 21.417969 32.164062 21.402344 32.074219 C 21.339844 31.6875 21.160156 31.34375 20.996094 31 C 20.726562 30.4375 20.292969 30.027344 19.785156 29.695312 C 19.652344 29.609375 19.484375 29.566406 19.328125 29.53125 C 19.160156 29.492188 19 29.535156 18.855469 29.625 C 18.660156 29.746094 18.484375 29.882812 18.332031 30.058594 C 17.898438 30.5625 17.503906 31.089844 17.238281 31.710938 C 17.1875 31.824219 17.132812 31.9375 17.066406 32.042969 C 16.984375 32.179688 16.953125 32.324219 16.957031 32.488281 C 16.972656 32.925781 16.957031 33.367188 16.984375 33.800781 C 17.015625 34.324219 17.027344 34.84375 17.027344 35.363281 C 17.027344 35.597656 16.964844 35.816406 16.914062 36.042969 C 16.90625 36.070312 16.890625 36.101562 16.867188 36.121094 C 16.839844 36.144531 16.796875 36.167969 16.761719 36.164062 C 16.730469 36.160156 16.679688 36.125 16.671875 36.09375 C 16.621094 35.882812 16.578125 35.667969 16.539062 35.453125 C 16.523438 35.382812 16.535156 35.308594 16.53125 35.234375 C 16.507812 34.296875 16.488281 33.359375 16.457031 32.417969 C 16.425781 31.449219 16.371094 30.480469 16.339844 29.511719 C 16.3125 28.554688 16.304688 27.59375 16.28125 26.636719 C 16.269531 26.039062 16.246094 25.445312 16.234375 24.851562 C 16.21875 24.082031 16.210938 23.308594 16.199219 22.539062 C 16.199219 22.457031 16.1875 22.375 16.179688 22.3125 C 16.15625 22.289062 16.148438 22.28125 16.140625 22.273438 C 16.132812 22.269531 16.125 22.261719 16.113281 22.261719 C 15.753906 22.269531 15.394531 22.269531 15.039062 22.292969 C 13.8125 22.371094 12.585938 22.460938 11.359375 22.550781 C 11.339844 22.550781 11.324219 22.570312 11.285156 22.59375 C 11.273438 22.675781 11.25 22.777344 11.25 22.878906 C 11.222656 23.652344 11.191406 24.421875 11.179688 25.195312 C 11.171875 25.976562 11.175781 26.757812 11.195312 27.542969 C 11.210938 28.261719 11.253906 28.980469 11.289062 29.699219 C 11.316406 30.34375 11.34375 30.988281 11.382812 31.636719 C 11.40625 32.03125 11.449219 32.425781 11.476562 32.820312 C 11.503906 33.195312 11.53125 33.570312 11.546875 33.945312 C 11.578125 34.640625 11.601562 35.339844 11.625 36.039062 C 11.628906 36.132812 11.625 36.226562 11.605469 36.316406 C 11.589844 36.40625 11.496094 36.457031 11.417969 36.433594 C 11.351562 36.417969 11.3125 36.371094 11.300781 36.304688 C 11.28125 36.210938 11.269531 36.117188 11.261719 36.027344 C 11.171875 35.164062 11.09375 34.304688 11.050781 33.4375 C 11.03125 33.0625 10.984375 32.691406 10.957031 32.316406 C 10.917969 31.785156 10.886719 31.253906 10.859375 30.722656 C 10.832031 30.246094 10.8125 29.765625 10.796875 29.285156 C 10.78125 28.703125 10.769531 28.121094 10.761719 27.535156 C 10.738281 26.222656 10.738281 24.90625 10.8125 23.59375 C 10.847656 22.957031 10.886719 22.324219 10.914062 21.6875 C 10.933594 21.199219 10.929688 20.707031 10.941406 20.21875 C 10.949219 19.988281 10.972656 19.757812 10.976562 19.53125 C 10.992188 18.925781 11 18.320312 11.019531 17.714844 C 11.039062 17.121094 11.074219 16.53125 11.09375 15.9375 C 11.109375 15.488281 11.105469 15.039062 11.117188 14.589844 C 11.132812 13.945312 11.160156 13.296875 11.179688 12.652344 C 11.203125 11.914062 11.222656 11.171875 11.246094 10.433594 C 11.246094 10.382812 11.246094 10.328125 11.265625 10.28125 C 11.332031 10.105469 11.507812 10.078125 11.628906 10.222656 C 11.667969 10.265625 11.699219 10.316406 11.734375 10.363281 C 11.816406 10.339844 11.789062 10.277344 11.800781 10.230469 C 11.816406 10.183594 11.828125 10.128906 11.832031 10.078125 C 11.863281 9.769531 11.882812 9.457031 11.921875 9.144531 C 11.972656 8.730469 12.015625 8.316406 12.09375 7.90625 C 12.320312 6.78125 12.5625 5.664062 12.796875 4.542969 C 12.882812 4.144531 12.96875 3.746094 13.054688 3.351562 C 13.058594 3.320312 13.070312 3.289062 13.074219 3.257812 C 13.097656 2.957031 13.082031 2.65625 13.082031 2.335938 C 13.019531 2.335938 12.96875 2.324219 12.921875 2.332031 C 12.800781 2.351562 12.683594 2.382812 12.5625 2.394531 C 12.464844 2.40625 12.371094 2.328125 12.359375 2.238281 C 12.34375 2.15625 12.386719 2.078125 12.476562 2.042969 C 12.542969 2.015625 12.613281 2 12.683594 1.984375 C 12.8125 1.949219 12.941406 1.921875 13.070312 1.890625 C 13.117188 1.757812 13.101562 1.632812 13.113281 1.507812 C 13.117188 1.445312 13.117188 1.378906 13.140625 1.324219 C 13.160156 1.285156 13.21875 1.242188 13.257812 1.246094 C 13.296875 1.246094 13.355469 1.285156 13.375 1.324219 C 13.398438 1.378906 13.398438 1.445312 13.402344 1.507812 C 13.410156 1.597656 13.417969 1.691406 13.425781 1.78125 C 13.558594 1.8125 13.667969 1.773438 13.777344 1.757812 C 13.886719 1.738281 14 1.71875 14.109375 1.699219 C 14.128906 1.695312 14.148438 1.691406 14.171875 1.6875 C 14.25 1.6875 14.316406 1.734375 14.328125 1.804688 C 14.34375 1.878906 14.304688 1.929688 14.246094 1.957031 C 14.171875 1.988281 14.09375 2.011719 14.015625 2.035156 C 13.828125 2.089844 13.640625 2.140625 13.460938 2.191406 C 13.375 2.363281 13.4375 2.53125 13.398438 2.703125 C 13.59375 2.808594 13.671875 2.984375 13.722656 3.179688 C 13.839844 3.621094 13.964844 4.0625 14.082031 4.503906 C 14.214844 4.988281 14.335938 5.46875 14.464844 5.953125 C 14.628906 6.589844 14.796875 7.222656 14.960938 7.855469 C 15.136719 8.542969 15.3125 9.230469 15.488281 9.914062 C 15.496094 9.945312 15.507812 9.976562 15.519531 10.003906 C 15.589844 10.023438 15.605469 9.96875 15.628906 9.925781 C 15.652344 9.890625 15.675781 9.855469 15.707031 9.828125 C 15.820312 9.726562 15.972656 9.738281 16.046875 9.867188 C 16.105469 9.964844 16.148438 10.078125 16.160156 10.1875 C 16.195312 10.464844 16.214844 10.746094 16.230469 11.027344 C 16.257812 11.527344 16.269531 12.027344 16.300781 12.527344 C 16.328125 12.984375 16.378906 13.441406 16.402344 13.898438 C 16.4375 14.535156 16.453125 15.167969 16.480469 15.804688 C 16.503906 16.335938 16.535156 16.867188 16.554688 17.398438 C 16.574219 17.835938 16.582031 18.273438 16.597656 18.710938 C 16.601562 18.761719 16.609375 18.8125 16.613281 18.859375 C 16.640625 18.867188 16.664062 18.886719 16.675781 18.878906 C 17.097656 18.671875 17.519531 18.460938 17.949219 18.25 C 17.976562 17.964844 17.929688 17.6875 17.914062 17.40625 C 17.902344 17.15625 17.878906 16.90625 17.863281 16.65625 C 17.863281 16.605469 17.859375 16.554688 17.871094 16.503906 C 17.90625 16.324219 18.078125 16.253906 18.222656 16.371094 C 18.285156 16.421875 18.328125 16.496094 18.378906 16.558594 C 18.414062 16.605469 18.445312 16.652344 18.503906 16.730469 C 18.535156 16.636719 18.558594 16.582031 18.574219 16.527344 C 18.636719 16.273438 18.699219 16.019531 18.761719 15.769531 C 18.777344 15.71875 18.789062 15.667969 18.804688 15.617188 C 18.839844 15.527344 18.9375 15.453125 19.015625 15.460938 C 19.105469 15.46875 19.164062 15.527344 19.199219 15.605469 C 19.222656 15.652344 19.234375 15.703125 19.246094 15.753906 C 19.265625 15.84375 19.285156 15.9375 19.304688 16.027344 C 19.328125 16.121094 19.351562 16.207031 19.378906 16.304688 C 19.476562 16.289062 19.480469 16.207031 19.503906 16.148438 C 19.542969 16.058594 19.589844 15.984375 19.679688 15.9375 C 19.785156 15.886719 19.890625 15.902344 19.949219 16.003906 C 19.996094 16.082031 20.035156 16.171875 20.050781 16.261719 C 20.113281 16.632812 20.164062 17.003906 20.21875 17.375 C 20.261719 17.632812 20.304688 17.886719 20.347656 18.160156 C 20.539062 18.226562 20.730469 18.289062 20.917969 18.367188 C 21.105469 18.445312 21.28125 18.539062 21.472656 18.632812 C 21.488281 18.59375 21.507812 18.566406 21.507812 18.539062 C 21.523438 17.988281 21.539062 17.433594 21.542969 16.882812 C 21.546875 16.289062 21.554688 15.695312 21.542969 15.101562 C 21.523438 14.039062 21.488281 12.976562 21.460938 11.914062 C 21.453125 11.578125 21.4375 11.246094 21.433594 10.910156 C 21.433594 10.808594 21.429688 10.683594 21.484375 10.613281 C 21.589844 10.480469 21.617188 10.328125 21.632812 10.175781 C 21.6875 9.636719 21.800781 9.109375 21.90625 8.578125 C 22.050781 7.828125 22.199219 7.082031 22.339844 6.335938 C 22.46875 5.648438 22.597656 4.960938 22.714844 4.273438 C 22.789062 3.832031 22.832031 3.386719 22.902344 2.941406 C 22.945312 2.644531 22.996094 2.34375 23.070312 2.054688 C 23.160156 1.699219 23.085938 1.351562 23.09375 1.003906 C 22.953125 0.925781 22.832031 0.976562 22.714844 0.988281 C 22.625 1 22.535156 1.03125 22.441406 1.039062 C 22.316406 1.050781 22.226562 0.980469 22.222656 0.878906 C 22.214844 0.789062 22.28125 0.722656 22.398438 0.703125 C 22.570312 0.675781 22.742188 0.652344 22.917969 0.625 C 22.957031 0.621094 22.996094 0.609375 23.039062 0.597656 C 23.105469 0.492188 23.074219 0.375 23.085938 0.265625 C 23.09375 0.203125 23.101562 0.140625 23.121094 0.0820312 C 23.144531 0.015625 23.265625 0 23.300781 0.0625 C 23.332031 0.128906 23.347656 0.199219 23.363281 0.269531 C 23.386719 0.367188 23.367188 0.476562 23.445312 0.574219 C 23.550781 0.574219 23.660156 0.574219 23.773438 0.574219 C 23.8125 0.574219 23.855469 0.5625 23.894531 0.5625 C 23.96875 0.566406 24.023438 0.613281 24.023438 0.671875 C 24.027344 0.730469 23.996094 0.773438 23.941406 0.789062 C 23.863281 0.8125 23.785156 0.828125 23.703125 0.84375 C 23.625 0.863281 23.546875 0.875 23.464844 0.894531 C 23.417969 1.082031 23.453125 1.257812 23.46875 1.429688 C 23.46875 1.460938 23.480469 1.496094 23.496094 1.515625 C 23.632812 1.699219 23.660156 1.917969 23.71875 2.128906 C 23.890625 2.792969 24.070312 3.457031 24.246094 4.121094 C 24.410156 4.746094 24.550781 5.375 24.671875 6.011719 C 24.75 6.429688 24.859375 6.84375 24.953125 7.261719 C 25.136719 8.09375 25.339844 8.925781 25.472656 9.769531 C 25.5 9.953125 25.550781 10.132812 25.597656 10.34375 Z M 21.457031 27.964844 C 21.46875 27.898438 21.484375 27.859375 21.484375 27.820312 C 21.484375 27.589844 21.484375 27.359375 21.480469 27.132812 C 21.472656 26.214844 21.460938 25.296875 21.453125 24.378906 C 21.449219 24.054688 21.449219 23.734375 21.445312 23.410156 C 21.445312 23.328125 21.449219 23.246094 21.398438 23.167969 C 21.191406 22.859375 21 22.539062 20.78125 22.234375 C 20.429688 21.746094 20.128906 21.226562 19.824219 20.707031 C 19.667969 20.4375 19.5 20.175781 19.292969 19.941406 C 19.246094 19.890625 19.1875 19.855469 19.128906 19.808594 C 19.007812 19.878906 18.925781 19.96875 18.839844 20.058594 C 18.671875 20.242188 18.503906 20.421875 18.335938 20.605469 C 17.820312 21.171875 17.308594 21.742188 16.792969 22.304688 C 16.722656 22.378906 16.699219 22.460938 16.699219 22.558594 C 16.703125 22.996094 16.695312 23.433594 16.707031 23.871094 C 16.71875 24.507812 16.75 25.140625 16.761719 25.777344 C 16.777344 26.464844 16.785156 27.152344 16.796875 27.839844 C 16.796875 27.898438 16.8125 27.957031 16.820312 28.019531 C 17.203125 28.074219 17.570312 28.054688 17.9375 28.019531 C 18.867188 27.929688 19.800781 27.9375 20.730469 27.984375 C 20.964844 27.996094 21.199219 28.003906 21.457031 27.964844 Z M 11.675781 13.675781 C 12.0625 13.699219 12.261719 13.921875 12.375 14.238281 C 12.421875 14.363281 12.457031 14.496094 12.480469 14.628906 C 12.5625 15.15625 12.59375 15.6875 12.597656 16.21875 C 12.597656 16.898438 12.589844 17.574219 12.597656 18.253906 C 12.605469 18.792969 12.613281 19.335938 12.585938 19.878906 C 12.582031 19.925781 12.585938 19.976562 12.585938 20.03125 C 12.746094 20.0625 12.882812 20.050781 13.039062 20.011719 C 13.039062 19.917969 13.039062 19.835938 13.039062 19.753906 C 13.039062 18.984375 13.027344 18.210938 13.046875 17.441406 C 13.054688 16.972656 13.097656 16.503906 13.136719 16.035156 C 13.175781 15.597656 13.222656 15.164062 13.269531 14.726562 C 13.304688 14.425781 13.402344 14.136719 13.539062 13.867188 C 13.585938 13.777344 13.65625 13.695312 13.730469 13.628906 C 13.835938 13.535156 14 13.5625 14.082031 13.675781 C 14.121094 13.726562 14.148438 13.785156 14.164062 13.84375 C 14.21875 14.042969 14.28125 14.246094 14.316406 14.449219 C 14.378906 14.820312 14.433594 15.191406 14.476562 15.5625 C 14.53125 16.058594 14.582031 16.558594 14.621094 17.054688 C 14.65625 17.472656 14.675781 17.886719 14.703125 18.304688 C 14.738281 18.832031 14.777344 19.363281 14.8125 19.894531 C 14.816406 19.980469 14.839844 19.992188 14.964844 19.953125 C 14.972656 19.433594 14.996094 18.914062 14.984375 18.394531 C 14.96875 17.769531 14.941406 17.144531 14.890625 16.519531 C 14.851562 16.042969 14.804688 15.566406 14.84375 15.085938 C 14.875 14.71875 14.941406 14.359375 15.144531 14.046875 C 15.269531 13.855469 15.441406 13.734375 15.683594 13.742188 C 15.738281 13.746094 15.804688 13.777344 15.867188 13.695312 C 15.820312 12.695312 15.707031 11.679688 15.730469 10.660156 C 15.730469 10.648438 15.722656 10.636719 15.714844 10.632812 C 15.707031 10.628906 15.695312 10.632812 15.683594 10.632812 C 15.613281 10.78125 15.539062 10.925781 15.46875 11.078125 C 15.269531 11.507812 15.070312 11.945312 14.867188 12.375 C 14.835938 12.441406 14.796875 12.503906 14.75 12.554688 C 14.625 12.691406 14.464844 12.683594 14.351562 12.539062 C 14.300781 12.476562 14.261719 12.398438 14.226562 12.324219 C 14.058594 11.933594 13.886719 11.542969 13.765625 11.132812 C 13.726562 11.007812 13.699219 10.871094 13.59375 10.742188 C 13.554688 10.835938 13.515625 10.90625 13.492188 10.980469 C 13.339844 11.425781 13.195312 11.871094 13.042969 12.3125 C 13.003906 12.429688 12.953125 12.546875 12.890625 12.652344 C 12.796875 12.804688 12.613281 12.8125 12.496094 12.679688 C 12.4375 12.609375 12.394531 12.523438 12.351562 12.441406 C 12.164062 12.085938 11.976562 11.722656 11.789062 11.363281 C 11.769531 11.324219 11.757812 11.261719 11.675781 11.277344 C 11.675781 12.070312 11.675781 12.859375 11.675781 13.675781 Z M 24.890625 19.507812 C 24.898438 19.464844 24.910156 19.425781 24.910156 19.382812 C 24.90625 18.9375 24.902344 18.488281 24.894531 18.039062 C 24.875 17.296875 24.851562 16.558594 24.832031 15.816406 C 24.820312 15.332031 24.929688 14.863281 25.042969 14.398438 C 25.117188 14.105469 25.273438 13.867188 25.589844 13.777344 C 25.605469 13.773438 25.621094 13.75 25.65625 13.71875 C 25.671875 12.875 25.683594 12.011719 25.695312 11.152344 C 25.695312 11.136719 25.667969 11.125 25.644531 11.105469 C 25.617188 11.148438 25.585938 11.1875 25.566406 11.234375 C 25.378906 11.605469 25.199219 11.980469 25.011719 12.347656 C 24.953125 12.46875 24.890625 12.59375 24.808594 12.695312 C 24.6875 12.855469 24.484375 12.851562 24.355469 12.703125 C 24.308594 12.648438 24.273438 12.582031 24.25 12.515625 C 24.207031 12.398438 24.167969 12.277344 24.140625 12.15625 C 24.035156 11.753906 23.9375 11.347656 23.835938 10.945312 C 23.820312 10.886719 23.792969 10.832031 23.773438 10.773438 C 23.65625 10.824219 23.660156 10.933594 23.632812 11.015625 C 23.453125 11.539062 23.28125 12.0625 23.105469 12.585938 C 23.074219 12.683594 23.039062 12.785156 22.988281 12.871094 C 22.882812 13.042969 22.6875 13.105469 22.53125 12.910156 C 22.492188 12.859375 22.460938 12.808594 22.433594 12.75 C 22.304688 12.5 22.183594 12.25 22.058594 12 C 21.992188 11.859375 21.996094 11.859375 21.84375 11.726562 C 21.863281 12.472656 21.875 13.195312 21.949219 13.921875 C 21.996094 13.941406 22.03125 13.960938 22.070312 13.972656 C 22.273438 14.042969 22.386719 14.195312 22.4375 14.402344 C 22.464844 14.523438 22.492188 14.644531 22.507812 14.769531 C 22.589844 15.347656 22.621094 15.929688 22.628906 16.515625 C 22.636719 17.445312 22.628906 18.371094 22.628906 19.300781 C 22.628906 19.339844 22.640625 19.378906 22.644531 19.414062 C 22.746094 19.453125 22.832031 19.464844 22.941406 19.414062 C 22.945312 19.148438 22.949219 18.878906 22.941406 18.609375 C 22.921875 18.054688 22.898438 17.503906 22.875 16.953125 C 22.863281 16.660156 22.855469 16.367188 22.84375 16.078125 C 22.824219 15.636719 22.832031 15.199219 22.875 14.765625 C 22.90625 14.460938 22.976562 14.167969 23.152344 13.910156 C 23.230469 13.796875 23.332031 13.71875 23.457031 13.664062 C 23.597656 13.601562 23.722656 13.625 23.820312 13.738281 C 23.886719 13.816406 23.945312 13.910156 23.972656 14.003906 C 24.019531 14.195312 24.054688 14.390625 24.074219 14.585938 C 24.164062 15.332031 24.253906 16.078125 24.332031 16.824219 C 24.40625 17.5625 24.472656 18.296875 24.496094 19.039062 C 24.5 19.191406 24.519531 19.34375 24.535156 19.5 C 24.664062 19.527344 24.769531 19.546875 24.890625 19.507812 Z M 16.707031 21.832031 C 16.730469 21.839844 16.753906 21.84375 16.777344 21.851562 C 16.816406 21.804688 16.851562 21.753906 16.894531 21.707031 C 17.386719 21.160156 17.875 20.617188 18.367188 20.070312 C 18.519531 19.902344 18.667969 19.730469 18.824219 19.566406 C 19.03125 19.355469 19.21875 19.332031 19.457031 19.496094 C 19.558594 19.566406 19.65625 19.652344 19.730469 19.746094 C 19.894531 19.945312 20.054688 20.148438 20.195312 20.367188 C 20.441406 20.75 20.671875 21.144531 20.910156 21.53125 C 21.050781 21.761719 21.195312 21.988281 21.339844 22.21875 C 21.363281 22.253906 21.382812 22.285156 21.4375 22.253906 C 21.445312 21.28125 21.453125 20.304688 21.464844 19.347656 C 21.292969 19.226562 21.148438 19.105469 20.992188 19.015625 C 20.535156 18.761719 20.042969 18.621094 19.527344 18.578125 C 19.109375 18.546875 18.691406 18.589844 18.277344 18.675781 C 17.738281 18.789062 17.253906 19.039062 16.773438 19.296875 C 16.722656 19.324219 16.679688 19.367188 16.636719 19.402344 C 16.644531 19.6875 16.652344 19.957031 16.660156 20.226562 C 16.664062 20.5 16.660156 20.769531 16.671875 21.039062 C 16.683594 21.304688 16.664062 21.570312 16.707031 21.832031 Z M 16.972656 31.246094 C 17.054688 31.105469 17.132812 30.957031 17.222656 30.820312 C 17.570312 30.25 17.957031 29.714844 18.5 29.316406 C 18.773438 29.117188 19.058594 29.039062 19.394531 29.085938 C 19.621094 29.117188 19.828125 29.199219 20.03125 29.296875 C 20.679688 29.605469 21.15625 30.082031 21.433594 30.757812 C 21.445312 30.78125 21.472656 30.796875 21.507812 30.839844 C 21.519531 30.777344 21.527344 30.738281 21.527344 30.699219 C 21.515625 29.992188 21.503906 29.285156 21.488281 28.574219 C 21.488281 28.546875 21.46875 28.519531 21.457031 28.480469 C 21.117188 28.40625 20.769531 28.378906 20.425781 28.386719 C 19.6875 28.410156 18.949219 28.398438 18.214844 28.464844 C 17.839844 28.496094 17.457031 28.46875 17.078125 28.472656 C 17 28.472656 16.921875 28.480469 16.839844 28.488281 C 16.828125 28.597656 16.796875 28.691406 16.804688 28.78125 C 16.863281 29.597656 16.847656 30.417969 16.972656 31.246094 Z M 14.394531 19.996094 C 14.371094 19.8125 14.339844 19.640625 14.328125 19.464844 C 14.277344 18.6875 14.234375 17.90625 14.183594 17.128906 C 14.117188 16.160156 14 15.199219 13.882812 14.238281 C 13.875 14.179688 13.847656 14.121094 13.820312 14.035156 C 13.777344 14.089844 13.75 14.117188 13.730469 14.148438 C 13.601562 14.367188 13.527344 14.609375 13.511719 14.859375 C 13.46875 15.523438 13.425781 16.191406 13.402344 16.855469 C 13.367188 17.84375 13.34375 18.835938 13.316406 19.824219 C 13.316406 19.882812 13.292969 19.949219 13.359375 20.011719 C 13.6875 20.03125 14.035156 20.027344 14.394531 19.996094 Z M 23.386719 4.550781 C 23.375 4.613281 23.363281 4.652344 23.359375 4.691406 C 23.332031 4.960938 23.308594 5.230469 23.28125 5.503906 C 23.222656 6.125 23.183594 6.75 23.183594 7.375 C 23.183594 7.804688 23.183594 8.230469 23.167969 8.65625 C 23.132812 9.5 23.089844 10.34375 23.050781 11.1875 C 23.050781 11.246094 23.058594 11.300781 23.0625 11.371094 C 23.15625 11.320312 23.164062 11.242188 23.183594 11.179688 C 23.292969 10.839844 23.402344 10.503906 23.511719 10.167969 C 23.53125 10.097656 23.546875 10.027344 23.578125 9.960938 C 23.671875 9.773438 23.878906 9.757812 24 9.925781 C 24.035156 9.976562 24.0625 10.035156 24.085938 10.09375 C 24.136719 10.242188 24.191406 10.386719 24.230469 10.539062 C 24.351562 11.023438 24.464844 11.507812 24.585938 11.992188 C 24.601562 12.050781 24.589844 12.125 24.683594 12.128906 C 24.734375 12.078125 24.738281 12.023438 24.703125 11.960938 C 24.609375 11.785156 24.574219 11.589844 24.542969 11.394531 C 24.414062 10.632812 24.296875 9.875 24.167969 9.113281 C 24.011719 8.199219 23.847656 7.285156 23.699219 6.371094 C 23.605469 5.796875 23.53125 5.21875 23.445312 4.644531 C 23.441406 4.617188 23.417969 4.597656 23.386719 4.550781 Z M 16.128906 19.960938 C 16.136719 19.902344 16.144531 19.871094 16.144531 19.839844 C 16.113281 19.113281 16.082031 18.386719 16.054688 17.660156 C 16.03125 17.066406 16.011719 16.476562 15.992188 15.882812 C 15.976562 15.539062 15.980469 15.195312 15.949219 14.855469 C 15.929688 14.648438 15.871094 14.449219 15.824219 14.246094 C 15.804688 14.175781 15.761719 14.113281 15.683594 14.09375 C 15.582031 14.074219 15.519531 14.140625 15.484375 14.210938 C 15.417969 14.351562 15.351562 14.492188 15.316406 14.644531 C 15.203125 15.101562 15.191406 15.570312 15.21875 16.039062 C 15.25 16.621094 15.304688 17.203125 15.328125 17.785156 C 15.355469 18.40625 15.40625 19.03125 15.375 19.65625 C 15.371094 19.746094 15.386719 19.839844 15.394531 19.9375 C 15.640625 19.988281 15.871094 19.964844 16.128906 19.960938 Z M 12.851562 11.53125 C 13.0625 11.160156 13.207031 10.761719 13.332031 10.355469 C 13.347656 10.304688 13.355469 10.25 13.375 10.207031 C 13.488281 9.960938 13.699219 9.941406 13.851562 10.15625 C 13.886719 10.207031 13.917969 10.265625 13.941406 10.320312 C 14.011719 10.484375 14.082031 10.644531 14.144531 10.808594 C 14.269531 11.140625 14.386719 11.472656 14.511719 11.804688 C 14.53125 11.859375 14.542969 11.925781 14.617188 11.933594 C 14.699219 11.890625 14.667969 11.828125 14.65625 11.769531 C 14.585938 11.421875 14.519531 11.074219 14.449219 10.726562 C 14.273438 9.851562 14.113281 8.96875 13.917969 8.09375 C 13.742188 7.300781 13.542969 6.515625 13.441406 5.707031 C 13.425781 5.601562 13.417969 5.492188 13.335938 5.335938 C 13.3125 5.699219 13.289062 6 13.273438 6.300781 C 13.246094 6.886719 13.234375 7.46875 13.191406 8.050781 C 13.125 8.851562 13.035156 9.648438 12.957031 10.445312 C 12.921875 10.808594 12.886719 11.167969 12.851562 11.53125 Z M 12.136719 20.054688 C 12.152344 20.015625 12.167969 19.996094 12.167969 19.980469 C 12.164062 19.53125 12.160156 19.085938 12.15625 18.636719 C 12.15625 18.167969 12.15625 17.699219 12.152344 17.230469 C 12.152344 16.398438 12.160156 15.566406 12.09375 14.734375 C 12.082031 14.589844 12.0625 14.445312 12.042969 14.300781 C 12.023438 14.183594 11.972656 14.082031 11.890625 14 C 11.828125 13.9375 11.757812 13.914062 11.664062 13.964844 C 11.65625 14.015625 11.648438 14.066406 11.648438 14.117188 C 11.636719 14.429688 11.628906 14.742188 11.617188 15.050781 C 11.574219 16.027344 11.527344 17.007812 11.480469 17.984375 C 11.453125 18.585938 11.425781 19.191406 11.40625 19.792969 C 11.402344 19.882812 11.371094 19.980469 11.460938 20.074219 C 11.683594 20.058594 11.914062 20.089844 12.136719 20.054688 Z M 24.179688 19.503906 C 24.171875 19.132812 24.183594 18.800781 24.140625 18.472656 C 24.085938 18.050781 24.03125 17.625 23.96875 17.203125 C 23.824219 16.238281 23.675781 15.273438 23.53125 14.308594 C 23.523438 14.261719 23.496094 14.21875 23.476562 14.167969 C 23.445312 14.195312 23.425781 14.207031 23.417969 14.222656 C 23.402344 14.25 23.386719 14.277344 23.378906 14.308594 C 23.277344 14.605469 23.226562 14.910156 23.234375 15.226562 C 23.238281 15.351562 23.238281 15.476562 23.238281 15.601562 C 23.242188 16.265625 23.246094 16.933594 23.25 17.597656 C 23.253906 18.152344 23.261719 18.703125 23.269531 19.253906 C 23.269531 19.3125 23.277344 19.375 23.28125 19.441406 C 23.570312 19.511719 23.851562 19.496094 24.179688 19.503906 Z M 25.820312 19.511719 C 25.863281 19.027344 25.78125 18.582031 25.769531 18.136719 C 25.757812 17.691406 25.730469 17.242188 25.714844 16.796875 C 25.703125 16.347656 25.703125 15.898438 25.683594 15.453125 C 25.667969 15.007812 25.710938 14.5625 25.644531 14.117188 C 25.535156 14.105469 25.476562 14.164062 25.441406 14.238281 C 25.378906 14.371094 25.3125 14.503906 25.28125 14.644531 C 25.21875 14.949219 25.175781 15.257812 25.132812 15.570312 C 25.035156 16.242188 24.988281 16.917969 25.027344 17.597656 C 25.0625 18.210938 25.117188 18.824219 25.164062 19.4375 C 25.164062 19.457031 25.179688 19.472656 25.199219 19.507812 C 25.238281 19.515625 25.285156 19.527344 25.335938 19.527344 C 25.488281 19.523438 25.640625 19.515625 25.820312 19.511719 Z M 22.5625 11.8125 C 22.582031 11.804688 22.601562 11.796875 22.617188 11.789062 C 22.621094 11.75 22.628906 11.707031 22.628906 11.667969 C 22.667969 10.960938 22.707031 10.253906 22.742188 9.542969 C 22.769531 9.066406 22.789062 8.585938 22.8125 8.109375 C 22.859375 7.214844 22.871094 6.316406 22.984375 5.425781 C 23.015625 5.160156 23.015625 4.890625 23.039062 4.554688 C 22.996094 4.714844 22.960938 4.800781 22.945312 4.894531 C 22.839844 5.59375 22.71875 6.289062 22.566406 6.980469 C 22.414062 7.683594 22.285156 8.390625 22.15625 9.097656 C 22.074219 9.539062 22.019531 9.980469 21.949219 10.421875 C 21.925781 10.5625 21.945312 10.6875 22.019531 10.8125 C 22.15625 11.042969 22.277344 11.285156 22.40625 11.519531 C 22.460938 11.617188 22.511719 11.714844 22.5625 11.8125 Z M 13.855469 5.539062 C 13.839844 5.609375 13.824219 5.640625 13.828125 5.664062 C 14.117188 7.507812 14.480469 9.339844 14.886719 11.160156 C 14.894531 11.207031 14.925781 11.253906 14.953125 11.316406 C 15.125 11.121094 15.191406 10.890625 15.300781 10.683594 C 15.351562 10.585938 15.347656 10.484375 15.3125 10.382812 C 15.214844 10.074219 15.125 9.765625 15.027344 9.457031 C 14.859375 8.941406 14.675781 8.433594 14.527344 7.914062 C 14.316406 7.183594 14.128906 6.449219 13.925781 5.714844 C 13.914062 5.667969 13.890625 5.621094 13.855469 5.539062 Z M 12.441406 11.644531 C 12.496094 11.054688 12.546875 10.527344 12.605469 10 C 12.648438 9.574219 12.707031 9.152344 12.757812 8.726562 C 12.8125 8.273438 12.867188 7.816406 12.910156 7.359375 C 12.957031 6.871094 12.984375 6.382812 13.019531 5.894531 C 13.035156 5.6875 13.058594 5.484375 13.074219 5.277344 C 13.019531 5.351562 12.996094 5.433594 12.972656 5.519531 C 12.957031 5.601562 12.945312 5.683594 12.929688 5.765625 C 12.796875 6.460938 12.65625 7.152344 12.527344 7.851562 C 12.453125 8.25 12.402344 8.652344 12.332031 9.054688 C 12.234375 9.625 12.128906 10.199219 12.027344 10.773438 C 12.015625 10.824219 12.007812 10.886719 12.027344 10.925781 C 12.148438 11.152344 12.253906 11.390625 12.441406 11.644531 Z M 24.03125 5.042969 C 24.019531 5.042969 24.007812 5.046875 23.996094 5.050781 C 24.003906 5.113281 24.007812 5.175781 24.019531 5.234375 C 24.085938 5.625 24.15625 6.015625 24.214844 6.40625 C 24.339844 7.1875 24.457031 7.96875 24.578125 8.75 C 24.617188 8.996094 24.664062 9.242188 24.703125 9.492188 C 24.800781 10.097656 24.898438 10.703125 24.996094 11.308594 C 25 11.34375 25.027344 11.375 25.054688 11.429688 C 25.183594 11.269531 25.242188 11.101562 25.332031 10.953125 C 25.394531 10.851562 25.398438 10.746094 25.367188 10.625 C 25.253906 10.171875 25.152344 9.714844 25.050781 9.257812 C 24.941406 8.78125 24.847656 8.300781 24.726562 7.828125 C 24.53125 7.050781 24.308594 6.277344 24.15625 5.492188 C 24.128906 5.339844 24.074219 5.191406 24.03125 5.042969 Z M 18.320312 18.152344 C 18.605469 18.117188 18.847656 18.078125 19.089844 18.058594 C 19.339844 18.039062 19.597656 18.089844 19.867188 18.046875 C 19.816406 17.664062 19.769531 17.296875 19.71875 16.929688 C 19.710938 16.890625 19.691406 16.855469 19.679688 16.816406 C 19.648438 16.828125 19.628906 16.832031 19.617188 16.84375 C 19.59375 16.863281 19.574219 16.886719 19.550781 16.90625 C 19.382812 17.046875 19.230469 17.011719 19.140625 16.804688 C 19.105469 16.71875 19.085938 16.625 19.054688 16.539062 C 19.035156 16.484375 19.007812 16.433594 18.957031 16.316406 C 18.921875 16.511719 18.90625 16.644531 18.875 16.773438 C 18.835938 16.957031 18.796875 17.140625 18.742188 17.316406 C 18.699219 17.445312 18.5625 17.484375 18.4375 17.417969 C 18.382812 17.386719 18.335938 17.347656 18.269531 17.300781 C 18.234375 17.59375 18.335938 17.851562 18.320312 18.152344 Z M 21.960938 14.308594 C 21.953125 15.976562 21.996094 17.585938 21.910156 19.195312 C 21.90625 19.253906 21.917969 19.316406 21.921875 19.375 C 22.035156 19.445312 22.140625 19.445312 22.253906 19.398438 C 22.253906 19.347656 22.261719 19.308594 22.261719 19.265625 C 22.269531 18.003906 22.261719 16.746094 22.199219 15.484375 C 22.1875 15.214844 22.15625 14.945312 22.132812 14.675781 C 22.121094 14.5625 22.101562 14.449219 21.960938 14.308594 Z M 23.050781 21.910156 C 23.050781 21.722656 23.058594 21.535156 23.050781 21.351562 C 23.039062 20.917969 23.023438 20.480469 23.003906 20.046875 C 23.003906 19.976562 22.980469 19.910156 22.96875 19.835938 C 22.796875 19.828125 22.640625 19.765625 22.484375 19.8125 C 22.441406 20.167969 22.558594 21.59375 22.65625 21.957031 C 22.785156 21.964844 22.914062 21.957031 23.050781 21.910156 Z M 24.167969 19.851562 C 24.15625 19.882812 24.136719 19.910156 24.132812 19.941406 C 24.109375 20.5625 24.089844 21.183594 24.066406 21.804688 C 24.335938 21.859375 24.429688 21.847656 24.621094 21.75 C 24.566406 21.121094 24.582031 20.484375 24.511719 19.855469 C 24.386719 19.816406 24.277344 19.824219 24.167969 19.851562 Z M 23.289062 19.839844 C 23.316406 20.542969 23.34375 21.210938 23.371094 21.890625 C 23.519531 21.902344 23.648438 21.910156 23.789062 21.855469 C 23.789062 21.625 23.792969 21.398438 23.789062 21.171875 C 23.78125 20.953125 23.769531 20.738281 23.75 20.519531 C 23.730469 20.296875 23.789062 20.066406 23.695312 19.839844 C 23.566406 19.839844 23.449219 19.839844 23.289062 19.839844 Z M 16.164062 21.9375 C 16.171875 21.832031 16.1875 21.75 16.183594 21.667969 C 16.171875 21.207031 16.175781 20.738281 16.144531 20.265625 C 15.957031 20.238281 15.789062 20.238281 15.621094 20.300781 C 15.617188 20.375 15.609375 20.4375 15.609375 20.496094 C 15.621094 20.941406 15.628906 21.390625 15.644531 21.835938 C 15.644531 21.871094 15.671875 21.90625 15.6875 21.9375 C 15.84375 21.9375 15.984375 21.9375 16.164062 21.9375 Z M 13.457031 20.339844 C 13.449219 20.402344 13.4375 20.433594 13.441406 20.460938 C 13.445312 20.941406 13.453125 21.417969 13.464844 21.898438 C 13.464844 21.945312 13.484375 21.992188 13.496094 22.050781 C 13.695312 22.023438 13.886719 22.0625 14.078125 21.980469 C 13.9375 21.433594 13.929688 20.882812 13.828125 20.339844 C 13.695312 20.339844 13.585938 20.339844 13.457031 20.339844 Z M 21.890625 19.761719 C 21.878906 20.515625 21.871094 21.234375 21.859375 21.949219 C 21.859375 21.976562 21.878906 22.003906 21.894531 22.046875 C 22.035156 22.054688 22.171875 22.03125 22.320312 21.996094 C 22.292969 21.734375 22.261719 21.488281 22.238281 21.242188 C 22.21875 21.003906 22.210938 20.765625 22.195312 20.527344 C 22.179688 20.28125 22.210938 20.027344 22.148438 19.773438 C 22.066406 19.769531 22 19.765625 21.890625 19.761719 Z M 25.527344 19.828125 C 25.519531 20.046875 25.515625 20.253906 25.503906 20.457031 C 25.492188 20.667969 25.46875 20.875 25.46875 21.082031 C 25.46875 21.285156 25.421875 21.492188 25.476562 21.707031 C 25.613281 21.695312 25.742188 21.761719 25.886719 21.722656 C 25.894531 21.640625 25.90625 21.570312 25.90625 21.5 C 25.898438 20.992188 25.886719 20.484375 25.875 19.972656 C 25.875 19.925781 25.84375 19.878906 25.828125 19.828125 C 25.726562 19.828125 25.636719 19.828125 25.527344 19.828125 Z M 12.460938 22.089844 C 12.460938 22.042969 12.464844 22.003906 12.460938 21.964844 C 12.445312 21.796875 12.421875 21.632812 12.414062 21.46875 C 12.402344 21.238281 12.398438 21.007812 12.398438 20.777344 C 12.394531 20.652344 12.386719 20.53125 12.339844 20.40625 C 12.21875 20.367188 12.101562 20.359375 11.980469 20.421875 C 11.960938 20.996094 11.984375 21.554688 12.027344 22.125 C 12.175781 22.148438 12.316406 22.144531 12.460938 22.089844 Z M 15.335938 21.949219 C 15.308594 21.382812 15.285156 20.855469 15.261719 20.324219 C 15.144531 20.273438 15.039062 20.25 14.921875 20.308594 C 14.894531 20.859375 14.84375 21.410156 14.867188 21.96875 C 15.035156 22.003906 15.183594 21.976562 15.335938 21.949219 Z M 14.164062 20.328125 C 14.183594 20.613281 14.203125 20.890625 14.234375 21.167969 C 14.261719 21.441406 14.265625 21.71875 14.28125 22.003906 C 14.402344 22.011719 14.507812 22.03125 14.625 21.96875 C 14.613281 21.417969 14.601562 20.875 14.589844 20.328125 C 14.441406 20.28125 14.316406 20.292969 14.164062 20.328125 Z M 12.820312 22.085938 C 12.9375 22.078125 13.066406 22.109375 13.203125 22.039062 C 13.199219 21.957031 13.195312 21.875 13.191406 21.792969 C 13.175781 21.605469 13.152344 21.421875 13.140625 21.234375 C 13.128906 21.007812 13.125 20.78125 13.113281 20.550781 C 13.109375 20.484375 13.082031 20.417969 13.066406 20.347656 C 12.9375 20.355469 12.824219 20.324219 12.730469 20.417969 C 12.746094 20.953125 12.765625 21.480469 12.785156 22.007812 C 12.785156 22.027344 12.800781 22.042969 12.820312 22.085938 Z M 11.730469 22.140625 C 11.707031 21.839844 11.6875 21.550781 11.652344 21.261719 C 11.621094 20.976562 11.695312 20.683594 11.601562 20.382812 C 11.527344 20.390625 11.460938 20.398438 11.386719 20.402344 C 11.359375 20.9375 11.328125 21.457031 11.300781 21.976562 C 11.296875 22.027344 11.300781 22.078125 11.308594 22.128906 C 11.308594 22.148438 11.328125 22.164062 11.339844 22.1875 C 11.398438 22.1875 11.457031 22.191406 11.519531 22.183594 C 11.585938 22.175781 11.652344 22.160156 11.730469 22.140625 Z M 24.851562 19.839844 C 24.878906 20.074219 24.902344 20.277344 24.921875 20.484375 C 24.945312 20.703125 24.96875 20.917969 24.976562 21.136719 C 24.988281 21.34375 24.980469 21.546875 24.980469 21.769531 C 25.082031 21.753906 25.160156 21.742188 25.238281 21.726562 C 25.25 21.683594 25.265625 21.652344 25.265625 21.625 C 25.242188 21.0625 25.21875 20.5 25.191406 19.9375 C 25.191406 19.910156 25.171875 19.878906 25.160156 19.839844 C 25.070312 19.839844 24.980469 19.839844 24.851562 19.839844 Z M 24.851562 19.839844 " fill-opacity="1" fill-rule="nonzero"/></g><path fill="#000000" d="M 14.566406 28.097656 C 14.742188 28.101562 14.90625 28.101562 15.070312 28.109375 C 15.230469 28.117188 15.394531 28.128906 15.558594 28.148438 C 15.585938 28.152344 15.636719 28.210938 15.628906 28.230469 C 15.621094 28.273438 15.582031 28.332031 15.546875 28.339844 C 15.398438 28.371094 15.246094 28.390625 15.09375 28.398438 C 14.425781 28.429688 13.761719 28.457031 13.097656 28.484375 C 12.675781 28.503906 12.257812 28.519531 11.835938 28.539062 C 11.765625 28.542969 11.691406 28.542969 11.621094 28.539062 C 11.554688 28.535156 11.507812 28.496094 11.492188 28.425781 C 11.476562 28.355469 11.515625 28.277344 11.589844 28.253906 C 11.648438 28.238281 11.710938 28.230469 11.769531 28.226562 C 11.894531 28.21875 12.015625 28.214844 12.136719 28.210938 C 12.15625 28.207031 12.175781 28.195312 12.21875 28.179688 C 12.253906 28.011719 12.25 27.824219 12.257812 27.640625 C 12.28125 26.660156 12.363281 25.683594 12.46875 24.710938 C 12.5 24.394531 12.605469 24.101562 12.703125 23.804688 C 12.753906 23.648438 12.851562 23.507812 12.984375 23.402344 C 13.1875 23.242188 13.371094 23.242188 13.570312 23.40625 C 13.691406 23.507812 13.765625 23.644531 13.832031 23.785156 C 13.984375 24.121094 14.058594 24.480469 14.128906 24.835938 C 14.207031 25.265625 14.269531 25.699219 14.324219 26.132812 C 14.398438 26.734375 14.464844 27.335938 14.535156 27.933594 C 14.539062 27.976562 14.546875 28.015625 14.566406 28.097656 Z M 13.261719 23.710938 C 13.195312 23.765625 13.140625 23.796875 13.105469 23.84375 C 12.988281 24.015625 12.886719 24.199219 12.851562 24.410156 C 12.820312 24.613281 12.792969 24.820312 12.78125 25.027344 C 12.753906 25.570312 12.742188 26.113281 12.710938 26.652344 C 12.691406 27.039062 12.65625 27.421875 12.621094 27.804688 C 12.613281 27.917969 12.59375 28.027344 12.621094 28.132812 C 12.785156 28.15625 13.832031 28.101562 14.046875 28.0625 C 14.050781 28.027344 14.058594 27.988281 14.054688 27.949219 C 14 27.386719 13.949219 26.828125 13.886719 26.269531 C 13.8125 25.585938 13.679688 24.910156 13.507812 24.246094 C 13.460938 24.070312 13.417969 23.882812 13.261719 23.710938 Z M 13.261719 23.710938 " fill-opacity="1" fill-rule="nonzero"/><path fill="#000000" d="M 24.691406 28.164062 C 24.808594 28.175781 24.929688 28.1875 25.050781 28.203125 C 25.136719 28.21875 25.242188 28.222656 25.269531 28.335938 C 25.289062 28.414062 25.199219 28.472656 25.035156 28.472656 C 24.707031 28.476562 24.378906 28.464844 24.050781 28.464844 C 23.539062 28.464844 23.027344 28.46875 22.515625 28.472656 C 22.445312 28.476562 22.371094 28.480469 22.300781 28.476562 C 22.203125 28.46875 22.144531 28.410156 22.136719 28.320312 C 22.132812 28.230469 22.175781 28.15625 22.265625 28.132812 C 22.332031 28.113281 22.40625 28.109375 22.476562 28.101562 C 22.554688 28.097656 22.632812 28.097656 22.726562 28.09375 C 22.734375 27.992188 22.746094 27.910156 22.742188 27.832031 C 22.71875 27.371094 22.761719 26.914062 22.820312 26.460938 C 22.863281 26.109375 22.894531 25.753906 22.949219 25.40625 C 23.015625 25.003906 23.101562 24.609375 23.1875 24.210938 C 23.226562 24.027344 23.308594 23.855469 23.421875 23.707031 C 23.589844 23.480469 23.851562 23.476562 24.015625 23.703125 C 24.082031 23.792969 24.125 23.902344 24.164062 24.007812 C 24.265625 24.292969 24.296875 24.59375 24.332031 24.894531 C 24.378906 25.339844 24.421875 25.785156 24.46875 26.230469 C 24.507812 26.585938 24.554688 26.933594 24.59375 27.285156 C 24.628906 27.566406 24.65625 27.84375 24.691406 28.164062 Z M 23.667969 23.984375 C 23.546875 24.082031 23.523438 24.1875 23.492188 24.285156 C 23.402344 24.5625 23.339844 24.847656 23.308594 25.136719 C 23.277344 25.398438 23.242188 25.65625 23.203125 25.914062 C 23.132812 26.417969 23.054688 26.921875 23.042969 27.433594 C 23.042969 27.539062 23.039062 27.644531 23.042969 27.746094 C 23.042969 27.859375 23.023438 27.972656 23.050781 28.09375 C 23.453125 28.117188 23.839844 28.140625 24.226562 28.160156 C 24.261719 28.160156 24.296875 28.140625 24.335938 28.128906 C 24.238281 27.589844 24.171875 27.0625 24.164062 26.53125 C 24.164062 26.46875 24.152344 26.40625 24.144531 26.34375 C 24.085938 25.960938 24.019531 25.582031 23.980469 25.199219 C 23.945312 24.863281 23.855469 24.542969 23.78125 24.21875 C 23.761719 24.144531 23.714844 24.074219 23.667969 23.984375 Z M 23.667969 23.984375 " fill-opacity="1" fill-rule="nonzero"/><path fill="#000000" d="M 23.214844 33.390625 C 23.207031 33.011719 23.207031 32.648438 23.1875 32.285156 C 23.148438 31.492188 23.273438 30.726562 23.503906 29.976562 C 23.5625 29.785156 23.636719 29.605469 23.808594 29.480469 C 23.984375 29.355469 24.210938 29.363281 24.375 29.496094 C 24.550781 29.636719 24.648438 29.832031 24.707031 30.046875 C 24.789062 30.347656 24.84375 30.65625 24.855469 30.96875 C 24.867188 31.375 24.878906 31.78125 24.898438 32.1875 C 24.914062 32.585938 24.933594 32.980469 24.949219 33.378906 C 25.007812 33.417969 25.0625 33.445312 25.105469 33.484375 C 25.195312 33.570312 25.171875 33.707031 25.058594 33.734375 C 24.929688 33.765625 24.796875 33.789062 24.664062 33.789062 C 24.195312 33.800781 23.722656 33.796875 23.25 33.800781 C 23.148438 33.800781 23.035156 33.792969 22.996094 33.675781 C 22.953125 33.527344 23.070312 33.476562 23.171875 33.425781 C 23.179688 33.417969 23.1875 33.410156 23.214844 33.390625 Z M 24.566406 33.347656 C 24.550781 33.003906 24.542969 32.660156 24.515625 32.320312 C 24.488281 31.957031 24.453125 31.59375 24.410156 31.234375 C 24.375 30.933594 24.332031 30.636719 24.28125 30.339844 C 24.257812 30.207031 24.207031 30.078125 24.15625 29.957031 C 24.140625 29.914062 24.09375 29.875 24.050781 29.859375 C 23.992188 29.835938 23.960938 29.890625 23.9375 29.9375 C 23.832031 30.121094 23.769531 30.316406 23.726562 30.523438 C 23.601562 31.125 23.570312 31.738281 23.566406 32.351562 C 23.5625 32.59375 23.566406 32.832031 23.570312 33.070312 C 23.574219 33.171875 23.550781 33.28125 23.632812 33.40625 C 23.921875 33.335938 24.238281 33.464844 24.566406 33.347656 Z M 24.566406 33.347656 " fill-opacity="1" fill-rule="nonzero"/><path fill="#000000" d="M 14.585938 33.140625 C 14.703125 33.144531 14.792969 33.148438 14.882812 33.152344 C 14.953125 33.15625 15 33.195312 15.019531 33.257812 C 15.039062 33.320312 14.992188 33.402344 14.917969 33.429688 C 14.859375 33.453125 14.800781 33.464844 14.742188 33.476562 C 14.121094 33.574219 13.5 33.59375 12.875 33.59375 C 12.8125 33.59375 12.75 33.589844 12.691406 33.574219 C 12.628906 33.558594 12.578125 33.507812 12.578125 33.441406 C 12.574219 33.386719 12.597656 33.3125 12.636719 33.277344 C 12.6875 33.234375 12.761719 33.21875 12.835938 33.183594 C 12.875 33.082031 12.851562 32.964844 12.851562 32.851562 C 12.847656 32.28125 12.828125 31.707031 12.835938 31.136719 C 12.84375 30.675781 12.988281 30.257812 13.253906 29.882812 C 13.34375 29.761719 13.453125 29.679688 13.605469 29.652344 C 13.859375 29.609375 14.058594 29.796875 14.148438 30.019531 C 14.289062 30.347656 14.351562 30.691406 14.386719 31.046875 C 14.449219 31.730469 14.515625 32.414062 14.585938 33.140625 Z M 14.226562 33.113281 C 14.1875 32.742188 14.160156 32.398438 14.117188 32.058594 C 14.0625 31.644531 13.996094 31.234375 13.925781 30.824219 C 13.902344 30.660156 13.867188 30.496094 13.820312 30.335938 C 13.796875 30.238281 13.773438 30.128906 13.671875 30.0625 C 13.523438 30.15625 13.457031 30.308594 13.402344 30.464844 C 13.304688 30.753906 13.277344 31.054688 13.277344 31.359375 C 13.273438 31.902344 13.261719 32.445312 13.257812 32.984375 C 13.257812 33.042969 13.273438 33.101562 13.28125 33.160156 C 13.597656 33.199219 13.890625 33.148438 14.226562 33.113281 Z M 14.226562 33.113281 " fill-opacity="1" fill-rule="nonzero"/><path fill="#000000" d="M 20.753906 24.886719 C 20.738281 24.992188 20.730469 25.121094 20.699219 25.238281 C 20.5625 25.734375 20.300781 26.152344 19.890625 26.457031 C 19.433594 26.800781 18.886719 26.785156 18.457031 26.496094 C 18.371094 26.4375 18.296875 26.363281 18.226562 26.289062 C 17.890625 25.953125 17.65625 25.554688 17.53125 25.09375 C 17.421875 24.695312 17.496094 24.296875 17.71875 23.960938 C 18 23.535156 18.40625 23.28125 18.917969 23.234375 C 19.039062 23.226562 19.171875 23.234375 19.28125 23.277344 C 19.566406 23.382812 19.871094 23.480469 20.121094 23.648438 C 20.433594 23.855469 20.648438 24.167969 20.714844 24.558594 C 20.734375 24.660156 20.742188 24.765625 20.753906 24.886719 Z M 20.414062 24.917969 C 20.410156 24.679688 20.351562 24.464844 20.183594 24.289062 C 20.089844 24.195312 19.992188 24.101562 19.910156 23.996094 C 19.824219 23.878906 19.714844 23.820312 19.582031 23.785156 C 19.503906 23.761719 19.425781 23.742188 19.347656 23.714844 C 18.957031 23.582031 18.625 23.707031 18.316406 23.945312 C 17.945312 24.234375 17.824219 24.851562 17.996094 25.210938 C 18.125 25.476562 18.25 25.730469 18.425781 25.964844 C 18.765625 26.417969 19.378906 26.496094 19.804688 26.132812 C 19.875 26.074219 19.941406 26.007812 20 25.933594 C 20.242188 25.640625 20.40625 25.3125 20.414062 24.917969 Z M 20.414062 24.917969 " fill-opacity="1" fill-rule="nonzero"/><path fill="#000000" d="M 14.082031 12.679688 C 14.078125 12.828125 13.964844 12.992188 13.832031 13.042969 C 13.628906 13.125 13.410156 12.964844 13.417969 12.730469 C 13.425781 12.625 13.46875 12.511719 13.519531 12.414062 C 13.570312 12.3125 13.703125 12.277344 13.8125 12.308594 C 13.972656 12.355469 14.085938 12.515625 14.082031 12.679688 Z M 14.082031 12.679688 " fill-opacity="1" fill-rule="nonzero"/><path fill="#000000" d="M 12.191406 13.453125 C 12.128906 13.417969 12.054688 13.402344 12.007812 13.355469 C 11.953125 13.296875 11.914062 13.222656 11.886719 13.144531 C 11.824219 12.972656 11.992188 12.785156 12.171875 12.816406 C 12.191406 12.820312 12.210938 12.824219 12.230469 12.832031 C 12.371094 12.910156 12.503906 13.179688 12.328125 13.367188 C 12.296875 13.402344 12.246094 13.417969 12.191406 13.453125 Z M 12.191406 13.453125 " fill-opacity="1" fill-rule="nonzero"/><path fill="#000000" d="M 15.621094 13.042969 C 15.625 13.214844 15.492188 13.371094 15.324219 13.382812 C 15.175781 13.394531 15.050781 13.277344 15.039062 13.117188 C 15.03125 12.960938 15.183594 12.804688 15.355469 12.800781 C 15.503906 12.796875 15.613281 12.898438 15.621094 13.042969 Z M 15.621094 13.042969 " fill-opacity="1" fill-rule="nonzero"/><path fill="#000000" d="M 25.054688 13.523438 C 25.035156 13.515625 24.980469 13.507812 24.941406 13.480469 C 24.855469 13.417969 24.839844 13.285156 24.886719 13.136719 C 24.933594 13 25.011719 12.933594 25.125 12.933594 C 25.242188 12.933594 25.339844 13.003906 25.382812 13.113281 C 25.449219 13.285156 25.277344 13.519531 25.054688 13.523438 Z M 25.054688 13.523438 " fill-opacity="1" fill-rule="nonzero"/><path fill="#000000" d="M 23.398438 12.839844 C 23.40625 12.660156 23.523438 12.535156 23.679688 12.542969 C 23.8125 12.550781 23.929688 12.695312 23.925781 12.847656 C 23.917969 13.003906 23.773438 13.148438 23.632812 13.144531 C 23.496094 13.136719 23.386719 13 23.398438 12.839844 Z M 23.398438 12.839844 " fill-opacity="1" fill-rule="nonzero"/><path fill="#000000" d="M 21.917969 13.484375 C 21.992188 13.390625 22.042969 13.3125 22.105469 13.25 C 22.222656 13.136719 22.410156 13.195312 22.4375 13.351562 C 22.449219 13.4375 22.4375 13.539062 22.402344 13.621094 C 22.34375 13.773438 22.171875 13.800781 22.054688 13.679688 C 22.007812 13.632812 21.976562 13.566406 21.917969 13.484375 Z M 21.917969 13.484375 " fill-opacity="1" fill-rule="nonzero"/></svg>