<svg width="200" height="70" viewBox="0 0 200 70" fill="none" xmlns="http://www.w3.org/2000/svg">
<mask id="mask0_161_5" style="mask-type:luminance" maskUnits="userSpaceOnUse" x="122" y="12" width="76" height="41">
<path d="M122.052 12.573H197.469V52.8647H122.052V12.573Z" fill="white"/>
</mask>
<g mask="url(#mask0_161_5)">
<path d="M197.302 33.0937C197.297 33.0677 197.286 33.026 197.266 33.0156C196.875 32.8646 196.682 32.3385 196.141 32.4427C195.937 32.4791 195.708 32.3854 195.495 32.401C195.312 32.4114 195.104 32.2448 194.932 32.4479C194.922 32.4687 194.865 32.4479 194.823 32.4479C194.599 32.4219 194.37 32.3802 194.146 32.3854C193.703 32.3906 193.26 32.4375 192.818 32.4479C192.057 32.4635 191.302 32.4739 190.542 32.4687C189.896 32.4583 189.255 32.4166 188.609 32.3958C188.271 32.3854 187.927 32.4219 187.589 32.3958C187.229 32.3698 186.87 32.2969 186.51 32.25C186.328 32.2291 186.146 32.2135 185.974 32.1979C185.875 32.2187 185.797 32.2448 185.724 32.25C185.625 32.25 185.526 32.2344 185.422 32.2291C185.286 32.2187 185.146 32.2239 185.005 32.2031C184.875 32.1875 184.75 32.1354 184.62 32.125C184.281 32.0989 183.932 32.1302 183.604 32.0625C183.307 32.0052 183.026 32.0469 182.74 32.0469C182.411 32.0416 182.083 32.0625 181.755 32.0521C181.245 32.0312 180.745 32.0885 180.229 31.9687C179.781 31.8698 179.292 31.9271 178.818 31.9583C178.63 31.9739 178.469 31.8906 178.323 31.8437C178.078 31.7604 177.917 31.5104 177.74 31.3021C177.609 31.1458 177.714 30.7396 177.354 30.8437C177.104 30.5416 176.875 30.2604 176.641 29.9791C176.635 29.9739 176.625 29.9687 176.615 29.9687C176.328 29.9271 176.224 29.7135 176.161 29.526C176.016 29.4323 175.885 29.375 175.797 29.2812C175.479 28.9479 175.172 28.6041 174.87 28.25C174.573 27.9062 174.198 27.6458 173.927 27.2708C173.771 27.0469 173.562 26.8541 173.391 26.6302C173.172 26.3281 172.891 26.0625 172.625 25.7969C172.182 25.3489 171.88 24.7708 171.349 24.4062C171.297 24.3698 171.281 24.2812 171.245 24.2135C171.177 24.0833 171.135 23.9375 171.047 23.8281C170.635 23.3489 170.214 22.875 169.786 22.4062C169.656 22.2604 169.448 22.151 169.375 21.9844C169.167 21.4896 168.729 21.1875 168.432 20.7656C168.24 20.4896 168.042 20.2187 167.849 19.9427C167.818 19.8906 167.833 19.8125 167.823 19.7344C167.76 19.7344 167.687 19.7291 167.609 19.7239C167.589 19.6458 167.589 19.5573 167.547 19.5C167.24 19.0781 166.927 18.6614 166.604 18.25C166.443 18.0416 166.25 17.8594 166.099 17.6458C165.828 17.276 165.568 16.8958 165.318 16.5156C165.089 16.1666 164.885 15.7969 164.651 15.4531C164.495 15.2239 164.323 14.9844 164.115 14.8073C163.953 14.6719 163.724 14.6146 163.516 14.5416C163.401 14.5 163.276 14.4948 163.156 14.4739C162.844 14.4427 162.547 14.3489 162.24 14.3073C161.896 14.2604 161.542 14.276 161.193 14.2448C160.802 14.2083 160.417 14.151 160.031 14.1094C159.844 14.0937 159.656 14.0989 159.469 14.0833C159.083 14.0469 158.698 14.0312 158.307 13.9687C157.62 13.8594 156.901 13.9323 156.203 13.901C155.969 13.8906 155.766 13.7969 155.5 13.8594C155.208 13.9323 154.875 13.8021 154.562 13.7604C154.526 13.7552 154.49 13.7448 154.453 13.7396C153.984 13.6979 153.526 13.6562 153.057 13.6198C152.958 13.6094 152.854 13.6198 152.75 13.6302C152.531 13.6458 152.25 13.7604 152.109 13.6666C151.896 13.5312 151.724 13.6406 151.542 13.6198C151.161 13.5833 150.776 13.5937 150.396 13.5677C150.135 13.5416 149.865 13.4114 149.625 13.4583C149.349 13.5156 149.099 13.401 148.839 13.4323C148.443 13.4791 148.062 13.3802 147.661 13.401C147.104 13.4375 146.531 13.3021 145.964 13.2708C145.297 13.2291 144.625 13.2291 143.958 13.2083C143.776 13.2031 143.599 13.1823 143.417 13.1823C143.177 13.1771 142.932 13.1875 142.687 13.1771C142.479 13.1719 142.24 13.0781 142.057 13.151C141.661 13.3073 141.312 13.2031 141.005 13.0052C140.776 12.8541 140.562 12.7656 140.286 12.7135C139.724 12.6041 139.365 12.8802 138.995 13.2135C138.833 13.3646 138.698 13.625 138.562 13.6875C138.25 13.8281 138.109 14.1146 137.891 14.3125C137.453 14.7083 137.094 15.1927 136.703 15.6406C136.599 15.7656 136.516 15.9114 136.401 16.026C136.219 16.2031 136.021 16.3594 135.823 16.5208C135.714 16.6146 135.573 16.6823 135.484 16.7969C135.312 17.0104 135.198 17.276 135.01 17.4687C134.635 17.8489 134.224 18.1875 133.833 18.5521C133.646 18.7291 133.474 18.9166 133.297 19.1041C133.109 19.3021 132.937 19.5156 132.74 19.6979C132.609 19.8229 132.427 19.8906 132.297 20.0156C132.208 20.1094 132.172 20.2604 132.099 20.3698C132.052 20.4427 131.974 20.4948 131.917 20.5625C131.776 20.7344 131.667 20.9583 131.484 21.0677C131.141 21.2708 130.865 21.5364 130.609 21.8333C130.51 21.9479 130.453 22.0989 130.349 22.2031C130.167 22.3906 129.964 22.5521 129.771 22.7239C129.651 22.8333 129.536 22.9479 129.427 23.0677C129.24 23.2864 129.068 23.5208 128.87 23.7344C128.76 23.8541 128.609 23.9375 128.474 24.0416C128.573 24.1875 128.568 24.2708 128.411 24.3802C128.302 24.4583 128.156 24.4896 128.073 24.5833C127.807 24.8646 127.557 25.1562 127.312 25.4583C127.25 25.5312 127.25 25.7083 127.193 25.7239C126.818 25.8333 126.714 26.2083 126.453 26.4271C126.198 26.6458 125.984 26.9062 125.755 27.151C125.583 27.3333 125.411 27.5156 125.245 27.6979C125.224 27.7239 125.182 27.7656 125.187 27.776C125.323 27.9896 125.115 28.0312 125.021 28.1302C124.792 28.3594 124.562 28.5833 124.349 28.8281C124.146 29.0729 123.974 29.3489 123.641 29.4583C123.594 29.4739 123.531 29.5416 123.526 29.5937C123.51 29.8125 123.385 29.9114 123.187 29.9166C123.208 29.9791 123.245 30.0364 123.229 30.0573C123.036 30.3021 122.786 30.4791 122.667 30.8073C122.547 31.1406 122.156 31.3594 122.224 31.7916C122.224 31.8021 122.224 31.8125 122.219 31.8229C122.057 32.0833 122.062 32.3281 122.229 32.5989C122.38 32.8594 122.484 33.1458 122.578 33.3489C122.74 33.3594 122.854 33.3385 122.901 33.3854C123.224 33.7135 123.573 33.9635 124.068 33.9427C124.13 33.9427 124.198 33.9635 124.26 33.9687C124.516 34 124.776 34.0208 125.031 34.0573C125.276 34.0885 125.542 34.0833 125.75 34.1927C125.937 34.2916 126.052 34.2812 126.203 34.1666C126.255 34.1302 126.344 34.1146 126.406 34.125C126.547 34.1458 126.682 34.2031 126.823 34.2239C127.125 34.2708 127.422 34.0937 127.729 34.2291C127.974 34.3385 128.292 34.1406 128.526 34.3802C128.542 34.3958 128.641 34.3437 128.693 34.3177C128.734 34.2969 128.766 34.2396 128.807 34.2396C129.068 34.2344 129.328 34.2396 129.589 34.2396C129.703 34.2396 129.818 34.2135 129.932 34.2239C130.161 34.2396 130.396 34.2969 130.625 34.2864C131.193 34.25 131.755 34.25 132.302 34.5156C132.297 34.4323 132.292 34.375 132.286 34.2812C132.521 34.3229 132.729 34.3854 132.937 34.3906C133.214 34.3906 133.495 34.3229 133.771 34.3281C134.182 34.3385 134.599 34.3906 135.01 34.4219C135.083 34.4271 135.156 34.4531 135.229 34.4479C135.526 34.4375 135.828 34.3906 136.12 34.4166C136.474 34.4427 136.844 34.3906 137.182 34.5677C137.214 34.5885 137.271 34.5625 137.318 34.5521C137.5 34.5208 137.677 34.4739 137.854 34.4635C138.187 34.4427 138.521 34.4531 138.854 34.4427C138.995 34.4427 139.141 34.4375 139.281 34.4114C139.495 34.3646 139.708 34.2916 139.859 34.25C140.068 34.526 140.187 34.7656 140.375 34.9219C140.844 35.3281 141.198 35.8125 141.516 36.3385C141.635 36.5312 141.693 36.7812 141.854 36.9166C142.24 37.2448 142.484 37.6562 142.734 38.0989C142.786 38.0729 142.844 38.0416 142.901 38.0156C143.036 38.4635 143.339 38.7916 143.641 39.1146C143.828 39.3177 143.953 39.5729 144.135 39.7812C144.505 40.1927 145 40.5156 145.078 41.1354C145.078 41.1666 145.193 41.2031 145.255 41.2031C145.307 41.1979 145.354 41.1406 145.401 41.1146C145.51 41.3646 145.615 41.5885 145.714 41.8125C145.792 41.8281 145.911 41.8125 145.948 41.8646C146.104 42.0677 146.297 42.2812 146.354 42.5156C146.411 42.7448 146.552 42.8594 146.698 42.9948C146.849 43.1354 147.047 43.25 147.146 43.4271C147.271 43.651 147.479 43.8021 147.583 44.0677C147.682 44.3125 148.01 44.4739 148.182 44.7448C148.349 45.0104 148.641 45.1979 148.865 45.4375C148.979 45.5625 149.062 45.7239 149.172 45.8646C149.266 45.9896 149.365 46.1094 149.474 46.2239C149.526 46.276 149.63 46.2812 149.672 46.3385C149.839 46.5677 149.948 46.8698 150.161 47.0416C150.396 47.2291 150.615 47.4166 150.786 47.6666C150.891 47.8229 151.036 47.9479 151.177 48.0781C151.406 48.2812 151.5 48.5989 151.766 48.776C152.094 48.9896 152.292 49.3385 152.63 49.5625C153.068 49.8541 153.422 50.2708 153.818 50.6302C153.99 50.7812 154.177 50.9166 154.359 51.0625C154.5 51.1771 154.63 51.3021 154.781 51.3958C154.927 51.4844 155.094 51.5416 155.25 51.6146C155.5 51.7344 155.734 51.875 155.99 51.9687C156.172 52.0312 156.38 52.026 156.578 52.0625C157.052 52.1458 157.531 52.2448 158.01 52.3229C158.182 52.3489 158.365 52.3125 158.536 52.3333C158.75 52.3594 158.953 52.4479 159.167 52.4531C159.427 52.4635 159.687 52.401 159.948 52.3958C160.109 52.3906 160.266 52.4375 160.422 52.4635C160.479 52.4687 160.552 52.4948 160.583 52.4687C160.771 52.3073 160.953 52.4583 161.13 52.4791C161.219 52.4896 161.302 52.5156 161.385 52.5156C161.875 52.5104 162.365 52.4948 162.854 52.4948C162.932 52.4948 163.005 52.5521 163.099 52.5937C163.26 52.4739 164.958 52.5156 165.13 52.6458C165.198 52.5989 165.266 52.5156 165.318 52.5208C165.521 52.5573 165.719 52.6354 165.943 52.5677C166.094 52.5208 166.266 52.526 166.422 52.5364C166.635 52.5521 166.844 52.5989 167.057 52.6302C167.214 52.651 167.37 52.5833 167.505 52.5729C167.932 52.5469 168.37 52.6198 168.807 52.6562C168.974 52.6719 169.135 52.6979 169.302 52.7239C169.307 52.7396 169.312 52.7552 169.318 52.7708C169.396 52.7344 169.479 52.6562 169.557 52.6562C170.177 52.6719 170.797 52.6927 171.411 52.7187C171.562 52.7291 171.714 52.7604 171.865 52.7656C172.036 52.7656 172.214 52.7396 172.385 52.7344C172.536 52.7291 172.687 52.7396 172.833 52.7396C173.021 52.7396 173.203 52.7291 173.391 52.7396C173.656 52.75 173.922 52.8177 174.182 52.7916C174.656 52.7396 175.135 52.526 175.589 52.5833C175.932 52.625 176.219 52.4948 176.531 52.5052C176.708 52.5104 176.932 52.4531 177.047 52.3385C177.292 52.0989 177.562 52.2187 177.818 52.2031C177.859 52.2031 177.911 52.25 177.948 52.2344C178.208 52.1198 178.469 52 178.724 51.875C178.891 51.7969 179.062 51.7344 179.203 51.625C179.391 51.4844 179.547 51.3021 179.729 51.1458C180.068 50.8541 180.469 50.6302 180.693 50.2187C180.734 50.1406 180.833 50.0989 180.901 50.0364C181.005 49.9479 181.104 49.8489 181.198 49.7552C181.24 49.6771 181.333 49.6562 181.417 49.6146C181.755 49.4531 181.807 48.9687 182.229 48.9062C182.349 48.5729 182.719 48.5156 182.922 48.2604C183.172 47.9583 183.5 47.7291 183.823 47.4948C184.24 47.1875 184.604 46.8021 185 46.4583C185.078 46.3854 185.172 46.3021 185.276 46.2708C185.437 46.2135 185.703 46.2969 185.583 45.9635C185.573 45.9323 185.651 45.8594 185.693 45.8229C185.948 45.6198 186.198 45.4114 186.458 45.2187C186.552 45.1458 186.682 45.1094 186.771 45.0312C187.224 44.6041 187.677 44.1614 188.125 43.7291C188.333 43.526 188.536 43.3229 188.75 43.1302C188.953 42.9427 189.167 42.7604 189.38 42.5781C189.453 42.5312 189.474 42.3646 189.526 42.3489C189.885 42.2656 189.974 41.8594 190.271 41.7448C190.625 41.6041 190.646 41.0833 191.083 41.0781C191.099 41.0781 191.109 41.0312 191.13 41.0104C191.208 40.9062 191.266 40.776 191.365 40.7031C191.552 40.5521 191.781 40.4583 191.953 40.3021C192.24 40.0364 192.484 39.7344 192.792 39.4791C193.245 39.1094 193.656 38.6823 194.073 38.2708C194.375 37.9687 194.661 37.6458 194.953 37.3333C195.219 37.0469 195.484 36.7604 195.755 36.4739C195.854 36.3698 195.943 36.2239 196.062 36.1771C196.245 36.1146 196.307 36 196.349 35.8333C196.37 35.7604 196.427 35.6771 196.49 35.6302C196.943 35.3073 197.203 34.8489 197.359 34.3437C197.479 33.9323 197.365 33.5052 197.302 33.0937ZM193.818 34.9323C193.698 35.0833 193.479 35.1302 193.427 35.3541C193.411 35.4114 193.26 35.4375 193.214 35.5312C193.089 35.6302 192.953 35.7187 192.833 35.8229C192.573 36.0521 192.323 36.2864 192.068 36.5208C191.927 36.651 191.786 36.7864 191.646 36.9114C191.479 37.0625 191.318 37.2135 191.146 37.3646C190.833 37.6406 190.521 37.9219 190.193 38.1875C189.99 38.3594 189.677 38.4062 189.599 38.7135C189.24 38.7344 189.12 39.0781 188.88 39.2604C188.786 39.3333 188.714 39.4323 188.625 39.5104C188.391 39.7239 188.104 39.8958 187.932 40.151C187.698 40.5052 187.391 40.7344 187.052 40.9531C187 40.9896 186.958 41.0625 186.922 41.1198C186.823 41.2916 186.776 41.5052 186.495 41.4896C186.437 41.4844 186.354 41.6458 186.307 41.7396C186.13 42.0833 185.839 42.2969 185.531 42.5052C185.365 42.6146 185.219 42.7656 185.047 42.9114C185.203 43.0989 184.964 43.1666 184.844 43.276C184.786 43.3281 184.703 43.3646 184.625 43.3958C184.375 43.4844 184.365 43.7708 184.187 43.9219C183.854 44.2031 183.542 44.5 183.198 44.7708C183.026 44.9062 182.937 45.1666 182.656 45.1458C182.557 45.4896 182.203 45.5885 181.99 45.8229C181.708 46.1302 181.354 46.3646 181.047 46.651C180.776 46.901 180.536 47.1823 180.271 47.4375C180.073 47.625 179.859 47.7864 179.656 47.9687C179.536 48.0729 179.417 48.1875 179.297 48.2969C179.224 48.3541 179.146 48.401 179.062 48.4583C179.089 48.4687 179.135 48.4896 179.187 48.5156C178.958 48.4844 178.88 48.8437 178.62 48.7187C178.609 48.7187 178.562 48.7552 178.562 48.776C178.552 49.0521 178.286 49.125 178.156 49.3021C178.125 49.3437 178.083 49.4219 178.047 49.4219C177.776 49.401 177.771 49.6146 177.672 49.75C177.583 49.8437 177.49 49.9427 177.401 50.0416C177.37 50.0729 177.339 50.1041 177.307 50.1354C177.068 50.3229 176.781 50.4427 176.672 50.7916C176.646 50.8958 176.318 50.9479 176.13 50.9479C175.865 50.9479 175.599 50.8489 175.333 50.8437C175.031 50.8385 174.729 50.9114 174.427 50.9114C174.182 50.9114 173.943 50.8281 173.698 50.8229C173.526 50.8177 173.307 50.9739 173.193 50.9062C172.849 50.7135 172.5 50.9114 172.151 50.8281C171.859 50.7552 171.484 50.6979 171.234 50.8229C170.932 50.9739 170.745 50.7448 170.51 50.7656C170.073 50.8073 169.641 50.6875 169.203 50.7656C168.906 50.8125 168.599 50.8489 168.323 50.6562C168.281 50.6302 168.182 50.6875 168.115 50.6927C168.047 50.7031 167.979 50.6875 167.917 50.6771C167.901 50.6771 167.875 50.6458 167.875 50.6458C167.661 50.875 167.396 50.7135 167.182 50.6875C166.849 50.651 166.458 50.8177 166.198 50.5052C166.146 50.5573 166.104 50.6354 166.068 50.6354C165.714 50.6094 165.359 50.5625 165.005 50.5312C164.932 50.526 164.854 50.5833 164.781 50.5833C164.589 50.5781 164.406 50.5364 164.198 50.5573C163.906 50.5885 163.594 50.4219 163.286 50.3854C163.115 50.3646 162.932 50.4635 162.755 50.4583C162.464 50.4427 162.177 50.3698 161.885 50.3385C161.745 50.3281 161.604 50.3541 161.464 50.3385C161.349 50.3333 161.234 50.2916 161.078 50.2604C161.062 50.2708 160.953 50.3594 160.927 50.3333C160.698 50.1719 160.443 50.2916 160.214 50.25C159.807 50.1823 159.385 50.026 158.995 50.0781C158.703 50.1146 158.474 50.026 158.214 50.0104C157.984 49.9948 157.76 50.0156 157.536 49.9896C157.437 49.9791 157.349 49.9062 157.25 49.8594C157.214 49.8385 157.177 49.8021 157.146 49.8073C156.677 49.8437 156.323 49.5885 155.953 49.3594C155.547 49.1094 155.219 48.7916 154.995 48.3646C154.984 48.3489 154.974 48.3229 154.958 48.3229C154.432 48.2396 154.297 47.6979 153.917 47.4375C153.672 47.2708 153.516 46.9687 153.307 46.7396C153.177 46.6041 152.995 46.5104 152.88 46.3646C152.734 46.1927 152.651 45.9791 152.516 45.7969C152.448 45.7083 152.312 45.6719 152.24 45.5885C152.094 45.4166 151.974 45.2344 151.839 45.0573C151.786 44.9948 151.724 44.9375 151.672 44.875C151.594 44.7708 151.521 44.6614 151.417 44.5104C151.411 44.5104 151.339 44.5312 151.25 44.5573C150.906 44.1094 150.557 43.6562 150.208 43.2031C150.047 43.151 149.927 43.0573 149.984 42.8281C149.531 42.7239 149.354 42.3021 149.068 42.026C148.979 41.9219 148.885 41.8229 148.807 41.7135C148.74 41.6146 148.693 41.5052 148.63 41.3958C148.62 41.375 148.62 41.3385 148.599 41.3229C148.427 41.1927 148.25 41.0677 148.073 40.9375C148.057 40.9219 148.026 40.901 148.021 40.8802C147.844 40.3489 147.37 40.0677 147 39.6979C146.906 39.6041 146.901 39.4323 146.828 39.3073C146.719 39.1094 146.562 38.9844 146.328 38.9271C146.208 38.8958 146.073 38.7187 146.042 38.5885C145.979 38.3281 145.729 38.2708 145.599 38.0989C145.573 38.0677 145.505 38.0469 145.505 38.0156C145.5 37.6927 145.187 37.6354 145.026 37.4427C144.964 37.3646 144.906 37.276 144.844 37.1927C144.812 37.151 144.781 37.1094 144.745 37.0729C144.656 36.9844 144.542 36.9114 144.474 36.8125C144.234 36.4739 144.021 36.1146 143.771 35.7864C143.62 35.5885 143.411 35.4375 143.245 35.25C142.885 34.8541 142.526 34.4531 142.187 34.0364C142.01 33.8281 141.87 33.5885 141.698 33.3437C141.719 33.3333 141.734 33.3229 141.75 33.3177C141.052 32.8906 140.396 32.3802 139.818 31.8854C139.536 32 139.161 31.9323 138.828 31.9323C138.594 31.9323 138.365 31.9114 138.13 31.8802C138.047 31.8698 137.974 31.7969 137.885 31.7448C137.807 31.9635 137.656 31.9166 137.479 31.8177C137.328 31.7291 137.156 31.6198 137.042 31.9219C136.87 31.6562 136.682 31.7864 136.484 31.8125C136.292 31.8385 136.083 31.776 135.88 31.7708C135.333 31.7604 134.786 31.7656 134.234 31.75C133.745 31.7344 133.25 31.651 132.766 31.6875C132.521 31.7031 132.302 31.526 132.021 31.6927C131.833 31.8021 131.505 31.6562 131.24 31.6302C130.958 31.6094 130.656 31.526 130.391 31.5885C129.984 31.6875 129.687 31.5052 129.333 31.3177C129.37 31.4635 129.396 31.5729 129.411 31.6406C129.062 31.6094 128.724 31.5677 128.385 31.5521C128.177 31.5416 127.964 31.5833 127.755 31.5625C127.625 31.5469 127.505 31.4583 127.349 31.3906C127.099 31.6406 126.531 31.6406 126.109 31.2969C126.156 31.401 126.182 31.4479 126.219 31.5208C126.026 31.4948 125.854 31.4739 125.615 31.4427C125.672 31.3646 125.745 31.2708 125.812 31.1823C125.823 31.1875 125.828 31.1927 125.839 31.1979C125.99 31.0156 126.141 30.8281 126.292 30.6406C126.505 30.3802 126.719 30.1094 126.953 29.8541C127.047 29.7448 127.187 29.6771 127.307 29.5885C127.323 29.5781 127.359 29.5833 127.359 29.5781C127.411 29.2396 127.823 29.1562 127.896 28.8073C127.922 28.6666 128.156 28.5729 128.281 28.4479C128.505 28.2187 128.714 27.9739 128.937 27.7396C129.068 27.6041 129.203 27.4791 129.318 27.3437C129.427 27.2031 129.531 27.0573 129.641 26.9219C129.927 26.5729 130.203 26.2291 130.505 25.8958C130.667 25.7135 130.87 25.5677 131.036 25.3958C131.13 25.2916 131.182 25.151 131.281 25.0469C131.359 24.9583 131.469 24.8854 131.568 24.8229C131.854 24.6406 131.932 24.3021 132.146 24.0677C132.437 23.7448 132.745 23.4271 133.062 23.125C133.12 23.0677 133.234 23.0677 133.323 23.0416C133.25 22.8021 134.318 21.6146 134.74 21.4531C134.661 21.3541 134.781 21.0312 134.937 20.9583C135.25 20.8125 135.443 20.5573 135.635 20.2812C135.792 20.0521 136.052 19.8906 136.266 19.7083C136.307 19.6719 136.385 19.6614 136.401 19.6198C136.536 19.2448 136.849 19.0469 137.172 18.8646C137.219 18.8385 137.234 18.7552 137.266 18.7031C137.344 18.5781 137.411 18.4427 137.505 18.3333C137.786 18.0104 138.089 17.6979 138.375 17.375C138.609 17.1041 138.844 16.8333 139.057 16.5416C139.182 16.3698 139.266 16.1614 139.37 15.9687C139.526 16.0312 139.708 15.9114 139.745 15.7135C139.771 15.5781 140.234 15.0937 140.323 15.0156C140.682 14.7135 141.083 14.875 141.448 14.9166C142.062 14.9896 142.677 15.026 143.292 15.0625C143.516 15.0729 143.734 15.0833 143.958 15.0677C144.339 15.0416 144.698 15.1927 145.109 15.1094C145.474 15.0364 145.88 15.1823 146.271 15.2239C146.5 15.2448 146.729 15.25 146.953 15.2708C147.594 15.3177 148.234 15.375 148.875 15.4219C149.062 15.4375 149.26 15.4166 149.453 15.4323C149.552 15.4375 149.646 15.5052 149.745 15.5104C149.891 15.5208 150.036 15.4844 150.182 15.4896C150.474 15.5 150.812 15.4375 151.052 15.5677C151.349 15.7239 151.615 15.5156 151.906 15.6458C152.182 15.7604 152.531 15.6823 152.844 15.7135C153.13 15.7448 153.411 15.8125 153.698 15.8541C153.74 15.8646 153.792 15.8021 153.839 15.7916C153.958 15.7656 154.094 15.7083 154.193 15.7396C154.49 15.8333 154.76 15.9583 155.089 15.8073C155.208 15.75 155.401 15.8698 155.557 15.8802C156.307 15.901 157.057 15.9114 157.802 15.9375C158.187 15.9531 158.609 16.1094 158.948 16C159.344 15.8698 159.719 16.2552 160.083 15.9583C160.125 15.9271 160.26 16.0416 160.354 16.0416C160.917 16.0573 161.484 16.0469 162.052 16.0781C162.432 16.0937 162.812 16.1302 163.182 16.2187C163.318 16.2552 163.417 16.4531 163.531 16.5781C163.573 16.6302 163.609 16.6875 163.646 16.7448C163.776 16.9531 163.901 17.1666 164.031 17.375C164.078 17.4531 164.135 17.5208 164.198 17.5885C164.224 17.6198 164.292 17.6354 164.297 17.6719C164.385 18.0052 164.615 18.25 164.818 18.5208C165.068 18.8437 165.396 19.1614 165.495 19.5312C165.63 20.0416 165.974 20.3802 166.234 20.7864C166.339 20.9479 166.339 21.2396 166.63 21.2552C166.437 21.5104 166.76 21.5156 166.833 21.6354C167.109 22.1041 167.401 22.5677 167.719 23.0104C167.885 23.2448 168.172 23.4062 168.297 23.6614C168.432 23.9323 168.708 24.0521 168.833 24.3021C169.094 24.8073 169.479 25.2187 169.854 25.6406C170.073 25.8906 170.234 26.1927 170.427 26.4687C170.49 26.5521 170.573 26.6146 170.63 26.6979C170.729 26.8385 170.818 26.9844 170.917 27.1302C171.031 27.2916 171.146 27.4583 171.276 27.6146C171.599 27.9948 171.932 28.375 172.26 28.75C172.411 28.9219 172.578 29.0833 172.724 29.2604C172.818 29.375 172.875 29.5156 172.979 29.6927C173.135 29.7239 173.255 29.8437 173.25 30.0833C173.25 30.1458 173.297 30.2239 173.344 30.2656C173.641 30.5156 173.958 30.75 174.24 31.0156C174.578 31.3333 174.891 31.6771 175.208 32.0208C175.542 32.3854 175.854 32.7708 176.198 33.125C176.365 33.2969 176.578 33.4219 176.807 33.5104C176.839 33.5937 176.849 33.7031 176.906 33.7604C177.016 33.8802 177.141 33.9844 177.281 34.0677C177.437 34.1614 177.604 34.2396 177.792 34.1406C177.823 34.1198 177.88 34.1302 177.917 34.151C178.422 34.3594 178.917 34.5208 179.479 34.401C179.698 34.3594 179.948 34.3489 180.146 34.526C180.177 34.5521 180.26 34.5521 180.297 34.526C180.625 34.3229 180.984 34.401 181.328 34.4166C181.609 34.4219 181.911 34.6146 182.161 34.5469C182.401 34.4844 182.589 34.5781 182.802 34.5729C183.297 34.5573 183.792 34.5937 184.286 34.6094C184.531 34.6146 184.771 34.6094 185.01 34.6354C185.203 34.651 185.396 34.7187 185.589 34.7344C185.714 34.7448 185.839 34.7031 185.964 34.6927C186.104 34.6823 186.25 34.6719 186.391 34.6823C186.609 34.6979 186.833 34.7396 187.052 34.7604C187.359 34.7864 187.672 34.8021 187.979 34.8177C188.062 34.8229 188.151 34.8021 188.24 34.8073C188.427 34.8177 188.62 34.8229 188.807 34.8489C188.953 34.8698 189.115 34.9948 189.182 34.7604C189.448 34.8021 189.703 34.8489 189.964 34.8854C190.016 34.8906 190.083 34.901 190.125 34.8698C190.417 34.6875 190.714 34.7812 191.01 34.8489C191.068 34.8646 191.141 34.9062 191.172 34.8802C191.516 34.6406 191.911 34.8541 192.281 34.7552C192.495 34.6979 192.75 34.75 192.979 34.7916C193.146 34.8281 193.245 34.6979 193.401 34.6875C193.594 34.6771 193.75 34.8125 193.948 34.776C193.911 34.8333 193.865 34.8802 193.818 34.9323Z" fill="black"/>
</g>
<path d="M40.6823 33.302L42.0521 33.1927L42.7396 33.2656L43.8646 33.2291L44.8802 33.052L44.9843 32.1771L44.7291 31.3489L44.1875 30.0052L43.2083 28.125L42.7031 26.7916L41.9791 25.4791L40.6041 22.1927L40.2396 21.6458L39.8854 20.9583L39.6666 20.1614L39.3385 19.625L39.125 19.0417L38.3593 17.7083L38.1093 16.9479L35.7187 11.9115L35.5052 11.1927L35.1094 10.5417L34.8854 9.88541L34.1979 8.625L33.5885 7.96875L32.3958 7.60938L31.2344 8.00521L30.5833 8.625L30.2552 9.23437L30 9.95833L29.6719 10.4687L28.2344 13.7917L27.8333 14.3385L27.651 15.0625L27.25 15.7552L27.0312 16.3958L23.349 24.1458L23.125 24.9427L22.7656 25.4791L22.5052 26.2083L21.8646 27.3646L21.3125 28.8125L20.9167 29.3229L20.7396 29.9687L20.0156 31.4166L19.7969 32.1458L19.9792 33.052L20.7031 33.2656L22.1094 33.1927L22.8333 33.2656L24.8646 33.1927L25.6979 32.9375L26.3854 32.2916L27.0312 31.0937L27.7187 30.4114L28.4792 30.0052L29.1667 30.1198L30.6875 29.9687L31.3437 30.0833L34.8854 30.0521L35.5416 30.1198L36.3333 30.0052L37.1302 30.4114L37.8177 30.9843L38.1458 31.6771L38.3593 32.3281L39.0833 32.8698L39.9218 33.2291L40.6823 33.302ZM32.4635 24.2864L31.7396 24.1458L30.9114 24.2187L30.3281 23.9635L30.2917 23.2812L31.9948 19.3646L32.3958 19.0417L32.8958 19.3333L34.6041 23.3177L34.4531 23.9635L33.9114 24.2552L32.4635 24.2864ZM46.5364 31.9323L46.7916 32.8698L47.4843 33.2291L48.2083 33.302L49.7291 33.1927L51.1302 33.2656L52.5104 33.1927L53.1979 33.302L53.9947 33.2291L61.1614 33.2656L61.8489 32.901L62.2499 31.7812L62.2135 28.8489L61.8854 27.7708L61.2291 27.3281L60.4739 27.4062L59.7812 27.5468L59.0208 27.4427L57.5364 27.4791L56.8229 27.3281L56.1666 27.4427L54.7552 27.3646L53.9947 27.4427L53.2708 27.151L52.9791 26.4271L53.0156 14.1562L52.9427 13.2865L53.0156 11.8385L52.9062 9.78125L52.9427 9.09375L52.5833 8.29687L51.8593 7.86458H50.4531L49.7291 8.00521L48.276 7.86458L47.5885 7.96875L46.8281 8.26042L46.5 9.05729V14.1198L46.4323 14.8073L46.5 15.5312L46.3958 16.875L46.4323 17.6719L46.5 18.3594L46.5364 31.9323ZM74.0416 33.3385L79.2187 33.2656L79.9791 32.9375L80.3749 32.1771V28.5312L79.9791 27.8073L79.2187 27.4791L78.3905 27.5468L77.6978 27.4427L75.8541 27.4062L74.6614 27.5468L73.9374 27.4791L73.1406 27.5156L72.4531 27.4062L71.6562 27.4791L70.8958 27.1146L70.6041 26.4635V24.1823L70.9322 23.4219L71.5833 23.026L72.6718 22.9896L73.8281 23.0937L75.1978 23.026L76.6822 23.0625L77.4062 22.9896L78.2447 23.026L78.9635 22.7344L79.2187 22.0104L79.3228 18.7552L78.9635 17.7396L78.1301 17.2708H75.9999L75.2447 17.3437L73.7239 17.2396L71.6197 17.3073L70.8593 16.9792L70.5676 15.8594V14.7396L70.8958 14.0469L71.6926 13.7552L72.3801 13.7917L73.0676 13.651L78.2447 13.7187L78.927 13.6875L79.6874 13.2552L80.0468 12.599L80.0155 11.875L80.0468 11.151L79.9791 8.98437L79.651 8.29687L78.927 8.00521H78.1666L77.5208 7.86458L74.5885 7.89583L73.7916 7.96875L73.0676 7.89583L72.4531 7.93229L71.7239 7.86458L68.7551 7.93229L68.0312 7.82812L67.3541 7.96875L66.6979 7.89583L65.9739 7.96875L65.2499 7.93229L64.4895 8.22396L64.0937 8.98437L64.1614 10.3542L64.0572 11.8385L64.1614 12.6354L64.0937 16.1875L64.1979 16.9479L64.1249 17.6354L64.0937 20.5937L64.1979 21.25L64.1614 27.1146L64.0937 27.8073L64.1979 28.5312L64.0937 31.0208L64.1614 31.8177L64.4531 32.7968L65.5416 33.2656L68.1458 33.302L68.9426 33.2291L69.5989 33.2656L71.0833 33.1614L71.7603 33.302L72.5989 33.3385L73.3176 33.2656L74.0416 33.3385Z" stroke="black" stroke-width="1.5834"/>
<path d="M21.5969 62.1823L23.373 62.1094L24.024 62.1458L24.8574 62.0729L25.6126 61.7813L25.9407 61.0208L25.9042 60.3021L25.9407 59.5052L25.8678 58.1667L25.9407 57.4792L25.9042 56.6458L26.2324 55.9948L27.0605 55.5938L27.8574 55.5208L28.6178 55.6667L32.3469 55.375L35.7844 54L36.3261 53.5677L36.8365 52.9896L37.3053 52.5208L37.774 51.974L38.5344 50.8177L39.149 49.4063L39.2584 48.6094L39.4771 48.0313L39.5501 45.0625L39.4042 44.4479L39.2949 43.651L38.8626 42.3125L38.1751 41.0833L37.3053 39.8854L35.6751 38.474L34.4824 37.6823L33.0344 37.2448L32.4199 36.9948H31.6959L30.9719 36.7396L29.8834 36.7031L28.7271 36.7396L27.9303 36.849L25.7219 36.8125L24.998 36.7031L22.7532 36.849L21.9615 36.8125L21.3105 36.7031L20.5501 36.849L19.7896 37.2448L19.4615 37.8229L19.498 42.2031L19.3521 43.651L19.4251 44.3385L19.3886 53.7135L19.4615 54.401L19.4251 61.0938L19.8261 61.7813L20.9459 62.1458L21.5969 62.1823ZM27.024 49.8021L26.3001 49.3698L25.9771 48.7552L25.8678 45.8229L25.9407 45.0625V43.5781L26.3001 42.8906L27.0605 42.5313L30.8261 42.6406L31.5501 42.9635L32.1282 43.3646L32.6021 43.8333L32.9615 44.5573L33.0709 45.2083L33.1438 46.2188L33.0709 47.1979L32.8157 47.849L32.4928 48.4271L32.0188 49.0104L31.4407 49.4427L30.8626 49.625L29.7428 49.7656L27.8938 49.7292L27.024 49.8021Z" fill="black"/>
<path d="M50.6208 62.1824L55.7979 62.1095L56.5583 61.7813L56.9541 61.0209V57.3699L56.5583 56.6459L55.7979 56.3178L54.9645 56.3907L54.277 56.2813L52.4333 56.2449L51.2354 56.3907L50.5114 56.3178L49.7145 56.3542L49.027 56.2449L48.2354 56.3178L47.4749 55.9584L47.1833 55.3074V53.0261L47.5114 52.2657L48.1624 51.8647L49.2458 51.8334L50.402 51.9376L51.7822 51.8647L53.2614 51.9011L53.9854 51.8334L54.8187 51.8647L55.5427 51.5782L55.7979 50.8542L55.9072 47.599L55.5427 46.5834L54.7093 46.1147H52.5739L51.8135 46.1876L50.2979 46.0782L48.1989 46.1511L47.4385 45.823L47.1468 44.7032V43.5782L47.4749 42.8907L48.2666 42.6042L48.9593 42.6407L49.6468 42.4949L54.8187 42.5678L55.5062 42.5313L56.2666 42.0938L56.6312 41.4428L56.5947 40.7188L56.6312 39.9949L56.5583 37.823L56.2302 37.1355L55.5062 36.849H54.7458L54.0947 36.7032L51.1624 36.7397L50.3708 36.8126L49.6468 36.7397L49.027 36.7761L48.3031 36.7032L45.3395 36.7761L44.6156 36.6667L43.9281 36.8126L43.277 36.7397L42.5531 36.8126L41.8291 36.7761L41.0687 37.0626L40.6677 37.823L40.7406 39.198L40.6312 40.6824L40.7406 41.4792L40.6677 45.0261L40.777 45.7865L40.7041 46.474L40.6677 49.4428L40.777 50.0938L40.7406 55.9584L40.6677 56.6459L40.777 57.3699L40.6677 59.8647L40.7406 60.6615L41.0322 61.6407L42.1156 62.1095L44.7249 62.1459L45.5166 62.073L46.1677 62.1095L47.652 62.0001L48.3395 62.1459L49.1729 62.1824L49.8968 62.1095L50.6208 62.1824Z" fill="black"/>
<path d="M77.5842 61.4583L78.5581 62.0364L79.5738 62.1458L80.3706 61.8905L80.73 61.1666L80.8029 47.9583L80.6935 47.3437V43.7603L80.8029 42.8905L80.6935 37.8593L80.3342 37.1353L79.6102 36.7395L75.1206 36.776L74.4331 37.1718L74.0373 37.9322L74.0008 38.6926L74.1102 39.2708L74.0008 40.7916L74.0737 41.5885L74.0008 48.0676L73.7821 48.6822L73.2404 48.427L70.6727 45.8593L69.6571 45.0624L62.5269 37.8593L61.9852 37.427L61.1519 36.9947L60.0685 36.7395L59.2352 37.0989L58.9071 37.7864V48.7551L58.8706 49.3697L58.9435 50.8541L58.8342 51.4687L58.9071 57.4062L58.8342 58.0937L58.9071 61.1301L59.2352 61.8176L59.9956 62.0728L61.48 62.1458L62.2717 62.0728L63.6831 62.1822L64.4435 62.1458L65.1675 61.7812L65.5321 60.6614L65.5685 51.5051L65.6415 50.7812L65.8915 50.1666L66.3654 50.3489L66.8342 50.9635L69.4019 53.4218L69.8758 53.9635L70.4904 54.3645L76.0998 59.9374L77.0373 60.9895L77.5842 61.4583Z" fill="black"/>
<path d="M83.6239 61.0572L84.0614 61.7447L84.7489 62.1458L85.4728 62.1093L86.9207 62.1822L87.6812 62.1093L89.1968 62.1458L89.9572 61.7135L90.2489 61.0208L90.3218 60.3333L90.2489 59.5416V53.1353L90.5718 52.3749L91.3322 51.901L95.603 51.8645L96.3634 51.9739H97.0145L97.702 52.3749L98.0666 53.0624L98.103 61.0572L98.4989 61.6405L99.5509 62.1093H101.431L102.155 62.0364L103.639 62.1458L104.327 61.677L104.759 61.0572L104.686 57.7655L104.796 56.6093L104.686 56.0312L104.723 37.8593L104.4 37.0989L103.676 36.8124L99.5145 36.776L98.4624 37.0312L98.103 37.8958L98.0666 39.2708L98.1395 39.8853L98.0666 41.3697L98.1759 42.0572L98.1395 44.8801L97.7384 45.6041L97.0145 46.0051L96.327 45.8958L94.9155 46.0416L94.1551 45.9687L93.5041 46.0416L91.3687 46.0051L90.6812 45.677L90.3218 44.9895L90.2853 44.1926V43.4322L90.2489 42.7812L90.2853 39.9583L90.3582 39.1614L90.2853 37.8228L89.9572 37.1353L89.1968 36.7395L88.3999 36.8124L84.8218 36.7395L84.0249 37.0989L83.6603 37.8228L83.5874 38.6197L83.6603 41.4426L83.5874 42.1666L83.7332 43.651L83.6603 45.026L83.6968 45.8958L83.6239 46.6197V57.4426L83.7332 58.0937L83.6239 61.0572Z" fill="black"/>
<path d="M126.294 62.1459L127.669 62.0365L128.357 62.1095L129.477 62.073L130.492 61.8907L130.602 61.0209L130.347 60.1928L129.805 58.8542L128.826 56.9688L128.321 55.6303L127.597 54.3282L126.222 51.0365L125.857 50.4897L125.498 49.8022L125.279 49.0105L124.956 48.4636L124.737 47.8855L123.977 46.547L123.722 45.7865L121.336 40.7553L121.117 40.0313L120.722 39.3803L120.503 38.7292L119.815 37.4636L119.201 36.8126L118.003 36.448L116.847 36.849L116.196 37.4636L115.873 38.0782L115.617 38.8022L115.289 39.3074L113.841 42.6407L113.446 43.1824L113.263 43.9063L112.867 44.5938L112.649 45.2449L108.956 52.9897L108.742 53.7865L108.378 54.3282L108.123 55.0522L107.472 56.2084L106.93 57.6563L106.534 58.1667L106.352 58.8178L105.628 60.2657L105.409 60.9897L105.591 61.8907L106.315 62.1095L107.727 62.0365L108.451 62.1095L110.477 62.0365L111.31 61.7813L111.998 61.1303L112.649 59.9376L113.336 59.2501L114.097 58.8542L114.784 58.9584L116.305 58.8178L116.956 58.922L120.503 58.8907L121.154 58.9584L121.951 58.8542L122.748 59.2501L123.435 59.8282L123.758 60.5157L123.977 61.1667L124.701 61.7136L125.534 62.073L126.294 62.1459ZM118.076 53.1355L117.352 52.9897L116.524 53.0626L115.94 52.8074L115.904 52.1199L117.607 48.2136L118.003 47.8855L118.513 48.1772L120.211 52.1563L120.071 52.8074L119.524 53.099L118.076 53.1355Z" fill="black"/>
<path d="M14.026 33.5573L14.8906 33.2656L15.6875 32.2135L16.1666 31.2083L16.375 30.4479L17.0677 29.2916L17.2864 28.5677L17.651 27.8073L17.8594 27.1875L18.2604 26.5312L19.6719 23.2448L19.9271 22.4427L20.5729 21.2864L23.7291 13.8385L24.0885 13.1823L24.6979 11.875L24.8854 11.1927L25.5729 9.92187L25.8229 8.94792L25.6458 8.1875L24.9896 8.04167L24.2343 7.96875L23.5781 7.86458L22.8958 7.93229L22.1719 7.96875L20.7969 7.82812L20 8.29687L19.3802 8.90625L16.0156 16.875L15.8021 17.6354L15.4739 18.2448L15.3281 18.901L14.9739 19.5521L14.25 21.5781L13.8854 22.2291L13.4896 22.1614L12.5781 20.1979L12.4375 19.5156L11.8177 18.2812L10.0052 13.5781L9.0677 11.6615L8.05208 8.90625L7.4427 8.29687L6.60416 7.93229L4.54687 7.86458L3.82291 7.96875H2.44271L1.86979 8.22396L1.57812 8.94792L2.73437 12.026L3.09896 12.5625L3.28125 13.2552L3.56771 13.9792L3.96354 14.5156L4.21875 15.276L7.47916 22.5937L7.6927 23.3177L8.60416 25.1979L8.84895 25.9583L9.46874 27.1875L9.86457 27.8385L10.0417 28.5677L11.4896 32L11.8177 32.5416L12.5417 33.1614L13.3385 33.4531L14.026 33.5573Z" stroke="black" stroke-width="1.5834"/>
<path d="M101.464 7.59619L100.594 7.88786L99.7975 8.93994L99.3288 9.95036L99.11 10.7108L98.4225 11.867L98.2038 12.591L97.8444 13.3514L97.6257 13.966L97.2298 14.6222L95.8184 17.9139L95.5632 18.7108L94.9121 19.867L91.7611 27.3202L91.4017 27.9764L90.7871 29.2785L90.6048 29.966L89.9173 31.2316L89.6621 32.2108L89.8444 32.966L90.4954 33.1118L91.2559 33.1847L91.9069 33.2941L92.5944 33.2212L93.3184 33.1847L94.6934 33.3306L95.4902 32.8618L96.1048 32.2472L99.4694 24.2837L99.6882 23.5233L100.016 22.9087L100.157 22.2577L100.521 21.6066L101.245 19.5754L101.605 18.9243L102.006 18.9972L102.912 20.9556L103.053 21.6431L103.673 22.8722L105.48 27.5754L106.423 29.492L107.433 32.2472L108.048 32.8618L108.881 33.2212L110.943 33.2941L111.667 33.1847H113.042L113.62 32.9347L113.912 32.2108L112.756 29.1327L112.391 28.591L112.209 27.9035L111.923 27.1795L111.521 26.6327L111.271 25.8774L108.011 18.5649L107.798 17.841L106.891 15.9608L106.636 15.2004L106.021 13.966L105.626 13.3149L105.443 12.591L103.995 9.15348L103.673 8.61182L102.949 7.99723L102.152 7.70557L101.464 7.59619Z" fill="#C40008"/>
</svg>
