<svg xmlns="http://www.w3.org/2000/svg" xmlns:xlink="http://www.w3.org/1999/xlink" width="120" zoomAndPan="magnify" viewBox="0 0 90 37.5" height="50" preserveAspectRatio="xMidYMid meet" version="1.0"><defs><g/><clipPath id="c3a557e37e"><path d="M 54.765625 8.570312 L 87.980469 8.570312 L 87.980469 26.285156 L 54.765625 26.285156 Z M 54.765625 8.570312 " clip-rule="nonzero"/></clipPath><clipPath id="93db472d47"><path d="M 0.59375 2 L 17 2 L 17 22 L 0.59375 22 Z M 0.59375 2 " clip-rule="nonzero"/></clipPath></defs><g clip-path="url(#c3a557e37e)"><path fill="#ffffff" d="M 87.90625 17.59375 C 87.902344 17.582031 87.898438 17.5625 87.890625 17.558594 C 87.714844 17.492188 87.632812 17.261719 87.394531 17.304688 C 87.304688 17.324219 87.203125 17.285156 87.109375 17.289062 C 87.027344 17.292969 86.9375 17.222656 86.863281 17.3125 C 86.855469 17.320312 86.832031 17.3125 86.8125 17.308594 C 86.714844 17.300781 86.613281 17.28125 86.515625 17.28125 C 86.320312 17.285156 86.125 17.304688 85.929688 17.308594 C 85.597656 17.316406 85.261719 17.324219 84.929688 17.320312 C 84.644531 17.316406 84.359375 17.296875 84.078125 17.289062 C 83.925781 17.285156 83.777344 17.296875 83.628906 17.289062 C 83.46875 17.277344 83.3125 17.242188 83.152344 17.222656 C 83.074219 17.214844 82.992188 17.207031 82.914062 17.199219 C 82.871094 17.210938 82.839844 17.222656 82.804688 17.222656 C 82.761719 17.222656 82.71875 17.214844 82.675781 17.214844 C 82.613281 17.210938 82.550781 17.210938 82.492188 17.203125 C 82.433594 17.195312 82.378906 17.171875 82.320312 17.167969 C 82.171875 17.15625 82.015625 17.171875 81.875 17.140625 C 81.742188 17.113281 81.617188 17.132812 81.492188 17.132812 C 81.347656 17.132812 81.203125 17.140625 81.058594 17.136719 C 80.835938 17.128906 80.613281 17.152344 80.386719 17.101562 C 80.1875 17.054688 79.972656 17.082031 79.765625 17.09375 C 79.683594 17.101562 79.609375 17.066406 79.546875 17.042969 C 79.4375 17.007812 79.367188 16.898438 79.289062 16.804688 C 79.234375 16.738281 79.28125 16.558594 79.121094 16.605469 C 79.011719 16.472656 78.910156 16.347656 78.804688 16.222656 C 78.804688 16.222656 78.796875 16.222656 78.792969 16.21875 C 78.667969 16.203125 78.625 16.109375 78.597656 16.027344 C 78.53125 15.984375 78.472656 15.960938 78.433594 15.917969 C 78.292969 15.769531 78.160156 15.621094 78.027344 15.464844 C 77.894531 15.3125 77.730469 15.199219 77.613281 15.035156 C 77.542969 14.9375 77.449219 14.851562 77.375 14.753906 C 77.277344 14.617188 77.15625 14.503906 77.039062 14.386719 C 76.84375 14.191406 76.710938 13.9375 76.476562 13.773438 C 76.453125 13.757812 76.445312 13.71875 76.429688 13.691406 C 76.402344 13.632812 76.382812 13.566406 76.339844 13.519531 C 76.160156 13.308594 75.976562 13.101562 75.789062 12.894531 C 75.730469 12.832031 75.636719 12.785156 75.605469 12.710938 C 75.515625 12.492188 75.320312 12.359375 75.191406 12.175781 C 75.109375 12.050781 75.019531 11.933594 74.933594 11.8125 C 74.921875 11.792969 74.925781 11.757812 74.921875 11.722656 C 74.894531 11.71875 74.863281 11.71875 74.828125 11.714844 C 74.820312 11.679688 74.820312 11.644531 74.800781 11.617188 C 74.667969 11.433594 74.527344 11.25 74.386719 11.066406 C 74.316406 10.976562 74.230469 10.894531 74.164062 10.804688 C 74.042969 10.640625 73.929688 10.472656 73.820312 10.304688 C 73.71875 10.152344 73.628906 9.992188 73.527344 9.839844 C 73.457031 9.738281 73.382812 9.632812 73.289062 9.554688 C 73.21875 9.496094 73.117188 9.472656 73.027344 9.4375 C 72.976562 9.421875 72.921875 9.417969 72.867188 9.410156 C 72.730469 9.394531 72.597656 9.351562 72.464844 9.335938 C 72.3125 9.316406 72.15625 9.320312 72.003906 9.308594 C 71.832031 9.292969 71.660156 9.265625 71.492188 9.25 C 71.410156 9.242188 71.324219 9.246094 71.242188 9.238281 C 71.074219 9.222656 70.902344 9.214844 70.730469 9.1875 C 70.429688 9.140625 70.113281 9.171875 69.804688 9.15625 C 69.703125 9.152344 69.613281 9.113281 69.496094 9.140625 C 69.367188 9.171875 69.222656 9.113281 69.082031 9.09375 C 69.066406 9.09375 69.050781 9.085938 69.035156 9.085938 C 68.828125 9.066406 68.625 9.050781 68.421875 9.03125 C 68.375 9.03125 68.332031 9.035156 68.285156 9.039062 C 68.1875 9.046875 68.066406 9.09375 68.003906 9.054688 C 67.910156 8.992188 67.832031 9.042969 67.753906 9.035156 C 67.585938 9.015625 67.414062 9.023438 67.246094 9.007812 C 67.132812 9 67.015625 8.941406 66.910156 8.964844 C 66.785156 8.988281 66.675781 8.9375 66.5625 8.953125 C 66.386719 8.972656 66.21875 8.925781 66.042969 8.9375 C 65.796875 8.953125 65.546875 8.894531 65.296875 8.878906 C 65.003906 8.863281 64.707031 8.863281 64.410156 8.851562 C 64.332031 8.851562 64.253906 8.84375 64.175781 8.839844 C 64.070312 8.839844 63.960938 8.84375 63.855469 8.839844 C 63.761719 8.835938 63.65625 8.796875 63.578125 8.828125 C 63.402344 8.898438 63.246094 8.851562 63.113281 8.761719 C 63.011719 8.695312 62.917969 8.660156 62.796875 8.636719 C 62.546875 8.589844 62.390625 8.707031 62.226562 8.855469 C 62.15625 8.921875 62.097656 9.035156 62.039062 9.0625 C 61.898438 9.125 61.835938 9.25 61.738281 9.339844 C 61.546875 9.511719 61.390625 9.722656 61.21875 9.921875 C 61.171875 9.976562 61.136719 10.042969 61.085938 10.09375 C 61.003906 10.167969 60.917969 10.238281 60.832031 10.308594 C 60.78125 10.351562 60.71875 10.378906 60.679688 10.429688 C 60.605469 10.523438 60.554688 10.640625 60.472656 10.726562 C 60.308594 10.890625 60.125 11.042969 59.953125 11.203125 C 59.871094 11.277344 59.796875 11.363281 59.71875 11.445312 C 59.636719 11.53125 59.558594 11.625 59.472656 11.707031 C 59.414062 11.757812 59.335938 11.789062 59.277344 11.847656 C 59.238281 11.886719 59.222656 11.953125 59.191406 12 C 59.167969 12.03125 59.136719 12.054688 59.109375 12.085938 C 59.046875 12.160156 59 12.261719 58.917969 12.308594 C 58.765625 12.398438 58.644531 12.515625 58.535156 12.644531 C 58.492188 12.695312 58.464844 12.761719 58.417969 12.808594 C 58.339844 12.886719 58.25 12.960938 58.164062 13.035156 C 58.113281 13.082031 58.0625 13.132812 58.015625 13.1875 C 57.929688 13.28125 57.855469 13.386719 57.769531 13.480469 C 57.71875 13.53125 57.652344 13.570312 57.59375 13.617188 C 57.636719 13.679688 57.632812 13.714844 57.566406 13.765625 C 57.519531 13.796875 57.453125 13.8125 57.417969 13.851562 C 57.300781 13.976562 57.1875 14.105469 57.082031 14.238281 C 57.054688 14.269531 57.054688 14.347656 57.027344 14.355469 C 56.863281 14.402344 56.816406 14.566406 56.703125 14.664062 C 56.589844 14.757812 56.496094 14.875 56.394531 14.980469 C 56.320312 15.0625 56.246094 15.140625 56.171875 15.222656 C 56.164062 15.234375 56.144531 15.25 56.148438 15.253906 C 56.207031 15.347656 56.117188 15.367188 56.074219 15.410156 C 55.972656 15.511719 55.871094 15.609375 55.777344 15.71875 C 55.6875 15.828125 55.613281 15.949219 55.464844 15.996094 C 55.445312 16.003906 55.417969 16.03125 55.414062 16.054688 C 55.410156 16.152344 55.355469 16.195312 55.265625 16.199219 C 55.277344 16.222656 55.292969 16.25 55.285156 16.257812 C 55.199219 16.367188 55.089844 16.445312 55.039062 16.589844 C 54.984375 16.734375 54.8125 16.832031 54.839844 17.023438 C 54.84375 17.027344 54.839844 17.03125 54.839844 17.035156 C 54.769531 17.148438 54.769531 17.257812 54.84375 17.378906 C 54.910156 17.488281 54.957031 17.617188 54.996094 17.707031 C 55.066406 17.710938 55.121094 17.699219 55.140625 17.722656 C 55.28125 17.867188 55.4375 17.976562 55.652344 17.96875 C 55.683594 17.964844 55.710938 17.976562 55.738281 17.980469 C 55.851562 17.992188 55.964844 18 56.078125 18.015625 C 56.183594 18.03125 56.300781 18.027344 56.394531 18.074219 C 56.476562 18.121094 56.527344 18.117188 56.59375 18.066406 C 56.617188 18.050781 56.65625 18.042969 56.683594 18.046875 C 56.746094 18.054688 56.804688 18.082031 56.867188 18.089844 C 57 18.109375 57.128906 18.03125 57.265625 18.09375 C 57.375 18.140625 57.511719 18.054688 57.617188 18.160156 C 57.625 18.167969 57.667969 18.144531 57.691406 18.132812 C 57.707031 18.125 57.722656 18.097656 57.738281 18.097656 C 57.855469 18.09375 57.96875 18.097656 58.085938 18.097656 C 58.132812 18.097656 58.183594 18.085938 58.234375 18.089844 C 58.335938 18.097656 58.441406 18.121094 58.542969 18.117188 C 58.792969 18.101562 59.039062 18.101562 59.28125 18.21875 C 59.277344 18.183594 59.277344 18.15625 59.273438 18.113281 C 59.375 18.132812 59.46875 18.164062 59.558594 18.164062 C 59.683594 18.164062 59.804688 18.132812 59.925781 18.136719 C 60.109375 18.140625 60.289062 18.164062 60.472656 18.179688 C 60.503906 18.179688 60.535156 18.191406 60.570312 18.191406 C 60.699219 18.183594 60.832031 18.164062 60.960938 18.175781 C 61.117188 18.1875 61.28125 18.164062 61.429688 18.242188 C 61.445312 18.25 61.46875 18.238281 61.488281 18.234375 C 61.566406 18.222656 61.644531 18.199219 61.726562 18.195312 C 61.871094 18.1875 62.019531 18.191406 62.167969 18.1875 C 62.226562 18.1875 62.292969 18.1875 62.351562 18.171875 C 62.449219 18.152344 62.539062 18.121094 62.609375 18.101562 C 62.699219 18.222656 62.75 18.328125 62.835938 18.398438 C 63.042969 18.574219 63.199219 18.789062 63.335938 19.019531 C 63.390625 19.105469 63.417969 19.214844 63.488281 19.273438 C 63.65625 19.417969 63.761719 19.601562 63.875 19.792969 C 63.898438 19.78125 63.921875 19.769531 63.949219 19.757812 C 64.007812 19.957031 64.140625 20.097656 64.273438 20.242188 C 64.355469 20.328125 64.410156 20.441406 64.492188 20.53125 C 64.652344 20.714844 64.871094 20.855469 64.90625 21.128906 C 64.90625 21.140625 64.957031 21.160156 64.984375 21.15625 C 65.007812 21.15625 65.027344 21.132812 65.046875 21.117188 C 65.097656 21.230469 65.140625 21.328125 65.1875 21.425781 C 65.222656 21.433594 65.273438 21.429688 65.289062 21.449219 C 65.359375 21.539062 65.441406 21.632812 65.46875 21.734375 C 65.492188 21.835938 65.554688 21.886719 65.617188 21.945312 C 65.6875 22.007812 65.773438 22.058594 65.816406 22.136719 C 65.871094 22.234375 65.964844 22.300781 66.011719 22.417969 C 66.050781 22.527344 66.195312 22.597656 66.273438 22.714844 C 66.347656 22.832031 66.476562 22.914062 66.574219 23.019531 C 66.625 23.074219 66.660156 23.144531 66.707031 23.207031 C 66.75 23.261719 66.792969 23.316406 66.84375 23.367188 C 66.863281 23.386719 66.910156 23.390625 66.929688 23.414062 C 67.003906 23.519531 67.050781 23.648438 67.144531 23.726562 C 67.25 23.808594 67.34375 23.890625 67.421875 24 C 67.464844 24.066406 67.53125 24.125 67.59375 24.179688 C 67.695312 24.269531 67.734375 24.410156 67.851562 24.488281 C 67.996094 24.582031 68.085938 24.734375 68.234375 24.832031 C 68.425781 24.960938 68.582031 25.144531 68.753906 25.300781 C 68.832031 25.371094 68.914062 25.429688 68.992188 25.492188 C 69.054688 25.542969 69.113281 25.597656 69.179688 25.636719 C 69.242188 25.679688 69.316406 25.703125 69.386719 25.734375 C 69.496094 25.789062 69.597656 25.851562 69.710938 25.890625 C 69.792969 25.917969 69.882812 25.917969 69.96875 25.933594 C 70.179688 25.96875 70.390625 26.011719 70.601562 26.046875 C 70.675781 26.058594 70.757812 26.042969 70.832031 26.050781 C 70.925781 26.0625 71.015625 26.101562 71.109375 26.105469 C 71.222656 26.109375 71.339844 26.082031 71.457031 26.078125 C 71.523438 26.078125 71.59375 26.097656 71.664062 26.109375 C 71.6875 26.109375 71.722656 26.121094 71.734375 26.109375 C 71.816406 26.039062 71.898438 26.105469 71.976562 26.117188 C 72.015625 26.121094 72.050781 26.132812 72.085938 26.132812 C 72.304688 26.128906 72.519531 26.121094 72.734375 26.121094 C 72.769531 26.121094 72.800781 26.148438 72.84375 26.164062 C 72.914062 26.113281 73.664062 26.132812 73.738281 26.191406 C 73.765625 26.167969 73.796875 26.132812 73.820312 26.136719 C 73.910156 26.148438 73.996094 26.183594 74.09375 26.152344 C 74.160156 26.132812 74.234375 26.136719 74.304688 26.140625 C 74.398438 26.148438 74.492188 26.167969 74.585938 26.183594 C 74.652344 26.191406 74.722656 26.160156 74.78125 26.15625 C 74.972656 26.144531 75.164062 26.179688 75.355469 26.195312 C 75.429688 26.199219 75.503906 26.210938 75.574219 26.222656 C 75.578125 26.230469 75.578125 26.238281 75.582031 26.246094 C 75.617188 26.226562 75.652344 26.195312 75.6875 26.195312 C 75.960938 26.199219 76.230469 26.210938 76.503906 26.222656 C 76.570312 26.226562 76.636719 26.238281 76.703125 26.242188 C 76.777344 26.242188 76.855469 26.230469 76.933594 26.226562 C 77 26.226562 77.0625 26.230469 77.128906 26.230469 C 77.210938 26.230469 77.292969 26.226562 77.375 26.230469 C 77.492188 26.234375 77.609375 26.265625 77.726562 26.253906 C 77.933594 26.230469 78.144531 26.136719 78.34375 26.160156 C 78.492188 26.179688 78.621094 26.121094 78.757812 26.128906 C 78.835938 26.128906 78.933594 26.105469 78.984375 26.054688 C 79.09375 25.949219 79.210938 26 79.324219 25.996094 C 79.34375 25.992188 79.367188 26.015625 79.382812 26.007812 C 79.496094 25.957031 79.609375 25.90625 79.722656 25.851562 C 79.796875 25.816406 79.871094 25.789062 79.933594 25.742188 C 80.019531 25.679688 80.085938 25.597656 80.164062 25.53125 C 80.316406 25.402344 80.492188 25.304688 80.589844 25.121094 C 80.609375 25.085938 80.652344 25.070312 80.683594 25.042969 C 80.726562 25 80.769531 24.960938 80.8125 24.917969 C 80.832031 24.882812 80.875 24.875 80.910156 24.855469 C 81.058594 24.785156 81.082031 24.570312 81.269531 24.546875 C 81.320312 24.398438 81.484375 24.371094 81.574219 24.261719 C 81.683594 24.128906 81.828125 24.027344 81.96875 23.921875 C 82.152344 23.789062 82.3125 23.621094 82.488281 23.46875 C 82.523438 23.4375 82.5625 23.402344 82.609375 23.386719 C 82.679688 23.363281 82.796875 23.398438 82.746094 23.25 C 82.742188 23.238281 82.773438 23.207031 82.792969 23.191406 C 82.902344 23.101562 83.015625 23.007812 83.128906 22.921875 C 83.171875 22.890625 83.230469 22.875 83.265625 22.839844 C 83.46875 22.652344 83.664062 22.460938 83.863281 22.269531 C 83.953125 22.179688 84.042969 22.089844 84.136719 22.003906 C 84.230469 21.921875 84.324219 21.84375 84.417969 21.761719 C 84.449219 21.742188 84.457031 21.667969 84.480469 21.664062 C 84.636719 21.625 84.679688 21.445312 84.808594 21.394531 C 84.964844 21.335938 84.972656 21.105469 85.167969 21.101562 C 85.171875 21.101562 85.179688 21.082031 85.1875 21.074219 C 85.222656 21.027344 85.246094 20.972656 85.289062 20.9375 C 85.371094 20.875 85.472656 20.832031 85.550781 20.761719 C 85.675781 20.644531 85.785156 20.511719 85.917969 20.402344 C 86.117188 20.238281 86.300781 20.050781 86.484375 19.867188 C 86.617188 19.738281 86.742188 19.597656 86.871094 19.457031 C 86.988281 19.332031 87.105469 19.207031 87.222656 19.078125 C 87.265625 19.035156 87.304688 18.96875 87.359375 18.949219 C 87.441406 18.921875 87.46875 18.871094 87.488281 18.796875 C 87.496094 18.765625 87.519531 18.730469 87.546875 18.707031 C 87.746094 18.566406 87.863281 18.367188 87.929688 18.144531 C 87.984375 17.960938 87.933594 17.773438 87.90625 17.59375 Z M 86.371094 18.402344 C 86.320312 18.46875 86.222656 18.488281 86.199219 18.585938 C 86.191406 18.613281 86.125 18.625 86.105469 18.664062 C 86.050781 18.707031 85.992188 18.75 85.9375 18.792969 C 85.824219 18.894531 85.710938 18.996094 85.601562 19.101562 C 85.539062 19.15625 85.476562 19.214844 85.414062 19.273438 C 85.34375 19.339844 85.269531 19.40625 85.195312 19.46875 C 85.054688 19.59375 84.917969 19.714844 84.773438 19.835938 C 84.683594 19.910156 84.546875 19.929688 84.511719 20.066406 C 84.355469 20.074219 84.300781 20.222656 84.195312 20.304688 C 84.15625 20.335938 84.125 20.378906 84.085938 20.414062 C 83.980469 20.507812 83.855469 20.585938 83.78125 20.695312 C 83.675781 20.851562 83.542969 20.953125 83.390625 21.050781 C 83.367188 21.066406 83.351562 21.097656 83.335938 21.121094 C 83.292969 21.199219 83.269531 21.292969 83.144531 21.285156 C 83.121094 21.28125 83.085938 21.351562 83.0625 21.394531 C 82.984375 21.546875 82.855469 21.640625 82.722656 21.730469 C 82.648438 21.78125 82.582031 21.84375 82.507812 21.910156 C 82.578125 21.992188 82.472656 22.019531 82.417969 22.070312 C 82.394531 22.09375 82.359375 22.109375 82.324219 22.121094 C 82.210938 22.164062 82.207031 22.289062 82.128906 22.355469 C 81.984375 22.476562 81.84375 22.609375 81.695312 22.726562 C 81.617188 22.785156 81.578125 22.902344 81.457031 22.890625 C 81.410156 23.042969 81.257812 23.085938 81.160156 23.191406 C 81.039062 23.324219 80.882812 23.429688 80.746094 23.554688 C 80.628906 23.664062 80.519531 23.785156 80.402344 23.898438 C 80.316406 23.980469 80.222656 24.054688 80.132812 24.132812 C 80.082031 24.179688 80.03125 24.230469 79.976562 24.277344 C 79.945312 24.304688 79.910156 24.324219 79.875 24.347656 C 79.882812 24.351562 79.90625 24.363281 79.925781 24.371094 C 79.828125 24.359375 79.792969 24.519531 79.679688 24.464844 C 79.675781 24.460938 79.652344 24.480469 79.652344 24.488281 C 79.648438 24.609375 79.53125 24.640625 79.472656 24.71875 C 79.460938 24.738281 79.441406 24.773438 79.425781 24.769531 C 79.304688 24.761719 79.304688 24.855469 79.261719 24.917969 C 79.222656 24.957031 79.179688 25 79.140625 25.042969 C 79.125 25.058594 79.113281 25.074219 79.097656 25.085938 C 78.996094 25.167969 78.867188 25.21875 78.820312 25.375 C 78.808594 25.417969 78.664062 25.441406 78.582031 25.441406 C 78.464844 25.441406 78.347656 25.398438 78.230469 25.394531 C 78.097656 25.394531 77.964844 25.425781 77.832031 25.425781 C 77.726562 25.425781 77.617188 25.390625 77.507812 25.386719 C 77.433594 25.386719 77.339844 25.453125 77.289062 25.425781 C 77.136719 25.339844 76.980469 25.425781 76.828125 25.390625 C 76.699219 25.355469 76.535156 25.332031 76.425781 25.386719 C 76.292969 25.453125 76.210938 25.355469 76.105469 25.363281 C 75.914062 25.378906 75.722656 25.328125 75.53125 25.363281 C 75.398438 25.382812 75.265625 25.398438 75.144531 25.316406 C 75.125 25.300781 75.082031 25.328125 75.050781 25.332031 C 75.023438 25.332031 74.992188 25.328125 74.964844 25.324219 C 74.957031 25.324219 74.945312 25.308594 74.945312 25.308594 C 74.851562 25.410156 74.734375 25.339844 74.640625 25.328125 C 74.492188 25.3125 74.320312 25.386719 74.207031 25.25 C 74.183594 25.269531 74.164062 25.304688 74.148438 25.304688 C 73.992188 25.292969 73.839844 25.273438 73.683594 25.257812 C 73.652344 25.257812 73.617188 25.28125 73.582031 25.28125 C 73.5 25.277344 73.417969 25.261719 73.328125 25.269531 C 73.195312 25.285156 73.0625 25.210938 72.925781 25.195312 C 72.851562 25.183594 72.769531 25.230469 72.691406 25.226562 C 72.5625 25.21875 72.433594 25.1875 72.308594 25.175781 C 72.246094 25.167969 72.183594 25.179688 72.121094 25.175781 C 72.070312 25.171875 72.023438 25.15625 71.953125 25.140625 C 71.945312 25.144531 71.898438 25.183594 71.886719 25.171875 C 71.785156 25.101562 71.675781 25.152344 71.570312 25.136719 C 71.394531 25.105469 71.207031 25.039062 71.035156 25.0625 C 70.90625 25.078125 70.804688 25.039062 70.691406 25.03125 C 70.589844 25.023438 70.492188 25.03125 70.394531 25.023438 C 70.351562 25.015625 70.308594 24.984375 70.269531 24.964844 C 70.25 24.957031 70.234375 24.941406 70.21875 24.941406 C 70.011719 24.957031 69.859375 24.84375 69.695312 24.746094 C 69.515625 24.636719 69.371094 24.492188 69.273438 24.308594 C 69.269531 24.300781 69.265625 24.289062 69.257812 24.289062 C 69.027344 24.253906 68.964844 24.015625 68.796875 23.898438 C 68.691406 23.824219 68.621094 23.691406 68.53125 23.59375 C 68.472656 23.53125 68.394531 23.492188 68.339844 23.429688 C 68.277344 23.351562 68.242188 23.257812 68.183594 23.179688 C 68.152344 23.140625 68.09375 23.125 68.058594 23.085938 C 67.996094 23.011719 67.941406 22.929688 67.882812 22.851562 C 67.859375 22.824219 67.832031 22.800781 67.8125 22.773438 C 67.777344 22.726562 67.742188 22.679688 67.699219 22.613281 C 67.695312 22.613281 67.664062 22.621094 67.625 22.632812 C 67.472656 22.4375 67.320312 22.238281 67.164062 22.035156 C 67.09375 22.015625 67.042969 21.972656 67.066406 21.871094 C 66.867188 21.828125 66.789062 21.640625 66.664062 21.519531 C 66.625 21.476562 66.582031 21.429688 66.550781 21.382812 C 66.519531 21.339844 66.496094 21.292969 66.472656 21.246094 C 66.464844 21.234375 66.464844 21.21875 66.457031 21.210938 C 66.378906 21.152344 66.304688 21.097656 66.226562 21.042969 C 66.21875 21.035156 66.207031 21.027344 66.203125 21.015625 C 66.125 20.78125 65.914062 20.660156 65.753906 20.496094 C 65.710938 20.457031 65.707031 20.378906 65.679688 20.324219 C 65.628906 20.238281 65.5625 20.183594 65.457031 20.15625 C 65.402344 20.144531 65.34375 20.066406 65.332031 20.007812 C 65.304688 19.894531 65.195312 19.871094 65.136719 19.792969 C 65.125 19.78125 65.09375 19.769531 65.09375 19.757812 C 65.09375 19.617188 64.953125 19.589844 64.882812 19.507812 C 64.855469 19.472656 64.832031 19.433594 64.804688 19.398438 C 64.789062 19.378906 64.777344 19.359375 64.757812 19.34375 C 64.71875 19.304688 64.671875 19.273438 64.640625 19.226562 C 64.535156 19.078125 64.441406 18.921875 64.328125 18.777344 C 64.265625 18.691406 64.171875 18.625 64.097656 18.542969 C 63.941406 18.367188 63.785156 18.191406 63.632812 18.007812 C 63.554688 17.917969 63.492188 17.8125 63.417969 17.703125 C 63.425781 17.699219 63.433594 17.695312 63.441406 17.691406 C 63.132812 17.503906 62.84375 17.28125 62.589844 17.0625 C 62.464844 17.113281 62.300781 17.082031 62.152344 17.082031 C 62.050781 17.085938 61.949219 17.074219 61.847656 17.058594 C 61.808594 17.054688 61.777344 17.023438 61.738281 17 C 61.703125 17.097656 61.636719 17.078125 61.5625 17.035156 C 61.492188 16.996094 61.417969 16.945312 61.367188 17.078125 C 61.292969 16.960938 61.210938 17.019531 61.121094 17.03125 C 61.035156 17.042969 60.945312 17.015625 60.855469 17.011719 C 60.613281 17.007812 60.371094 17.007812 60.132812 17.003906 C 59.914062 16.996094 59.699219 16.960938 59.484375 16.976562 C 59.375 16.984375 59.28125 16.90625 59.15625 16.980469 C 59.074219 17.027344 58.929688 16.960938 58.8125 16.953125 C 58.6875 16.941406 58.554688 16.902344 58.4375 16.933594 C 58.257812 16.976562 58.128906 16.894531 57.972656 16.8125 C 57.988281 16.878906 58 16.925781 58.007812 16.953125 C 57.851562 16.941406 57.703125 16.925781 57.554688 16.914062 C 57.460938 16.910156 57.367188 16.929688 57.277344 16.921875 C 57.21875 16.914062 57.167969 16.875 57.097656 16.84375 C 56.988281 16.957031 56.738281 16.953125 56.550781 16.804688 C 56.574219 16.847656 56.585938 16.871094 56.601562 16.902344 C 56.515625 16.890625 56.441406 16.882812 56.335938 16.867188 C 56.359375 16.835938 56.390625 16.792969 56.421875 16.753906 C 56.425781 16.757812 56.429688 16.757812 56.433594 16.761719 C 56.5 16.679688 56.566406 16.597656 56.632812 16.515625 C 56.726562 16.402344 56.820312 16.28125 56.921875 16.171875 C 56.964844 16.121094 57.027344 16.089844 57.082031 16.054688 C 57.085938 16.050781 57.101562 16.050781 57.101562 16.046875 C 57.125 15.898438 57.308594 15.863281 57.339844 15.710938 C 57.351562 15.648438 57.453125 15.605469 57.507812 15.550781 C 57.609375 15.449219 57.699219 15.34375 57.796875 15.242188 C 57.855469 15.183594 57.914062 15.125 57.964844 15.066406 C 58.011719 15.003906 58.058594 14.941406 58.109375 14.878906 C 58.234375 14.726562 58.355469 14.574219 58.488281 14.429688 C 58.558594 14.351562 58.648438 14.285156 58.722656 14.210938 C 58.761719 14.164062 58.789062 14.101562 58.828125 14.054688 C 58.863281 14.015625 58.910156 13.984375 58.957031 13.957031 C 59.082031 13.878906 59.117188 13.730469 59.210938 13.625 C 59.339844 13.484375 59.476562 13.34375 59.613281 13.210938 C 59.640625 13.183594 59.691406 13.183594 59.730469 13.175781 C 59.699219 13.070312 60.167969 12.546875 60.351562 12.476562 C 60.320312 12.433594 60.371094 12.292969 60.441406 12.257812 C 60.578125 12.195312 60.660156 12.085938 60.746094 11.960938 C 60.816406 11.859375 60.929688 11.792969 61.023438 11.710938 C 61.042969 11.695312 61.078125 11.6875 61.085938 11.671875 C 61.144531 11.503906 61.28125 11.417969 61.425781 11.339844 C 61.445312 11.328125 61.453125 11.289062 61.464844 11.265625 C 61.5 11.210938 61.53125 11.152344 61.570312 11.105469 C 61.695312 10.964844 61.828125 10.824219 61.953125 10.683594 C 62.058594 10.566406 62.160156 10.445312 62.253906 10.320312 C 62.308594 10.242188 62.347656 10.148438 62.390625 10.066406 C 62.460938 10.09375 62.542969 10.039062 62.558594 9.953125 C 62.570312 9.894531 62.773438 9.679688 62.8125 9.648438 C 62.96875 9.515625 63.148438 9.585938 63.308594 9.601562 C 63.578125 9.632812 63.851562 9.652344 64.121094 9.667969 C 64.21875 9.671875 64.316406 9.675781 64.410156 9.667969 C 64.582031 9.65625 64.738281 9.726562 64.917969 9.6875 C 65.082031 9.65625 65.261719 9.71875 65.433594 9.738281 C 65.53125 9.746094 65.632812 9.75 65.730469 9.757812 C 66.015625 9.78125 66.296875 9.804688 66.578125 9.824219 C 66.660156 9.832031 66.746094 9.824219 66.832031 9.828125 C 66.875 9.832031 66.917969 9.863281 66.960938 9.867188 C 67.023438 9.867188 67.089844 9.851562 67.152344 9.855469 C 67.285156 9.859375 67.433594 9.832031 67.535156 9.886719 C 67.667969 9.957031 67.785156 9.867188 67.914062 9.921875 C 68.035156 9.976562 68.1875 9.9375 68.328125 9.953125 C 68.453125 9.96875 68.578125 10 68.703125 10.015625 C 68.722656 10.019531 68.742188 9.992188 68.765625 9.988281 C 68.816406 9.976562 68.875 9.953125 68.921875 9.964844 C 69.050781 10.007812 69.167969 10.0625 69.3125 9.996094 C 69.367188 9.96875 69.453125 10.023438 69.523438 10.027344 C 69.851562 10.035156 70.183594 10.039062 70.511719 10.050781 C 70.679688 10.058594 70.863281 10.125 71.015625 10.078125 C 71.191406 10.023438 71.355469 10.191406 71.515625 10.0625 C 71.53125 10.046875 71.59375 10.097656 71.632812 10.097656 C 71.882812 10.105469 72.132812 10.101562 72.382812 10.113281 C 72.546875 10.121094 72.71875 10.136719 72.878906 10.175781 C 72.941406 10.191406 72.984375 10.277344 73.03125 10.335938 C 73.050781 10.355469 73.066406 10.382812 73.085938 10.40625 C 73.140625 10.5 73.195312 10.59375 73.253906 10.683594 C 73.273438 10.71875 73.300781 10.75 73.324219 10.777344 C 73.339844 10.792969 73.367188 10.796875 73.371094 10.8125 C 73.410156 10.960938 73.511719 11.070312 73.597656 11.1875 C 73.707031 11.328125 73.855469 11.46875 73.898438 11.632812 C 73.957031 11.855469 74.109375 12.007812 74.222656 12.183594 C 74.269531 12.253906 74.269531 12.382812 74.398438 12.390625 C 74.3125 12.5 74.453125 12.503906 74.484375 12.554688 C 74.609375 12.761719 74.738281 12.964844 74.875 13.160156 C 74.949219 13.265625 75.078125 13.335938 75.132812 13.445312 C 75.191406 13.566406 75.3125 13.617188 75.367188 13.730469 C 75.484375 13.953125 75.652344 14.132812 75.816406 14.316406 C 75.914062 14.425781 75.984375 14.558594 76.070312 14.679688 C 76.097656 14.71875 76.132812 14.746094 76.160156 14.78125 C 76.203125 14.84375 76.242188 14.910156 76.285156 14.972656 C 76.335938 15.042969 76.386719 15.117188 76.445312 15.183594 C 76.585938 15.351562 76.730469 15.519531 76.878906 15.683594 C 76.945312 15.761719 77.019531 15.832031 77.082031 15.910156 C 77.121094 15.960938 77.148438 16.023438 77.191406 16.101562 C 77.261719 16.113281 77.316406 16.164062 77.3125 16.269531 C 77.3125 16.296875 77.332031 16.332031 77.355469 16.351562 C 77.484375 16.460938 77.625 16.5625 77.75 16.679688 C 77.898438 16.820312 78.035156 16.972656 78.175781 17.121094 C 78.320312 17.28125 78.460938 17.453125 78.609375 17.609375 C 78.683594 17.683594 78.78125 17.738281 78.878906 17.777344 C 78.894531 17.816406 78.898438 17.859375 78.921875 17.886719 C 78.972656 17.941406 79.027344 17.988281 79.089844 18.023438 C 79.15625 18.0625 79.230469 18.097656 79.3125 18.054688 C 79.328125 18.046875 79.351562 18.050781 79.367188 18.058594 C 79.589844 18.148438 79.808594 18.222656 80.058594 18.167969 C 80.152344 18.148438 80.265625 18.144531 80.351562 18.222656 C 80.363281 18.234375 80.398438 18.234375 80.417969 18.222656 C 80.558594 18.132812 80.71875 18.167969 80.871094 18.175781 C 80.996094 18.175781 81.128906 18.261719 81.238281 18.234375 C 81.34375 18.207031 81.425781 18.246094 81.519531 18.246094 C 81.738281 18.238281 81.957031 18.253906 82.171875 18.257812 C 82.28125 18.261719 82.386719 18.261719 82.492188 18.269531 C 82.578125 18.28125 82.660156 18.308594 82.746094 18.316406 C 82.800781 18.320312 82.855469 18.300781 82.914062 18.296875 C 82.976562 18.292969 83.039062 18.289062 83.097656 18.292969 C 83.195312 18.300781 83.292969 18.316406 83.390625 18.328125 C 83.527344 18.339844 83.664062 18.34375 83.796875 18.351562 C 83.835938 18.355469 83.875 18.34375 83.914062 18.347656 C 83.996094 18.351562 84.082031 18.355469 84.164062 18.367188 C 84.226562 18.375 84.300781 18.429688 84.328125 18.328125 C 84.445312 18.347656 84.558594 18.363281 84.671875 18.382812 C 84.695312 18.386719 84.726562 18.386719 84.746094 18.375 C 84.875 18.292969 85.003906 18.335938 85.136719 18.367188 C 85.160156 18.371094 85.191406 18.390625 85.203125 18.378906 C 85.355469 18.273438 85.53125 18.367188 85.691406 18.324219 C 85.789062 18.300781 85.902344 18.320312 86.003906 18.339844 C 86.074219 18.355469 86.121094 18.300781 86.1875 18.296875 C 86.273438 18.289062 86.339844 18.347656 86.429688 18.335938 C 86.414062 18.359375 86.390625 18.378906 86.371094 18.402344 Z M 86.371094 18.402344 " fill-opacity="1" fill-rule="nonzero"/></g><path stroke-linecap="butt" transform="matrix(0.108792, 0, 0, 0.108792, 9.273508, 4.120583)" fill="none" stroke-linejoin="miter" d="M 86.92683 125.279359 L 92.492199 124.848491 L 95.328742 125.135736 L 99.888754 124.992114 L 104.017899 124.274002 L 104.448767 120.719346 L 103.407504 117.344219 L 101.217262 111.886567 L 97.231739 104.202767 L 95.18512 98.78102 L 92.204954 93.46699 L 86.60368 80.074199 L 85.13155 77.848051 L 83.695325 75.047414 L 82.797685 71.815909 L 81.469178 69.625667 L 80.607443 67.219991 L 77.483655 61.798244 L 76.478298 58.710362 L 66.711973 38.20826 L 65.850238 35.299906 L 64.234486 32.642891 L 63.336846 29.985876 L 60.536209 24.815469 L 58.058722 22.158454 L 53.211465 20.686324 L 48.471924 22.302076 L 45.814909 24.815469 L 44.486402 27.328861 L 43.445139 30.273121 L 42.116632 32.355646 L 36.264018 45.856155 L 34.648266 48.118208 L 33.894248 51.062468 L 32.278495 53.863105 L 31.380855 56.484215 L 16.372311 88.009338 L 15.474671 91.276748 L 14.002541 93.46699 L 12.961279 96.41125 L 10.340169 101.114885 L 8.078116 107.003404 L 6.462364 109.08593 L 5.744252 111.742944 L 2.799992 117.631464 L 1.902352 120.575724 L 2.656369 124.274002 L 5.600629 125.135736 L 11.345526 124.848491 L 14.289786 125.135736 L 22.548076 124.848491 L 25.923203 123.807229 L 28.72384 121.186119 L 31.380855 116.302957 L 34.181493 113.538225 L 37.269375 111.886567 L 40.070012 112.35334 L 46.245777 111.742944 L 48.902792 112.209717 L 63.336846 112.066095 L 65.993861 112.35334 L 69.225366 111.886567 L 72.45687 113.538225 L 75.293413 115.872089 L 76.621921 118.672727 L 77.483655 121.329742 L 80.427915 123.519984 L 83.838948 124.992114 Z M 53.498709 88.583828 L 50.518544 88.009338 L 47.143417 88.296583 L 44.773647 87.25532 L 44.630024 84.490588 L 51.559807 68.584404 L 53.211465 67.219991 L 55.258084 68.440782 L 62.187866 84.634211 L 61.577471 87.25532 L 59.387229 88.440205 Z M 110.768153 119.713989 L 111.809416 123.519984 L 114.610053 124.992114 L 117.554313 125.279359 L 123.765983 124.848491 L 129.474975 125.135736 L 135.07625 124.848491 L 137.876887 125.279359 L 141.108392 124.992114 L 170.299651 125.135736 L 173.100288 123.663606 L 174.71604 119.103594 L 174.572418 107.147027 L 173.24391 102.766543 L 170.586895 100.971262 L 167.499013 101.294413 L 164.698376 101.868902 L 161.574588 101.438035 L 155.542446 101.581658 L 152.634092 100.971262 L 149.977077 101.438035 L 144.23218 101.114885 L 141.108392 101.438035 L 138.164132 100.25315 L 136.979247 97.30889 L 137.122869 47.36419 L 136.835624 43.809535 L 137.122869 37.921016 L 136.692002 29.555009 L 136.835624 26.754372 L 135.363495 23.486961 L 132.419235 21.727587 L 126.710243 21.727587 L 123.765983 22.302076 L 117.841558 21.727587 L 115.040921 22.158454 L 111.953038 23.343339 L 110.624531 26.610749 L 110.624531 47.220568 L 110.337286 50.021205 L 110.624531 52.965465 L 110.193664 58.423117 L 110.337286 61.654622 L 110.624531 64.455259 Z M 222.721838 125.422981 L 243.798429 125.135736 L 246.886311 123.807229 L 248.502064 120.719346 L 248.502064 105.854425 L 246.886311 102.910165 L 243.798429 101.581658 L 240.423302 101.868902 L 237.622665 101.438035 L 230.082487 101.294413 L 225.23523 101.868902 L 222.29097 101.581658 L 219.059466 101.72528 L 216.258828 101.294413 L 213.027324 101.581658 L 209.903536 100.109528 L 208.718651 97.452513 L 208.718651 88.15296 L 210.047158 85.065078 L 212.740079 83.449326 L 217.156468 83.305703 L 221.860103 83.736571 L 227.425472 83.449326 L 233.49352 83.592948 L 236.43778 83.305703 L 239.848812 83.449326 L 242.757167 82.264441 L 243.798429 79.320181 L 244.229296 66.071012 L 242.757167 61.941867 L 239.382039 60.03887 L 230.692882 60.03887 L 227.605 60.326115 L 221.429236 59.895247 L 212.883701 60.182492 L 209.759913 58.853985 L 208.575028 54.293973 L 208.575028 49.73396 L 209.903536 46.933323 L 213.170946 45.712532 L 215.971583 45.856155 L 218.772221 45.281665 L 239.848812 45.56891 L 242.613544 45.425287 L 245.701426 43.665913 L 247.173556 41.008898 L 247.029934 38.064638 L 247.173556 35.120378 L 246.886311 26.323504 L 245.557804 23.486961 L 242.613544 22.302076 L 239.525662 22.302076 L 236.904553 21.727587 L 224.947985 21.871209 L 221.716481 22.158454 L 218.772221 21.871209 L 216.258828 22.014831 L 213.314568 21.727587 L 201.214379 22.014831 L 198.270119 21.583964 L 195.505387 22.158454 L 192.848372 21.871209 L 189.868207 22.158454 L 186.923947 22.014831 L 183.836065 23.199716 L 182.220312 26.323504 L 182.507557 31.888873 L 182.07669 37.921016 L 182.507557 41.15252 L 182.220312 55.62248 L 182.65118 58.710362 L 182.363935 61.511 L 182.220312 73.575284 L 182.65118 76.232299 L 182.507557 100.109528 L 182.220312 102.910165 L 182.65118 105.854425 L 182.220312 116.015712 L 182.507557 119.247216 L 183.692442 123.232739 L 188.108832 125.135736 L 198.736892 125.279359 L 201.968396 124.992114 L 204.625411 125.135736 L 210.657553 124.704869 L 213.458191 125.279359 L 216.869224 125.422981 L 219.777578 125.135736 Z M 222.721838 125.422981 " stroke="#ffffff" stroke-width="6.445425" stroke-opacity="1" stroke-miterlimit="4"/><g fill="#ffffff" fill-opacity="1"><g transform="translate(8.13173, 30.492568)"><g><path d="M 2.148438 0.046875 L 2.933594 0.015625 L 3.222656 0.03125 L 3.589844 0 L 3.925781 -0.128906 L 4.070312 -0.464844 L 4.054688 -0.785156 L 4.070312 -1.136719 L 4.039062 -1.730469 L 4.070312 -2.035156 L 4.054688 -2.402344 L 4.199219 -2.691406 L 4.566406 -2.867188 L 4.921875 -2.902344 L 5.257812 -2.835938 L 6.90625 -2.964844 L 8.429688 -3.574219 L 8.671875 -3.765625 L 8.894531 -4.023438 L 9.101562 -4.230469 L 9.3125 -4.472656 L 9.648438 -4.984375 L 9.921875 -5.609375 L 9.96875 -5.960938 L 10.066406 -6.21875 L 10.097656 -7.53125 L 10.03125 -7.804688 L 9.984375 -8.15625 L 9.792969 -8.75 L 9.488281 -9.296875 L 9.101562 -9.824219 L 8.382812 -10.449219 L 7.851562 -10.800781 L 7.210938 -10.996094 L 6.941406 -11.105469 L 6.621094 -11.105469 L 6.296875 -11.21875 L 5.816406 -11.234375 L 5.304688 -11.21875 L 4.953125 -11.171875 L 3.976562 -11.1875 L 3.652344 -11.234375 L 2.660156 -11.171875 L 2.308594 -11.1875 L 2.019531 -11.234375 L 1.683594 -11.171875 L 1.347656 -10.996094 L 1.203125 -10.738281 L 1.21875 -8.800781 L 1.152344 -8.15625 L 1.1875 -7.851562 L 1.171875 -3.703125 L 1.203125 -3.398438 L 1.1875 -0.433594 L 1.363281 -0.128906 L 1.859375 0.03125 Z M 4.550781 -5.433594 L 4.230469 -5.625 L 4.085938 -5.898438 L 4.039062 -7.195312 L 4.070312 -7.53125 L 4.070312 -8.191406 L 4.230469 -8.496094 L 4.566406 -8.65625 L 6.234375 -8.605469 L 6.554688 -8.460938 L 6.8125 -8.285156 L 7.019531 -8.078125 L 7.179688 -7.757812 L 7.226562 -7.46875 L 7.261719 -7.019531 L 7.226562 -6.585938 L 7.117188 -6.296875 L 6.972656 -6.042969 L 6.761719 -5.785156 L 6.507812 -5.59375 L 6.25 -5.511719 L 5.753906 -5.449219 L 4.9375 -5.464844 Z M 4.550781 -5.433594 "/></g></g></g><g fill="#ffffff" fill-opacity="1"><g transform="translate(17.555189, 30.492568)"><g><path d="M 5.578125 0.046875 L 7.871094 0.015625 L 8.207031 -0.128906 L 8.382812 -0.464844 L 8.382812 -2.082031 L 8.207031 -2.402344 L 7.871094 -2.546875 L 7.5 -2.515625 L 7.195312 -2.5625 L 6.378906 -2.582031 L 5.851562 -2.515625 L 5.53125 -2.546875 L 5.175781 -2.53125 L 4.871094 -2.582031 L 4.519531 -2.546875 L 4.183594 -2.707031 L 4.054688 -2.996094 L 4.054688 -4.007812 L 4.199219 -4.34375 L 4.488281 -4.519531 L 4.96875 -4.535156 L 5.480469 -4.488281 L 6.089844 -4.519531 L 6.746094 -4.503906 L 7.066406 -4.535156 L 7.4375 -4.519531 L 7.757812 -4.648438 L 7.871094 -4.96875 L 7.917969 -6.410156 L 7.757812 -6.859375 L 7.386719 -7.066406 L 6.441406 -7.066406 L 6.105469 -7.035156 L 5.433594 -7.085938 L 4.503906 -7.050781 L 4.167969 -7.195312 L 4.039062 -7.691406 L 4.039062 -8.191406 L 4.183594 -8.496094 L 4.535156 -8.621094 L 4.839844 -8.605469 L 5.144531 -8.671875 L 7.4375 -8.640625 L 7.742188 -8.65625 L 8.078125 -8.847656 L 8.238281 -9.136719 L 8.222656 -9.457031 L 8.238281 -9.777344 L 8.207031 -10.738281 L 8.0625 -11.042969 L 7.742188 -11.171875 L 7.40625 -11.171875 L 7.117188 -11.234375 L 5.816406 -11.21875 L 5.464844 -11.1875 L 5.144531 -11.21875 L 4.871094 -11.203125 L 4.550781 -11.234375 L 3.238281 -11.203125 L 2.917969 -11.25 L 2.613281 -11.1875 L 2.324219 -11.21875 L 2.003906 -11.1875 L 1.683594 -11.203125 L 1.347656 -11.074219 L 1.171875 -10.738281 L 1.203125 -10.128906 L 1.152344 -9.472656 L 1.203125 -9.121094 L 1.171875 -7.550781 L 1.21875 -7.210938 L 1.1875 -6.90625 L 1.171875 -5.59375 L 1.21875 -5.304688 L 1.203125 -2.707031 L 1.171875 -2.402344 L 1.21875 -2.082031 L 1.171875 -0.976562 L 1.203125 -0.625 L 1.332031 -0.191406 L 1.8125 0.015625 L 2.964844 0.03125 L 3.316406 0 L 3.605469 0.015625 L 4.261719 -0.03125 L 4.566406 0.03125 L 4.9375 0.046875 L 5.257812 0.015625 Z M 5.578125 0.046875 "/></g></g></g><g fill="#ffffff" fill-opacity="1"><g transform="translate(25.616399, 30.492568)"><g><path d="M 9.457031 -0.273438 L 9.890625 -0.015625 L 10.335938 0.03125 L 10.691406 -0.0820312 L 10.851562 -0.402344 L 10.882812 -6.25 L 10.835938 -6.523438 L 10.835938 -8.109375 L 10.882812 -8.496094 L 10.835938 -10.722656 L 10.675781 -11.042969 L 10.355469 -11.21875 L 8.367188 -11.203125 L 8.0625 -11.027344 L 7.886719 -10.691406 L 7.871094 -10.355469 L 7.917969 -10.097656 L 7.871094 -9.425781 L 7.902344 -9.070312 L 7.871094 -6.203125 L 7.773438 -5.929688 L 7.53125 -6.042969 L 6.394531 -7.179688 L 5.945312 -7.53125 L 2.789062 -10.722656 L 2.546875 -10.914062 L 2.179688 -11.105469 L 1.699219 -11.21875 L 1.332031 -11.058594 L 1.1875 -10.753906 L 1.1875 -5.898438 L 1.171875 -5.625 L 1.203125 -4.96875 L 1.152344 -4.695312 L 1.1875 -2.066406 L 1.152344 -1.761719 L 1.1875 -0.417969 L 1.332031 -0.113281 L 1.667969 0 L 2.324219 0.03125 L 2.675781 0 L 3.300781 0.046875 L 3.636719 0.03125 L 3.957031 -0.128906 L 4.117188 -0.625 L 4.136719 -4.679688 L 4.167969 -5 L 4.277344 -5.273438 L 4.488281 -5.191406 L 4.695312 -4.921875 L 5.832031 -3.832031 L 6.042969 -3.589844 L 6.316406 -3.414062 L 8.800781 -0.945312 L 9.214844 -0.480469 Z M 9.457031 -0.273438 "/></g></g></g><g fill="#ffffff" fill-opacity="1"><g transform="translate(36.578394, 30.492568)"><g><path d="M 1.171875 -0.449219 L 1.363281 -0.144531 L 1.667969 0.03125 L 1.988281 0.015625 L 2.628906 0.046875 L 2.964844 0.015625 L 3.636719 0.03125 L 3.976562 -0.160156 L 4.101562 -0.464844 L 4.136719 -0.769531 L 4.101562 -1.121094 L 4.101562 -3.957031 L 4.246094 -4.296875 L 4.582031 -4.503906 L 6.476562 -4.519531 L 6.8125 -4.472656 L 7.101562 -4.472656 L 7.40625 -4.296875 L 7.566406 -3.992188 L 7.582031 -0.449219 L 7.757812 -0.191406 L 8.222656 0.015625 L 9.054688 0.015625 L 9.375 -0.015625 L 10.03125 0.03125 L 10.335938 -0.175781 L 10.53125 -0.449219 L 10.496094 -1.90625 L 10.546875 -2.421875 L 10.496094 -2.675781 L 10.515625 -10.722656 L 10.371094 -11.058594 L 10.050781 -11.1875 L 8.207031 -11.203125 L 7.742188 -11.089844 L 7.582031 -10.707031 L 7.566406 -10.097656 L 7.597656 -9.824219 L 7.566406 -9.167969 L 7.613281 -8.863281 L 7.597656 -7.613281 L 7.421875 -7.292969 L 7.101562 -7.117188 L 6.796875 -7.164062 L 6.171875 -7.101562 L 5.832031 -7.132812 L 5.546875 -7.101562 L 4.601562 -7.117188 L 4.296875 -7.261719 L 4.136719 -7.566406 L 4.117188 -7.917969 L 4.117188 -8.253906 L 4.101562 -8.542969 L 4.117188 -9.792969 L 4.152344 -10.144531 L 4.117188 -10.738281 L 3.976562 -11.042969 L 3.636719 -11.21875 L 3.285156 -11.1875 L 1.699219 -11.21875 L 1.347656 -11.058594 L 1.1875 -10.738281 L 1.152344 -10.386719 L 1.1875 -9.136719 L 1.152344 -8.816406 L 1.21875 -8.15625 L 1.1875 -7.550781 L 1.203125 -7.164062 L 1.171875 -6.84375 L 1.171875 -2.050781 L 1.21875 -1.761719 Z M 1.171875 -0.449219 "/></g></g></g><g fill="#ffffff" fill-opacity="1"><g transform="translate(47.187808, 30.492568)"><g><path d="M 9.457031 0.03125 L 10.066406 -0.015625 L 10.371094 0.015625 L 10.867188 0 L 11.316406 -0.0820312 L 11.363281 -0.464844 L 11.25 -0.832031 L 11.011719 -1.425781 L 10.578125 -2.261719 L 10.355469 -2.851562 L 10.03125 -3.429688 L 9.425781 -4.886719 L 9.265625 -5.128906 L 9.101562 -5.433594 L 9.007812 -5.785156 L 8.863281 -6.027344 L 8.765625 -6.28125 L 8.429688 -6.875 L 8.316406 -7.210938 L 7.261719 -9.441406 L 7.164062 -9.761719 L 6.988281 -10.050781 L 6.890625 -10.335938 L 6.585938 -10.898438 L 6.316406 -11.1875 L 5.785156 -11.347656 L 5.273438 -11.171875 L 4.984375 -10.898438 L 4.839844 -10.625 L 4.726562 -10.304688 L 4.582031 -10.082031 L 3.941406 -8.605469 L 3.765625 -8.367188 L 3.6875 -8.046875 L 3.511719 -7.742188 L 3.414062 -7.453125 L 1.777344 -4.023438 L 1.683594 -3.671875 L 1.523438 -3.429688 L 1.410156 -3.109375 L 1.121094 -2.597656 L 0.882812 -1.957031 L 0.707031 -1.730469 L 0.625 -1.441406 L 0.304688 -0.800781 L 0.207031 -0.480469 L 0.289062 -0.0820312 L 0.609375 0.015625 L 1.234375 -0.015625 L 1.554688 0.015625 L 2.453125 -0.015625 L 2.820312 -0.128906 L 3.125 -0.417969 L 3.414062 -0.945312 L 3.71875 -1.25 L 4.054688 -1.425781 L 4.359375 -1.378906 L 5.03125 -1.441406 L 5.320312 -1.394531 L 6.890625 -1.410156 L 7.179688 -1.378906 L 7.53125 -1.425781 L 7.886719 -1.25 L 8.191406 -0.992188 L 8.335938 -0.6875 L 8.429688 -0.402344 L 8.75 -0.160156 L 9.121094 0 Z M 5.816406 -3.957031 L 5.496094 -4.023438 L 5.128906 -3.992188 L 4.871094 -4.101562 L 4.855469 -4.40625 L 5.609375 -6.136719 L 5.785156 -6.28125 L 6.011719 -6.15625 L 6.761719 -4.390625 L 6.699219 -4.101562 L 6.460938 -3.976562 Z M 5.816406 -3.957031 "/></g></g></g><g clip-path="url(#93db472d47)"><path stroke-linecap="butt" transform="matrix(0.108792, 0, 0, 0.108792, 1.413336, 4.120583)" fill="none" stroke-linejoin="miter" d="M 50.669488 126.320621 L 54.188238 125.135736 L 57.455648 120.862969 L 59.394551 116.76973 L 60.256286 113.681847 L 63.056923 108.942307 L 63.954563 105.998047 L 65.426693 102.910165 L 66.288428 100.396773 L 67.90418 97.739758 L 73.649077 84.346966 L 74.69034 81.079556 L 77.311449 76.375921 L 90.165657 46.035683 L 91.637786 43.378668 L 94.115273 38.064638 L 94.869291 35.299906 L 97.669929 30.129499 L 98.675286 26.179882 L 97.957173 23.056094 L 95.300158 22.445699 L 92.212276 22.158454 L 89.555261 21.727587 L 86.790529 22.014831 L 83.84627 22.158454 L 78.244995 21.583964 L 74.977585 23.486961 L 72.464192 26.000354 L 58.784156 58.423117 L 57.922421 61.511 L 56.558008 63.988487 L 55.947613 66.645501 L 54.511388 69.338422 L 51.567128 77.560806 L 50.094999 80.217821 L 48.479246 79.930576 L 44.780969 71.959531 L 44.206479 69.1948 L 41.693086 64.132109 L 34.296531 44.99442 L 30.490537 37.202903 L 26.361392 26.000354 L 23.883905 23.486961 L 20.472872 22.014831 L 12.07096 21.727587 L 9.1267 22.158454 L 3.525426 22.158454 L 1.191561 23.199716 L 0.00667615 26.179882 L 4.710311 38.675033 L 6.182441 40.865275 L 6.936458 43.665913 L 8.085438 46.646078 L 9.70119 48.83632 L 10.742453 51.924202 L 24.027528 81.689951 L 24.889262 84.634211 L 28.58754 92.318011 L 29.592897 95.405893 L 32.106289 100.396773 L 33.722042 103.053787 L 34.440154 105.998047 L 40.364579 120.001234 L 41.693086 122.191476 L 44.637346 124.704869 L 47.868851 125.889754 Z M 50.669488 126.320621 " stroke="#ffffff" stroke-width="6.445425" stroke-opacity="1" stroke-miterlimit="4"/></g><g fill="#ffffff" fill-opacity="1"><g transform="translate(51.161083, 6.510856)"><g><path d="M -5.511719 -0.144531 L -5.898438 -0.015625 L -6.25 0.449219 L -6.460938 0.898438 L -6.554688 1.234375 L -6.859375 1.746094 L -6.957031 2.066406 L -7.117188 2.402344 L -7.210938 2.675781 L -7.386719 2.964844 L -8.011719 4.421875 L -8.125 4.777344 L -8.414062 5.289062 L -9.808594 8.589844 L -9.96875 8.878906 L -10.242188 9.457031 L -10.320312 9.761719 L -10.625 10.320312 L -10.738281 10.753906 L -10.65625 11.089844 L -10.371094 11.15625 L -10.03125 11.1875 L -9.746094 11.234375 L -9.441406 11.203125 L -9.121094 11.1875 L -8.511719 11.25 L -8.15625 11.042969 L -7.886719 10.769531 L -6.394531 7.246094 L -6.296875 6.90625 L -6.15625 6.636719 L -6.089844 6.347656 L -5.929688 6.058594 L -5.609375 5.160156 L -5.449219 4.871094 L -5.273438 4.90625 L -4.871094 5.769531 L -4.808594 6.074219 L -4.535156 6.621094 L -3.734375 8.703125 L -3.316406 9.550781 L -2.867188 10.769531 L -2.597656 11.042969 L -2.226562 11.203125 L -1.3125 11.234375 L -0.992188 11.1875 L -0.382812 11.1875 L -0.128906 11.074219 L 0 10.753906 L -0.511719 9.390625 L -0.671875 9.152344 L -0.753906 8.847656 L -0.882812 8.527344 L -1.058594 8.285156 L -1.171875 7.949219 L -2.613281 4.710938 L -2.707031 4.390625 L -3.109375 3.558594 L -3.222656 3.222656 L -3.492188 2.675781 L -3.671875 2.386719 L -3.75 2.066406 L -4.390625 0.546875 L -4.535156 0.304688 L -4.855469 0.03125 L -5.207031 -0.0976562 Z M -5.511719 -0.144531 "/></g></g></g></svg>