<svg xmlns="http://www.w3.org/2000/svg" xmlns:xlink="http://www.w3.org/1999/xlink" width="50" zoomAndPan="magnify" viewBox="0 0 37.5 37.499999" height="50" preserveAspectRatio="xMidYMid meet" version="1.0"><defs><clipPath id="f9718bbcc4"><path d="M 1.203125 11 L 9 11 L 9 29 L 1.203125 29 Z M 1.203125 11 " clip-rule="nonzero"/></clipPath><clipPath id="e99ee6a180"><path d="M 17 26 L 21 26 L 21 32.078125 L 17 32.078125 Z M 17 26 " clip-rule="nonzero"/></clipPath><clipPath id="15e32c1895"><path d="M 22 26 L 25 26 L 25 32.078125 L 22 32.078125 Z M 22 26 " clip-rule="nonzero"/></clipPath><clipPath id="476bf60b28"><path d="M 12 5.078125 L 15 5.078125 L 15 11 L 12 11 Z M 12 5.078125 " clip-rule="nonzero"/></clipPath><clipPath id="658b5be64d"><path d="M 34 6 L 36.453125 6 L 36.453125 21 L 34 21 Z M 34 6 " clip-rule="nonzero"/></clipPath><clipPath id="daebab4f71"><path d="M 35 21 L 36.453125 21 L 36.453125 23 L 35 23 Z M 35 21 " clip-rule="nonzero"/></clipPath></defs><g clip-path="url(#f9718bbcc4)"><path fill="#000000" d="M 4.496094 18.421875 C 4.644531 17.710938 4.792969 16.996094 4.945312 16.289062 C 5.230469 14.988281 5.574219 13.703125 6.085938 12.46875 C 6.191406 12.214844 6.304688 11.957031 6.429688 11.710938 C 6.503906 11.566406 6.605469 11.4375 6.707031 11.308594 C 6.789062 11.203125 6.910156 11.132812 7.046875 11.117188 C 7.203125 11.097656 7.363281 11.089844 7.519531 11.105469 C 7.734375 11.128906 7.878906 11.257812 7.964844 11.457031 C 8.085938 11.730469 8.15625 12.019531 8.210938 12.3125 C 8.332031 12.917969 8.394531 13.53125 8.433594 14.148438 C 8.5 15.273438 8.566406 16.398438 8.636719 17.519531 C 8.691406 18.410156 8.730469 19.296875 8.707031 20.1875 C 8.703125 20.449219 8.671875 20.710938 8.648438 20.972656 C 8.640625 21.039062 8.617188 21.109375 8.59375 21.175781 C 8.558594 21.277344 8.488281 21.347656 8.386719 21.386719 C 8.171875 21.460938 7.953125 21.46875 7.734375 21.398438 C 7.621094 21.363281 7.566406 21.292969 7.558594 21.164062 C 7.472656 19.769531 7.410156 18.371094 7.40625 16.972656 C 7.402344 15.898438 7.375 14.828125 7.347656 13.757812 C 7.335938 13.21875 7.292969 12.679688 7.203125 12.144531 C 7.199219 12.121094 7.191406 12.097656 7.160156 12.066406 C 7.136719 12.113281 7.109375 12.160156 7.089844 12.207031 C 6.695312 13.132812 6.386719 14.085938 6.152344 15.058594 C 5.878906 16.195312 5.628906 17.335938 5.453125 18.488281 C 5.355469 19.121094 5.296875 19.761719 5.222656 20.398438 C 5.199219 20.609375 5.183594 20.820312 5.15625 21.03125 C 5.121094 21.28125 5.03125 21.375 4.777344 21.421875 C 4.589844 21.457031 4.402344 21.457031 4.214844 21.40625 C 4.035156 21.363281 3.910156 21.261719 3.863281 21.082031 C 3.789062 20.792969 3.714844 20.507812 3.652344 20.214844 C 3.492188 19.421875 3.355469 18.625 3.125 17.847656 C 3.058594 17.621094 2.972656 17.398438 2.894531 17.175781 C 2.886719 17.148438 2.871094 17.121094 2.828125 17.097656 C 2.804688 17.222656 2.777344 17.347656 2.761719 17.472656 C 2.605469 18.691406 2.507812 19.914062 2.566406 21.144531 C 2.632812 22.585938 2.691406 24.03125 2.765625 25.472656 C 2.792969 26.054688 2.859375 26.632812 2.898438 27.210938 C 2.914062 27.4375 2.917969 27.664062 2.910156 27.890625 C 2.902344 28.117188 2.816406 28.203125 2.589844 28.253906 C 2.433594 28.289062 2.277344 28.285156 2.117188 28.253906 C 1.949219 28.21875 1.84375 28.125 1.804688 27.960938 C 1.75 27.722656 1.695312 27.488281 1.652344 27.25 C 1.496094 26.402344 1.40625 25.546875 1.367188 24.691406 C 1.320312 23.679688 1.277344 22.671875 1.25 21.660156 C 1.214844 20.207031 1.351562 18.765625 1.679688 17.34375 C 1.726562 17.128906 1.796875 16.914062 1.882812 16.710938 C 2.082031 16.242188 2.425781 16.0625 2.941406 16.132812 C 3.226562 16.171875 3.464844 16.289062 3.636719 16.515625 C 3.757812 16.675781 3.871094 16.847656 3.964844 17.023438 C 4.171875 17.417969 4.304688 17.835938 4.425781 18.261719 C 4.441406 18.316406 4.457031 18.371094 4.472656 18.429688 C 4.480469 18.425781 4.488281 18.425781 4.496094 18.421875 Z M 4.496094 18.421875 " fill-opacity="1" fill-rule="nonzero"/></g><path fill="#000000" d="M 26.183594 21.523438 C 26.265625 21.457031 26.335938 21.40625 26.398438 21.347656 C 26.578125 21.175781 26.71875 20.976562 26.820312 20.757812 C 27.011719 20.347656 27.195312 19.9375 27.367188 19.519531 C 27.847656 18.335938 28.183594 17.109375 28.476562 15.867188 C 28.519531 15.683594 28.566406 15.640625 28.753906 15.617188 C 28.804688 15.613281 28.855469 15.613281 28.90625 15.617188 C 29.128906 15.640625 29.203125 15.710938 29.21875 15.933594 C 29.234375 16.203125 29.242188 16.476562 29.25 16.75 C 29.261719 17.476562 29.261719 18.207031 29.28125 18.933594 C 29.296875 19.597656 29.347656 20.265625 29.46875 20.921875 C 29.496094 21.074219 29.519531 21.226562 29.601562 21.386719 C 29.648438 21.324219 29.683594 21.28125 29.71875 21.230469 C 29.972656 20.859375 30.15625 20.453125 30.332031 20.042969 C 30.824219 18.890625 31.175781 17.695312 31.5 16.488281 C 31.605469 16.089844 31.710938 15.695312 31.800781 15.296875 C 31.835938 15.144531 31.929688 15.085938 32.066406 15.070312 C 32.117188 15.0625 32.171875 15.0625 32.222656 15.066406 C 32.445312 15.078125 32.519531 15.136719 32.53125 15.355469 C 32.554688 15.707031 32.558594 16.0625 32.574219 16.414062 C 32.613281 17.355469 32.660156 18.292969 32.691406 19.230469 C 32.726562 20.238281 32.726562 21.242188 32.664062 22.246094 C 32.652344 22.457031 32.617188 22.667969 32.574219 22.875 C 32.515625 23.144531 32.402344 23.238281 32.121094 23.269531 C 31.972656 23.289062 31.824219 23.28125 31.683594 23.222656 C 31.542969 23.164062 31.5 23.066406 31.539062 22.917969 C 31.550781 22.871094 31.550781 22.820312 31.550781 22.769531 C 31.546875 21.800781 31.539062 20.832031 31.542969 19.859375 C 31.542969 19.453125 31.578125 19.042969 31.597656 18.632812 C 31.597656 18.578125 31.597656 18.523438 31.574219 18.464844 C 31.558594 18.515625 31.542969 18.566406 31.53125 18.617188 C 31.34375 19.304688 31.144531 19.988281 30.882812 20.652344 C 30.785156 20.90625 30.65625 21.152344 30.539062 21.398438 C 30.507812 21.464844 30.460938 21.527344 30.417969 21.589844 C 30.113281 22.046875 29.675781 22.179688 29.125 22.054688 C 28.875 22 28.699219 21.84375 28.59375 21.613281 C 28.476562 21.351562 28.421875 21.074219 28.386719 20.792969 C 28.300781 20.09375 28.277344 19.390625 28.3125 18.6875 C 28.316406 18.660156 28.3125 18.628906 28.296875 18.59375 C 28.285156 18.628906 28.265625 18.664062 28.253906 18.699219 C 28.082031 19.214844 27.925781 19.738281 27.738281 20.253906 C 27.636719 20.539062 27.5 20.8125 27.363281 21.082031 C 27.261719 21.289062 27.117188 21.46875 26.9375 21.613281 C 26.53125 21.9375 26.085938 21.964844 25.617188 21.78125 C 25.5 21.734375 25.402344 21.628906 25.300781 21.546875 C 25.265625 21.519531 25.238281 21.480469 25.199219 21.4375 C 25.167969 21.496094 25.144531 21.542969 25.121094 21.589844 C 24.648438 22.554688 24.085938 23.460938 23.378906 24.28125 C 23.117188 24.585938 22.8125 24.851562 22.453125 25.046875 C 22.042969 25.261719 21.609375 25.355469 21.144531 25.285156 C 20.660156 25.214844 20.292969 24.972656 20.03125 24.574219 C 19.804688 24.234375 19.671875 23.859375 19.582031 23.464844 C 19.320312 22.335938 19.394531 21.230469 19.878906 20.160156 C 20.101562 19.671875 20.421875 19.257812 20.90625 18.988281 C 21.367188 18.734375 21.855469 18.640625 22.378906 18.730469 C 22.605469 18.769531 22.808594 18.859375 22.972656 19.027344 C 23.078125 19.136719 23.144531 19.265625 23.15625 19.417969 C 23.160156 19.476562 23.175781 19.53125 23.1875 19.59375 C 23.035156 19.710938 22.792969 19.691406 22.632812 19.539062 C 22.574219 19.480469 22.527344 19.414062 22.464844 19.359375 C 22.128906 19.078125 22.097656 19.085938 21.769531 19.332031 C 21.519531 19.519531 21.363281 19.78125 21.234375 20.0625 C 21.050781 20.464844 20.933594 20.890625 20.871094 21.324219 C 20.746094 22.15625 20.761719 22.988281 20.957031 23.808594 C 21.007812 24.023438 21.082031 24.238281 21.171875 24.4375 C 21.230469 24.570312 21.335938 24.679688 21.425781 24.796875 C 21.476562 24.867188 21.554688 24.882812 21.632812 24.839844 C 21.789062 24.757812 21.957031 24.6875 22.105469 24.589844 C 22.425781 24.375 22.6875 24.09375 22.929688 23.796875 C 23.6875 22.878906 24.3125 21.878906 24.792969 20.792969 C 24.835938 20.691406 24.839844 20.605469 24.8125 20.5 C 24.59375 19.660156 24.507812 18.800781 24.570312 17.933594 C 24.582031 17.738281 24.621094 17.542969 24.65625 17.347656 C 24.671875 17.273438 24.695312 17.203125 24.722656 17.132812 C 24.867188 16.753906 25.222656 16.597656 25.609375 16.738281 C 25.726562 16.78125 25.820312 16.855469 25.859375 16.972656 C 25.90625 17.109375 25.953125 17.25 25.980469 17.390625 C 26.082031 17.957031 26.058594 18.519531 25.96875 19.082031 C 25.90625 19.472656 25.808594 19.851562 25.679688 20.226562 C 25.652344 20.300781 25.648438 20.371094 25.667969 20.449219 C 25.75 20.71875 25.832031 20.992188 25.976562 21.238281 C 26.035156 21.332031 26.105469 21.417969 26.183594 21.523438 Z M 26.183594 21.523438 " fill-opacity="1" fill-rule="nonzero"/><path fill="#000000" d="M 16.125 24.105469 C 16.386719 23.917969 16.59375 23.699219 16.75 23.441406 C 17.152344 22.785156 17.351562 22.070312 17.3125 21.304688 C 17.289062 20.894531 17.175781 20.507812 16.953125 20.15625 C 16.851562 19.988281 16.796875 19.804688 16.769531 19.613281 C 16.742188 19.40625 16.800781 19.3125 17.003906 19.246094 C 17.265625 19.164062 17.53125 19.164062 17.789062 19.265625 C 17.867188 19.296875 17.945312 19.347656 17.996094 19.410156 C 18.125 19.566406 18.207031 19.75 18.207031 19.953125 C 18.207031 20.585938 18.183594 21.21875 18.035156 21.835938 C 17.925781 22.28125 17.769531 22.707031 17.554688 23.109375 C 17.273438 23.644531 16.886719 24.078125 16.363281 24.390625 C 16.328125 24.414062 16.296875 24.4375 16.257812 24.460938 C 16.285156 24.582031 16.3125 24.699219 16.335938 24.816406 C 16.480469 25.496094 16.492188 26.179688 16.433594 26.867188 C 16.398438 27.304688 16.308594 27.730469 16.140625 28.132812 C 16.074219 28.285156 16 28.4375 15.90625 28.578125 C 15.632812 28.996094 15.226562 29.140625 14.738281 29.085938 C 14.339844 29.042969 14.050781 28.835938 13.859375 28.496094 C 13.703125 28.210938 13.621094 27.90625 13.554688 27.59375 C 13.542969 27.539062 13.53125 27.488281 13.496094 27.433594 C 13.464844 27.566406 13.429688 27.699219 13.398438 27.835938 C 13.253906 28.453125 13.113281 29.074219 12.964844 29.695312 C 12.90625 29.949219 12.816406 30.199219 12.691406 30.433594 C 12.496094 30.792969 12.199219 30.996094 11.78125 31.015625 C 11.644531 31.023438 11.503906 31.019531 11.367188 30.996094 C 11.039062 30.941406 10.796875 30.757812 10.640625 30.464844 C 10.484375 30.179688 10.402344 29.863281 10.347656 29.546875 C 10.238281 28.925781 10.191406 28.304688 10.1875 27.675781 C 10.1875 27.617188 10.1875 27.558594 10.1875 27.5 C 10.082031 27.488281 10.085938 27.558594 10.070312 27.605469 C 9.984375 27.84375 9.90625 28.085938 9.820312 28.324219 C 9.597656 28.960938 9.371094 29.601562 9.140625 30.238281 C 9.046875 30.5 8.925781 30.753906 8.761719 30.980469 C 8.601562 31.207031 8.398438 31.378906 8.117188 31.445312 C 7.882812 31.5 7.648438 31.496094 7.417969 31.425781 C 7.179688 31.355469 7.007812 31.203125 6.894531 30.984375 C 6.753906 30.71875 6.675781 30.429688 6.617188 30.136719 C 6.5 29.527344 6.453125 28.914062 6.488281 28.296875 C 6.511719 27.914062 6.59375 27.546875 6.757812 27.199219 C 7.011719 26.648438 7.449219 26.347656 8.042969 26.25 C 8.589844 26.160156 9.117188 26.203125 9.609375 26.480469 C 9.621094 26.484375 9.628906 26.484375 9.652344 26.488281 C 9.667969 26.449219 9.683594 26.410156 9.699219 26.367188 C 9.972656 25.5 10.246094 24.632812 10.515625 23.761719 C 10.59375 23.515625 10.652344 23.265625 10.710938 23.015625 C 10.746094 22.859375 10.84375 22.78125 10.992188 22.75 C 11.171875 22.714844 11.351562 22.714844 11.523438 22.773438 C 11.683594 22.828125 11.726562 22.894531 11.699219 23.058594 C 11.648438 23.371094 11.578125 23.675781 11.546875 23.988281 C 11.476562 24.613281 11.40625 25.242188 11.375 25.871094 C 11.335938 26.546875 11.328125 27.226562 11.335938 27.902344 C 11.339844 28.574219 11.398438 29.242188 11.546875 29.902344 C 11.585938 30.085938 11.640625 30.265625 11.75 30.449219 C 11.792969 30.394531 11.832031 30.355469 11.863281 30.308594 C 12.007812 30.097656 12.113281 29.863281 12.191406 29.625 C 12.632812 28.261719 13.0625 26.898438 13.320312 25.488281 C 13.386719 25.136719 13.4375 24.78125 13.496094 24.425781 C 13.507812 24.355469 13.492188 24.304688 13.449219 24.246094 C 13.339844 24.09375 13.257812 23.925781 13.242188 23.730469 C 13.207031 23.382812 13.351562 23.121094 13.652344 22.945312 C 13.957031 22.757812 14.292969 22.710938 14.644531 22.746094 C 15.054688 22.789062 15.390625 22.96875 15.632812 23.300781 C 15.785156 23.507812 15.910156 23.734375 16.046875 23.953125 C 16.074219 23.996094 16.09375 24.042969 16.125 24.105469 Z M 7.875 30.929688 C 7.9375 30.851562 7.992188 30.796875 8.023438 30.730469 C 8.152344 30.484375 8.296875 30.242188 8.394531 29.980469 C 8.738281 29.074219 9.066406 28.160156 9.398438 27.25 C 9.40625 27.226562 9.410156 27.203125 9.414062 27.175781 C 9.214844 27 9.011719 26.84375 8.773438 26.730469 C 8.597656 26.648438 8.4375 26.664062 8.277344 26.761719 C 8.097656 26.867188 7.976562 27.023438 7.878906 27.195312 C 7.6875 27.527344 7.601562 27.886719 7.566406 28.261719 C 7.503906 28.925781 7.5625 29.585938 7.667969 30.238281 C 7.707031 30.46875 7.757812 30.695312 7.875 30.929688 Z M 14.933594 28.636719 C 15.003906 28.546875 15.074219 28.476562 15.117188 28.394531 C 15.210938 28.226562 15.304688 28.058594 15.371094 27.878906 C 15.707031 26.964844 15.738281 26.023438 15.632812 25.070312 C 15.617188 24.964844 15.59375 24.863281 15.574219 24.746094 C 15.101562 24.875 14.640625 24.90625 14.179688 24.773438 C 14.171875 24.800781 14.167969 24.816406 14.167969 24.832031 C 14.152344 25.558594 14.167969 26.285156 14.296875 27.007812 C 14.367188 27.378906 14.453125 27.746094 14.597656 28.101562 C 14.671875 28.289062 14.769531 28.464844 14.933594 28.636719 Z M 15.492188 24.4375 C 15.351562 23.996094 15.144531 23.613281 14.828125 23.292969 C 14.757812 23.21875 14.660156 23.160156 14.570312 23.105469 C 14.507812 23.0625 14.4375 23.074219 14.367188 23.113281 C 14.175781 23.214844 14.042969 23.464844 14.070312 23.6875 C 14.070312 23.710938 14.078125 23.746094 14.09375 23.753906 C 14.203125 23.8125 14.183594 23.914062 14.1875 24.007812 C 14.191406 24.0625 14.1875 24.125 14.214844 24.167969 C 14.375 24.410156 14.582031 24.59375 14.902344 24.578125 C 15.101562 24.570312 15.296875 24.523438 15.492188 24.4375 Z M 15.492188 24.4375 " fill-opacity="1" fill-rule="nonzero"/><path fill="#000000" d="M 17.40625 12.574219 C 17.332031 12.753906 17.257812 12.929688 17.191406 13.109375 C 16.859375 14.042969 16.621094 14.996094 16.507812 15.980469 C 16.460938 16.378906 16.410156 16.78125 16.359375 17.183594 C 16.351562 17.242188 16.335938 17.300781 16.324219 17.359375 C 16.296875 17.507812 16.199219 17.582031 16.054688 17.613281 C 15.925781 17.636719 15.796875 17.636719 15.671875 17.601562 C 15.53125 17.566406 15.476562 17.5 15.460938 17.359375 C 15.449219 17.226562 15.441406 17.097656 15.4375 16.964844 C 15.421875 15.925781 15.414062 14.882812 15.398438 13.84375 C 15.394531 13.621094 15.378906 13.402344 15.347656 13.171875 C 15.332031 13.207031 15.316406 13.242188 15.304688 13.277344 C 15.074219 14.039062 14.902344 14.8125 14.753906 15.589844 C 14.519531 16.828125 14.285156 18.0625 14.042969 19.296875 C 13.980469 19.617188 13.882812 19.933594 13.796875 20.25 C 13.765625 20.363281 13.714844 20.46875 13.664062 20.574219 C 13.574219 20.773438 13.40625 20.886719 13.1875 20.910156 C 13.058594 20.921875 12.929688 20.921875 12.800781 20.910156 C 12.589844 20.886719 12.417969 20.789062 12.320312 20.597656 C 12.234375 20.4375 12.160156 20.269531 12.105469 20.097656 C 11.925781 19.550781 11.824219 18.992188 11.765625 18.421875 C 11.71875 17.984375 11.691406 17.546875 11.652344 17.089844 C 11.632812 17.140625 11.617188 17.179688 11.601562 17.21875 C 11.488281 17.496094 11.378906 17.773438 11.257812 18.046875 C 11.214844 18.144531 11.144531 18.234375 11.074219 18.324219 C 10.90625 18.535156 10.683594 18.648438 10.414062 18.671875 C 10.308594 18.679688 10.199219 18.679688 10.09375 18.671875 C 9.75 18.652344 9.476562 18.5 9.273438 18.222656 C 9.027344 17.886719 8.894531 17.507812 8.835938 17.101562 C 8.6875 16.140625 8.941406 15.257812 9.433594 14.4375 C 9.726562 13.945312 10.195312 13.703125 10.765625 13.636719 C 11.109375 13.59375 11.449219 13.613281 11.777344 13.753906 C 11.816406 13.773438 11.875 13.761719 11.921875 13.75 C 12.078125 13.707031 12.238281 13.707031 12.394531 13.742188 C 12.5625 13.777344 12.667969 13.878906 12.6875 14.050781 C 12.710938 14.246094 12.734375 14.441406 12.738281 14.636719 C 12.746094 15.097656 12.746094 15.558594 12.742188 16.015625 C 12.730469 16.867188 12.757812 17.714844 12.875 18.558594 C 12.925781 18.953125 12.996094 19.34375 13.117188 19.738281 C 13.136719 19.683594 13.164062 19.625 13.179688 19.566406 C 13.367188 18.875 13.558594 18.183594 13.734375 17.488281 C 14 16.449219 14.242188 15.40625 14.511719 14.371094 C 14.632812 13.90625 14.789062 13.449219 14.9375 12.992188 C 14.976562 12.863281 15.035156 12.738281 15.097656 12.617188 C 15.183594 12.449219 15.339844 12.414062 15.515625 12.429688 C 15.683594 12.441406 15.796875 12.527344 15.835938 12.6875 C 15.882812 12.902344 15.929688 13.113281 15.949219 13.328125 C 15.992188 13.757812 16.019531 14.183594 16.050781 14.613281 C 16.054688 14.632812 16.054688 14.652344 16.074219 14.679688 C 16.089844 14.644531 16.105469 14.613281 16.113281 14.578125 C 16.304688 13.878906 16.5 13.183594 16.792969 12.519531 C 16.863281 12.355469 16.953125 12.203125 17.035156 12.046875 C 17.230469 11.664062 17.957031 11.6875 18.132812 12.070312 C 18.203125 12.222656 18.277344 12.371094 18.332031 12.53125 C 18.53125 13.132812 18.648438 13.753906 18.761719 14.375 C 18.921875 15.234375 18.984375 16.105469 18.980469 16.984375 C 18.980469 17.09375 18.96875 17.203125 18.957031 17.3125 C 18.941406 17.425781 18.878906 17.5 18.773438 17.539062 C 18.53125 17.628906 18.289062 17.628906 18.050781 17.535156 C 17.9375 17.492188 17.863281 17.410156 17.839844 17.292969 C 17.796875 17.0625 17.75 16.835938 17.71875 16.605469 C 17.597656 15.667969 17.539062 14.726562 17.519531 13.78125 C 17.515625 13.421875 17.484375 13.066406 17.460938 12.707031 C 17.460938 12.664062 17.449219 12.617188 17.441406 12.574219 C 17.429688 12.578125 17.417969 12.578125 17.40625 12.574219 Z M 10.339844 17.984375 C 10.394531 17.902344 10.433594 17.851562 10.460938 17.792969 C 10.578125 17.535156 10.707031 17.28125 10.804688 17.015625 C 11.09375 16.25 11.289062 15.453125 11.5 14.664062 C 11.578125 14.367188 11.578125 14.367188 11.316406 14.1875 C 11.308594 14.179688 11.300781 14.175781 11.292969 14.171875 C 11.132812 14.066406 11.085938 14.066406 10.933594 14.179688 C 10.769531 14.300781 10.65625 14.464844 10.570312 14.644531 C 10.171875 15.480469 9.976562 16.347656 10.132812 17.273438 C 10.171875 17.507812 10.222656 17.738281 10.339844 17.984375 Z M 10.339844 17.984375 " fill-opacity="1" fill-rule="nonzero"/><path fill="#000000" d="M 20.84375 9.867188 C 20.921875 9.890625 20.96875 9.90625 21.015625 9.921875 C 21.292969 10 21.558594 10.105469 21.804688 10.253906 C 22.316406 10.5625 22.628906 11.019531 22.800781 11.574219 C 22.898438 11.882812 22.957031 12.203125 22.980469 12.523438 C 23.03125 13.3125 22.984375 14.089844 22.769531 14.851562 C 22.691406 15.132812 22.578125 15.398438 22.433594 15.648438 C 22.195312 16.0625 21.828125 16.261719 21.347656 16.28125 C 20.71875 16.304688 20.25 16.046875 19.933594 15.511719 C 19.675781 15.074219 19.519531 14.601562 19.441406 14.101562 C 19.332031 13.390625 19.367188 12.679688 19.511719 11.976562 C 19.539062 11.839844 19.585938 11.703125 19.648438 11.578125 C 19.757812 11.367188 20.089844 11.28125 20.292969 11.40625 C 20.335938 11.429688 20.375 11.484375 20.386719 11.535156 C 20.410156 11.621094 20.417969 11.710938 20.425781 11.800781 C 20.46875 12.40625 20.484375 13.011719 20.582031 13.613281 C 20.675781 14.179688 20.832031 14.726562 21.097656 15.242188 C 21.160156 15.355469 21.230469 15.464844 21.3125 15.601562 C 21.367188 15.527344 21.410156 15.480469 21.445312 15.425781 C 21.671875 15.089844 21.816406 14.71875 21.921875 14.332031 C 22.082031 13.738281 22.164062 13.132812 22.152344 12.519531 C 22.148438 12.191406 22.105469 11.863281 22.015625 11.546875 C 21.789062 10.78125 21.273438 10.332031 20.480469 10.1875 C 20.332031 10.160156 20.175781 10.136719 20.023438 10.132812 C 19.914062 10.128906 19.800781 10.15625 19.6875 10.164062 C 19.535156 10.175781 19.378906 10.183594 19.226562 10.175781 C 19.136719 10.171875 19.046875 10.140625 18.964844 10.097656 C 18.824219 10.027344 18.824219 9.910156 18.964844 9.839844 C 19.03125 9.804688 19.109375 9.773438 19.179688 9.769531 C 19.710938 9.734375 20.199219 9.535156 20.695312 9.375 C 21.875 8.988281 23.027344 8.523438 24.183594 8.078125 C 25.1875 7.691406 26.1875 7.300781 27.21875 6.988281 C 27.6875 6.84375 28.160156 6.734375 28.652344 6.714844 C 29.523438 6.679688 30.253906 6.964844 30.839844 7.601562 C 31.042969 7.816406 31.195312 8.058594 31.300781 8.332031 C 31.355469 8.480469 31.378906 8.632812 31.359375 8.792969 C 31.347656 8.882812 31.308594 8.957031 31.238281 9.011719 C 30.988281 9.199219 30.714844 9.285156 30.398438 9.210938 C 30.292969 9.1875 30.230469 9.128906 30.179688 9.027344 C 30.070312 8.804688 30.03125 8.578125 30.015625 8.339844 C 29.992188 7.914062 29.820312 7.558594 29.480469 7.289062 C 29.21875 7.074219 28.90625 7.007812 28.570312 7.039062 C 28.199219 7.078125 27.84375 7.171875 27.492188 7.285156 C 26.589844 7.578125 25.71875 7.949219 24.839844 8.3125 C 23.640625 8.808594 22.441406 9.3125 21.210938 9.742188 C 21.097656 9.777344 20.988281 9.816406 20.84375 9.867188 Z M 20.84375 9.867188 " fill-opacity="1" fill-rule="nonzero"/><path fill="#000000" d="M 28.296875 11.832031 C 28.445312 11.859375 28.601562 11.875 28.746094 11.917969 C 29.023438 12.003906 29.085938 12.140625 28.980469 12.402344 C 28.910156 12.585938 28.804688 12.746094 28.667969 12.886719 C 28.472656 13.085938 28.273438 13.28125 28.070312 13.476562 C 27.566406 13.957031 27.066406 14.445312 26.554688 14.921875 C 26.398438 15.070312 26.210938 15.191406 26.03125 15.3125 C 25.914062 15.394531 25.773438 15.414062 25.632812 15.378906 C 25.488281 15.34375 25.441406 15.277344 25.476562 15.136719 C 25.5 15.050781 25.53125 14.960938 25.574219 14.886719 C 25.777344 14.550781 25.976562 14.214844 26.1875 13.886719 C 26.433594 13.507812 26.683594 13.132812 26.945312 12.765625 C 27.078125 12.574219 27.234375 12.398438 27.386719 12.222656 C 27.625 11.945312 27.9375 11.84375 28.296875 11.832031 Z M 28.296875 11.832031 " fill-opacity="1" fill-rule="nonzero"/><g clip-path="url(#e99ee6a180)"><path fill="#c40008" d="M 20.257812 26.992188 C 20.085938 27.277344 19.910156 27.558594 19.734375 27.839844 C 19.558594 28.125 19.375 28.402344 19.199219 28.6875 C 18.855469 29.253906 18.503906 29.820312 18.144531 30.378906 C 18.042969 30.539062 17.941406 30.699219 17.839844 30.855469 C 17.789062 30.933594 17.742188 31.015625 17.695312 31.09375 C 17.648438 31.171875 17.621094 31.257812 17.585938 31.339844 C 17.515625 31.503906 17.550781 31.683594 17.632812 31.835938 C 17.71875 31.988281 17.894531 32.074219 18.066406 32.078125 C 18.078125 32.078125 18.082031 32.078125 18.089844 32.078125 C 18.128906 32.074219 18.207031 32.066406 18.246094 32.058594 C 18.269531 32.046875 18.289062 32.039062 18.3125 32.03125 C 18.382812 32.007812 18.441406 31.96875 18.492188 31.917969 C 18.496094 31.910156 18.503906 31.902344 18.511719 31.894531 C 18.535156 31.863281 18.5625 31.832031 18.585938 31.800781 C 18.667969 31.703125 18.742188 31.59375 18.804688 31.484375 C 18.886719 31.339844 18.964844 31.195312 19.046875 31.050781 C 19.207031 30.761719 19.367188 30.46875 19.527344 30.175781 C 19.6875 29.878906 19.84375 29.585938 20 29.289062 C 20.15625 28.996094 20.296875 28.699219 20.441406 28.398438 C 20.605469 28.058594 20.769531 27.71875 20.929688 27.378906 C 20.972656 27.28125 20.996094 27.191406 20.96875 27.085938 C 20.941406 26.996094 20.875 26.898438 20.789062 26.855469 C 20.699219 26.808594 20.589844 26.785156 20.492188 26.816406 C 20.394531 26.847656 20.3125 26.90625 20.257812 26.992188 Z M 20.257812 26.992188 " fill-opacity="1" fill-rule="nonzero"/></g><path fill="#c40008" d="M 23.707031 27.691406 C 23.71875 27.691406 23.71875 27.667969 23.707031 27.667969 C 23.691406 27.667969 23.691406 27.691406 23.707031 27.691406 Z M 23.707031 27.691406 " fill-opacity="1" fill-rule="nonzero"/><g clip-path="url(#15e32c1895)"><path fill="#c40008" d="M 22.984375 26.253906 C 22.960938 26.339844 22.953125 26.433594 22.945312 26.523438 C 22.949219 26.492188 22.953125 26.464844 22.957031 26.433594 C 22.949219 26.480469 22.941406 26.523438 22.945312 26.570312 C 22.949219 26.589844 22.949219 26.609375 22.953125 26.628906 C 22.957031 26.675781 22.960938 26.722656 22.964844 26.765625 C 22.972656 26.851562 22.980469 26.9375 22.992188 27.023438 C 23.011719 27.226562 23.050781 27.429688 23.082031 27.632812 C 23.132812 27.976562 23.191406 28.320312 23.25 28.664062 C 23.371094 29.351562 23.527344 30.035156 23.6875 30.714844 C 23.730469 30.902344 23.777344 31.089844 23.835938 31.273438 C 23.875 31.398438 23.925781 31.53125 23.984375 31.648438 C 24.023438 31.71875 24.058594 31.789062 24.117188 31.847656 C 24.148438 31.878906 24.183594 31.910156 24.214844 31.941406 C 24.3125 32.027344 24.441406 32.066406 24.570312 32.03125 C 24.695312 32 24.792969 31.902344 24.828125 31.78125 C 24.835938 31.746094 24.847656 31.707031 24.855469 31.671875 C 24.882812 31.589844 24.878906 31.515625 24.875 31.433594 C 24.867188 31.308594 24.84375 31.1875 24.820312 31.0625 C 24.789062 30.886719 24.734375 30.710938 24.6875 30.539062 C 24.585938 30.191406 24.492188 29.84375 24.398438 29.496094 C 24.308594 29.148438 24.222656 28.796875 24.128906 28.449219 C 24.039062 28.101562 23.949219 27.753906 23.867188 27.402344 C 23.820312 27.207031 23.777344 27.011719 23.722656 26.820312 C 23.699219 26.722656 23.671875 26.621094 23.644531 26.523438 C 23.613281 26.40625 23.5625 26.289062 23.492188 26.1875 C 23.429688 26.09375 23.332031 26.042969 23.214844 26.058594 C 23.109375 26.070312 23.011719 26.148438 22.984375 26.253906 Z M 22.984375 26.253906 " fill-opacity="1" fill-rule="nonzero"/></g><path fill="#c40008" d="M 26.304688 24.835938 C 26.542969 25.472656 26.796875 26.105469 27.082031 26.722656 C 27.222656 27.019531 27.363281 27.316406 27.507812 27.609375 C 27.652344 27.902344 27.796875 28.199219 27.957031 28.484375 C 28 28.5625 28.046875 28.640625 28.09375 28.722656 C 28.136719 28.800781 28.179688 28.882812 28.230469 28.957031 C 28.351562 29.136719 28.5 29.296875 28.644531 29.460938 C 28.671875 29.480469 28.699219 29.5 28.726562 29.519531 C 28.769531 29.546875 28.820312 29.5625 28.871094 29.566406 C 28.957031 29.578125 29.050781 29.566406 29.125 29.519531 C 29.179688 29.484375 29.230469 29.4375 29.265625 29.378906 C 29.316406 29.304688 29.335938 29.167969 29.304688 29.082031 C 29.277344 29.003906 29.25 28.929688 29.226562 28.855469 C 29.1875 28.746094 29.140625 28.640625 29.09375 28.539062 C 29.027344 28.386719 28.9375 28.25 28.855469 28.109375 C 28.695312 27.824219 28.527344 27.546875 28.363281 27.265625 C 28.035156 26.703125 27.726562 26.128906 27.414062 25.558594 C 27.238281 25.238281 27.0625 24.914062 26.894531 24.589844 C 26.863281 24.523438 26.773438 24.460938 26.703125 24.441406 C 26.628906 24.425781 26.558594 24.429688 26.492188 24.460938 C 26.351562 24.515625 26.246094 24.6875 26.304688 24.835938 Z M 26.304688 24.835938 " fill-opacity="1" fill-rule="nonzero"/><path fill="#c40008" d="M 28.917969 23.789062 C 28.929688 23.832031 28.9375 23.871094 28.960938 23.910156 C 28.984375 23.945312 29.015625 23.980469 29.046875 24.011719 C 29.082031 24.050781 29.117188 24.09375 29.152344 24.132812 C 29.21875 24.207031 29.285156 24.28125 29.355469 24.351562 C 29.503906 24.492188 29.652344 24.632812 29.800781 24.769531 C 30.097656 25.046875 30.394531 25.324219 30.695312 25.59375 C 30.777344 25.671875 30.859375 25.753906 30.949219 25.824219 C 30.972656 25.839844 30.996094 25.859375 31.019531 25.875 C 31.101562 25.941406 31.113281 25.953125 31.214844 25.988281 C 31.226562 25.996094 31.238281 26 31.253906 26.003906 C 31.304688 26.019531 31.351562 26.039062 31.40625 26.050781 C 31.523438 26.078125 31.644531 26.050781 31.730469 25.964844 C 31.8125 25.886719 31.859375 25.75 31.816406 25.644531 C 31.792969 25.578125 31.765625 25.511719 31.730469 25.449219 C 31.722656 25.429688 31.710938 25.40625 31.699219 25.386719 C 31.671875 25.335938 31.628906 25.292969 31.585938 25.25 C 31.511719 25.179688 31.433594 25.113281 31.351562 25.046875 C 31.195312 24.917969 31.042969 24.789062 30.886719 24.660156 C 30.566406 24.402344 30.246094 24.148438 29.921875 23.894531 C 29.8125 23.804688 29.699219 23.722656 29.582031 23.644531 C 29.535156 23.613281 29.488281 23.582031 29.4375 23.550781 C 29.417969 23.535156 29.394531 23.519531 29.375 23.507812 C 29.3125 23.46875 29.242188 23.46875 29.171875 23.460938 C 29.09375 23.453125 29.011719 23.503906 28.964844 23.5625 C 28.914062 23.628906 28.898438 23.707031 28.917969 23.789062 Z M 28.917969 23.789062 " fill-opacity="1" fill-rule="nonzero"/><path fill="#c40008" d="M 12.554688 11.820312 C 12.230469 11.382812 11.917969 10.9375 11.613281 10.488281 C 11.3125 10.035156 11.007812 9.582031 10.71875 9.117188 C 10.648438 9 10.574219 8.882812 10.503906 8.765625 C 10.453125 8.679688 10.402344 8.597656 10.332031 8.523438 C 10.3125 8.5 10.289062 8.476562 10.269531 8.453125 C 10.226562 8.40625 10.171875 8.371094 10.121094 8.332031 C 10.0625 8.289062 9.980469 8.269531 9.90625 8.269531 C 9.820312 8.265625 9.738281 8.296875 9.671875 8.347656 C 9.613281 8.390625 9.578125 8.441406 9.550781 8.503906 C 9.511719 8.59375 9.515625 8.679688 9.535156 8.773438 C 9.554688 8.871094 9.605469 8.957031 9.644531 9.046875 C 9.671875 9.109375 9.722656 9.164062 9.761719 9.21875 C 9.800781 9.273438 9.839844 9.328125 9.882812 9.382812 C 10.042969 9.605469 10.207031 9.820312 10.375 10.039062 C 10.5625 10.277344 10.746094 10.515625 10.9375 10.746094 C 11.289062 11.164062 11.652344 11.574219 12.019531 11.972656 C 12.066406 12.023438 12.113281 12.074219 12.160156 12.121094 C 12.242188 12.214844 12.394531 12.214844 12.488281 12.140625 C 12.582031 12.074219 12.628906 11.921875 12.554688 11.820312 Z M 12.554688 11.820312 " fill-opacity="1" fill-rule="nonzero"/><g clip-path="url(#476bf60b28)"><path fill="#c40008" d="M 14.855469 10.058594 C 14.800781 9.75 14.726562 9.445312 14.640625 9.144531 C 14.601562 8.992188 14.554688 8.839844 14.511719 8.6875 C 14.46875 8.53125 14.414062 8.378906 14.363281 8.222656 C 14.265625 7.914062 14.164062 7.609375 14.066406 7.300781 C 13.964844 6.996094 13.859375 6.691406 13.75 6.386719 C 13.691406 6.210938 13.628906 6.039062 13.570312 5.863281 C 13.53125 5.75 13.496094 5.632812 13.441406 5.527344 C 13.421875 5.484375 13.398438 5.445312 13.378906 5.402344 C 13.355469 5.359375 13.324219 5.316406 13.292969 5.28125 C 13.246094 5.238281 13.179688 5.199219 13.117188 5.183594 C 13.078125 5.171875 13.035156 5.171875 12.996094 5.167969 C 13.03125 5.171875 13.0625 5.175781 13.097656 5.179688 C 13.09375 5.179688 13.089844 5.179688 13.085938 5.179688 C 13.117188 5.191406 13.144531 5.203125 13.171875 5.214844 C 13.160156 5.207031 13.152344 5.199219 13.140625 5.195312 C 12.957031 5.078125 12.71875 5.195312 12.660156 5.386719 C 12.65625 5.398438 12.652344 5.410156 12.648438 5.421875 C 12.679688 5.371094 12.710938 5.320312 12.738281 5.269531 C 12.734375 5.273438 12.730469 5.277344 12.726562 5.28125 C 12.664062 5.351562 12.628906 5.417969 12.617188 5.507812 C 12.605469 5.582031 12.617188 5.652344 12.636719 5.726562 C 12.648438 5.78125 12.660156 5.839844 12.683594 5.894531 C 12.722656 5.996094 12.765625 6.097656 12.808594 6.199219 C 12.894531 6.410156 12.980469 6.621094 13.066406 6.832031 C 13.246094 7.273438 13.433594 7.710938 13.621094 8.148438 C 13.722656 8.378906 13.824219 8.613281 13.925781 8.847656 C 13.914062 8.820312 13.902344 8.796875 13.894531 8.773438 C 14 9.019531 14.125 9.261719 14.234375 9.507812 C 14.261719 9.5625 14.285156 9.617188 14.308594 9.671875 C 14.3125 9.683594 14.332031 9.730469 14.308594 9.671875 C 14.316406 9.6875 14.320312 9.699219 14.328125 9.714844 C 14.339844 9.742188 14.351562 9.769531 14.363281 9.800781 C 14.410156 9.917969 14.457031 10.035156 14.496094 10.15625 C 14.527344 10.246094 14.625 10.3125 14.722656 10.28125 C 14.828125 10.25 14.871094 10.160156 14.855469 10.058594 Z M 14.855469 10.058594 " fill-opacity="1" fill-rule="nonzero"/></g><path fill="#c40008" d="M 16.933594 9.761719 C 16.972656 9.53125 17.011719 9.300781 17.058594 9.070312 C 17.109375 8.8125 17.171875 8.558594 17.207031 8.296875 C 17.199219 8.332031 17.195312 8.367188 17.191406 8.398438 C 17.238281 8.054688 17.289062 7.707031 17.335938 7.359375 C 17.363281 7.152344 17.398438 6.941406 17.414062 6.734375 C 17.421875 6.597656 17.445312 6.464844 17.390625 6.339844 C 17.351562 6.25 17.28125 6.160156 17.1875 6.117188 C 17.125 6.089844 17.117188 6.085938 17.058594 6.078125 C 17 6.070312 16.992188 6.070312 16.921875 6.082031 C 16.882812 6.089844 16.839844 6.109375 16.804688 6.128906 C 16.738281 6.160156 16.679688 6.230469 16.640625 6.289062 C 16.589844 6.367188 16.585938 6.441406 16.574219 6.53125 C 16.566406 6.578125 16.5625 6.625 16.554688 6.671875 C 16.542969 6.757812 16.53125 6.847656 16.523438 6.9375 C 16.511719 7.113281 16.5 7.285156 16.488281 7.460938 C 16.464844 7.808594 16.429688 8.160156 16.425781 8.507812 C 16.421875 8.902344 16.414062 9.296875 16.402344 9.691406 C 16.398438 9.824219 16.507812 9.9375 16.636719 9.953125 C 16.757812 9.96875 16.910156 9.890625 16.933594 9.761719 Z M 16.933594 9.761719 " fill-opacity="1" fill-rule="nonzero"/><path fill="#c40008" d="M 30.480469 6.492188 C 30.492188 6.503906 30.503906 6.519531 30.515625 6.535156 C 30.5 6.515625 30.484375 6.496094 30.46875 6.476562 C 30.488281 6.5 30.503906 6.527344 30.527344 6.546875 C 30.546875 6.566406 30.574219 6.585938 30.601562 6.601562 C 30.617188 6.613281 30.632812 6.628906 30.648438 6.636719 C 30.679688 6.65625 30.71875 6.671875 30.753906 6.691406 C 30.828125 6.730469 30.898438 6.773438 30.960938 6.820312 C 30.9375 6.804688 30.914062 6.785156 30.890625 6.765625 C 30.953125 6.8125 31.011719 6.863281 31.074219 6.910156 C 31.046875 6.890625 31.023438 6.871094 31 6.855469 C 31.089844 6.925781 31.171875 7.003906 31.242188 7.09375 C 31.226562 7.070312 31.207031 7.046875 31.1875 7.023438 C 31.285156 7.144531 31.363281 7.277344 31.425781 7.417969 C 31.414062 7.394531 31.40625 7.367188 31.394531 7.34375 C 31.484375 7.5625 31.535156 7.792969 31.570312 8.027344 C 31.566406 8.003906 31.5625 7.976562 31.558594 7.953125 C 31.574219 8.0625 31.578125 8.167969 31.597656 8.277344 C 31.613281 8.359375 31.628906 8.445312 31.640625 8.527344 C 31.648438 8.574219 31.6875 8.617188 31.71875 8.640625 C 31.757812 8.671875 31.804688 8.691406 31.855469 8.6875 C 31.894531 8.6875 31.933594 8.675781 31.96875 8.660156 C 32.007812 8.636719 32.0625 8.578125 32.070312 8.527344 C 32.085938 8.421875 32.105469 8.316406 32.113281 8.207031 C 32.125 8.113281 32.121094 8.019531 32.121094 7.929688 C 32.117188 7.726562 32.101562 7.523438 32.0625 7.324219 C 32.027344 7.128906 31.957031 6.933594 31.859375 6.757812 C 31.804688 6.65625 31.726562 6.566406 31.648438 6.480469 C 31.570312 6.394531 31.476562 6.3125 31.375 6.253906 C 31.265625 6.1875 31.144531 6.136719 31.023438 6.09375 C 30.882812 6.042969 30.734375 6.023438 30.589844 6.082031 C 30.507812 6.113281 30.441406 6.164062 30.414062 6.25 C 30.390625 6.34375 30.421875 6.421875 30.480469 6.492188 Z M 30.480469 6.492188 " fill-opacity="1" fill-rule="nonzero"/><g clip-path="url(#658b5be64d)"><path fill="#000000" d="M 35.605469 20.511719 C 35.667969 20.503906 35.726562 20.480469 35.78125 20.449219 C 35.871094 20.394531 35.9375 20.316406 35.980469 20.222656 C 36.011719 20.148438 36.019531 20.066406 36.027344 19.988281 C 36.039062 19.765625 36.050781 19.546875 36.039062 19.324219 C 36.019531 18.882812 35.972656 18.4375 35.925781 17.996094 C 35.828125 17.113281 35.738281 16.226562 35.667969 15.335938 C 35.597656 14.449219 35.53125 13.558594 35.484375 12.671875 C 35.433594 11.777344 35.398438 10.882812 35.378906 9.988281 C 35.359375 9.101562 35.355469 8.210938 35.363281 7.320312 C 35.367188 7.214844 35.367188 7.109375 35.371094 7 C 35.371094 6.949219 35.375 6.894531 35.371094 6.839844 C 35.371094 6.765625 35.351562 6.6875 35.335938 6.613281 C 35.3125 6.488281 35.164062 6.382812 35.035156 6.386719 C 34.898438 6.394531 34.769531 6.476562 34.734375 6.613281 C 34.667969 6.847656 34.667969 7.09375 34.652344 7.335938 C 34.640625 7.558594 34.625 7.777344 34.613281 8 C 34.589844 8.445312 34.570312 8.890625 34.550781 9.335938 C 34.515625 10.230469 34.5 11.125 34.492188 12.019531 C 34.488281 12.90625 34.492188 13.796875 34.527344 14.683594 C 34.558594 15.574219 34.609375 16.460938 34.671875 17.347656 C 34.703125 17.789062 34.742188 18.234375 34.789062 18.675781 C 34.820312 18.9375 34.851562 19.203125 34.898438 19.464844 C 34.9375 19.683594 34.996094 19.890625 35.0625 20.101562 C 35.074219 20.144531 35.089844 20.179688 35.109375 20.222656 C 35.15625 20.335938 35.242188 20.421875 35.359375 20.46875 C 35.441406 20.503906 35.515625 20.523438 35.605469 20.511719 Z M 35.605469 20.511719 " fill-opacity="1" fill-rule="nonzero"/></g><g clip-path="url(#daebab4f71)"><path fill="#000000" d="M 36.4375 22.117188 C 36.4375 22.027344 36.414062 21.949219 36.371094 21.871094 C 36.328125 21.800781 36.269531 21.742188 36.195312 21.699219 C 36.191406 21.699219 36.191406 21.695312 36.1875 21.695312 C 36.167969 21.683594 36.085938 21.648438 36.0625 21.644531 C 36.058594 21.644531 36.058594 21.640625 36.054688 21.640625 C 36.011719 21.636719 35.964844 21.628906 35.921875 21.625 C 35.921875 21.625 35.917969 21.625 35.914062 21.625 C 35.859375 21.621094 35.804688 21.628906 35.753906 21.644531 C 35.726562 21.65625 35.65625 21.679688 35.613281 21.703125 C 35.59375 21.71875 35.578125 21.730469 35.558594 21.746094 C 35.539062 21.757812 35.523438 21.773438 35.503906 21.789062 C 35.488281 21.804688 35.476562 21.824219 35.460938 21.84375 C 35.445312 21.859375 35.433594 21.878906 35.417969 21.898438 C 35.386719 21.945312 35.363281 22.003906 35.347656 22.054688 C 35.34375 22.0625 35.339844 22.070312 35.339844 22.074219 C 35.339844 22.078125 35.339844 22.082031 35.335938 22.085938 C 35.335938 22.09375 35.335938 22.101562 35.332031 22.105469 C 35.320312 22.140625 35.308594 22.175781 35.296875 22.210938 C 35.253906 22.347656 35.265625 22.503906 35.300781 22.640625 C 35.3125 22.691406 35.335938 22.734375 35.371094 22.773438 C 35.402344 22.816406 35.4375 22.847656 35.484375 22.871094 C 35.515625 22.886719 35.546875 22.898438 35.578125 22.910156 C 35.648438 22.929688 35.71875 22.929688 35.789062 22.910156 C 35.835938 22.894531 35.886719 22.878906 35.933594 22.851562 C 35.96875 22.851562 36.003906 22.84375 36.039062 22.835938 C 36.132812 22.8125 36.210938 22.765625 36.277344 22.699219 C 36.34375 22.632812 36.390625 22.554688 36.414062 22.46875 C 36.4375 22.386719 36.441406 22.304688 36.425781 22.226562 C 36.433594 22.1875 36.4375 22.152344 36.4375 22.117188 Z M 36.4375 22.117188 " fill-opacity="1" fill-rule="nonzero"/></g></svg>