<svg xmlns="http://www.w3.org/2000/svg" xmlns:xlink="http://www.w3.org/1999/xlink" width="50" zoomAndPan="magnify" viewBox="0 0 37.5 37.499999" height="50" preserveAspectRatio="xMidYMid meet" version="1.0"><defs><clipPath id="3234fc1a45"><path d="M 6 2.269531 L 16 2.269531 L 16 18 L 6 18 Z M 6 2.269531 " clip-rule="nonzero"/></clipPath><clipPath id="825ce3dd15"><path d="M 0.566406 10 L 7 10 L 7 26 L 0.566406 26 Z M 0.566406 10 " clip-rule="nonzero"/></clipPath><clipPath id="8200b4c854"><path d="M 17 2.269531 L 25 2.269531 L 25 16 L 17 16 Z M 17 2.269531 " clip-rule="nonzero"/></clipPath><clipPath id="b51a07996c"><path d="M 30 24 L 36.566406 24 L 36.566406 26 L 30 26 Z M 30 24 " clip-rule="nonzero"/></clipPath><clipPath id="d28e02325e"><path d="M 0.566406 26 L 7 26 L 7 29 L 0.566406 29 Z M 0.566406 26 " clip-rule="nonzero"/></clipPath><clipPath id="2b53687db6"><path d="M 6 31 L 9 31 L 9 35.269531 L 6 35.269531 Z M 6 31 " clip-rule="nonzero"/></clipPath><clipPath id="81a9854503"><path d="M 23 2.269531 L 26 2.269531 L 26 6 L 23 6 Z M 23 2.269531 " clip-rule="nonzero"/></clipPath></defs><path fill="#c40008" d="M 19.753906 31.234375 C 20.730469 28.929688 20.527344 26.296875 21.132812 23.871094 C 21.398438 22.808594 21.867188 21.726562 22.777344 21.132812 C 23.691406 20.535156 25.117188 20.683594 25.613281 21.660156 C 25.832031 22.085938 25.835938 22.609375 25.726562 23.074219 C 25.449219 24.210938 24.445312 25.128906 23.292969 25.289062 C 23.445312 26.195312 23.789062 27.078125 24.285156 27.847656 C 24.550781 28.261719 24.875 28.65625 25.316406 28.867188 C 25.757812 29.082031 26.332031 29.070312 26.683594 28.730469 C 27.09375 28.335938 27.074219 27.679688 27.144531 27.105469 C 27.21875 26.535156 27.585938 25.863281 28.148438 25.929688 C 28.53125 25.976562 28.804688 26.371094 28.824219 26.757812 C 28.84375 27.144531 28.679688 27.519531 28.484375 27.851562 C 28.222656 28.3125 27.890625 28.75 27.460938 29.054688 C 26.332031 29.859375 24.695312 29.570312 23.625 28.6875 C 22.554688 27.804688 21.964844 26.457031 21.617188 25.105469 C 21.359375 26.878906 21.070312 28.636719 20.738281 30.390625 C 20.671875 30.757812 20.597656 31.132812 20.402344 31.453125 C 20.210938 31.773438 19.867188 32.027344 19.496094 32.003906 C 18.996094 31.96875 18.652344 31.476562 18.453125 31 C 17.324219 28.339844 18.082031 25.128906 16.855469 22.507812 C 16.886719 25.148438 16.234375 27.792969 14.976562 30.105469 C 14.59375 30.8125 14.132812 31.515625 13.460938 31.949219 C 12.402344 32.625 10.890625 32.464844 9.992188 31.574219 C 9.390625 30.980469 9.085938 30.144531 8.90625 29.308594 C 8.570312 27.753906 8.625 26.117188 9.054688 24.585938 C 9.207031 24.058594 9.410156 23.515625 9.800781 23.136719 C 10.402344 22.546875 11.359375 22.449219 12.15625 22.714844 C 12.363281 22.78125 12.71875 23.101562 12.660156 23.355469 C 12.539062 23.890625 12.097656 23.230469 11.847656 23.230469 C 11.300781 23.230469 11.054688 23.824219 10.914062 24.265625 C 10.445312 25.75 10.367188 27.351562 10.632812 28.890625 C 10.789062 29.8125 11.082031 30.738281 11.695312 31.441406 C 11.792969 31.554688 11.914062 31.667969 12.058594 31.6875 C 12.175781 31.707031 12.296875 31.667969 12.402344 31.613281 C 13.023438 31.328125 13.445312 30.726562 13.789062 30.132812 C 15.203125 27.691406 15.808594 24.785156 15.511719 21.980469 C 15.492188 21.800781 15.46875 21.613281 15.367188 21.464844 C 15.230469 21.273438 14.992188 21.183594 14.78125 21.085938 C 13.378906 20.410156 13.511719 18.160156 15.277344 19.085938 C 15.710938 19.3125 16.023438 19.734375 16.226562 20.191406 C 16.339844 20.449219 16.425781 20.730469 16.582031 20.972656 C 16.761719 21.230469 17.011719 21.433594 17.242188 21.644531 C 18.453125 22.800781 18.855469 24.566406 19.015625 26.238281 C 19.171875 27.941406 19.152344 29.671875 19.753906 31.234375 Z M 23.253906 25.007812 C 23.472656 25.054688 23.625 24.960938 23.777344 24.878906 C 24.535156 24.464844 25.019531 23.53125 24.914062 22.660156 C 24.859375 22.242188 24.714844 21.859375 24.390625 21.574219 C 24.1875 21.390625 24.113281 21.386719 23.941406 21.605469 C 23.824219 21.757812 23.71875 21.925781 23.644531 22.105469 C 23.53125 22.402344 23.445312 22.703125 23.375 23.007812 C 23.222656 23.652344 23.167969 24.3125 23.253906 25.007812 Z M 23.253906 25.007812 " fill-opacity="1" fill-rule="nonzero"/><g clip-path="url(#3234fc1a45)"><path fill="#000000" d="M 12.746094 7.441406 C 12.796875 7.359375 12.84375 7.300781 12.871094 7.234375 C 12.984375 6.960938 13.09375 6.679688 13.195312 6.398438 C 13.433594 5.738281 13.40625 5.082031 13.203125 4.421875 C 13.09375 4.085938 13.023438 3.738281 12.957031 3.398438 C 12.902344 3.097656 13.003906 2.957031 13.28125 2.863281 C 13.628906 2.75 13.988281 2.765625 14.335938 2.890625 C 14.59375 2.984375 14.742188 3.191406 14.832031 3.4375 C 15.144531 4.289062 15.144531 5.136719 14.839844 5.976562 C 14.527344 6.832031 14.101562 7.628906 13.5 8.324219 C 13.464844 8.363281 13.433594 8.402344 13.40625 8.445312 C 13.417969 8.484375 13.425781 8.515625 13.4375 8.542969 C 14.179688 9.847656 14.484375 11.28125 14.675781 12.753906 C 14.820312 13.882812 14.753906 14.992188 14.34375 16.066406 C 14.25 16.3125 14.132812 16.554688 14 16.789062 C 13.683594 17.335938 13.1875 17.609375 12.566406 17.65625 C 11.855469 17.710938 11.207031 17.523438 10.636719 17.074219 C 10.109375 16.660156 9.699219 16.152344 9.402344 15.550781 C 8.816406 14.351562 8.492188 13.074219 8.359375 11.746094 C 8.308594 11.175781 8.28125 10.613281 8.394531 10.054688 C 8.433594 9.847656 8.5 9.640625 8.550781 9.414062 C 8.445312 9.351562 8.339844 9.292969 8.226562 9.230469 C 7.554688 8.863281 7.085938 8.328125 6.917969 7.554688 C 6.703125 6.550781 7.164062 5.722656 8.136719 5.445312 C 9.21875 5.136719 10.25 5.277344 11.191406 5.90625 C 11.6875 6.238281 12.113281 6.652344 12.488281 7.121094 C 12.574219 7.222656 12.652344 7.320312 12.746094 7.441406 Z M 9.496094 9.679688 C 9.503906 9.78125 9.503906 9.828125 9.507812 9.867188 C 9.726562 11.382812 10.101562 12.851562 10.636719 14.28125 C 10.851562 14.835938 11.09375 15.386719 11.359375 15.914062 C 11.554688 16.308594 11.835938 16.640625 12.183594 16.914062 C 12.394531 17.082031 12.488281 17.097656 12.679688 16.902344 C 12.871094 16.695312 13.054688 16.46875 13.179688 16.214844 C 13.570312 15.40625 13.738281 14.535156 13.664062 13.636719 C 13.625 13.160156 13.566406 12.679688 13.480469 12.210938 C 13.308594 11.257812 13.070312 10.3125 12.648438 9.433594 C 12.601562 9.332031 12.539062 9.238281 12.476562 9.125 C 11.542969 9.691406 10.558594 9.851562 9.496094 9.679688 Z M 12.046875 8.382812 C 11.503906 7.542969 10.894531 6.8125 10.078125 6.292969 C 9.898438 6.179688 9.707031 6.089844 9.507812 6.019531 C 9.21875 5.910156 8.960938 5.992188 8.769531 6.230469 C 8.671875 6.351562 8.585938 6.5 8.539062 6.644531 C 8.347656 7.273438 8.484375 7.863281 8.875 8.363281 C 9.304688 8.910156 9.886719 9.21875 10.59375 9.117188 C 11.132812 9.039062 11.597656 8.746094 12.046875 8.382812 Z M 12.046875 8.382812 " fill-opacity="1" fill-rule="nonzero"/></g><g clip-path="url(#825ce3dd15)"><path fill="#000000" d="M 1.019531 14.007812 C 0.847656 13.960938 0.785156 13.789062 0.785156 13.601562 C 0.785156 13.386719 0.789062 13.175781 0.835938 12.96875 C 0.976562 12.304688 1.265625 11.722656 1.695312 11.203125 C 2.871094 9.773438 5.078125 10.011719 6.019531 11.4375 C 6.449219 12.078125 6.660156 12.800781 6.789062 13.554688 C 6.984375 14.757812 6.867188 15.941406 6.609375 17.117188 C 6.292969 18.558594 5.816406 19.949219 5.253906 21.3125 C 5.183594 21.484375 5.183594 21.625 5.25 21.792969 C 5.527344 22.574219 5.804688 23.363281 6.046875 24.152344 C 6.148438 24.464844 6.1875 24.800781 6.234375 25.128906 C 6.277344 25.46875 6.160156 25.640625 5.824219 25.6875 C 5.617188 25.722656 5.402344 25.703125 5.195312 25.675781 C 5.011719 25.648438 4.867188 25.535156 4.792969 25.347656 C 4.773438 25.300781 4.746094 25.253906 4.726562 25.199219 C 3.300781 21.894531 2.125 18.492188 1.191406 15.003906 C 1.113281 14.699219 1.085938 14.375 1.019531 14.007812 Z M 4.601562 20.050781 C 4.917969 19.101562 5.214844 18.179688 5.347656 17.214844 C 5.507812 16.082031 5.558594 14.945312 5.320312 13.808594 C 5.183594 13.140625 4.996094 12.484375 4.652344 11.882812 C 4.46875 11.570312 4.25 11.289062 3.953125 11.070312 C 3.816406 10.96875 3.683594 10.957031 3.542969 11.050781 C 3.347656 11.191406 3.140625 11.324219 2.964844 11.484375 C 2.429688 11.972656 2.078125 12.59375 1.792969 13.253906 C 1.726562 13.40625 1.675781 13.5625 1.609375 13.742188 C 1.886719 13.789062 2.019531 13.976562 2.117188 14.175781 C 2.324219 14.578125 2.527344 14.972656 2.699219 15.386719 C 3.300781 16.84375 3.886719 18.304688 4.480469 19.761719 C 4.523438 19.863281 4.5625 19.957031 4.601562 20.050781 Z M 4.601562 20.050781 " fill-opacity="1" fill-rule="nonzero"/></g><path fill="#000000" d="M 28.921875 11.917969 C 28.902344 12.003906 28.882812 12.078125 28.875 12.152344 C 28.769531 13.335938 28.703125 14.515625 28.882812 15.699219 C 29.046875 16.789062 29.542969 17.664062 30.480469 18.273438 C 30.957031 18.585938 31.414062 18.941406 31.875 19.273438 C 32.019531 19.375 32.160156 19.496094 32.140625 19.683594 C 32.113281 19.890625 31.90625 19.941406 31.734375 19.996094 C 31.308594 20.117188 30.871094 20.097656 30.453125 19.949219 C 29.449219 19.589844 28.527344 19.085938 27.71875 18.378906 C 26.882812 17.636719 26.519531 16.667969 26.484375 15.566406 C 26.4375 14.042969 26.617188 12.539062 26.933594 11.050781 C 27.164062 9.972656 27.417969 8.90625 27.804688 7.875 C 28.035156 7.253906 28.292969 6.644531 28.679688 6.105469 C 29.34375 5.144531 30.539062 4.714844 31.609375 5.082031 C 31.933594 5.195312 32.226562 5.410156 32.527344 5.578125 C 32.5625 5.597656 32.574219 5.636719 32.628906 5.722656 C 32.457031 5.738281 32.324219 5.769531 32.199219 5.75 C 31.90625 5.703125 31.617188 5.644531 31.332031 5.5625 C 31.136719 5.503906 30.984375 5.550781 30.835938 5.675781 C 30.558594 5.910156 30.375 6.207031 30.25 6.539062 C 30.039062 7.121094 29.8125 7.695312 29.65625 8.296875 C 29.4375 9.117188 29.273438 9.960938 29.085938 10.789062 C 29.066406 10.867188 29.074219 10.957031 29.066406 11.0625 C 29.273438 11.082031 29.457031 11.117188 29.640625 11.121094 C 30.660156 11.183594 31.648438 11.382812 32.59375 11.777344 C 32.785156 11.859375 32.984375 11.953125 33.148438 12.078125 C 33.375 12.246094 33.355469 12.453125 33.109375 12.578125 C 32.726562 12.78125 32.316406 12.800781 31.90625 12.691406 C 30.976562 12.453125 30.050781 12.207031 29.121094 11.957031 C 29.0625 11.929688 29 11.929688 28.921875 11.917969 Z M 28.921875 11.917969 " fill-opacity="1" fill-rule="nonzero"/><g clip-path="url(#8200b4c854)"><path fill="#000000" d="M 17.480469 7.074219 C 17.5 6.210938 17.515625 5.34375 17.542969 4.480469 C 17.554688 4.085938 17.585938 3.691406 17.613281 3.296875 C 17.632812 2.917969 17.824219 2.652344 18.175781 2.523438 C 18.378906 2.445312 18.597656 2.382812 18.816406 2.355469 C 19.601562 2.269531 20.375 2.324219 21.140625 2.523438 C 22.289062 2.824219 23.167969 3.5 23.769531 4.535156 C 24.296875 5.449219 24.589844 6.453125 24.707031 7.5 C 24.925781 9.445312 24.484375 11.25 23.539062 12.941406 C 23.078125 13.761719 22.421875 14.351562 21.570312 14.71875 C 20.871094 15.019531 20.148438 15.265625 19.382812 15.339844 C 19.140625 15.359375 18.882812 15.324219 18.632812 15.277344 C 18.460938 15.246094 18.289062 15.171875 18.253906 14.945312 C 18.246094 14.898438 18.160156 14.84375 18.101562 14.816406 C 17.9375 14.75 17.851562 14.628906 17.832031 14.457031 C 17.785156 13.988281 17.726562 13.519531 17.6875 13.054688 C 17.546875 11.070312 17.476562 9.070312 17.480469 7.074219 Z M 19.121094 14.421875 C 19.570312 14.277344 19.984375 14.15625 20.386719 14.003906 C 20.929688 13.808594 21.371094 13.460938 21.714844 13 C 22.890625 11.402344 23.503906 9.621094 23.433594 7.621094 C 23.394531 6.546875 23.121094 5.53125 22.5625 4.609375 C 21.835938 3.417969 20.777344 2.824219 19.371094 2.925781 C 19.035156 2.953125 18.902344 3.050781 18.84375 3.398438 C 18.800781 3.640625 18.78125 3.886719 18.789062 4.132812 C 18.835938 5.46875 18.875 6.800781 18.949219 8.136719 C 19.058594 10.175781 19.171875 12.210938 19.105469 14.25 C 19.105469 14.296875 19.113281 14.335938 19.121094 14.421875 Z M 19.121094 14.421875 " fill-opacity="1" fill-rule="nonzero"/></g><path fill="#c40008" d="M 23.425781 16.414062 C 23.335938 16.5625 23.269531 16.65625 23.207031 16.753906 C 22.824219 17.410156 22.449219 18.066406 22.066406 18.714844 C 21.78125 19.199219 21.472656 19.675781 21.074219 20.082031 C 20.917969 20.242188 20.746094 20.335938 20.488281 20.222656 C 20.519531 20.128906 20.546875 20.035156 20.585938 19.957031 C 21.082031 18.867188 21.578125 17.785156 22.074219 16.695312 C 22.199219 16.421875 22.34375 16.160156 22.476562 15.894531 C 22.832031 15.171875 24.105469 15.125 24.550781 15.652344 C 24.707031 15.839844 24.867188 16.027344 25 16.234375 C 25.441406 16.9375 25.804688 17.683594 26.09375 18.464844 C 26.128906 18.550781 26.15625 18.644531 26.179688 18.738281 C 26.261719 19.101562 26.121094 19.3125 25.757812 19.375 C 25.449219 19.429688 25.183594 19.394531 25 19.074219 C 24.5625 18.320312 24.105469 17.578125 23.65625 16.828125 C 23.578125 16.714844 23.519531 16.59375 23.425781 16.414062 Z M 23.425781 16.414062 " fill-opacity="1" fill-rule="nonzero"/><path fill="#c40008" d="M 30.21875 23.238281 C 30.976562 22.96875 31.628906 22.429688 32.296875 21.980469 C 32.632812 21.746094 32.976562 21.519531 33.308594 21.277344 C 33.636719 21.039062 34.042969 20.8125 34.3125 20.503906 C 34.597656 20.175781 34.246094 19.761719 33.875 19.929688 C 33.492188 20.097656 33.148438 20.429688 32.820312 20.675781 C 32.496094 20.917969 32.183594 21.164062 31.875 21.417969 C 31.246094 21.914062 30.546875 22.382812 30.066406 23.023438 C 29.980469 23.121094 30.105469 23.269531 30.21875 23.238281 Z M 30.21875 23.238281 " fill-opacity="1" fill-rule="nonzero"/><g clip-path="url(#b51a07996c)"><path fill="#c40008" d="M 30.859375 25.199219 C 31.234375 25.375 31.695312 25.359375 32.097656 25.382812 C 32.5625 25.402344 33.015625 25.40625 33.480469 25.414062 C 34.386719 25.441406 35.316406 25.496094 36.207031 25.339844 C 36.566406 25.28125 36.566406 24.679688 36.207031 24.621094 C 35.316406 24.464844 34.378906 24.527344 33.480469 24.546875 C 33.042969 24.558594 32.601562 24.566406 32.164062 24.578125 C 31.742188 24.59375 31.246094 24.578125 30.859375 24.757812 C 30.691406 24.839844 30.691406 25.128906 30.859375 25.199219 Z M 30.859375 25.199219 " fill-opacity="1" fill-rule="nonzero"/></g><g clip-path="url(#d28e02325e)"><path fill="#c40008" d="M 5.957031 27.03125 C 5.128906 26.945312 4.3125 27.011719 3.484375 27.066406 C 2.664062 27.117188 1.847656 27.152344 1.035156 27.292969 C 0.566406 27.371094 0.691406 28.113281 1.148438 28.113281 C 1.972656 28.113281 2.796875 28 3.617188 27.914062 C 4.429688 27.828125 5.234375 27.753906 6.027344 27.53125 C 6.3125 27.460938 6.226562 27.066406 5.957031 27.03125 Z M 5.957031 27.03125 " fill-opacity="1" fill-rule="nonzero"/></g><path fill="#c40008" d="M 6.390625 29.375 C 5.683594 29.699219 5.050781 30.105469 4.394531 30.519531 C 3.75 30.925781 3.09375 31.335938 2.46875 31.773438 C 1.972656 32.128906 2.421875 32.953125 2.949219 32.609375 C 3.617188 32.183594 4.25 31.707031 4.898438 31.246094 C 5.53125 30.785156 6.160156 30.34375 6.726562 29.804688 C 6.953125 29.578125 6.65625 29.261719 6.390625 29.375 Z M 6.390625 29.375 " fill-opacity="1" fill-rule="nonzero"/><g clip-path="url(#2b53687db6)"><path fill="#c40008" d="M 8.035156 31.640625 C 7.667969 32.050781 7.414062 32.511719 7.171875 33.003906 C 6.917969 33.511719 6.703125 34.007812 6.570312 34.5625 C 6.464844 34.996094 7.066406 35.269531 7.289062 34.867188 C 7.558594 34.394531 7.75 33.914062 7.957031 33.414062 C 8.15625 32.910156 8.359375 32.429688 8.457031 31.894531 C 8.511719 31.65625 8.222656 31.433594 8.035156 31.640625 Z M 8.035156 31.640625 " fill-opacity="1" fill-rule="nonzero"/></g><path fill="#c40008" d="M 30.277344 27.988281 C 30.785156 28.546875 31.472656 29.035156 32.113281 29.429688 C 32.542969 29.699219 32.90625 29.042969 32.503906 28.753906 C 31.886719 28.320312 31.179688 27.894531 30.472656 27.644531 C 30.269531 27.578125 30.152344 27.847656 30.277344 27.988281 Z M 30.277344 27.988281 " fill-opacity="1" fill-rule="nonzero"/><g clip-path="url(#81a9854503)"><path fill="#c40008" d="M 23.417969 2.691406 C 24.054688 3.597656 24.542969 4.542969 24.832031 5.617188 C 24.917969 5.9375 25.375 5.796875 25.316406 5.484375 C 25.109375 4.355469 24.550781 3.246094 23.71875 2.457031 C 23.566406 2.316406 23.289062 2.503906 23.417969 2.691406 Z M 23.417969 2.691406 " fill-opacity="1" fill-rule="nonzero"/></g></svg>