<svg xmlns="http://www.w3.org/2000/svg" version="1.1" xmlns:xlink="http://www.w3.org/1999/xlink" xmlns:svgjs="http://svgjs.com/svgjs" width="1440" height="2000" preserveAspectRatio="none" viewBox="0 0 1440 2000"><g mask="url(&quot;#SvgjsMask1001&quot;)" fill="none"><rect width="1440" height="2000" x="0" y="0" fill="rgba(169, 169, 169, 1)"></rect><path d="M0,562.479C140.968,589.14,287.627,712.183,413.763,643.827C537.748,576.636,510.044,387.827,563.261,257.233C613.639,133.606,746.42,27.22,718.202,-103.262C689.808,-234.555,513.375,-267.138,427.518,-370.446C338.923,-477.049,336.482,-658.378,209.906,-714.875C83.934,-771.102,-61.245,-696.321,-189.66,-645.922C-309.068,-599.058,-406.749,-520.806,-502.39,-435.323C-611.283,-337.995,-749.983,-254.559,-785.909,-112.997C-822.687,31.925,-782.776,196.859,-693.207,316.577C-608.805,429.388,-456.864,457.179,-324.081,504.281C-218.503,541.733,-110.073,541.661,0,562.479" fill="#7f7f7f"></path><path d="M1440 2697.939C1604.943 2704.581 1770.541 2815.399 1922.342 2750.538 2077.658 2684.175 2153.208 2511.237 2229.559 2360.579 2308.621 2204.572 2402.737 2038.115 2370.505 1866.214 2338.5789999999997 1695.945 2194.385 1572.4569999999999 2061.048 1461.859 1943.365 1364.245 1803.8609999999999 1301.229 1653.83 1271.76 1513.469 1244.191 1376.244 1281.73 1234.306 1299.472 1062.337 1320.9679999999998 873.143 1285.693 732.479 1386.9299999999998 581.657 1495.478 476.145 1673.844 457.278 1858.706 438.64700000000005 2041.258 536.195 2212.537 632.261 2368.882 719.61 2511.041 827.475 2649.7219999999998 981.995 2712.67 1126.379 2771.489 1284.221 2691.666 1440 2697.939" fill="#d3d3d3"></path></g><defs><mask id="SvgjsMask1001"><rect width="1440" height="2000" fill="#ffffff"></rect></mask></defs></svg>