<svg xmlns="http://www.w3.org/2000/svg" xmlns:xlink="http://www.w3.org/1999/xlink" width="50" zoomAndPan="magnify" viewBox="0 0 37.5 37.499999" height="50" preserveAspectRatio="xMidYMid meet" version="1.0"><defs><clipPath id="367dae9ea2"><path d="M 3 4.371094 L 14 4.371094 L 14 21 L 3 21 Z M 3 4.371094 " clip-rule="nonzero"/></clipPath><clipPath id="39169ea9f9"><path d="M 13 4.371094 L 18 4.371094 L 18 9 L 13 9 Z M 13 4.371094 " clip-rule="nonzero"/></clipPath><clipPath id="746f94ca1c"><path d="M 0.480469 22 L 2 22 L 2 29 L 0.480469 29 Z M 0.480469 22 " clip-rule="nonzero"/></clipPath><clipPath id="2c43d9bdc1"><path d="M 34 14 L 37.007812 14 L 37.007812 16 L 34 16 Z M 34 14 " clip-rule="nonzero"/></clipPath></defs><path fill="#c40008" d="M 25.058594 19.523438 C 25.152344 19.578125 25.214844 19.613281 25.28125 19.648438 C 25.855469 19.964844 26.296875 20.402344 26.546875 21.011719 C 26.847656 21.75 27.035156 22.507812 27.03125 23.308594 C 27.03125 24.011719 26.839844 24.65625 26.464844 25.246094 C 25.996094 25.988281 25.308594 26.40625 24.441406 26.542969 C 24.007812 26.613281 23.578125 26.605469 23.152344 26.515625 C 22.277344 26.332031 21.636719 25.816406 21.136719 25.117188 C 20.785156 24.625 20.546875 24.074219 20.363281 23.503906 C 20.28125 23.25 20.222656 22.992188 20.15625 22.734375 C 20.132812 22.640625 20.109375 22.550781 20.078125 22.421875 C 20.03125 22.496094 20 22.539062 19.976562 22.585938 C 19.65625 23.222656 19.339844 23.867188 19.011719 24.5 C 18.929688 24.660156 18.921875 24.785156 18.996094 24.949219 C 19.191406 25.386719 19.378906 25.828125 19.550781 26.277344 C 19.714844 26.703125 19.824219 27.152344 19.871094 27.609375 C 19.910156 27.972656 19.886719 28.332031 19.746094 28.675781 C 19.585938 29.070312 19.3125 29.355469 18.910156 29.519531 C 18.671875 29.613281 18.429688 29.640625 18.179688 29.605469 C 17.871094 29.5625 17.636719 29.402344 17.46875 29.148438 C 17.28125 28.863281 17.199219 28.546875 17.179688 28.210938 C 17.15625 27.78125 17.226562 27.363281 17.34375 26.949219 C 17.488281 26.425781 17.667969 25.914062 17.890625 25.414062 C 17.953125 25.265625 17.964844 25.140625 17.890625 24.992188 C 17.382812 23.992188 16.882812 22.988281 16.382812 21.984375 C 16.363281 21.949219 16.335938 21.917969 16.300781 21.867188 C 16.261719 21.898438 16.222656 21.917969 16.203125 21.949219 C 15.613281 22.871094 14.890625 23.691406 14.195312 24.535156 C 13.898438 24.898438 13.613281 25.273438 13.324219 25.648438 C 13.210938 25.800781 13.109375 25.964844 12.992188 26.132812 C 13.039062 26.234375 13.078125 26.332031 13.125 26.425781 C 13.351562 26.898438 13.554688 27.378906 13.722656 27.875 C 13.820312 28.15625 13.886719 28.445312 13.898438 28.75 C 13.917969 29.226562 13.691406 29.566406 13.277344 29.789062 C 12.902344 29.988281 12.5 30.035156 12.085938 29.925781 C 11.78125 29.84375 11.578125 29.652344 11.472656 29.363281 C 11.367188 29.085938 11.34375 28.804688 11.378906 28.511719 C 11.464844 27.851562 11.671875 27.226562 11.945312 26.621094 C 11.984375 26.535156 12.027344 26.449219 12.074219 26.351562 C 11.714844 25.574219 11.296875 24.832031 10.875 24.054688 C 10.820312 24.121094 10.78125 24.164062 10.753906 24.210938 C 10.550781 24.550781 10.335938 24.882812 10.082031 25.1875 C 9.628906 25.730469 9.078125 26.152344 8.425781 26.441406 C 8.367188 26.464844 8.3125 26.496094 8.257812 26.519531 C 8.257812 26.703125 8.25 26.871094 8.257812 27.039062 C 8.308594 27.933594 8.167969 28.800781 7.847656 29.640625 C 7.679688 30.070312 7.460938 30.472656 7.167969 30.832031 C 7.027344 31.003906 6.863281 31.164062 6.691406 31.308594 C 4.855469 32.871094 3.253906 30.722656 2.59375 29.128906 C 1.632812 26.804688 1.832031 23.96875 3 21.75 C 3.105469 21.542969 3.242188 21.347656 3.382812 21.160156 C 3.523438 20.976562 3.71875 20.863281 3.957031 20.832031 C 4.019531 20.828125 4.085938 20.824219 4.152344 20.832031 C 4.347656 20.851562 4.371094 20.882812 4.40625 21.082031 C 4.332031 21.214844 4.261719 21.316406 4.214844 21.429688 C 3.992188 21.964844 3.855469 22.523438 3.777344 23.097656 C 3.585938 24.558594 3.480469 26.054688 3.730469 27.519531 C 3.921875 28.636719 4.332031 29.773438 4.980469 30.714844 C 5.085938 30.863281 5.207031 31.023438 5.382812 31.078125 C 5.710938 31.175781 6.023438 30.894531 6.222656 30.621094 C 6.972656 29.582031 7.335938 28.273438 7.222656 27.003906 C 7.214844 26.945312 7.207031 26.886719 7.167969 26.84375 C 7.121094 26.800781 7.046875 26.796875 6.980469 26.792969 C 6.285156 26.777344 5.574219 26.578125 5.054688 26.121094 C 4.4375 25.578125 3.964844 24.144531 5.042969 23.800781 C 5.371094 23.695312 5.707031 23.6875 6.035156 23.757812 C 6.988281 23.964844 7.675781 24.488281 7.996094 25.425781 C 8.054688 25.597656 8.101562 25.773438 8.160156 25.964844 C 8.210938 25.949219 8.261719 25.945312 8.304688 25.921875 C 8.605469 25.75 8.867188 25.53125 9.105469 25.28125 C 9.632812 24.734375 10.015625 24.09375 10.324219 23.40625 C 10.390625 23.253906 10.378906 23.128906 10.304688 22.984375 C 10.191406 22.777344 10.09375 22.5625 10 22.351562 C 9.933594 22.191406 9.894531 22.027344 9.898438 21.851562 C 9.902344 21.695312 9.972656 21.59375 10.121094 21.539062 C 10.449219 21.414062 10.808594 21.507812 11.027344 21.777344 C 11.171875 21.957031 11.261719 22.160156 11.285156 22.390625 C 11.296875 22.503906 11.3125 22.625 11.292969 22.738281 C 11.246094 22.976562 11.320312 23.171875 11.4375 23.371094 C 11.804688 24 12.164062 24.632812 12.523438 25.261719 C 12.550781 25.308594 12.582031 25.347656 12.621094 25.410156 C 12.667969 25.363281 12.710938 25.332031 12.742188 25.292969 C 13.214844 24.671875 13.683594 24.046875 14.160156 23.429688 C 14.703125 22.722656 15.1875 21.980469 15.609375 21.199219 C 15.664062 21.097656 15.710938 20.988281 15.769531 20.871094 C 15.71875 20.769531 15.671875 20.664062 15.613281 20.558594 C 15.339844 20.042969 15.109375 19.5 14.933594 18.941406 C 14.832031 18.613281 14.757812 18.28125 14.769531 17.9375 C 14.773438 17.71875 14.820312 17.515625 14.929688 17.324219 C 15.042969 17.117188 15.214844 16.976562 15.445312 16.914062 C 16.054688 16.75 16.738281 16.863281 17.148438 17.550781 C 17.40625 17.988281 17.511719 18.460938 17.476562 18.960938 C 17.453125 19.292969 17.382812 19.617188 17.253906 19.925781 C 17.132812 20.21875 17.003906 20.511719 16.867188 20.835938 C 17 21.074219 17.148438 21.332031 17.292969 21.59375 C 17.4375 21.855469 17.582031 22.117188 17.722656 22.378906 C 17.863281 22.644531 17.992188 22.914062 18.132812 23.175781 C 18.273438 23.4375 18.375 23.71875 18.566406 23.984375 C 18.632812 23.871094 18.6875 23.78125 18.738281 23.691406 C 18.953125 23.308594 19.164062 22.925781 19.378906 22.542969 C 19.417969 22.480469 19.460938 22.417969 19.5 22.355469 C 19.589844 22.203125 19.71875 22.125 19.898438 22.140625 C 19.933594 22.144531 19.964844 22.136719 20.015625 22.132812 C 20.019531 22.074219 20.027344 22.011719 20.03125 21.953125 C 20.03125 21.910156 20.027344 21.867188 20.023438 21.824219 C 19.929688 20.777344 20.238281 19.824219 20.742188 18.921875 C 20.855469 18.71875 21.015625 18.542969 21.171875 18.363281 C 21.273438 18.242188 21.414062 18.144531 21.574219 18.105469 C 21.695312 18.074219 21.828125 18.054688 21.953125 18.066406 C 22.195312 18.085938 22.246094 18.1875 22.144531 18.410156 C 21.929688 18.863281 21.757812 19.332031 21.625 19.816406 C 21.421875 20.558594 21.363281 21.300781 21.511719 22.058594 C 21.664062 22.847656 21.882812 23.613281 22.238281 24.335938 C 22.46875 24.800781 22.75 25.230469 23.148438 25.570312 C 23.292969 25.691406 23.457031 25.800781 23.621094 25.898438 C 23.808594 26.011719 24.011719 26.011719 24.21875 25.949219 C 24.480469 25.875 24.714844 25.742188 24.917969 25.5625 C 25.449219 25.105469 25.765625 24.523438 25.929688 23.851562 C 26.03125 23.421875 26.03125 22.984375 25.984375 22.550781 C 25.933594 22.082031 25.828125 21.628906 25.671875 21.183594 C 25.507812 20.71875 25.253906 20.320312 24.847656 20.023438 C 24.796875 19.988281 24.742188 19.960938 24.679688 19.921875 C 24.589844 20 24.511719 20.074219 24.425781 20.136719 C 24.289062 20.238281 24.152344 20.339844 24.003906 20.429688 C 23.816406 20.546875 23.601562 20.570312 23.378906 20.542969 C 23.046875 20.5 22.921875 20.273438 23.0625 19.96875 C 23.203125 19.652344 23.449219 19.457031 23.792969 19.398438 C 23.980469 19.367188 24.175781 19.363281 24.410156 19.34375 C 24.488281 19.308594 24.546875 19.199219 24.617188 19.109375 C 24.886719 18.777344 25.148438 18.4375 25.414062 18.105469 C 25.835938 17.574219 26.28125 17.070312 26.765625 16.597656 C 27.03125 16.34375 27.308594 16.109375 27.613281 15.90625 C 28.550781 15.265625 29.589844 15.023438 30.71875 15.132812 C 31.039062 15.164062 31.359375 15.214844 31.671875 15.300781 C 32.355469 15.484375 32.949219 15.824219 33.425781 16.339844 C 34.074219 17.039062 34.5 17.851562 34.640625 18.800781 C 34.664062 18.957031 34.671875 19.117188 34.664062 19.277344 C 34.652344 19.554688 34.621094 19.828125 34.589844 20.105469 C 34.578125 20.199219 34.550781 20.292969 34.523438 20.382812 C 34.421875 20.691406 34.210938 20.886719 33.894531 20.976562 C 33.566406 21.066406 33.234375 21.070312 32.90625 20.976562 C 32.824219 20.953125 32.742188 20.914062 32.667969 20.875 C 32.503906 20.78125 32.414062 20.640625 32.417969 20.457031 C 32.417969 20.328125 32.4375 20.199219 32.46875 20.078125 C 32.515625 19.914062 32.578125 19.753906 32.640625 19.597656 C 32.804688 19.191406 32.859375 18.773438 32.800781 18.34375 C 32.695312 17.539062 32.386719 16.828125 31.800781 16.246094 C 31.460938 15.90625 31.046875 15.71875 30.578125 15.625 C 29.988281 15.507812 29.421875 15.59375 28.875 15.84375 C 28.402344 16.0625 27.972656 16.34375 27.585938 16.6875 C 27.425781 16.832031 27.269531 16.980469 27.117188 17.132812 C 26.382812 17.867188 25.75 18.691406 25.058594 19.523438 Z M 18.3125 29.289062 C 18.523438 29.1875 18.640625 29.011719 18.71875 28.808594 C 18.820312 28.558594 18.847656 28.292969 18.832031 28.023438 C 18.796875 27.359375 18.609375 26.726562 18.359375 26.109375 C 18.347656 26.085938 18.324219 26.066406 18.289062 26.019531 C 18.25 26.089844 18.214844 26.140625 18.191406 26.195312 C 18.089844 26.464844 17.980469 26.734375 17.898438 27.007812 C 17.824219 27.25 17.765625 27.5 17.722656 27.753906 C 17.660156 28.152344 17.699219 28.539062 17.902344 28.898438 C 18 29.070312 18.113281 29.21875 18.3125 29.289062 Z M 5.628906 24.191406 C 5.511719 24.28125 5.46875 24.410156 5.441406 24.546875 C 5.394531 24.773438 5.410156 24.996094 5.484375 25.210938 C 5.667969 25.761719 6.058594 26.125 6.597656 26.332031 C 6.777344 26.402344 6.96875 26.4375 7.167969 26.335938 C 7.144531 25.941406 7.042969 25.578125 6.886719 25.226562 C 6.707031 24.808594 6.398438 24.503906 5.996094 24.292969 C 5.882812 24.234375 5.769531 24.167969 5.628906 24.191406 Z M 12.441406 27.25 C 12.410156 27.292969 12.386719 27.316406 12.378906 27.339844 C 12.242188 27.691406 12.132812 28.046875 12.078125 28.414062 C 12.050781 28.601562 12.050781 28.796875 12.058594 28.984375 C 12.066406 29.15625 12.125 29.320312 12.226562 29.460938 C 12.363281 29.652344 12.484375 29.667969 12.652344 29.515625 C 12.804688 29.382812 12.910156 29.21875 12.910156 29.019531 C 12.914062 28.820312 12.914062 28.609375 12.863281 28.421875 C 12.769531 28.0625 12.636719 27.710938 12.515625 27.359375 C 12.503906 27.324219 12.472656 27.296875 12.441406 27.25 Z M 15.953125 17.492188 C 15.929688 17.511719 15.898438 17.527344 15.886719 17.550781 C 15.804688 17.730469 15.789062 17.921875 15.804688 18.113281 C 15.839844 18.617188 16.003906 19.085938 16.21875 19.539062 C 16.222656 19.550781 16.238281 19.550781 16.246094 19.558594 C 16.542969 19.027344 16.394531 17.984375 15.953125 17.492188 Z M 23.796875 19.914062 C 23.933594 19.871094 23.933594 19.871094 23.949219 19.75 C 23.886719 19.816406 23.84375 19.867188 23.796875 19.914062 Z M 23.796875 19.914062 " fill-opacity="1" fill-rule="nonzero"/><path fill="#000000" d="M 16.648438 10.382812 C 16.605469 10.425781 16.578125 10.445312 16.566406 10.46875 C 16.457031 10.699219 16.347656 10.929688 16.238281 11.167969 C 16.308594 11.253906 16.375 11.320312 16.429688 11.398438 C 16.503906 11.503906 16.578125 11.609375 16.636719 11.722656 C 16.6875 11.820312 16.632812 11.910156 16.527344 11.949219 C 16.421875 11.984375 16.3125 11.984375 16.210938 11.9375 C 16.132812 11.902344 16.0625 11.855469 15.96875 11.800781 C 15.929688 11.859375 15.882812 11.914062 15.851562 11.976562 C 15.554688 12.566406 15.265625 13.164062 14.964844 13.75 C 14.8125 14.042969 14.636719 14.324219 14.464844 14.609375 C 14.410156 14.699219 14.34375 14.785156 14.277344 14.871094 C 13.765625 15.53125 13.074219 15.730469 12.265625 15.605469 C 11.9375 15.554688 11.664062 15.386719 11.433594 15.144531 C 11.136719 14.832031 10.976562 14.449219 10.902344 14.035156 C 10.738281 13.113281 10.910156 12.234375 11.304688 11.394531 C 11.496094 10.992188 11.816406 10.710938 12.207031 10.511719 C 12.578125 10.320312 12.96875 10.214844 13.382812 10.179688 C 14.089844 10.121094 14.761719 10.238281 15.382812 10.585938 C 15.429688 10.613281 15.476562 10.636719 15.539062 10.667969 C 15.578125 10.621094 15.625 10.578125 15.652344 10.523438 C 16.015625 9.789062 16.375 9.050781 16.730469 8.308594 C 16.789062 8.183594 16.820312 8.046875 16.859375 7.914062 C 16.945312 7.628906 17.042969 7.554688 17.34375 7.554688 C 17.375 7.554688 17.410156 7.554688 17.441406 7.558594 C 17.695312 7.585938 17.757812 7.660156 17.746094 7.90625 C 17.730469 8.207031 17.714844 8.503906 17.703125 8.800781 C 17.65625 10.039062 17.863281 11.238281 18.25 12.414062 C 18.414062 12.910156 18.582031 13.40625 18.851562 13.855469 C 18.976562 14.066406 19.117188 14.273438 19.273438 14.457031 C 19.402344 14.613281 19.558594 14.753906 19.722656 14.871094 C 20.230469 15.222656 20.777344 15.273438 21.347656 15.007812 C 21.695312 14.847656 21.976562 14.601562 22.21875 14.3125 C 22.484375 13.996094 22.695312 13.652344 22.847656 13.273438 C 23.027344 12.828125 23.15625 12.367188 23.230469 11.890625 C 23.335938 11.226562 23.210938 10.601562 22.9375 9.992188 C 22.878906 9.859375 22.796875 9.730469 22.734375 9.59375 C 22.683594 9.480469 22.632812 9.359375 22.601562 9.238281 C 22.558594 9.066406 22.605469 8.972656 22.753906 8.890625 C 22.828125 8.851562 22.910156 8.816406 22.996094 8.800781 C 23.261719 8.742188 23.53125 8.742188 23.796875 8.804688 C 24.109375 8.878906 24.332031 9.078125 24.488281 9.347656 C 24.550781 9.457031 24.597656 9.578125 24.640625 9.699219 C 24.902344 10.417969 24.941406 11.152344 24.746094 11.894531 C 24.582031 12.515625 24.34375 13.109375 24.023438 13.667969 C 23.714844 14.203125 23.320312 14.664062 22.8125 15.027344 C 22.226562 15.445312 21.566406 15.648438 20.851562 15.683594 C 20.425781 15.707031 20.007812 15.667969 19.597656 15.558594 C 18.996094 15.398438 18.496094 15.085938 18.097656 14.609375 C 17.777344 14.226562 17.550781 13.792969 17.371094 13.335938 C 17.050781 12.507812 16.8125 11.65625 16.707031 10.773438 C 16.691406 10.648438 16.667969 10.527344 16.648438 10.382812 Z M 12.789062 15.066406 C 13.035156 14.941406 13.203125 14.777344 13.34375 14.585938 C 13.546875 14.300781 13.753906 14.011719 13.925781 13.707031 C 14.347656 12.964844 14.753906 12.210938 15.164062 11.460938 C 15.199219 11.398438 15.222656 11.328125 15.25 11.265625 C 15.230469 11.238281 15.226562 11.214844 15.210938 11.203125 C 14.875 10.964844 14.511719 10.777344 14.113281 10.667969 C 13.867188 10.601562 13.621094 10.613281 13.378906 10.699219 C 12.921875 10.859375 12.625 11.175781 12.460938 11.621094 C 12.21875 12.292969 12.117188 12.984375 12.199219 13.695312 C 12.226562 13.960938 12.285156 14.21875 12.382812 14.46875 C 12.46875 14.691406 12.597656 14.882812 12.789062 15.066406 Z M 12.789062 15.066406 " fill-opacity="1" fill-rule="nonzero"/><g clip-path="url(#367dae9ea2)"><path fill="#000000" d="M 9.023438 11.136719 C 9.046875 11.6875 9.066406 12.21875 9.09375 12.75 C 9.121094 13.238281 9.160156 13.726562 9.191406 14.214844 C 9.296875 15.976562 9.375 17.742188 9.277344 19.511719 C 9.265625 19.691406 9.257812 19.875 9.246094 20.054688 C 9.230469 20.257812 9.1875 20.3125 8.988281 20.363281 C 8.902344 20.386719 8.816406 20.398438 8.730469 20.402344 C 8.289062 20.414062 8.085938 20.246094 8.046875 19.816406 C 7.996094 19.210938 7.945312 18.605469 7.921875 18 C 7.867188 16.285156 7.878906 14.574219 7.925781 12.859375 C 7.933594 12.613281 7.960938 12.371094 7.976562 12.125 C 7.980469 12.054688 7.976562 11.980469 7.976562 11.878906 C 7.90625 11.910156 7.859375 11.929688 7.816406 11.957031 C 7.199219 12.386719 6.597656 12.835938 6.035156 13.335938 C 5.523438 13.785156 5.085938 14.292969 4.75 14.886719 C 4.589844 15.164062 4.464844 15.457031 4.390625 15.773438 C 4.289062 16.203125 4.351562 16.617188 4.484375 17.03125 C 4.519531 17.144531 4.613281 17.1875 4.722656 17.210938 C 4.691406 17.347656 4.605469 17.382812 4.507812 17.398438 C 4.207031 17.457031 3.917969 17.324219 3.746094 17.035156 C 3.558594 16.730469 3.453125 16.394531 3.445312 16.035156 C 3.433594 15.710938 3.5 15.402344 3.613281 15.097656 C 3.867188 14.417969 4.273438 13.832031 4.785156 13.320312 C 5.324219 12.777344 5.929688 12.308594 6.546875 11.863281 C 7.386719 11.261719 8.230469 10.667969 9.0625 10.0625 C 9.617188 9.65625 10.160156 9.230469 10.660156 8.757812 C 11.066406 8.375 11.453125 7.976562 11.75 7.5 C 12.007812 7.085938 12.183594 6.644531 12.21875 6.15625 C 12.230469 6.007812 12.21875 5.859375 12.214844 5.710938 C 12.207031 5.570312 12.1875 5.433594 12.183594 5.296875 C 12.179688 5.082031 12.246094 4.984375 12.445312 4.90625 C 12.515625 4.878906 12.585938 4.859375 12.660156 4.84375 C 12.910156 4.800781 13.15625 4.816406 13.398438 4.890625 C 13.710938 4.992188 13.871094 5.21875 13.847656 5.546875 C 13.816406 5.976562 13.699219 6.382812 13.523438 6.773438 C 13.257812 7.367188 12.878906 7.882812 12.433594 8.351562 C 11.980469 8.824219 11.492188 9.261719 10.972656 9.660156 C 10.394531 10.105469 9.808594 10.539062 9.222656 10.980469 C 9.164062 11.023438 9.105469 11.070312 9.023438 11.136719 Z M 9.023438 11.136719 " fill-opacity="1" fill-rule="nonzero"/></g><g clip-path="url(#39169ea9f9)"><path fill="#000000" d="M 13.496094 8.714844 C 13.546875 8.582031 13.65625 8.53125 13.75 8.460938 C 14.207031 8.113281 14.59375 7.703125 14.894531 7.214844 C 15.15625 6.792969 15.367188 6.351562 15.453125 5.859375 C 15.476562 5.714844 15.488281 5.566406 15.496094 5.417969 C 15.503906 5.300781 15.492188 5.183594 15.492188 5.066406 C 15.488281 4.660156 15.632812 4.496094 16.046875 4.414062 C 16.265625 4.371094 16.476562 4.390625 16.6875 4.445312 C 16.933594 4.511719 17.078125 4.671875 17.101562 4.921875 C 17.113281 5.046875 17.101562 5.175781 17.074219 5.300781 C 17.007812 5.636719 16.867188 5.945312 16.699219 6.246094 C 16.210938 7.144531 15.53125 7.875 14.65625 8.425781 C 14.4375 8.5625 14.203125 8.675781 13.953125 8.746094 C 13.839844 8.773438 13.71875 8.773438 13.601562 8.777344 C 13.570312 8.777344 13.535156 8.738281 13.496094 8.714844 Z M 13.496094 8.714844 " fill-opacity="1" fill-rule="nonzero"/></g><g clip-path="url(#746f94ca1c)"><path fill="#000000" d="M 1.589844 22.238281 C 1.519531 22.308594 1.445312 22.378906 1.390625 22.460938 C 1.339844 22.539062 1.289062 22.621094 1.242188 22.703125 C 1.136719 22.882812 1.050781 23.070312 0.972656 23.261719 C 0.832031 23.625 0.71875 23.988281 0.644531 24.367188 C 0.570312 24.757812 0.511719 25.160156 0.5 25.558594 C 0.484375 25.941406 0.5 26.324219 0.542969 26.707031 C 0.570312 26.949219 0.609375 27.1875 0.667969 27.421875 C 0.722656 27.652344 0.824219 27.863281 0.921875 28.078125 C 0.972656 28.1875 1.136719 28.242188 1.25 28.207031 C 1.363281 28.171875 1.476562 28.058594 1.460938 27.933594 C 1.441406 27.730469 1.4375 27.523438 1.40625 27.320312 C 1.402344 27.296875 1.398438 27.273438 1.398438 27.25 C 1.394531 27.234375 1.382812 27.164062 1.394531 27.226562 C 1.402344 27.292969 1.394531 27.222656 1.390625 27.207031 C 1.386719 27.183594 1.382812 27.160156 1.382812 27.136719 C 1.367188 27.015625 1.351562 26.894531 1.335938 26.769531 C 1.339844 26.804688 1.347656 26.839844 1.351562 26.875 C 1.269531 26.273438 1.257812 25.664062 1.296875 25.054688 C 1.304688 24.90625 1.320312 24.753906 1.335938 24.601562 C 1.339844 24.5625 1.34375 24.523438 1.351562 24.484375 C 1.351562 24.464844 1.363281 24.417969 1.347656 24.507812 C 1.351562 24.492188 1.351562 24.476562 1.355469 24.460938 C 1.367188 24.378906 1.378906 24.300781 1.390625 24.222656 C 1.445312 23.921875 1.492188 23.621094 1.566406 23.324219 C 1.605469 23.164062 1.640625 23 1.675781 22.835938 C 1.695312 22.75 1.722656 22.664062 1.738281 22.578125 C 1.753906 22.492188 1.757812 22.402344 1.765625 22.3125 C 1.773438 22.222656 1.648438 22.179688 1.589844 22.238281 Z M 1.589844 22.238281 " fill-opacity="1" fill-rule="nonzero"/></g><path fill="#c40008" d="M 28.660156 13.253906 C 28.605469 13.023438 28.550781 12.789062 28.476562 12.5625 C 28.402344 12.335938 28.328125 12.105469 28.246094 11.882812 C 28.164062 11.660156 28.085938 11.4375 28.003906 11.214844 C 27.925781 10.988281 27.824219 10.769531 27.734375 10.546875 C 27.625 10.277344 27.535156 9.992188 27.359375 9.761719 C 27.289062 9.667969 27.171875 9.597656 27.050781 9.636719 C 26.9375 9.671875 26.84375 9.773438 26.847656 9.898438 C 26.855469 10.027344 26.878906 10.171875 26.910156 10.300781 C 26.941406 10.414062 26.988281 10.527344 27.027344 10.640625 C 27.105469 10.867188 27.183594 11.09375 27.265625 11.320312 C 27.34375 11.546875 27.445312 11.769531 27.542969 11.992188 C 27.644531 12.230469 27.75 12.46875 27.863281 12.703125 C 27.925781 12.824219 27.984375 12.949219 28.054688 13.066406 C 28.125 13.183594 28.199219 13.300781 28.269531 13.417969 C 28.398438 13.621094 28.714844 13.488281 28.660156 13.253906 Z M 28.660156 13.253906 " fill-opacity="1" fill-rule="nonzero"/><path fill="#000000" d="M 30.828125 12.933594 C 30.898438 12.679688 30.984375 12.425781 31.023438 12.167969 C 31.066406 11.90625 31.105469 11.640625 31.144531 11.378906 C 31.222656 10.832031 31.285156 10.28125 31.3125 9.726562 C 31.320312 9.578125 31.304688 9.429688 31.296875 9.28125 C 31.289062 9.113281 31.277344 8.945312 31.253906 8.78125 C 31.238281 8.671875 31.101562 8.582031 30.996094 8.585938 C 30.875 8.589844 30.769531 8.664062 30.734375 8.78125 C 30.660156 9.027344 30.613281 9.28125 30.5625 9.535156 C 30.503906 9.816406 30.496094 10.113281 30.46875 10.402344 C 30.441406 10.664062 30.414062 10.925781 30.398438 11.1875 C 30.378906 11.449219 30.363281 11.714844 30.34375 11.980469 C 30.320312 12.277344 30.335938 12.574219 30.34375 12.867188 C 30.347656 12.992188 30.433594 13.09375 30.558594 13.109375 C 30.675781 13.125 30.796875 13.050781 30.828125 12.933594 Z M 30.828125 12.933594 " fill-opacity="1" fill-rule="nonzero"/><path fill="#c40008" d="M 31.058594 8.472656 C 31.132812 8.472656 31.132812 8.363281 31.058594 8.363281 C 30.988281 8.363281 30.988281 8.472656 31.058594 8.472656 Z M 31.058594 8.472656 " fill-opacity="1" fill-rule="nonzero"/><path fill="#c40008" d="M 32.933594 13.84375 C 33.007812 13.761719 33.082031 13.679688 33.15625 13.597656 C 33.246094 13.503906 33.324219 13.394531 33.402344 13.292969 C 33.4375 13.25 33.472656 13.203125 33.507812 13.160156 C 33.515625 13.148438 33.523438 13.136719 33.53125 13.128906 C 33.53125 13.128906 33.496094 13.171875 33.519531 13.144531 C 33.539062 13.121094 33.554688 13.097656 33.574219 13.074219 C 33.65625 12.96875 33.742188 12.863281 33.824219 12.757812 C 33.960938 12.578125 34.097656 12.394531 34.234375 12.214844 C 34.269531 12.171875 34.304688 12.128906 34.339844 12.082031 C 34.363281 12.050781 34.320312 12.105469 34.320312 12.105469 C 34.328125 12.097656 34.335938 12.085938 34.34375 12.074219 C 34.367188 12.046875 34.386719 12.019531 34.410156 11.992188 C 34.496094 11.886719 34.582031 11.785156 34.664062 11.675781 C 34.738281 11.574219 34.808594 11.46875 34.878906 11.367188 C 34.957031 11.261719 35.011719 11.148438 35.074219 11.03125 C 35.140625 10.90625 35.117188 10.753906 34.996094 10.664062 C 34.875 10.570312 34.730469 10.59375 34.617188 10.6875 C 34.527344 10.757812 34.433594 10.824219 34.359375 10.90625 C 34.285156 10.988281 34.207031 11.074219 34.132812 11.15625 C 33.96875 11.339844 33.824219 11.546875 33.675781 11.746094 C 33.40625 12.113281 33.144531 12.484375 32.90625 12.871094 C 32.839844 12.976562 32.765625 13.082031 32.710938 13.191406 C 32.652344 13.308594 32.597656 13.429688 32.542969 13.546875 C 32.492188 13.660156 32.503906 13.78125 32.609375 13.859375 C 32.699219 13.933594 32.847656 13.933594 32.933594 13.84375 Z M 32.933594 13.84375 " fill-opacity="1" fill-rule="nonzero"/><g clip-path="url(#2c43d9bdc1)"><path fill="#000000" d="M 35.285156 15.570312 C 35.359375 15.5625 35.425781 15.550781 35.496094 15.527344 C 35.566406 15.503906 35.632812 15.480469 35.703125 15.457031 C 35.839844 15.414062 35.980469 15.378906 36.121094 15.335938 C 36.253906 15.296875 36.390625 15.257812 36.527344 15.222656 C 36.597656 15.207031 36.667969 15.191406 36.738281 15.167969 C 36.800781 15.144531 36.863281 15.125 36.917969 15.089844 C 36.949219 15.066406 36.980469 15.046875 37.011719 15.027344 C 37.144531 14.945312 37.230469 14.773438 37.179688 14.617188 C 37.125 14.453125 36.992188 14.367188 36.824219 14.351562 C 36.789062 14.347656 36.75 14.34375 36.710938 14.339844 C 36.648438 14.335938 36.585938 14.347656 36.527344 14.359375 C 36.449219 14.375 36.375 14.398438 36.304688 14.421875 C 36.136719 14.480469 35.972656 14.546875 35.808594 14.613281 C 35.675781 14.671875 35.550781 14.742188 35.425781 14.808594 C 35.273438 14.894531 35.132812 14.976562 35.007812 15.101562 C 34.921875 15.1875 34.894531 15.335938 34.960938 15.441406 C 35.039062 15.554688 35.15625 15.589844 35.285156 15.570312 Z M 35.285156 15.570312 " fill-opacity="1" fill-rule="nonzero"/></g><path fill="#000000" d="M 30.058594 16.421875 C 30.140625 16.429688 30.222656 16.445312 30.304688 16.46875 C 30.402344 16.492188 30.472656 16.519531 30.546875 16.554688 C 30.628906 16.597656 30.710938 16.644531 30.785156 16.699219 C 30.792969 16.703125 30.800781 16.710938 30.808594 16.71875 C 30.808594 16.714844 30.785156 16.695312 30.804688 16.714844 C 30.820312 16.726562 30.835938 16.738281 30.851562 16.753906 C 30.890625 16.785156 30.925781 16.820312 30.960938 16.855469 C 30.992188 16.886719 31.023438 16.921875 31.050781 16.957031 C 31.023438 16.921875 31.050781 16.953125 31.0625 16.972656 C 31.074219 16.992188 31.089844 17.011719 31.101562 17.035156 C 31.128906 17.074219 31.152344 17.113281 31.171875 17.15625 C 31.183594 17.175781 31.191406 17.195312 31.199219 17.214844 C 31.203125 17.222656 31.21875 17.253906 31.203125 17.21875 C 31.183594 17.179688 31.207031 17.234375 31.210938 17.242188 C 31.242188 17.332031 31.269531 17.421875 31.285156 17.515625 C 31.289062 17.527344 31.289062 17.535156 31.292969 17.546875 C 31.300781 17.585938 31.285156 17.511719 31.285156 17.511719 C 31.289062 17.554688 31.296875 17.601562 31.304688 17.644531 C 31.304688 17.652344 31.304688 17.675781 31.3125 17.6875 C 31.3125 17.6875 31.304688 17.613281 31.304688 17.652344 C 31.308594 17.675781 31.308594 17.703125 31.3125 17.726562 C 31.320312 17.835938 31.304688 17.941406 31.304688 18.050781 C 31.300781 18.175781 31.335938 18.289062 31.355469 18.410156 C 31.386719 18.585938 31.632812 18.621094 31.746094 18.511719 C 31.851562 18.414062 31.933594 18.308594 31.976562 18.171875 C 32.011719 18.050781 32.015625 17.917969 32.007812 17.792969 C 31.992188 17.53125 31.925781 17.296875 31.800781 17.066406 C 31.585938 16.664062 31.210938 16.359375 30.777344 16.203125 C 30.546875 16.121094 30.296875 16.089844 30.054688 16.105469 C 29.851562 16.121094 29.851562 16.40625 30.058594 16.421875 Z M 30.058594 16.421875 " fill-opacity="1" fill-rule="nonzero"/></svg>