<svg xmlns="http://www.w3.org/2000/svg" xmlns:xlink="http://www.w3.org/1999/xlink" width="200" zoomAndPan="magnify" viewBox="0 0 150 74.999997" height="100" preserveAspectRatio="xMidYMid meet" version="1.0"><defs><g/><clipPath id="bf3639dd07"><path d="M 8 27 L 77 27 L 77 67 L 8 67 Z M 8 27 " clip-rule="nonzero"/></clipPath><clipPath id="cd658940f0"><path d="M 5.136719 37.105469 L 72.292969 23.640625 L 79.355469 58.871094 L 12.199219 72.335938 Z M 5.136719 37.105469 " clip-rule="nonzero"/></clipPath><clipPath id="e6db0a0e4a"><path d="M 72.773438 23.542969 L 5.617188 37.011719 L 12.679688 72.238281 L 79.835938 58.773438 Z M 72.773438 23.542969 " clip-rule="nonzero"/></clipPath><clipPath id="243f9701a3"><path d="M 72.773438 23.542969 L 5.617188 37.011719 L 12.679688 72.238281 L 79.835938 58.773438 Z M 72.773438 23.542969 " clip-rule="nonzero"/></clipPath><clipPath id="7d387d86f4"><path d="M 44 3 L 122 3 L 122 45 L 44 45 Z M 44 3 " clip-rule="nonzero"/></clipPath><clipPath id="f7b31b13b5"><path d="M 45.796875 1.652344 L 123.101562 6.785156 L 120.421875 47.117188 L 43.117188 41.984375 Z M 45.796875 1.652344 " clip-rule="nonzero"/></clipPath><clipPath id="e7e06d8332"><path d="M 45.796875 1.652344 L 123.101562 6.785156 L 120.421875 47.117188 L 43.117188 41.984375 Z M 45.796875 1.652344 " clip-rule="nonzero"/></clipPath></defs><g clip-path="url(#bf3639dd07)"><g clip-path="url(#cd658940f0)"><g clip-path="url(#e6db0a0e4a)"><g clip-path="url(#243f9701a3)"><path fill="#c40008" d="M 8.464844 50.910156 C 8.472656 50.691406 8.613281 50.515625 9.023438 50.507812 C 14.527344 50.421875 20.429688 49.914062 26.585938 48.988281 C 26.765625 48.964844 26.910156 48.996094 27.011719 49.050781 L 37.890625 31.632812 C 37.871094 31.347656 38.027344 31.046875 38.394531 30.972656 C 38.425781 30.964844 38.464844 30.957031 38.496094 30.953125 L 38.554688 30.941406 C 38.746094 30.757812 38.90625 30.589844 39.074219 30.441406 C 39.230469 30.296875 39.425781 30.246094 39.609375 30.292969 C 39.785156 30.339844 39.933594 30.464844 40.03125 30.632812 C 44.359375 29.746094 48.78125 28.910156 53.058594 28.105469 C 54.359375 27.855469 55.652344 27.617188 56.953125 27.367188 C 56.953125 27.367188 56.953125 27.367188 56.960938 27.363281 C 57.359375 27.292969 57.617188 27.542969 57.703125 27.816406 C 57.773438 28.074219 57.726562 28.394531 57.5 28.597656 C 60.148438 30.691406 63.054688 32.996094 66.65625 35.835938 C 68.070312 36.984375 69.523438 38.15625 70.929688 39.300781 C 72.789062 40.804688 74.710938 42.363281 76.628906 43.847656 C 76.859375 44.019531 76.945312 44.34375 76.859375 44.640625 C 76.78125 44.917969 76.558594 45.097656 76.292969 45.109375 C 72.753906 45.320312 69.230469 45.546875 65.6875 45.613281 C 65.265625 45.625 64.84375 45.628906 64.433594 45.636719 C 62.949219 45.707031 61.363281 45.765625 59.75 45.796875 C 59.679688 45.800781 59.617188 45.792969 59.550781 45.777344 C 59.25 45.710938 57.484375 49.253906 57.261719 49.640625 C 56.464844 51.078125 55.605469 52.484375 54.742188 53.894531 C 52.558594 57.457031 50.132812 60.851562 47.9375 64.40625 C 47.914062 64.445312 47.882812 64.492188 47.84375 64.519531 C 47.808594 64.746094 47.675781 64.917969 47.488281 65.007812 C 47.421875 65.175781 47.277344 65.289062 47.097656 65.324219 C 47.078125 65.328125 47.058594 65.332031 47.027344 65.328125 C 45.613281 65.425781 44.222656 65.441406 43.058594 65.449219 C 38.441406 65.8125 33.621094 65.960938 28.738281 65.890625 C 28.613281 65.882812 28.503906 65.851562 28.417969 65.789062 C 28.40625 65.925781 28.347656 66.050781 28.273438 66.148438 C 28.089844 66.371094 27.753906 66.492188 27.425781 66.246094 C 21.191406 61.546875 14.597656 57.3125 8.976562 51.855469 C 8.753906 51.671875 8.46875 51.230469 8.464844 50.910156 Z M 8.464844 50.910156 " fill-opacity="1" fill-rule="nonzero"/></g></g></g></g><g fill="#c40008" fill-opacity="1"><g transform="translate(70.96042, 49.228916)"><g><path d="M -8.765625 -0.230469 L -9.378906 -0.0273438 L -9.9375 0.714844 L -10.269531 1.425781 L -10.421875 1.960938 L -10.90625 2.777344 L -11.058594 3.285156 L -11.3125 3.820312 L -11.464844 4.253906 L -11.746094 4.714844 L -12.742188 7.03125 L -12.917969 7.59375 L -13.378906 8.410156 L -15.59375 13.65625 L -15.847656 14.117188 L -16.28125 15.035156 L -16.410156 15.519531 L -16.894531 16.410156 L -17.074219 17.097656 L -16.945312 17.632812 L -16.488281 17.734375 L -15.953125 17.785156 L -15.492188 17.863281 L -15.007812 17.8125 L -14.5 17.785156 L -13.53125 17.886719 L -12.96875 17.554688 L -12.535156 17.125 L -10.167969 11.515625 L -10.015625 10.980469 L -9.785156 10.550781 L -9.683594 10.089844 L -9.429688 9.632812 L -8.917969 8.203125 L -8.664062 7.746094 L -8.382812 7.796875 L -7.746094 9.171875 L -7.644531 9.65625 L -7.210938 10.523438 L -5.9375 13.835938 L -5.273438 15.1875 L -4.5625 17.125 L -4.128906 17.554688 L -3.542969 17.8125 L -2.089844 17.863281 L -1.578125 17.785156 L -0.613281 17.785156 L -0.203125 17.609375 L 0 17.097656 L -0.816406 14.933594 L -1.070312 14.550781 L -1.199219 14.066406 L -1.402344 13.554688 L -1.683594 13.171875 L -1.859375 12.640625 L -4.152344 7.492188 L -4.304688 6.980469 L -4.941406 5.65625 L -5.121094 5.121094 L -5.554688 4.253906 L -5.835938 3.796875 L -5.960938 3.285156 L -6.980469 0.867188 L -7.210938 0.484375 L -7.722656 0.0507812 L -8.28125 -0.152344 Z M -8.765625 -0.230469 "/></g></g></g><g fill="#c40008" fill-opacity="1"><g transform="translate(70.854355, 67.056977)"><g><path d="M 1.910156 -0.789062 L 2.140625 -0.28125 L 2.625 0.0273438 L 3.464844 -0.0507812 L 4.230469 0.0273438 L 7.925781 -0.0273438 L 8.433594 0.0507812 L 11.058594 -0.078125 L 11.515625 -0.152344 L 12.945312 -0.5625 L 13.402344 -0.789062 L 14.421875 -1.605469 L 15.109375 -2.546875 L 15.363281 -3.058594 L 15.519531 -3.542969 L 15.722656 -4.027344 L 15.773438 -6.089844 L 15.492188 -7.007812 L 15.035156 -8.050781 L 14.703125 -8.433594 L 14.296875 -8.789062 L 14.039062 -9.378906 L 14.21875 -9.859375 L 14.703125 -10.855469 L 15.007812 -11.773438 L 15.035156 -12.640625 L 14.984375 -13.429688 L 14.777344 -14.347656 L 14.601562 -14.882812 L 13.761719 -16.054688 L 13.378906 -16.410156 L 12.996094 -16.664062 L 12.640625 -16.945312 L 12.207031 -17.199219 L 11.722656 -17.429688 L 11.289062 -17.582031 L 10.292969 -17.8125 L 7.667969 -17.886719 L 7.210938 -17.785156 L 6.21875 -17.914062 L 5.757812 -17.8125 L 2.675781 -17.863281 L 2.113281 -17.609375 L 1.859375 -17.074219 L 1.859375 -16.511719 L 1.910156 -16.054688 L 1.886719 -15.519531 L 1.910156 -15.058594 L 1.859375 -13.554688 L 1.9375 -12.484375 L 1.835938 -7.617188 L 1.910156 -6.855469 L 1.859375 -1.273438 Z M 7.132812 -10.878906 L 6.601562 -11.1875 L 6.320312 -11.898438 L 6.292969 -12.765625 L 6.601562 -13.503906 L 7.082031 -13.8125 L 9.707031 -13.632812 L 10.117188 -13.429688 L 10.320312 -13.019531 L 10.394531 -12.257812 L 10.21875 -11.515625 L 9.835938 -11.210938 L 9.097656 -10.957031 Z M 7.058594 -4.078125 L 6.601562 -4.253906 L 6.269531 -4.765625 L 6.34375 -6.292969 L 6.574219 -6.726562 L 7.007812 -7.058594 L 7.492188 -6.980469 L 8.027344 -7.03125 L 10.421875 -6.804688 L 10.855469 -6.625 L 11.109375 -6.167969 L 11.261719 -5.53125 L 11.136719 -4.789062 L 10.855469 -4.433594 L 10.421875 -4.152344 L 9.019531 -4.027344 Z M 7.058594 -4.078125 "/></g></g></g><g fill="#c40008" fill-opacity="1"><g transform="translate(86.396981, 67.056977)"><g><path d="M 8.535156 0.101562 L 9.554688 0.0507812 L 10.015625 -0.203125 L 10.269531 -0.6875 L 10.269531 -3.210938 L 9.964844 -3.695312 L 9.402344 -3.976562 L 8.867188 -3.976562 L 8.257812 -4.179688 L 7.949219 -4.765625 L 8.027344 -5.25 L 8 -8.050781 L 8.050781 -8.613281 L 7.949219 -10.449219 L 8.050781 -13.019531 L 8.230469 -13.605469 L 8.789062 -13.835938 L 9.300781 -13.914062 L 9.835938 -14.117188 L 10.089844 -14.523438 L 10.117188 -17.046875 L 9.808594 -17.53125 L 9.351562 -17.8125 L 6.269531 -17.8125 L 5.808594 -17.863281 L 5.300781 -17.761719 L 3.210938 -17.761719 L 2.726562 -17.835938 L 2.140625 -17.835938 L 1.628906 -17.582031 L 1.375 -16.96875 L 1.453125 -15.085938 L 1.402344 -14.601562 L 1.683594 -14.089844 L 2.242188 -13.8125 L 2.753906 -13.8125 L 3.234375 -13.503906 L 3.464844 -12.816406 L 3.542969 -4.996094 L 3.261719 -4.230469 L 1.578125 -3.71875 L 1.300781 -3.261719 L 1.222656 -0.917969 L 1.476562 -0.230469 L 1.988281 0 L 2.472656 0 L 2.957031 -0.0507812 L 3.695312 0.0507812 L 4.484375 0.0273438 L 4.996094 -0.0273438 L 6.011719 0.078125 L 6.777344 -0.0273438 L 8.027344 -0.0273438 Z M 8.535156 0.101562 "/></g></g></g><g fill="#c40008" fill-opacity="1"><g transform="translate(115.023781, 49.228916)"><g><path d="M -8.765625 -0.230469 L -9.378906 -0.0273438 L -9.9375 0.714844 L -10.269531 1.425781 L -10.421875 1.960938 L -10.90625 2.777344 L -11.058594 3.285156 L -11.3125 3.820312 L -11.464844 4.253906 L -11.746094 4.714844 L -12.742188 7.03125 L -12.917969 7.59375 L -13.378906 8.410156 L -15.59375 13.65625 L -15.847656 14.117188 L -16.28125 15.035156 L -16.410156 15.519531 L -16.894531 16.410156 L -17.074219 17.097656 L -16.945312 17.632812 L -16.488281 17.734375 L -15.953125 17.785156 L -15.492188 17.863281 L -15.007812 17.8125 L -14.5 17.785156 L -13.53125 17.886719 L -12.96875 17.554688 L -12.535156 17.125 L -10.167969 11.515625 L -10.015625 10.980469 L -9.785156 10.550781 L -9.683594 10.089844 L -9.429688 9.632812 L -8.917969 8.203125 L -8.664062 7.746094 L -8.382812 7.796875 L -7.746094 9.171875 L -7.644531 9.65625 L -7.210938 10.523438 L -5.9375 13.835938 L -5.273438 15.1875 L -4.5625 17.125 L -4.128906 17.554688 L -3.542969 17.8125 L -2.089844 17.863281 L -1.578125 17.785156 L -0.613281 17.785156 L -0.203125 17.609375 L 0 17.097656 L -0.816406 14.933594 L -1.070312 14.550781 L -1.199219 14.066406 L -1.402344 13.554688 L -1.683594 13.171875 L -1.859375 12.640625 L -4.152344 7.492188 L -4.304688 6.980469 L -4.941406 5.65625 L -5.121094 5.121094 L -5.554688 4.253906 L -5.835938 3.796875 L -5.960938 3.285156 L -6.980469 0.867188 L -7.210938 0.484375 L -7.722656 0.0507812 L -8.28125 -0.152344 Z M -8.765625 -0.230469 "/></g></g></g><g fill="#000000" fill-opacity="1"><g transform="translate(111.604199, 66.677968)"><g><path d="M 8.246094 -10.820312 L 8.628906 -9.917969 L 9.359375 -9.53125 L 12.753906 -9.445312 L 13.65625 -9.574219 L 14.46875 -9.617188 L 15.328125 -9.960938 L 15.886719 -10.820312 L 16.617188 -12.410156 L 17.046875 -13.140625 L 17.648438 -13.699219 L 18.808594 -14.984375 L 19.324219 -15.757812 L 19.796875 -16.316406 L 21.210938 -18.59375 L 21.640625 -20.351562 L 21.597656 -22.84375 L 21.46875 -23.703125 L 20.953125 -25.421875 L 20.480469 -26.234375 L 19.453125 -27.566406 L 18.722656 -28.253906 L 18.035156 -28.683594 L 17.304688 -29.027344 L 16.53125 -29.457031 L 14.941406 -30.058594 L 14 -30.144531 L 13.183594 -30.402344 L 11.851562 -30.53125 L 9.617188 -30.273438 L 8.84375 -30.015625 L 7.988281 -29.886719 L 7.128906 -29.457031 L 6.398438 -29.027344 L 5.625 -28.726562 L 5.066406 -28.167969 L 4.421875 -27.609375 L 3.777344 -26.921875 L 2.363281 -23.703125 L 2.277344 -22.84375 L 2.0625 -21.941406 L 2.40625 -21.125 L 3.21875 -20.695312 L 4.035156 -20.78125 L 5.238281 -20.695312 L 6.570312 -20.78125 L 7.300781 -20.652344 L 8.203125 -21.082031 L 9.144531 -22.628906 L 9.746094 -23.101562 L 10.390625 -23.488281 L 11.59375 -23.574219 L 12.96875 -23.402344 L 13.65625 -23.101562 L 14.171875 -22.328125 L 14.253906 -21.125 L 14.253906 -19.882812 L 13.957031 -19.109375 L 9.53125 -13.914062 L 9.058594 -13.140625 L 8.671875 -12.324219 Z M 7.6875 -4.121094 L 7.730469 -2.578125 L 7.859375 -2.105469 L 8.074219 -1.632812 L 8.332031 -1.289062 L 8.800781 -0.902344 L 9.015625 -0.558594 L 10.003906 0 L 10.390625 0.128906 L 10.949219 0.257812 L 12.453125 0.300781 L 12.925781 0.171875 L 13.355469 0.171875 L 13.828125 0 L 14.382812 -0.34375 L 14.726562 -0.515625 L 15.113281 -0.859375 L 15.5 -1.289062 L 15.800781 -1.71875 L 16.1875 -3.046875 L 16.230469 -4.035156 L 16.058594 -4.550781 L 15.972656 -5.023438 L 15.714844 -5.582031 L 15.414062 -6.011719 L 15.113281 -6.269531 L 14.8125 -6.699219 L 14.339844 -6.957031 L 13.957031 -7.214844 L 13.441406 -7.300781 L 12.882812 -7.515625 L 12.410156 -7.558594 L 11.421875 -7.515625 L 10.476562 -7.34375 L 9.917969 -7.171875 L 9.574219 -7 L 8.714844 -6.269531 L 8.03125 -5.539062 L 7.902344 -5.109375 L 7.6875 -4.636719 Z M 7.6875 -4.121094 "/></g></g></g><g clip-path="url(#7d387d86f4)"><g clip-path="url(#f7b31b13b5)"><g clip-path="url(#e7e06d8332)"><path fill="#000000" d="M 121.976562 22.707031 C 121.933594 22.464844 121.75 22.292969 121.289062 22.339844 C 115.105469 23.054688 108.414062 23.355469 101.371094 23.234375 C 101.164062 23.230469 101.011719 23.289062 100.902344 23.363281 L 86.117188 5.542969 C 86.089844 5.21875 85.871094 4.90625 85.449219 4.878906 C 85.414062 4.875 85.367188 4.875 85.335938 4.871094 L 85.265625 4.867188 C 85.027344 4.691406 84.820312 4.527344 84.609375 4.386719 C 84.414062 4.246094 84.183594 4.222656 83.984375 4.300781 C 83.796875 4.378906 83.648438 4.542969 83.566406 4.742188 C 78.578125 4.386719 73.496094 4.109375 68.582031 3.839844 C 67.085938 3.75 65.601562 3.675781 64.105469 3.585938 C 64.105469 3.585938 64.105469 3.585938 64.09375 3.585938 C 63.636719 3.566406 63.386719 3.882812 63.332031 4.203125 C 63.289062 4.496094 63.390625 4.847656 63.675781 5.039062 C 61.019531 7.765625 58.101562 10.765625 54.484375 14.460938 C 53.066406 15.949219 51.613281 17.472656 50.207031 18.949219 C 48.347656 20.90625 46.425781 22.921875 44.496094 24.859375 C 44.261719 25.085938 44.214844 25.460938 44.355469 25.78125 C 44.484375 26.078125 44.757812 26.246094 45.058594 26.21875 C 49.058594 25.933594 53.042969 25.667969 57.027344 25.222656 C 57.5 25.175781 57.972656 25.113281 58.4375 25.0625 C 60.109375 24.921875 61.894531 24.753906 63.710938 24.554688 C 63.789062 24.546875 63.859375 24.527344 63.929688 24.5 C 64.261719 24.382812 66.765625 28.074219 67.074219 28.472656 C 68.179688 29.957031 69.355469 31.402344 70.53125 32.84375 C 73.511719 36.496094 76.734375 39.925781 79.726562 43.566406 C 79.757812 43.605469 79.800781 43.652344 79.84375 43.679688 C 79.921875 43.925781 80.09375 44.097656 80.316406 44.167969 C 80.417969 44.347656 80.597656 44.453125 80.800781 44.464844 C 80.824219 44.46875 80.847656 44.46875 80.882812 44.460938 C 82.484375 44.359375 84.042969 44.175781 85.347656 44.011719 C 90.585938 43.738281 96.007812 43.191406 101.472656 42.394531 C 101.613281 42.371094 101.730469 42.320312 101.816406 42.234375 C 101.851562 42.386719 101.9375 42.519531 102.03125 42.617188 C 102.269531 42.839844 102.664062 42.921875 102.996094 42.601562 C 109.289062 36.441406 116.050781 30.75 121.546875 23.839844 C 121.765625 23.601562 122.019531 23.066406 121.976562 22.707031 Z M 121.976562 22.707031 " fill-opacity="1" fill-rule="nonzero"/></g></g></g><g fill="#ffffff" fill-opacity="1"><g transform="translate(63.663989, 30.394198)"><g><path d="M 8.765625 0.230469 L 9.375 0.0273438 L 9.9375 -0.714844 L 10.265625 -1.425781 L 10.421875 -1.960938 L 10.902344 -2.777344 L 11.058594 -3.285156 L 11.3125 -3.820312 L 11.464844 -4.253906 L 11.746094 -4.714844 L 12.738281 -7.03125 L 12.917969 -7.59375 L 13.375 -8.40625 L 15.59375 -13.65625 L 15.847656 -14.113281 L 16.28125 -15.03125 L 16.40625 -15.515625 L 16.890625 -16.40625 L 17.070312 -17.09375 L 16.941406 -17.628906 L 16.484375 -17.730469 L 15.949219 -17.78125 L 15.488281 -17.859375 L 15.007812 -17.808594 L 14.496094 -17.78125 L 13.527344 -17.886719 L 12.96875 -17.554688 L 12.535156 -17.121094 L 10.164062 -11.515625 L 10.011719 -10.980469 L 9.785156 -10.546875 L 9.679688 -10.089844 L 9.425781 -9.628906 L 8.917969 -8.203125 L 8.664062 -7.746094 L 8.382812 -7.796875 L 7.746094 -9.171875 L 7.644531 -9.65625 L 7.210938 -10.523438 L 5.9375 -13.835938 L 5.273438 -15.183594 L 4.558594 -17.121094 L 4.128906 -17.554688 L 3.542969 -17.808594 L 2.089844 -17.859375 L 1.578125 -17.78125 L 0.613281 -17.78125 L 0.203125 -17.605469 L 0 -17.09375 L 0.816406 -14.929688 L 1.070312 -14.546875 L 1.199219 -14.0625 L 1.402344 -13.554688 L 1.679688 -13.171875 L 1.859375 -12.636719 L 4.152344 -7.492188 L 4.304688 -6.980469 L 4.941406 -5.65625 L 5.121094 -5.121094 L 5.554688 -4.253906 L 5.835938 -3.796875 L 5.960938 -3.285156 L 6.980469 -0.867188 L 7.210938 -0.484375 L 7.71875 -0.0507812 L 8.28125 0.152344 Z M 8.765625 0.230469 "/></g></g></g><g fill="#ffffff" fill-opacity="1"><g transform="translate(77.362585, 34.660973)"><g><path d="M 8.867188 0.203125 L 10.140625 0.304688 L 11.921875 0.179688 L 13.425781 -0.128906 L 13.886719 -0.382812 L 14.421875 -0.558594 L 14.851562 -0.765625 L 16.101562 -1.65625 L 16.816406 -2.371094 L 17.402344 -3.132812 L 17.9375 -4.050781 L 18.597656 -5.988281 L 18.445312 -6.445312 L 17.9375 -6.777344 L 16.507812 -6.675781 L 16 -6.75 L 15.488281 -6.726562 L 14.980469 -6.75 L 14.394531 -6.445312 L 13.988281 -6.039062 L 13.730469 -5.554688 L 13.144531 -4.890625 L 12.738281 -4.535156 L 12.355469 -4.382812 L 11.464844 -3.898438 L 10.113281 -3.820312 L 9.375 -3.898438 L 8.457031 -4.230469 L 7.566406 -4.6875 L 6.828125 -5.351562 L 6.265625 -6.242188 L 6.089844 -6.75 L 5.910156 -7.109375 L 5.785156 -7.566406 L 5.707031 -8.128906 L 5.707031 -9.679688 L 5.886719 -10.699219 L 6.265625 -11.617188 L 6.523438 -12.101562 L 7.132812 -12.816406 L 7.746094 -13.300781 L 8.433594 -13.679688 L 10.140625 -13.910156 L 11.234375 -13.859375 L 12.023438 -13.628906 L 12.484375 -13.453125 L 12.839844 -13.171875 L 13.578125 -12.433594 L 13.859375 -12.050781 L 14.34375 -11.566406 L 14.929688 -11.285156 L 15.386719 -11.335938 L 15.921875 -11.3125 L 16.433594 -11.335938 L 17.144531 -11.261719 L 17.910156 -11.335938 L 18.34375 -11.542969 L 18.523438 -12.050781 L 18.367188 -12.609375 L 18.191406 -13.070312 L 18.039062 -13.605469 L 17.757812 -14.011719 L 17.527344 -14.421875 L 17.171875 -14.851562 L 16.890625 -15.335938 L 16.179688 -16.074219 L 14.445312 -17.171875 L 12 -17.988281 L 11.515625 -18.011719 L 11.007812 -18.089844 L 9.425781 -18.113281 L 6.957031 -17.628906 L 5.070312 -16.738281 L 4.332031 -16.179688 L 3.234375 -15.183594 L 2.546875 -14.316406 L 2.0625 -13.578125 L 1.425781 -12.152344 L 1.171875 -11.109375 L 0.917969 -8.917969 L 1.070312 -7.058594 L 1.425781 -5.605469 L 2.523438 -3.386719 L 3.566406 -2.265625 L 4.714844 -1.273438 L 5.808594 -0.6875 L 6.957031 -0.203125 L 7.414062 -0.101562 L 7.921875 0.078125 L 8.382812 0.179688 Z M 8.867188 0.203125 "/></g></g></g></svg>